<?xml version="1.0" encoding="utf-8"?>
<!-- Generator: Adobe Illustrator 23.0.0, SVG Export Plug-In . SVG Version: 6.00 Build 0)  -->
<svg version="1.1" id="Capa_1" xmlns="http://www.w3.org/2000/svg" xmlns:xlink="http://www.w3.org/1999/xlink" x="0px" y="0px"
	 viewBox="0 0 118 117" style="enable-background:new 0 0 118 117;" xml:space="preserve">
<style type="text/css">
	.st0{fill:#60A6E6;}
	.st1{fill:#62A3DB;}
</style>
<g>
	<g>
		<g>
			<g>
				<path class="st0" d="M98.69,35.98L75.3,11.95c-0.22-0.23-0.52-0.35-0.82-0.35H28.01c-3.87,0-7.01,3.15-7.01,7.01v82.77
					c0,3.87,3.15,7.01,7.01,7.01h63.97c3.87,0,7.01-3.14,7.01-7V36.76c0-0.07-0.02-0.15-0.05-0.24c-0.03-0.09-0.03-0.13-0.04-0.16
					c-0.03-0.09-0.08-0.15-0.13-0.23C98.73,36.05,98.71,36.02,98.69,35.98z M75.63,15.63L95.07,35.6H75.63V15.63z M96.67,101.38
					c0,2.59-2.1,4.7-4.68,4.7H28.01c-2.58,0-4.68-2.11-4.68-4.7V18.62c0-2.59,2.1-4.69,4.68-4.69H73.3v22.84
					c0,0.64,0.52,1.16,1.17,1.16h22.2V101.38z"/>
			</g>
		</g>
	</g>
	<g>
		<g>
			<g>
				<path class="st1" d="M71.4,55.96v-0.11l-0.23-6.16c-0.01-0.2-0.09-0.38-0.23-0.51c-0.14-0.13-0.33-0.21-0.52-0.19
					c-0.2,0.01-0.38,0.09-0.51,0.23c-0.13,0.14-0.2,0.33-0.19,0.52l0.16,4.34l-0.37-0.3c-2.52-2.06-5.59-3.24-8.89-3.4
					c-0.26-0.01-0.53-0.02-0.79-0.02c-3.8,0-7.41,1.39-10.25,3.96c-4.17,3.78-5.94,9.52-4.61,14.99c0.08,0.33,0.37,0.56,0.71,0.56
					c0.06,0,0.12-0.01,0.17-0.02c0.19-0.05,0.35-0.17,0.46-0.33c0.1-0.17,0.13-0.36,0.09-0.55c-1.2-4.96,0.4-10.15,4.17-13.56
					c5.03-4.55,12.79-4.76,18.04-0.48l0.44,0.36l-4.63,0.18c-0.2,0.01-0.38,0.09-0.51,0.23c-0.13,0.14-0.2,0.33-0.19,0.53
					c0.02,0.39,0.34,0.7,0.73,0.7l6.27-0.23C71.09,56.68,71.4,56.36,71.4,55.96z"/>
				<path class="st1" d="M48.47,75.94l0.56,6.22c0.03,0.37,0.35,0.67,0.72,0.67l0.06-0.01c0.4-0.04,0.7-0.39,0.66-0.8l-0.38-4.29
					l0.39,0.32c2.52,2.04,5.59,3.21,8.86,3.38c0.26,0.01,0.52,0.02,0.78,0.02c3.79,0,7.43-1.41,10.26-3.96
					c4.17-3.77,5.93-9.52,4.61-14.98c-0.05-0.19-0.17-0.35-0.33-0.45c-0.17-0.1-0.36-0.13-0.55-0.09c-0.19,0.05-0.35,0.17-0.45,0.33
					c-0.1,0.17-0.13,0.36-0.09,0.55c1.2,4.95-0.4,10.14-4.17,13.56c-2.55,2.31-5.85,3.58-9.29,3.58c-3.24,0-6.39-1.13-8.86-3.19
					l-0.4-0.33l4.63-0.42c0.4-0.04,0.7-0.4,0.66-0.8c-0.02-0.2-0.11-0.37-0.26-0.5c-0.13-0.11-0.29-0.17-0.47-0.17
					c-0.02,0-0.05,0-0.07,0l-6.22,0.56C48.73,75.18,48.43,75.54,48.47,75.94z"/>
			</g>
		</g>
	</g>
</g>
</svg>
