<?xml version="1.0" encoding="utf-8"?>
<!-- Generator: Adobe Illustrator 23.0.0, SVG Export Plug-In . SVG Version: 6.00 Build 0)  -->
<svg version="1.1" id="Capa_1" xmlns="http://www.w3.org/2000/svg" xmlns:xlink="http://www.w3.org/1999/xlink" x="0px" y="0px"
	 viewBox="0 0 111 106" style="enable-background:new 0 0 111 106;" xml:space="preserve">
<style type="text/css">
	.st0{fill:#FFFFFF;}
</style>
<path class="st0" d="M2.72,67.08c-0.33,0-0.66-0.08-0.97-0.25C0.81,66.29,0.47,65.09,1,64.14l8.29-14.72
	c0.31-0.55,0.87-0.92,1.5-0.99c0.63-0.07,1.26,0.17,1.68,0.64l11.21,12.41c0.73,0.81,0.67,2.06-0.14,2.79
	c-0.81,0.73-2.06,0.67-2.79-0.14l-9.38-10.38L4.44,66.08C4.08,66.72,3.41,67.08,2.72,67.08"/>
<path class="st0" d="M59.91,103.19c-16.26,0-32.22-7.88-41.85-22.42c-6.32-9.55-9.52-20.35-8.99-30.43
	c0.06-1.09,0.99-1.92,2.07-1.87c1.09,0.06,1.92,0.99,1.87,2.07c-0.48,9.24,2.48,19.2,8.34,28.05
	c14.06,21.22,42.76,27.05,63.98,12.99c10.28-6.81,17.29-17.21,19.75-29.3c2.45-12.08,0.05-24.4-6.76-34.68
	C91.51,17.32,81.1,10.31,69.02,7.86C56.93,5.4,44.62,7.8,34.34,14.61c-7.42,4.91-13.22,11.8-16.77,19.91c-0.44,1-1.6,1.45-2.6,1.01
	c-1-0.44-1.45-1.6-1.02-2.6c3.86-8.8,10.16-16.28,18.21-21.61c23.03-15.26,54.19-8.93,69.45,14.1c7.39,11.16,10,24.53,7.33,37.64
	c-2.66,13.12-10.27,24.41-21.43,31.8C79.01,100.5,69.41,103.19,59.91,103.19"/>
</svg>
