<?xml version="1.0" encoding="utf-8"?>
<!-- Generator: Adobe Illustrator 23.0.0, SVG Export Plug-In . SVG Version: 6.00 Build 0)  -->
<svg version="1.1" id="Capa_1" xmlns="http://www.w3.org/2000/svg" xmlns:xlink="http://www.w3.org/1999/xlink" x="0px" y="0px"
	 viewBox="0 0 90.38 115.15" style="enable-background:new 0 0 90.38 115.15;" xml:space="preserve">
<style type="text/css">
	.st0{fill:#60A3E3;}
	.st1{fill:#FFFFFF;}
	.st2{fill:none;}
</style>
<g>
	<path class="st0" d="M385.25,77.28v9.02h9.02c1.26,0,2.28,1.02,2.28,2.28v0c0,1.26-1.02,2.28-2.28,2.28h-9.02v9.02
		c0,1.26-1.02,2.28-2.28,2.28l0,0c-1.26,0-2.28-1.02-2.28-2.28v-9.02h-9.02c-1.26,0-2.28-1.02-2.28-2.28v0
		c0-1.26,1.02-2.28,2.28-2.28h9.02v-9.02c0-1.26,1.02-2.28,2.28-2.28l0,0C384.22,75,385.25,76.02,385.25,77.28z"/>
</g>
<g>
	<g>
		<path class="st1" d="M46.12,38.48c-15.13,0-27.43,12.3-27.43,27.43c0,15.12,12.3,27.43,27.43,27.43s27.43-12.3,27.43-27.43
			C73.55,50.78,61.24,38.48,46.12,38.48z M70.95,65.91c0,13.69-11.14,24.84-24.84,24.84S21.28,79.6,21.28,65.91
			c0-13.7,11.14-24.84,24.84-24.84S70.95,52.21,70.95,65.91z"/>
		<path class="st1" d="M84.18,101.58c0,2.76-2.24,5-4.98,5H11.18c-2.75,0-4.98-2.24-4.98-5V34.11h23.6c0.69,0,1.25-0.55,1.25-1.23
			V8.59H79.2c2.75,0,4.98,2.23,4.98,4.98v81.54h2.48V13.57c0-4.12-3.34-7.46-7.46-7.46H29.8c-0.33,0-0.64,0.13-0.88,0.37L4.06,32.04
			c-0.02,0.04-0.04,0.07-0.1,0.15c-0.06,0.08-0.11,0.15-0.14,0.24c0,0.03-0.01,0.07-0.04,0.17c-0.03,0.1-0.05,0.18-0.05,0.26v68.73
			c0,4.11,3.33,7.44,7.44,7.44H79.2c4.12,0,7.46-3.34,7.46-7.46V92.9h-2.48V101.58z M28.57,10.4v21.23H7.9l10.34-10.62L28.57,10.4z"
			/>
	</g>
	<g>
		<path class="st1" d="M48.54,55.73v7.24h7.24c1.01,0,1.83,0.82,1.83,1.83l0,0c0,1.01-0.82,1.83-1.83,1.83h-7.24v7.24
			c0,1.01-0.82,1.83-1.83,1.83h0c-1.01,0-1.83-0.82-1.83-1.83v-7.24h-7.24c-1.01,0-1.83-0.82-1.83-1.83l0,0
			c0-1.01,0.82-1.83,1.83-1.83h7.24v-7.24c0-1.01,0.82-1.83,1.83-1.83h0C47.72,53.9,48.54,54.72,48.54,55.73z"/>
	</g>
</g>
<g>
	<path class="st0" d="M385.25,77.28v9.02h9.02c1.26,0,2.28,1.02,2.28,2.28v0c0,1.26-1.02,2.28-2.28,2.28h-9.02v9.02
		c0,1.26-1.02,2.28-2.28,2.28l0,0c-1.26,0-2.28-1.02-2.28-2.28v-9.02h-9.02c-1.26,0-2.28-1.02-2.28-2.28v0
		c0-1.26,1.02-2.28,2.28-2.28h9.02v-9.02c0-1.26,1.02-2.28,2.28-2.28l0,0C384.22,75,385.25,76.02,385.25,77.28z"/>
</g>
<g>
	<path class="st0" d="M385.25,77.28v9.02h9.02c1.26,0,2.28,1.02,2.28,2.28v0c0,1.26-1.02,2.28-2.28,2.28h-9.02v9.02
		c0,1.26-1.02,2.28-2.28,2.28l0,0c-1.26,0-2.28-1.02-2.28-2.28v-9.02h-9.02c-1.26,0-2.28-1.02-2.28-2.28v0
		c0-1.26,1.02-2.28,2.28-2.28h9.02v-9.02c0-1.26,1.02-2.28,2.28-2.28l0,0C384.22,75,385.25,76.02,385.25,77.28z"/>
</g>
<g>
	<path class="st0" d="M385.25,77.28v9.02h9.02c1.26,0,2.28,1.02,2.28,2.28v0c0,1.26-1.02,2.28-2.28,2.28h-9.02v9.02
		c0,1.26-1.02,2.28-2.28,2.28l0,0c-1.26,0-2.28-1.02-2.28-2.28v-9.02h-9.02c-1.26,0-2.28-1.02-2.28-2.28v0
		c0-1.26,1.02-2.28,2.28-2.28h9.02v-9.02c0-1.26,1.02-2.28,2.28-2.28l0,0C384.22,75,385.25,76.02,385.25,77.28z"/>
</g>
<g>
	<path class="st0" d="M385.25,77.28v9.02h9.02c1.26,0,2.28,1.02,2.28,2.28v0c0,1.26-1.02,2.28-2.28,2.28h-9.02v9.02
		c0,1.26-1.02,2.28-2.28,2.28l0,0c-1.26,0-2.28-1.02-2.28-2.28v-9.02h-9.02c-1.26,0-2.28-1.02-2.28-2.28v0
		c0-1.26,1.02-2.28,2.28-2.28h9.02v-9.02c0-1.26,1.02-2.28,2.28-2.28l0,0C384.22,75,385.25,76.02,385.25,77.28z"/>
</g>
<path class="st2" d="M345.4,39.18c11.11,0,20.15-9.03,20.15-20.13S356.51-1.08,345.4-1.08c-11.1,0-20.13,9.03-20.13,20.13
	S334.3,39.18,345.4,39.18z"/>
<path class="st2" d="M345.4,49.81c-21.3,0-38.62,16.08-38.62,35.85c0,4.99,1.08,9.79,3.21,14.3c11.62,1.01,23.53,1.53,35.42,1.53
	c6.56,0,13.12-0.17,19.64-0.48C362.5,97.48,361,93.17,361,88.5c0-10.54,7.6-19.3,17.61-21.13C371.87,56.86,359.51,49.81,345.4,49.81
	z"/>
<path class="st0" d="M345.4,42.18c12.78,0,23.15-10.36,23.15-23.13c0-12.78-10.36-23.13-23.15-23.13
	c-12.77,0-23.13,10.35-23.13,23.13C322.27,31.82,332.63,42.18,345.4,42.18z M345.4-1.08c11.11,0,20.15,9.03,20.15,20.13
	s-9.04,20.13-20.15,20.13c-11.1,0-20.13-9.03-20.13-20.13S334.3-1.08,345.4-1.08z"/>
<path class="st0" d="M365.03,101.01c-6.52,0.31-13.08,0.48-19.64,0.48c-11.89,0-23.79-0.51-35.42-1.53
	c-2.13-4.51-3.21-9.31-3.21-14.3c0-19.77,17.33-35.85,38.62-35.85c14.11,0,26.47,7.06,33.22,17.56c1.08-0.2,2.2-0.31,3.33-0.34
	c-7.07-12.05-20.78-20.22-36.55-20.22c-22.98,0-41.62,17.39-41.62,38.85c0,6.16,1.54,11.97,4.27,17.14
	c12.05,1.1,24.55,1.69,37.35,1.69c7.49,0,14.85-0.22,22.09-0.61C366.59,103,365.77,102.03,365.03,101.01z"/>
<g>
	<path class="st0" d="M385.25,77.28v9.02h9.02c1.26,0,2.28,1.02,2.28,2.28v0c0,1.26-1.02,2.28-2.28,2.28h-9.02v9.02
		c0,1.26-1.02,2.28-2.28,2.28l0,0c-1.26,0-2.28-1.02-2.28-2.28v-9.02h-9.02c-1.26,0-2.28-1.02-2.28-2.28v0
		c0-1.26,1.02-2.28,2.28-2.28h9.02v-9.02c0-1.26,1.02-2.28,2.28-2.28l0,0C384.22,75,385.25,76.02,385.25,77.28z"/>
</g>
<g>
	<path class="st0" d="M382.5,112c-12.96,0-23.5-10.54-23.5-23.5S369.54,65,382.5,65S406,75.54,406,88.5S395.46,112,382.5,112z
		 M382.5,69c-10.75,0-19.5,8.75-19.5,19.5s8.75,19.5,19.5,19.5S402,99.25,402,88.5S393.25,69,382.5,69z"/>
</g>
</svg>
