<?xml version="1.0" encoding="utf-8"?>
<!-- Generator: Adobe Illustrator 23.0.0, SVG Export Plug-In . SVG Version: 6.00 Build 0)  -->
<svg version="1.1" id="Capa_1" xmlns="http://www.w3.org/2000/svg" xmlns:xlink="http://www.w3.org/1999/xlink" x="0px" y="0px"
	 viewBox="0 0 111.32 124.68" style="enable-background:new 0 0 111.32 124.68;" xml:space="preserve">
<style type="text/css">
	.st0{fill:#FFFFFF;}
</style>
<g>
	<path class="st0" d="M54.98,41.72c-15.13,0-27.43,12.3-27.43,27.43c0,15.12,12.3,27.43,27.43,27.43s27.43-12.3,27.43-27.43
		C82.41,54.02,70.11,41.72,54.98,41.72z M79.82,69.15c0,13.69-11.14,24.84-24.84,24.84S30.15,82.84,30.15,69.15
		c0-13.7,11.14-24.84,24.84-24.84S79.82,55.45,79.82,69.15z"/>
	<path class="st0" d="M93.05,104.82c0,2.76-2.24,5-4.98,5H20.05c-2.75,0-4.98-2.24-4.98-5V37.35h23.6c0.69,0,1.25-0.55,1.25-1.23
		V11.83h48.15c2.75,0,4.98,2.23,4.98,4.98v81.54h2.48V16.82c0-4.12-3.34-7.46-7.46-7.46H38.67c-0.33,0-0.64,0.13-0.88,0.37
		L12.92,35.28c-0.02,0.04-0.04,0.07-0.1,0.15c-0.06,0.08-0.11,0.15-0.14,0.24c0,0.03-0.01,0.07-0.04,0.17
		c-0.03,0.1-0.05,0.18-0.05,0.26v68.73c0,4.11,3.33,7.44,7.44,7.44h68.03c4.12,0,7.46-3.34,7.46-7.46v-8.68h-2.48V104.82z
		 M37.44,13.64v21.23H16.77L27.1,24.26L37.44,13.64z"/>
</g>
<g>
	<path class="st0" d="M55.41,58.97v7.24h7.24c1.01,0,1.83,0.82,1.83,1.83v0c0,1.01-0.82,1.83-1.83,1.83h-7.24v7.24
		c0,1.01-0.82,1.83-1.83,1.83h0c-1.01,0-1.83-0.82-1.83-1.83v-7.24H44.5c-1.01,0-1.83-0.82-1.83-1.83v0c0-1.01,0.82-1.83,1.83-1.83
		h7.24v-7.24c0-1.01,0.82-1.83,1.83-1.83h0C54.59,57.14,55.41,57.96,55.41,58.97z"/>
</g>
</svg>
