<?xml version="1.0" encoding="utf-8"?>
<!-- Generator: Adobe Illustrator 23.0.0, SVG Export Plug-In . SVG Version: 6.00 Build 0)  -->
<svg version="1.1" id="Capa_1" xmlns="http://www.w3.org/2000/svg" xmlns:xlink="http://www.w3.org/1999/xlink" x="0px" y="0px"
	 viewBox="0 0 89.11 109.79" style="enable-background:new 0 0 89.11 109.79;" xml:space="preserve">
<style type="text/css">
	.st0{fill:#FFFFFF;}
</style>
<g>
	<g>
		<path class="st0" d="M46.42,35.62c-15.13,0-27.43,12.3-27.43,27.43c0,15.12,12.3,27.43,27.43,27.43s27.43-12.3,27.43-27.43
			C73.85,47.92,61.55,35.62,46.42,35.62z M71.26,63.05c0,13.69-11.14,24.84-24.84,24.84S21.59,76.74,21.59,63.05
			c0-13.7,11.14-24.84,24.84-24.84S71.26,49.35,71.26,63.05z"/>
		<path class="st0" d="M84.49,98.71c0,2.76-2.24,5-4.98,5H11.49c-2.75,0-4.98-2.24-4.98-5V31.25h23.6c0.69,0,1.25-0.55,1.25-1.23
			V5.73H79.5c2.75,0,4.98,2.23,4.98,4.98v81.54h2.48V10.71c0-4.12-3.34-7.46-7.46-7.46H30.11c-0.33,0-0.64,0.13-0.88,0.37
			L4.36,29.18c-0.02,0.04-0.04,0.07-0.1,0.15c-0.06,0.08-0.11,0.15-0.14,0.24c0,0.03-0.01,0.07-0.04,0.17
			c-0.03,0.1-0.05,0.18-0.05,0.26v68.73c0,4.11,3.33,7.44,7.44,7.44H79.5c4.12,0,7.46-3.34,7.46-7.46v-8.68h-2.48V98.71z
			 M28.88,7.54v21.23H8.21l10.34-10.62L28.88,7.54z"/>
	</g>
	<g>
		<path class="st0" d="M48.85,52.87v7.24h7.24c1.01,0,1.83,0.82,1.83,1.83v0c0,1.01-0.82,1.83-1.83,1.83h-7.24v7.24
			c0,1.01-0.82,1.83-1.83,1.83l0,0c-1.01,0-1.83-0.82-1.83-1.83v-7.24h-7.24c-1.01,0-1.83-0.82-1.83-1.83v0
			c0-1.01,0.82-1.83,1.83-1.83h7.24v-7.24c0-1.01,0.82-1.83,1.83-1.83l0,0C48.03,51.04,48.85,51.86,48.85,52.87z"/>
	</g>
</g>
</svg>
