<?xml version="1.0" encoding="utf-8"?>
<!-- Generator: Adobe Illustrator 23.0.0, SVG Export Plug-In . SVG Version: 6.00 Build 0)  -->
<svg version="1.1" id="Capa_1" xmlns="http://www.w3.org/2000/svg" xmlns:xlink="http://www.w3.org/1999/xlink" x="0px" y="0px"
	 viewBox="0 0 111 106" style="enable-background:new 0 0 111 106;" xml:space="preserve">
<style type="text/css">
	.st0{fill:#60A3E3;}
</style>
<path class="st0" d="M81.42,29.36c-15.12,0-27.43,12.3-27.43,27.43c0,15.12,12.31,27.43,27.43,27.43c15.13,0,27.43-12.3,27.43-27.43
	C108.85,41.66,96.55,29.36,81.42,29.36 M106.26,56.79c0,13.69-11.14,24.84-24.84,24.84c-13.69,0-24.84-11.14-24.84-24.84
	c0-13.69,11.14-24.84,24.84-24.84C95.12,31.95,106.26,43.1,106.26,56.79"/>
<path class="st0" d="M94.94,45.04c-0.35,0.02-0.67,0.17-0.9,0.44l-15.91,17.9l-9.49-7.59c-0.27-0.22-0.6-0.31-0.94-0.28
	c-0.35,0.04-0.66,0.21-0.88,0.48c-0.44,0.56-0.35,1.37,0.2,1.82l10.46,8.36c0.23,0.18,0.52,0.28,0.81,0.28
	c0.37,0,0.73-0.16,0.97-0.44L95.98,47.2c0.23-0.26,0.35-0.59,0.33-0.94c-0.02-0.35-0.17-0.66-0.43-0.89
	C95.61,45.14,95.28,45.01,94.94,45.04"/>
<path class="st0" d="M85.49,96.46c0,2.76-2.23,5-4.98,5H12.49c-2.75,0-4.98-2.24-4.98-5V28.99h23.6c0.69,0,1.25-0.55,1.25-1.23V3.47
	H80.5c2.75,0,4.98,2.23,4.98,4.98v18.29h2.48V8.46C87.96,4.35,84.62,1,80.5,1H31.11c-0.33,0-0.64,0.13-0.88,0.37L5.36,26.92
	c-0.02,0.04-0.04,0.07-0.1,0.15c-0.06,0.08-0.11,0.15-0.14,0.24c-0.01,0.03-0.01,0.07-0.04,0.17c-0.03,0.1-0.05,0.18-0.05,0.26
	v68.73c0,4.1,3.35,7.44,7.46,7.44H80.5c4.11,0,7.46-3.35,7.46-7.46v-8.68h-2.48V96.46z M29.88,5.28v21.23H9.21L19.54,15.9
	L29.88,5.28z"/>
<path class="st0" d="M58.22,35.33H16.48v2.86h39.34C56.56,37.19,57.37,36.24,58.22,35.33"/>
<path class="st0" d="M51.71,45.82H16.48v2.86h34.34C51.07,47.71,51.36,46.76,51.71,45.82"/>
<path class="st0" d="M16.48,59.17h33.52c-0.09-0.94-0.14-1.9-0.14-2.86H16.48V59.17z"/>
<path class="st0" d="M16.48,66.8v2.86h36.45c-0.45-0.93-0.86-1.88-1.22-2.86H16.48z"/>
<path class="st0" d="M16.48,77.29v2.86h44.86c-1.1-0.88-2.14-1.84-3.11-2.86H16.48z"/>
<rect x="16.48" y="87.78" class="st0" width="61.03" height="2.86"/>
</svg>
