<?xml version="1.0" encoding="utf-8"?>
<!-- Generator: Adobe Illustrator 23.0.0, SVG Export Plug-In . SVG Version: 6.00 Build 0)  -->
<svg version="1.1" id="Capa_1" xmlns="http://www.w3.org/2000/svg" xmlns:xlink="http://www.w3.org/1999/xlink" x="0px" y="0px"
	 viewBox="0 0 23.49 16.98" style="enable-background:new 0 0 23.49 16.98;" xml:space="preserve">
<style type="text/css">
	.st0{fill:#60A3E3;}
</style>
<g>
	<path class="st0" d="M20.58,1.49C20.36,1.51,20.15,1.61,20,1.78l-10.4,11.7L3.39,8.51C3.21,8.37,3,8.31,2.77,8.33
		C2.54,8.36,2.34,8.47,2.2,8.65c-0.29,0.36-0.23,0.9,0.13,1.19l6.84,5.47c0.15,0.12,0.34,0.19,0.53,0.19c0.24,0,0.47-0.1,0.64-0.29
		L21.26,2.9c0.15-0.17,0.23-0.39,0.21-0.61c-0.01-0.23-0.11-0.43-0.28-0.58C21.02,1.56,20.81,1.48,20.58,1.49z"/>
</g>
</svg>
