<?xml version="1.0" encoding="utf-8"?>
<!-- Generator: Adobe Illustrator 23.0.0, SVG Export Plug-In . SVG Version: 6.00 Build 0)  -->
<svg version="1.1" id="Capa_1" xmlns="http://www.w3.org/2000/svg" xmlns:xlink="http://www.w3.org/1999/xlink" x="0px" y="0px"
	 viewBox="0 0 247.18 192.25" style="enable-background:new 0 0 247.18 192.25;" xml:space="preserve">
<style type="text/css">
	.st0{fill:#808080;}
	.st1{font-family:'FuturaStd-Medium';}
	.st2{font-size:24px;}
	.st3{letter-spacing:4;}
	.st4{fill:#249FC7;}
</style>
<g>
	<text transform="matrix(1 0 0 1 44.0044 157.2246)"><tspan x="0" y="0" class="st0 st1 st2 st3">REGISTRAR</tspan><tspan x="-35.21" y="28.8" class="st0 st1 st2 st3">AUTORIZACIÓN</tspan></text>
</g>
<g>
	<g>
		<path class="st4" d="M148.42,32.36c-15.13,0-27.43,12.3-27.43,27.43c0,15.12,12.3,27.43,27.43,27.43s27.43-12.3,27.43-27.43
			C175.85,44.67,163.55,32.36,148.42,32.36z M173.26,59.79c0,13.69-11.14,24.84-24.84,24.84s-24.84-11.14-24.84-24.84
			c0-13.7,11.14-24.84,24.84-24.84S173.26,46.09,173.26,59.79z"/>
	</g>
	<g>
		<path class="st4" d="M161.94,48.04c-0.35,0.02-0.67,0.17-0.9,0.44l-15.91,17.9l-9.49-7.59c-0.27-0.22-0.6-0.31-0.94-0.28
			c-0.35,0.04-0.66,0.21-0.88,0.48c-0.44,0.56-0.35,1.37,0.2,1.82l10.45,8.36c0.23,0.18,0.52,0.28,0.81,0.28
			c0.37,0,0.73-0.16,0.97-0.44l16.72-18.81c0.23-0.26,0.35-0.59,0.33-0.94s-0.18-0.66-0.43-0.89
			C162.61,48.14,162.28,48.01,161.94,48.04z"/>
	</g>
	<g>
		<path class="st4" d="M152.49,99.46c0,2.76-2.24,5-4.98,5H79.49c-2.75,0-4.98-2.24-4.98-5V31.99h23.6c0.69,0,1.25-0.55,1.25-1.23
			V6.47h48.15c2.75,0,4.98,2.24,4.98,4.98v18.29h2.48V11.46c0-4.11-3.35-7.46-7.46-7.46H98.11c-0.33,0-0.64,0.13-0.88,0.37
			L72.36,29.92c-0.02,0.04-0.04,0.07-0.1,0.15c-0.06,0.08-0.11,0.15-0.14,0.24c0,0.03-0.01,0.07-0.04,0.17
			c-0.03,0.1-0.05,0.18-0.05,0.26v68.73c0,4.1,3.35,7.44,7.46,7.44h68.01c4.11,0,7.46-3.35,7.46-7.46v-8.68h-2.48V99.46z
			 M96.88,8.28v21.23H76.21L86.54,18.9L96.88,8.28z"/>
	</g>
	<g>
		<path class="st4" d="M125.22,38.33H83.48v2.86h39.34C123.56,40.19,124.37,39.24,125.22,38.33z"/>
	</g>
	<g>
		<path class="st4" d="M118.71,48.82H83.48v2.86h34.34C118.07,50.71,118.36,49.76,118.71,48.82z"/>
	</g>
	<g>
		<path class="st4" d="M83.48,62.17h33.52c-0.09-0.94-0.14-1.9-0.14-2.86H83.48V62.17z"/>
	</g>
	<g>
		<path class="st4" d="M83.48,69.8v2.86h36.45c-0.45-0.93-0.86-1.88-1.22-2.86H83.48z"/>
	</g>
	<g>
		<path class="st4" d="M83.48,80.29v2.86h44.86c-1.1-0.88-2.14-1.84-3.11-2.86H83.48z"/>
	</g>
	<g>
		<rect x="83.48" y="90.78" class="st4" width="61.03" height="2.86"/>
	</g>
</g>
</svg>
