<?xml version="1.0" encoding="utf-8"?>
<!-- Generator: Adobe Illustrator 23.0.0, SVG Export Plug-In . SVG Version: 6.00 Build 0)  -->
<svg version="1.1" id="Capa_1" xmlns="http://www.w3.org/2000/svg" xmlns:xlink="http://www.w3.org/1999/xlink" x="0px" y="0px"
	 viewBox="0 0 247.18 192.25" style="enable-background:new 0 0 247.18 192.25;" xml:space="preserve">
<style type="text/css">
	.st0{fill:#808080;}
	.st1{font-family:'FuturaStd-Medium';}
	.st2{font-size:24px;}
	.st3{letter-spacing:4;}
	.st4{fill:none;}
	.st5{fill:#249FC7;}
</style>
<g>
	<text transform="matrix(1 0 0 1 3.8452 156.2246)"><tspan x="0" y="0" class="st0 st1 st2 st3">RADICACIÓN DE</tspan><tspan x="43.48" y="28.8" class="st0 st1 st2 st3">SOLICITUD</tspan></text>
</g>
<path class="st4" d="M183.56,92.76h-44.73l-4,2.57h-23.67l-4-2.57H62.44c-1.54,0-0.67,10.36,9.58,10.36h101.97
	C184.26,103.13,185.08,92.76,183.56,92.76z"/>
<g>
	<path class="st5" d="M171.72,23.28v55.33h3.34V19.38H79.8v59.23h3.34V23.28v-0.56h0.56h24.78h1.35l-0.95,0.95l-11.9,11.9
		c-0.32,0.32-0.49,0.74-0.49,1.18s0.17,0.87,0.49,1.18c0.32,0.32,0.74,0.49,1.18,0.49s0.87-0.17,1.18-0.49l15.05-15.05l0.16-0.16
		h0.23h14.46h1.35l-0.95,0.95L96.7,56.62c-0.32,0.32-0.49,0.74-0.49,1.18c0,0.45,0.17,0.87,0.49,1.18c0.32,0.32,0.74,0.49,1.18,0.49
		s0.87-0.17,1.18-0.49l36.09-36.09l0.16-0.16h0.23h35.61h0.56V23.28z"/>
	<path class="st5" d="M176.34,9.34c4.83,0,8.76,3.93,8.76,8.76v60.5h3.34v-60.5c0-6.68-5.43-12.11-12.11-12.11h-97.8
		c-6.68,0-12.11,5.43-12.11,12.11v60.5h3.34v-60.5c0-4.83,3.93-8.76,8.76-8.76H176.34z"/>
	<path class="st5" d="M194.96,87.27h-49.87c-0.75,0-1.48,0.21-2.11,0.62l-3.36,2.16l-0.14,0.09h-0.16h-23.77h-0.16l-0.14-0.09
		l-3.36-2.16c-0.63-0.41-1.36-0.62-2.11-0.62H59.91c-2.2,0-4.57,1.74-4.57,5.55c0,2.95,1.24,6.19,3.32,8.66
		c1.97,2.35,5.65,5.15,11.92,5.15h113.7c6.29,0,9.96-2.8,11.93-5.14c2.07-2.47,3.31-5.7,3.31-8.66
		C199.52,89,197.16,87.27,194.96,87.27z M193.65,99.33c-1.51,1.8-4.37,3.95-9.37,3.95H70.59c-4.99,0-7.85-2.15-9.36-3.95
		c-1.87-2.22-2.54-4.82-2.54-6.51c0-2.05,0.93-2.21,1.22-2.21h49.87h0.16l0.14,0.09l4.32,2.78h26.06l4.32-2.78l0.14-0.09h0.16h49.87
		c0.29,0,1.22,0.16,1.22,2.21C196.18,94.51,195.51,97.11,193.65,99.33z"/>
</g>
</svg>
