<?xml version="1.0" encoding="utf-8"?>
<!-- Generator: Adobe Illustrator 23.0.0, SVG Export Plug-In . SVG Version: 6.00 Build 0)  -->
<svg version="1.1" id="Capa_1" xmlns="http://www.w3.org/2000/svg" xmlns:xlink="http://www.w3.org/1999/xlink" x="0px" y="0px"
	 viewBox="0 0 28.6 27.32" style="enable-background:new 0 0 28.6 27.32;" xml:space="preserve">
<style type="text/css">
	.st0{fill:#62A1D9;}
</style>
<g>
	<g>
		<path class="st0" d="M20.09,7.11c0.92,0,1.66-0.74,1.66-1.66V3.71c0-0.92-0.74-1.67-1.66-1.67c-0.92,0-1.67,0.74-1.67,1.67v1.74
			C18.43,6.37,19.17,7.11,20.09,7.11L20.09,7.11z M20.09,7.11"/>
		<path class="st0" d="M26,4.92h-3.35v0.84c0,1.4-1.14,2.54-2.54,2.54c-1.4,0-2.54-1.14-2.54-2.54V4.92h-6.76v0.84
			c0,1.4-1.13,2.54-2.54,2.54c-1.4,0-2.54-1.14-2.54-2.54V4.92L2.37,4.88v21.16h21.97l1.69,0L26,4.92z M24.34,24.36H4.06V10.84
			h20.28V24.36z M24.34,24.36"/>
	</g>
	<path class="st0" d="M8.27,7.11c0.92,0,1.66-0.74,1.66-1.66V3.71c0-0.93-0.74-1.67-1.66-1.67c-0.92,0-1.67,0.74-1.67,1.67v1.74
		C6.6,6.37,7.34,7.11,8.27,7.11L8.27,7.11z M8.27,7.11"/>
	<rect x="10.83" y="12.65" class="st0" width="2.66" height="2.35"/>
	<rect x="15.13" y="12.65" class="st0" width="2.66" height="2.35"/>
	<rect x="19.13" y="12.65" class="st0" width="2.66" height="2.35"/>
	<rect x="10.83" y="16.55" class="st0" width="2.66" height="2.35"/>
	<rect x="15.13" y="16.55" class="st0" width="2.66" height="2.35"/>
	<rect x="19.13" y="16.55" class="st0" width="2.66" height="2.35"/>
	<rect x="10.83" y="20.54" class="st0" width="2.66" height="2.35"/>
	<rect x="6.6" y="16.55" class="st0" width="2.66" height="2.35"/>
	<rect x="6.6" y="20.54" class="st0" width="2.66" height="2.35"/>
	<rect x="15.13" y="20.54" class="st0" width="2.66" height="2.35"/>
	<rect x="19.13" y="20.54" class="st0" width="2.66" height="2.35"/>
</g>
</svg>
