<?xml version="1.0" encoding="utf-8"?>
<!-- Generator: Adobe Illustrator 23.0.0, SVG Export Plug-In . SVG Version: 6.00 Build 0)  -->
<svg version="1.1" id="Capa_1" xmlns="http://www.w3.org/2000/svg" xmlns:xlink="http://www.w3.org/1999/xlink" x="0px" y="0px"
	 viewBox="0 0 111.32 124.68" style="enable-background:new 0 0 111.32 124.68;" xml:space="preserve">
<style type="text/css">
	.st0{fill:#60A3E3;}
</style>
<path class="st0" d="M55.44,9.92c11.11,0,20.15,9.03,20.15,20.13s-9.04,20.13-20.15,20.13c-11.1,0-20.13-9.03-20.13-20.13
	S44.34,9.92,55.44,9.92 M55.44,60.81c21.31,0,38.64,16.08,38.64,35.85c0,4.99-1.08,9.79-3.21,14.3
	c-11.62,1.01-23.53,1.53-35.43,1.53c-11.89,0-23.79-0.51-35.42-1.53c-2.13-4.51-3.21-9.31-3.21-14.3
	C16.81,76.89,34.14,60.81,55.44,60.81 M52.16,75.69c-0.18,0.3-0.35,0.64-0.51,1.03l-7.88,20.26c-0.98,2.53-0.31,5.76,1.61,7.72
	l5.99,5.97c1.08,1.08,2.53,1.68,4.06,1.68c1.55,0,2.99-0.6,4.05-1.68l5.99-5.98c1.93-1.93,2.61-5.17,1.63-7.71l-7.88-20.26
	c-0.15-0.39-0.32-0.73-0.51-1.03c0.27-0.19,0.53-0.41,0.77-0.65l5.99-5.98c1.39-1.39,1.85-3.13,1.22-4.64
	C66.4,63.69,65.4,62,62.56,62H48.33c-2.83,0-3.84,1.68-4.14,2.41c-0.63,1.51-0.19,3.24,1.2,4.65l5.99,5.97
	C51.62,75.28,51.88,75.49,52.16,75.69 M55.44,6.92c-12.77,0-23.13,10.35-23.13,23.13c0,12.77,10.36,23.13,23.13,23.13
	c12.78,0,23.15-10.36,23.15-23.13C78.58,17.27,68.22,6.92,55.44,6.92L55.44,6.92z M55.44,57.81c-22.98,0-41.62,17.39-41.62,38.85
	c0,6.16,1.54,11.97,4.27,17.14c12.05,1.1,24.55,1.69,37.35,1.69c12.82,0,25.32-0.58,37.37-1.69c2.74-5.17,4.27-10.98,4.27-17.14
	C97.08,75.2,78.43,57.81,55.44,57.81L55.44,57.81z M55.44,73.71c-0.7,0-1.41-0.27-1.94-0.8l-5.99-5.97
	c-1.05-1.07-0.7-1.94,0.82-1.94h14.24c1.52,0,1.87,0.87,0.8,1.94l-5.99,5.97C56.85,73.44,56.15,73.71,55.44,73.71L55.44,73.71z
	 M55.44,109.34c-0.7,0-1.41-0.27-1.94-0.8l-5.99-5.98c-1.05-1.07-1.49-3.09-0.93-4.51l7.88-20.26c0.28-0.71,0.63-1.06,0.99-1.06
	c0.36,0,0.72,0.35,0.99,1.06l7.88,20.26c0.55,1.42,0.12,3.44-0.95,4.51l-5.99,5.98C56.85,109.08,56.15,109.34,55.44,109.34
	L55.44,109.34z"/>
</svg>
