<?xml version="1.0" encoding="utf-8"?>
<!-- Generator: Adobe Illustrator 23.0.0, SVG Export Plug-In . SVG Version: 6.00 Build 0)  -->
<svg version="1.1" id="Capa_1" xmlns="http://www.w3.org/2000/svg" xmlns:xlink="http://www.w3.org/1999/xlink" x="0px" y="0px"
	 viewBox="0 0 41.18 41.25" style="enable-background:new 0 0 41.18 41.25;" xml:space="preserve">
<style type="text/css">
	.st0{fill:#EEE032;}
	.st1{fill:#2D4F85;stroke:#2D4F85;stroke-width:0.5;stroke-miterlimit:10;}
</style>
<g>
	<circle class="st0" cx="20.59" cy="20.63" r="18.29"/>
	<path class="st1" d="M31.37,28.8c0.06-0.11,0.06-0.24,0-0.34l-1.93-3.22c-0.91-1.52-1.39-3.26-1.39-5.03v-2.82
		c0-3.35-2.25-6.36-5.46-7.33l-0.16-0.05V7.83c0-1.12-0.91-2.03-2.03-2.03c-1.12,0-2.03,0.91-2.03,2.03v2.18l-0.16,0.05
		c-3.22,0.96-5.46,3.98-5.46,7.33v2.82c0,1.77-0.48,3.51-1.39,5.03l-1.93,3.22c-0.06,0.1-0.07,0.24-0.01,0.34
		c0.06,0.11,0.17,0.17,0.3,0.17h8.21l-0.05,0.27c-0.04,0.19-0.06,0.36-0.06,0.52c0,1.43,1.16,2.59,2.59,2.59
		c1.43,0,2.59-1.16,2.59-2.59c0-0.16-0.02-0.33-0.06-0.52l-0.05-0.27h8.2C31.2,28.97,31.31,28.91,31.37,28.8z M19.04,7.83
		c0-0.74,0.6-1.35,1.35-1.35s1.35,0.6,1.35,1.35v2.03l-0.25-0.04c-0.83-0.12-1.36-0.12-2.19,0l-0.25,0.04V7.83z M20.39,31.66
		c-1.05,0-1.91-0.86-1.91-1.91c0-0.2,0.04-0.41,0.12-0.64l0.05-0.15h3.47l0.05,0.15c0.08,0.23,0.12,0.44,0.12,0.64
		C22.3,30.81,21.44,31.66,20.39,31.66z M10.31,28.29l1.62-2.7c0.98-1.62,1.49-3.48,1.49-5.38v-2.82c0-3.84,3.13-6.97,6.97-6.97
		s6.97,3.13,6.97,6.97v2.82c0,1.9,0.52,3.76,1.49,5.38l1.62,2.7H10.31z"/>
</g>
</svg>
