<?xml version="1.0" encoding="utf-8"?>
<!-- Generator: Adobe Illustrator 23.0.0, SVG Export Plug-In . SVG Version: 6.00 Build 0)  -->
<svg version="1.1" id="Capa_1" xmlns="http://www.w3.org/2000/svg" xmlns:xlink="http://www.w3.org/1999/xlink" x="0px" y="0px"
	 viewBox="0 0 111.32 124.68" style="enable-background:new 0 0 111.32 124.68;" xml:space="preserve">
<style type="text/css">
	.st0{fill:#60A3E3;}
</style>
<g>
	<g>
		<g>
			<path class="st0" d="M56.21,49.12L44.24,61.09c-0.43,0.43-0.43,1.13,0,1.56c0.43,0.42,1.13,0.43,1.57,0l10.08-10.08V81.2
				c0,0.61,0.49,1.11,1.1,1.11c0.61,0,1.11-0.5,1.11-1.11V52.55l10.09,10.1c0.21,0.21,0.5,0.32,0.78,0.32
				c0.28,0,0.57-0.11,0.78-0.32c0.21-0.21,0.33-0.49,0.33-0.78c0-0.3-0.12-0.57-0.32-0.78L57.77,49.12
				c-0.02-0.02-0.06-0.04-0.1-0.07l-0.18-0.12c-0.03-0.02-0.06-0.04-0.08-0.05c-0.27-0.11-0.57-0.12-0.84,0
				C56.43,48.94,56.31,49.02,56.21,49.12z"/>
		</g>
		<g>
			<path class="st0" d="M93.7,37.22l-22.19-22.8c-0.21-0.22-0.49-0.33-0.78-0.33H26.65c-3.67,0-6.65,2.99-6.65,6.65v78.52
				c0,3.67,2.99,6.65,6.65,6.65h60.69c3.67,0,6.65-2.98,6.65-6.64V37.95c0-0.07-0.02-0.14-0.05-0.23c-0.02-0.09-0.03-0.12-0.04-0.15
				c-0.03-0.08-0.07-0.15-0.13-0.22C93.74,37.28,93.72,37.25,93.7,37.22z M71.83,17.91l18.45,18.95H71.83V17.91z M91.79,99.26
				c0,2.46-1.99,4.46-4.44,4.46H26.65c-2.45,0-4.44-2-4.44-4.46V20.74c0-2.45,1.99-4.45,4.44-4.45h42.96v21.67
				c0,0.6,0.5,1.1,1.11,1.1h21.06V99.26z"/>
		</g>
	</g>
</g>
</svg>
