<?xml version="1.0" encoding="utf-8"?>
<!-- Generator: Adobe Illustrator 23.0.0, SVG Export Plug-In . SVG Version: 6.00 Build 0)  -->
<svg version="1.1" id="Capa_1" xmlns="http://www.w3.org/2000/svg" xmlns:xlink="http://www.w3.org/1999/xlink" x="0px" y="0px"
	 viewBox="0 0 101 105" style="enable-background:new 0 0 101 105;" xml:space="preserve">
<style type="text/css">
	.st0{fill:#FFFFFF;}
</style>
<g>
	<g>
		<g>
			<path class="st0" d="M49.11,41.3l-11.9,11.9c-0.43,0.43-0.43,1.12,0,1.55c0.43,0.42,1.13,0.43,1.56,0l10.02-10.02V73.2
				c0,0.61,0.49,1.11,1.09,1.11c0.61,0,1.1-0.5,1.1-1.11V44.71l10.03,10.04c0.21,0.21,0.49,0.32,0.77,0.32
				c0.28,0,0.56-0.11,0.78-0.32c0.21-0.21,0.32-0.48,0.32-0.78c0-0.29-0.11-0.57-0.32-0.77l-11.9-11.91
				c-0.02-0.02-0.06-0.04-0.1-0.07l-0.17-0.11c-0.03-0.02-0.06-0.04-0.08-0.05c-0.27-0.11-0.56-0.12-0.84,0
				C49.33,41.12,49.21,41.2,49.11,41.3z"/>
		</g>
		<g>
			<path class="st0" d="M86.4,29.46L64.33,6.79c-0.21-0.21-0.49-0.33-0.78-0.33H19.72c-3.65,0-6.62,2.97-6.62,6.62v78.08
				c0,3.65,2.97,6.62,6.62,6.62h60.35c3.65,0,6.62-2.96,6.62-6.6V30.19c0-0.07-0.02-0.14-0.05-0.23c-0.02-0.09-0.03-0.12-0.04-0.15
				c-0.03-0.08-0.07-0.15-0.13-0.22C86.43,29.53,86.41,29.49,86.4,29.46z M64.64,10.26L82.99,29.1H64.64V10.26z M84.49,91.16
				c0,2.45-1.98,4.44-4.42,4.44H19.72c-2.44,0-4.42-1.99-4.42-4.44V13.08c0-2.44,1.98-4.42,4.42-4.42h42.72V30.2
				c0,0.6,0.5,1.09,1.11,1.09h20.94V91.16z"/>
		</g>
	</g>
</g>
</svg>
