<?xml version="1.0" encoding="utf-8"?>
<!-- Generator: Adobe Illustrator 23.0.0, SVG Export Plug-In . SVG Version: 6.00 Build 0)  -->
<svg version="1.1" id="Capa_1" xmlns="http://www.w3.org/2000/svg" xmlns:xlink="http://www.w3.org/1999/xlink" x="0px" y="0px"
	 viewBox="0 0 86 100" style="enable-background:new 0 0 86 100;" xml:space="preserve">
<style type="text/css">
	.st0{fill:#FFFFFF;}
</style>
<g>
	<g>
		<g>
			<path class="st0" d="M43.21,38.12L31.24,50.09c-0.43,0.43-0.43,1.13,0,1.56c0.43,0.42,1.13,0.43,1.57,0l10.08-10.08V70.2
				c0,0.61,0.49,1.11,1.1,1.11c0.61,0,1.11-0.5,1.11-1.11V41.55l10.09,10.1c0.21,0.21,0.5,0.32,0.78,0.32
				c0.28,0,0.57-0.11,0.78-0.32c0.21-0.21,0.33-0.49,0.33-0.78c0-0.3-0.12-0.57-0.32-0.78L44.77,38.12
				c-0.02-0.02-0.06-0.04-0.1-0.07l-0.18-0.12c-0.03-0.02-0.06-0.04-0.08-0.05c-0.27-0.11-0.57-0.12-0.84,0
				C43.43,37.94,43.31,38.02,43.21,38.12z"/>
		</g>
		<g>
			<path class="st0" d="M80.7,26.22L58.51,3.42c-0.21-0.22-0.49-0.33-0.78-0.33H13.65C9.99,3.08,7,6.07,7,9.74v78.52
				c0,3.67,2.99,6.65,6.65,6.65h60.69c3.67,0,6.65-2.98,6.65-6.64V26.95c0-0.07-0.02-0.14-0.05-0.23c-0.02-0.09-0.03-0.12-0.04-0.15
				c-0.03-0.08-0.07-0.15-0.13-0.22C80.74,26.28,80.72,26.25,80.7,26.22z M58.83,6.91l18.45,18.95H58.83V6.91z M78.79,88.26
				c0,2.46-1.99,4.46-4.44,4.46H13.65c-2.45,0-4.44-2-4.44-4.46V9.74c0-2.45,1.99-4.45,4.44-4.45h42.96v21.67
				c0,0.6,0.5,1.1,1.11,1.1h21.06V88.26z"/>
		</g>
	</g>
</g>
</svg>
