<?xml version="1.0" encoding="utf-8"?>
<!-- Generator: Adobe Illustrator 23.0.0, SVG Export Plug-In . SVG Version: 6.00 Build 0)  -->
<svg version="1.1" id="Capa_1" xmlns="http://www.w3.org/2000/svg" xmlns:xlink="http://www.w3.org/1999/xlink" x="0px" y="0px"
	 viewBox="0 0 111.32 124.68" style="enable-background:new 0 0 111.32 124.68;" xml:space="preserve">
<style type="text/css">
	.st0{fill:#60A3E3;}
</style>
<g>
	<g>
		<path class="st0" d="M17,32.11v62.64c0,7.1,5.78,12.87,12.89,12.87H84.1c7.11,0,12.9-5.78,12.9-12.87V32.11
			c0-7.1-5.79-12.87-12.9-12.87h-1.63v-5.81c0-0.57-0.46-1.04-1.03-1.04c-0.57,0-1.04,0.47-1.04,1.04v5.81h-6.07v-5.81
			c0-0.57-0.47-1.04-1.04-1.04c-0.57,0-1.04,0.47-1.04,1.04v5.81h-6.07v-5.81c0-0.57-0.47-1.04-1.04-1.04
			c-0.57,0-1.04,0.47-1.04,1.04v5.81h-6.07v-5.81c0-0.57-0.47-1.04-1.04-1.04c-0.57,0-1.03,0.47-1.03,1.04v5.81h-6.07v-5.81
			c0-0.57-0.47-1.04-1.04-1.04c-0.57,0-1.04,0.47-1.04,1.04v5.81h-6.07v-5.81c0-0.57-0.46-1.04-1.03-1.04
			c-0.57,0-1.04,0.47-1.04,1.04v5.81H33.6v-5.81c0-0.57-0.47-1.04-1.04-1.04c-0.57,0-1.04,0.47-1.04,1.04v5.81h-1.63
			C22.78,19.23,17,25.01,17,32.11z M32.56,27.08c0.57,0,1.04-0.46,1.04-1.04V21.3h6.07v4.74c0,0.57,0.47,1.04,1.04,1.04
			c0.57,0,1.03-0.46,1.03-1.04V21.3h6.07v4.74c0,0.57,0.47,1.04,1.04,1.04c0.57,0,1.04-0.46,1.04-1.04V21.3h6.07v4.74
			c0,0.57,0.46,1.04,1.03,1.04c0.57,0,1.04-0.46,1.04-1.04V21.3h6.07v4.74c0,0.57,0.47,1.04,1.04,1.04c0.57,0,1.04-0.46,1.04-1.04
			V21.3h6.07v4.74c0,0.57,0.47,1.04,1.04,1.04c0.57,0,1.04-0.46,1.04-1.04V21.3h6.07v4.74c0,0.57,0.47,1.04,1.04,1.04
			c0.57,0,1.03-0.46,1.03-1.04V21.3h1.63c5.96,0,10.82,4.85,10.82,10.8v62.64c0,5.95-4.85,10.79-10.82,10.79H29.89
			c-5.96,0-10.81-4.84-10.81-10.79V32.11c0-5.96,4.85-10.8,10.81-10.8h1.63v4.74C31.52,26.62,31.98,27.08,32.56,27.08z"/>
	</g>
</g>
<g>
	<path class="st0" d="M56.65,63.67c-3.61-1.81-7.75-3.57-7.75-8.33c0-4.71,3.13-8.06,7.75-8.41v-4.63h1.98v4.71
		c2.78,0.35,5.37,2.07,6.74,4.58l-1.63,1.32c-1.1-1.89-2.86-3.61-5.11-3.88v13.22c4.14,2.11,8.37,3.66,8.37,9.07
		c0,4.76-3.88,8.72-8.37,9.6v4.98h-1.98v-4.89c-4.63-0.13-8.06-2.78-9.65-7.18l1.81-0.84c1.28,3.39,4.14,6.08,7.84,5.9V63.67z
		 M56.65,49.05c-3.22,0-5.64,3.08-5.64,6.21c0,3.39,3.08,4.76,5.64,6.08V49.05z M58.63,78.83c3.52-0.88,6.26-3.96,6.26-7.67
		c0-3.57-3.48-5.2-6.26-6.52V78.83z"/>
</g>
</svg>
