<?xml version="1.0" encoding="utf-8"?>
<!-- Generator: Adobe Illustrator 23.0.0, SVG Export Plug-In . SVG Version: 6.00 Build 0)  -->
<svg version="1.1" id="Capa_1" xmlns="http://www.w3.org/2000/svg" xmlns:xlink="http://www.w3.org/1999/xlink" x="0px" y="0px"
	 viewBox="0 0 86 100" style="enable-background:new 0 0 86 100;" xml:space="preserve">
<style type="text/css">
	.st0{fill:#60A3E3;}
</style>
<g>
	<g>
		<path class="st0" d="M4,21.11v62.64c0,7.1,5.78,12.87,12.89,12.87H71.1c7.11,0,12.9-5.78,12.9-12.87V21.11
			c0-7.1-5.79-12.87-12.9-12.87h-1.63V2.42c0-0.57-0.46-1.04-1.03-1.04c-0.57,0-1.04,0.47-1.04,1.04v5.81h-6.07V2.42
			c0-0.57-0.47-1.04-1.04-1.04c-0.57,0-1.04,0.47-1.04,1.04v5.81h-6.07V2.42c0-0.57-0.47-1.04-1.04-1.04
			c-0.57,0-1.04,0.47-1.04,1.04v5.81h-6.07V2.42c0-0.57-0.47-1.04-1.04-1.04c-0.57,0-1.03,0.47-1.03,1.04v5.81h-6.07V2.42
			c0-0.57-0.47-1.04-1.04-1.04c-0.57,0-1.04,0.47-1.04,1.04v5.81h-6.07V2.42c0-0.57-0.46-1.04-1.03-1.04
			c-0.57,0-1.04,0.47-1.04,1.04v5.81H20.6V2.42c0-0.57-0.47-1.04-1.04-1.04c-0.57,0-1.04,0.47-1.04,1.04v5.81h-1.63
			C9.78,8.23,4,14.01,4,21.11z M19.56,16.08c0.57,0,1.04-0.46,1.04-1.04V10.3h6.07v4.74c0,0.57,0.47,1.04,1.04,1.04
			c0.57,0,1.03-0.46,1.03-1.04V10.3h6.07v4.74c0,0.57,0.47,1.04,1.04,1.04c0.57,0,1.04-0.46,1.04-1.04V10.3h6.07v4.74
			c0,0.57,0.46,1.04,1.03,1.04c0.57,0,1.04-0.46,1.04-1.04V10.3h6.07v4.74c0,0.57,0.47,1.04,1.04,1.04c0.57,0,1.04-0.46,1.04-1.04
			V10.3h6.07v4.74c0,0.57,0.47,1.04,1.04,1.04c0.57,0,1.04-0.46,1.04-1.04V10.3h6.07v4.74c0,0.57,0.47,1.04,1.04,1.04
			c0.57,0,1.03-0.46,1.03-1.04V10.3h1.63c5.96,0,10.82,4.85,10.82,10.8v62.64c0,5.95-4.85,10.79-10.82,10.79H16.89
			c-5.96,0-10.81-4.84-10.81-10.79V21.11c0-5.96,4.85-10.8,10.81-10.8h1.63v4.74C18.52,15.62,18.98,16.08,19.56,16.08z"/>
	</g>
	<g>
		<polygon class="st0" points="60.52,42.41 36.61,66.29 27.67,57.35 26.51,58.52 36.61,68.61 61.68,43.57 		"/>
	</g>
</g>
</svg>
