<?xml version="1.0" encoding="utf-8"?>
<!-- Generator: Adobe Illustrator 23.0.0, SVG Export Plug-In . SVG Version: 6.00 Build 0)  -->
<svg version="1.1" id="Capa_1" xmlns="http://www.w3.org/2000/svg" xmlns:xlink="http://www.w3.org/1999/xlink" x="0px" y="0px"
	 viewBox="0 0 38 30" style="enable-background:new 0 0 38 30;" xml:space="preserve">
<style type="text/css">
	.st0{fill:#62A1D9;}
	.st1{fill:#7F7F7F;}
</style>
<path class="st0" d="M87.44,7.38l-4.26,4.32c-1.52,1.54-1.5,4.02,0.04,5.54l4.32,4.26c1.54,1.52,1.56,4,0.04,5.54l-0.34,0.35
	c-1.52,1.54-4,1.56-5.54,0.04l-4.32-4.25c-1.54-1.52-4.02-1.5-5.54,0.04l-4.25,4.32c-1.52,1.54-4,1.56-5.54,0.04l-0.35-0.34
	c-1.54-1.52-1.56-4-0.04-5.54l4.25-4.32c1.52-1.54,1.5-4.02-0.04-5.54l-4.32-4.25c-1.54-1.52-1.56-4-0.04-5.54l0.34-0.35
	c1.52-1.54,4-1.56,5.54-0.04l4.32,4.25c1.54,1.52,4.02,1.5,5.54-0.04l4.25-4.32c1.52-1.54,4-1.56,5.54-0.04l0.35,0.34
	C88.94,3.36,88.96,5.84,87.44,7.38"/>
<path class="st1" d="M29.89,2.49L16.91,15.47c-1.53,1.53-4.02,1.53-5.55,0l-3.43-3.43c-1.53-1.53-4.02-1.53-5.55,0
	c-1.53,1.53-1.53,4.02,0,5.55l6.2,6.2l2.77,2.78c1.53,1.53,4.02,1.53,5.55,0l2.77-2.78L35.44,8.04c1.53-1.53,1.53-4.02,0-5.55
	C33.91,0.96,31.42,0.96,29.89,2.49"/>
</svg>
