<?xml version="1.0" encoding="utf-8"?>
<!-- Generator: Adobe Illustrator 23.0.0, SVG Export Plug-In . SVG Version: 6.00 Build 0)  -->
<svg version="1.1" id="Capa_1" xmlns="http://www.w3.org/2000/svg" xmlns:xlink="http://www.w3.org/1999/xlink" x="0px" y="0px"
	 viewBox="0 0 32 28" style="enable-background:new 0 0 32 28;" xml:space="preserve">
<style type="text/css">
	.st0{fill:#79D16E;}
</style>
<g>
	<g>
		<path class="st0" d="M15.46,3.46c-8.8,0-15.3,9.84-9.09,19.12c0.4,0.59,0.92,1.12,1.51,1.51C17.15,30.31,27,23.81,27,15.01
			C27,8.63,21.83,3.46,15.46,3.46L15.46,3.46z M15.46,24.39c-7.2,0-12.51-8.12-7.27-15.71C8.44,8.32,8.77,8,9.12,7.75
			c7.59-5.25,15.71,0.06,15.71,7.26C24.84,20.19,20.64,24.39,15.46,24.39L15.46,24.39z M19.99,10.1c-0.49-0.29-1.12-0.12-1.4,0.39
			l-3.87,6.95l-2.16-2.62c-0.39-0.45-0.91-0.68-1.4-0.39c-0.49,0.29-0.69,1-0.38,1.45l3,3.65c0.22,0.29,0.48,0.47,0.75,0.52l0,0
			l0.03,0c0.06,0.01,0.97,0.18,1.36-0.52l4.44-7.98C20.65,11.04,20.48,10.39,19.99,10.1L19.99,10.1z M19.99,10.1"/>
	</g>
</g>
</svg>
