<?xml version="1.0" encoding="utf-8"?>
<!-- Generator: Adobe Illustrator 23.0.0, SVG Export Plug-In . SVG Version: 6.00 Build 0)  -->
<svg version="1.1" id="Capa_1" xmlns="http://www.w3.org/2000/svg" xmlns:xlink="http://www.w3.org/1999/xlink" x="0px" y="0px"
	 viewBox="0 0 198.44 41.87" style="enable-background:new 0 0 198.44 41.87;" xml:space="preserve">
<style type="text/css">
	.st0{fill:#EAEBED;}
	.st1{fill:#6C8A4A;}
	.st2{fill:#5F7B41;}
	.st3{fill:#F8F8F8;}
	.st4{fill-rule:evenodd;clip-rule:evenodd;fill:#6081C3;}
	.st5{fill-rule:evenodd;clip-rule:evenodd;fill:#FFFFFF;}
	.st6{fill:#E5E5DC;}
	.st7{fill:#D4D3C6;}
	.st8{fill:#98A0A0;}
	.st9{fill:#FFFFFF;}
	.st10{fill:#BEB9B4;}
	.st11{fill:#E7E7DE;}
	.st12{fill:#D6D5C8;}
	.st13{fill:#B14C4D;}
</style>
<g>
	<g>
		<g>
			<g>
				<path class="st0" d="M97.78,33.69h-16.8c-0.66,0-1.2-0.54-1.2-1.2c0-0.66,0-23.34,0-24s0.54-1.2,1.2-1.2h16.8
					c0.66,0,1.2,0.54,1.2,1.2v24C98.98,33.15,98.44,33.69,97.78,33.69z"/>
				<g>
					<path class="st1" d="M85.78,14.49h-4.8c-0.66,0-1.2-0.54-1.2-1.2s0.54-1.2,1.2-1.2h4.8c0.66,0,1.2,0.54,1.2,1.2
						S86.44,14.49,85.78,14.49z"/>
					<path class="st1" d="M85.78,19.29h-4.8c-0.66,0-1.2-0.54-1.2-1.2c0-0.66,0.54-1.2,1.2-1.2h4.8c0.66,0,1.2,0.54,1.2,1.2
						C86.98,18.75,86.44,19.29,85.78,19.29z"/>
					<path class="st1" d="M85.78,24.09h-4.8c-0.66,0-1.2-0.54-1.2-1.2s0.54-1.2,1.2-1.2h4.8c0.66,0,1.2,0.54,1.2,1.2
						S86.44,24.09,85.78,24.09z"/>
					<path class="st1" d="M85.78,28.89h-4.8c-0.66,0-1.2-0.54-1.2-1.2s0.54-1.2,1.2-1.2h4.8c0.66,0,1.2,0.54,1.2,1.2
						S86.44,28.89,85.78,28.89z"/>
					<path class="st1" d="M92.98,14.49h-2.4c-0.66,0-1.2-0.54-1.2-1.2s0.54-1.2,1.2-1.2h2.4c0.66,0,1.2,0.54,1.2,1.2
						S93.64,14.49,92.98,14.49z"/>
					<path class="st1" d="M92.98,19.29h-2.4c-0.66,0-1.2-0.54-1.2-1.2c0-0.66,0.54-1.2,1.2-1.2h2.4c0.66,0,1.2,0.54,1.2,1.2
						C94.18,18.75,93.64,19.29,92.98,19.29z"/>
					<path class="st1" d="M92.98,24.09h-2.4c-0.66,0-1.2-0.54-1.2-1.2s0.54-1.2,1.2-1.2h2.4c0.66,0,1.2,0.54,1.2,1.2
						S93.64,24.09,92.98,24.09z"/>
					<path class="st1" d="M92.98,28.89h-2.4c-0.66,0-1.2-0.54-1.2-1.2s0.54-1.2,1.2-1.2h2.4c0.66,0,1.2,0.54,1.2,1.2
						S93.64,28.89,92.98,28.89z"/>
				</g>
				<path class="st2" d="M81.74,2.77c-0.27-0.23-0.64-0.33-0.99-0.25l-19.2,3.6c-0.57,0.11-0.98,0.6-0.98,1.18v26.4
					c0,0.58,0.41,1.07,0.98,1.18l19.2,3.6c0.07,0.01,0.15,0.02,0.22,0.02c0.28,0,0.55-0.1,0.77-0.28c0.28-0.23,0.43-0.57,0.43-0.92
					V3.69C82.18,3.33,82.02,3,81.74,2.77z"/>
				<path class="st3" d="M77.08,24.5l-3.79-4.34l3.84-4.93c0.41-0.52,0.31-1.28-0.21-1.68s-1.27-0.31-1.68,0.21l-3.55,4.57l-3-3.42
					c-0.44-0.5-1.2-0.55-1.69-0.11c-0.5,0.44-0.55,1.2-0.11,1.69l3.3,3.77l-3.35,4.3c-0.41,0.52-0.31,1.28,0.21,1.68
					c0.22,0.17,0.48,0.25,0.74,0.25c0.36,0,0.71-0.16,0.95-0.46l3.06-3.94l3.49,3.99c0.24,0.27,0.57,0.41,0.9,0.41
					c0.28,0,0.56-0.1,0.79-0.3C77.47,25.76,77.52,25,77.08,24.5z"/>
			</g>
			<g id="layer1_4_" transform="translate(0,-992.36218)">
				<g id="g3343_4_" transform="matrix(0.96778326,0,0,0.96778326,4.2163353,39.614979)">
					<g id="g3128_4_" transform="matrix(0.15227353,0,0,0.15227353,-50.593719,968.83104)">
						<path id="path3130_4_" class="st4" d="M439.85,119.56c-67.49,0-122.2,54.67-122.2,122.13c0,8.59,0.9,16.97,2.59,25.07
							c10.74-2.92,22.03-4.48,33.7-4.48c18.69,0,36.44,4,52.46,11.19c20.96-14.95,46.65-23.74,74.37-23.74
							c17.36,0,33.91,3.45,49,9.7c0.08,0.03,0.15,0.06,0.23,0.09c0.62,0.31,1.06,0.95,1.06,1.7c0,1.04-0.85,1.9-1.91,1.9
							c-0.04,0-1.86-0.14-2.73-0.2c-3-0.22-6.06-0.33-9.11-0.33c-42.85,0-81.35,15.73-104.69,47.65c-0.37,0.51-1.1,1.54-1.11,1.54
							c-0.34,0.43-0.87,0.71-1.46,0.71c-0.48,0-0.91-0.18-1.24-0.48c-0.06-0.04-0.11-0.09-0.16-0.14
							c-22.15-20.83-51.33-29.07-84.09-29.65c16.72,47.53,62.01,81.63,115.28,81.63c67.49,0,122.21-54.69,122.21-122.14
							C562.05,174.24,507.33,119.56,439.85,119.56L439.85,119.56z M535.52,192.65c-0.43-0.04-1.16-0.16-1.63-0.23
							c-1.36-0.21-2.74-0.39-4.12-0.52c-24.92-2.35-48.11,4.57-63.25,22.1c-0.63,0.65-1.19,0.68-1.81,0.03
							c-12.03-13.64-29.16-19.7-48.83-21.56c-7.01-0.67-13.89-0.32-20.48,0.91c-0.03,0-0.06,0-0.09,0.01
							c-0.06,0-0.13,0.02-0.21,0.02c-0.7,0-1.27-0.57-1.27-1.27c0-0.41,0.2-0.77,0.49-0.99c0.12-0.07,0.24-0.14,0.36-0.2
							c12.27-6.42,26.45-9.49,41.25-8.09c10.73,1.02,20.72,4.27,29.52,9.27c12.86-7.45,28.09-11.1,44.01-9.6
							c9.01,0.85,17.5,3.3,25.2,7.01c0.47,0.24,0.96,0.47,1.43,0.73c0.47,0.23,0.68,0.64,0.68,1.13
							C536.8,192.09,536.34,192.75,535.52,192.65z"/>
						<path id="path3132_4_" class="st5" d="M536.1,190.26c-0.47-0.26-0.96-0.49-1.43-0.73c-7.71-3.71-16.19-6.15-25.2-7.01
							c-15.92-1.5-31.15,2.15-44.01,9.6c-8.8-5-18.79-8.25-29.52-9.27c-14.8-1.4-28.98,1.67-41.25,8.09
							c-0.12,0.06-0.24,0.13-0.36,0.2c-0.29,0.23-0.49,0.59-0.49,0.99c0,0.7,0.56,1.27,1.27,1.27c0.07,0,0.14-0.02,0.21-0.02
							c0.03-0.01,0.06-0.01,0.09-0.01c6.59-1.22,13.47-1.57,20.48-0.91c19.67,1.86,36.8,7.92,48.83,21.56
							c0.62,0.65,1.18,0.61,1.81-0.03c15.13-17.53,38.32-24.45,63.25-22.1c1.38,0.13,2.76,0.31,4.12,0.52
							c0.47,0.06,1.21,0.18,1.63,0.23c0.82,0.1,1.28-0.56,1.28-1.26C536.78,190.9,536.57,190.5,536.1,190.26z"/>
						<path id="path3134_4_" class="st5" d="M408.81,312.01c0.33,0.3,0.76,0.48,1.24,0.48c0.59,0,1.12-0.28,1.46-0.71
							c0.01,0,0.74-1.03,1.11-1.54c23.35-31.92,61.85-47.65,104.69-47.65c3.05,0,6.11,0.11,9.11,0.33c0.87,0.06,2.69,0.2,2.73,0.2
							c1.05,0,1.91-0.85,1.91-1.9c0-0.76-0.44-1.4-1.06-1.7c-0.08-0.03-0.15-0.06-0.23-0.09c-15.09-6.25-31.64-9.7-49-9.7
							c-27.72,0-53.4,8.79-74.38,23.74c-16.02-7.19-33.77-11.19-52.46-11.19c-11.66,0-22.96,1.56-33.7,4.48
							c1.1,5.29,2.57,10.44,4.33,15.45c32.76,0.57,61.93,8.82,84.09,29.65C408.69,311.91,408.75,311.97,408.81,312.01z"/>
					</g>
				</g>
			</g>
		</g>
		<g>
			<path class="st6" d="M139.17,3.29h-18.24c-0.51,0-0.92,0.41-0.92,1.21v33.36c0,0.22,0.41,0.63,0.92,0.63h25.19
				c0.51,0,0.92-0.41,0.92-0.63V11.45c0-0.44-0.06-0.58-0.16-0.68l-7.31-7.31C139.46,3.35,139.32,3.29,139.17,3.29L139.17,3.29z
				 M139.17,3.29"/>
			<path class="st7" d="M139.49,3.39v7.45h7.45L139.49,3.39z M139.49,3.39"/>
			<path class="st8" d="M146.12,38.49h-25.19c-0.51,0-0.92-0.41-0.92-0.92V27.8h27.03v9.77C147.03,38.08,146.62,38.49,146.12,38.49
				L146.12,38.49z M146.12,38.49"/>
			<path class="st9" d="M129.67,30.27v0.7h-1.89v5.63h-1.04v-5.63h-1.89v-0.7H129.67z M129.67,30.27"/>
			<path class="st9" d="M133.8,33.53l1.61,3.08h-1.2l-1-2.39h-0.09l-1.08,2.39h-1.19l1.61-3.08l-1.71-3.26h1.18l1.12,2.58h0.09
				l1.21-2.58h1.18L133.8,33.53z M133.8,33.53"/>
			<path class="st9" d="M141.4,30.27v0.7h-1.89v5.63h-1.04v-5.63h-1.89v-0.7H141.4z M141.4,30.27"/>
			<path class="st10" d="M127.55,11.46h-3.77c-0.35,0-0.63-0.28-0.63-0.63c0-0.35,0.28-0.63,0.63-0.63h3.77
				c0.35,0,0.63,0.28,0.63,0.63C128.18,11.18,127.9,11.46,127.55,11.46L127.55,11.46z M127.55,11.46"/>
			<path class="st10" d="M129.44,14.6h-5.66c-0.35,0-0.63-0.28-0.63-0.63c0-0.35,0.28-0.63,0.63-0.63h5.66
				c0.35,0,0.63,0.28,0.63,0.63C130.07,14.32,129.78,14.6,129.44,14.6L129.44,14.6z M129.44,14.6"/>
			<path class="st10" d="M131.95,14.6c-0.16,0-0.33-0.07-0.44-0.18c-0.11-0.12-0.18-0.28-0.18-0.44c0-0.17,0.07-0.33,0.19-0.45
				c0.23-0.23,0.65-0.23,0.89,0c0.11,0.12,0.18,0.28,0.18,0.45c0,0.16-0.07,0.33-0.18,0.44C132.28,14.54,132.11,14.6,131.95,14.6
				L131.95,14.6z M131.95,14.6"/>
			<path class="st10" d="M139.49,14.6h-5.03c-0.35,0-0.63-0.28-0.63-0.63c0-0.35,0.28-0.63,0.63-0.63h5.03
				c0.35,0,0.63,0.28,0.63,0.63C140.12,14.32,139.84,14.6,139.49,14.6L139.49,14.6z M139.49,14.6"/>
			<path class="st10" d="M123.78,24.03c-0.16,0-0.33-0.07-0.45-0.18c-0.11-0.12-0.18-0.28-0.18-0.44c0-0.17,0.07-0.33,0.18-0.45
				c0.23-0.23,0.66-0.23,0.89,0.01c0.11,0.11,0.18,0.28,0.18,0.44c0,0.16-0.07,0.33-0.18,0.44
				C124.11,23.96,123.94,24.03,123.78,24.03L123.78,24.03z M123.78,24.03"/>
			<path class="st10" d="M131.32,24.03h-5.03c-0.35,0-0.63-0.28-0.63-0.63c0-0.35,0.28-0.63,0.63-0.63h5.03
				c0.35,0,0.63,0.28,0.63,0.63C131.95,23.75,131.67,24.03,131.32,24.03L131.32,24.03z M131.32,24.03"/>
			<path class="st10" d="M143.27,14.6h-1.26c-0.35,0-0.63-0.28-0.63-0.63c0-0.35,0.28-0.63,0.63-0.63h1.26
				c0.35,0,0.63,0.28,0.63,0.63C143.89,14.32,143.61,14.6,143.27,14.6L143.27,14.6z M143.27,14.6"/>
			<path class="st10" d="M137.61,17.75h-13.83c-0.35,0-0.63-0.28-0.63-0.63c0-0.35,0.28-0.63,0.63-0.63h13.83
				c0.35,0,0.63,0.28,0.63,0.63C138.24,17.47,137.96,17.75,137.61,17.75L137.61,17.75z M137.61,17.75"/>
			<path class="st10" d="M143.27,17.75h-3.77c-0.35,0-0.63-0.28-0.63-0.63c0-0.35,0.28-0.63,0.63-0.63h3.77
				c0.35,0,0.63,0.28,0.63,0.63C143.89,17.47,143.61,17.75,143.27,17.75L143.27,17.75z M143.27,17.75"/>
			<path class="st10" d="M126.29,20.89h-2.51c-0.35,0-0.63-0.28-0.63-0.63c0-0.35,0.28-0.63,0.63-0.63h2.51
				c0.35,0,0.63,0.28,0.63,0.63C126.92,20.61,126.64,20.89,126.29,20.89L126.29,20.89z M126.29,20.89"/>
			<path class="st10" d="M135.09,20.89h-6.29c-0.35,0-0.63-0.28-0.63-0.63c0-0.35,0.28-0.63,0.63-0.63h6.29
				c0.35,0,0.63,0.28,0.63,0.63C135.72,20.61,135.44,20.89,135.09,20.89L135.09,20.89z M135.09,20.89"/>
			<path class="st10" d="M143.27,20.89h-5.66c-0.35,0-0.63-0.28-0.63-0.63c0-0.35,0.28-0.63,0.63-0.63h5.66
				c0.35,0,0.63,0.28,0.63,0.63C143.89,20.61,143.61,20.89,143.27,20.89L143.27,20.89z M143.27,20.89"/>
		</g>
	</g>
	<g>
		<path class="st11" d="M187.68,2.99h-18.65c-0.52,0-0.94,0.42-0.94,1.24v34.12c0,0.22,0.42,0.64,0.94,0.64h25.76
			c0.52,0,0.94-0.42,0.94-0.64V11.33c0-0.45-0.06-0.59-0.16-0.7l-7.48-7.48C187.97,3.05,187.83,2.99,187.68,2.99L187.68,2.99z
			 M187.68,2.99"/>
		<path class="st12" d="M188.01,3.09v7.62h7.61L188.01,3.09z M188.01,3.09"/>
		<path class="st13" d="M176.44,24.41c-0.22,0-0.44-0.07-0.62-0.21c-0.67-0.5-0.76-1.06-0.72-1.44c0.12-1.05,1.41-2.14,3.85-3.26
			c0.97-2.12,1.89-4.73,2.43-6.91c-0.64-1.4-1.26-3.21-0.81-4.27c0.16-0.37,0.36-0.66,0.73-0.78c0.15-0.05,0.52-0.11,0.65-0.11
			c0.33,0,0.61,0.42,0.81,0.67c0.19,0.24,0.62,0.75-0.24,4.37c0.87,1.79,2.1,3.61,3.27,4.86c0.84-0.15,1.57-0.23,2.16-0.23
			c1.01,0,1.62,0.24,1.86,0.72c0.21,0.4,0.12,0.87-0.25,1.39c-0.36,0.5-0.85,0.77-1.43,0.77c-0.78,0-1.69-0.49-2.71-1.47
			c-1.82,0.38-3.95,1.06-5.67,1.81c-0.54,1.14-1.05,2.06-1.53,2.73C177.58,23.98,177.01,24.41,176.44,24.41L176.44,24.41z
			 M178.16,21.12c-1.37,0.77-1.93,1.41-1.97,1.76c-0.01,0.06-0.02,0.21,0.28,0.45C176.55,23.3,177.11,23.04,178.16,21.12
			L178.16,21.12z M186.92,18.26c0.52,0.4,0.65,0.61,1,0.61c0.15,0,0.58-0.01,0.78-0.29c0.09-0.13,0.13-0.22,0.15-0.27
			c-0.08-0.04-0.19-0.13-0.76-0.13C187.76,18.19,187.36,18.21,186.92,18.26L186.92,18.26z M182.12,14.03
			c-0.46,1.59-1.06,3.31-1.72,4.86c1.34-0.52,2.8-0.98,4.17-1.3C183.71,16.59,182.84,15.33,182.12,14.03L182.12,14.03z M181.73,8.59
			c-0.06,0.02-0.85,1.13,0.06,2.07C182.4,9.3,181.76,8.58,181.73,8.59L181.73,8.59z M181.73,8.59"/>
		<path class="st13" d="M194.78,38.99h-25.76c-0.52,0-0.94-0.42-0.94-0.94v-9.99h27.64v9.99C195.72,38.57,195.3,38.99,194.78,38.99
			L194.78,38.99z M194.78,38.99"/>
		<path class="st9" d="M175.08,37.06h-1.05v-6.48h1.86c0.27,0,0.55,0.04,0.82,0.13c0.27,0.09,0.51,0.22,0.73,0.4
			c0.21,0.18,0.39,0.39,0.52,0.64c0.13,0.25,0.2,0.53,0.2,0.84c0,0.33-0.05,0.62-0.17,0.89c-0.11,0.27-0.27,0.49-0.46,0.67
			c-0.2,0.18-0.44,0.32-0.72,0.42c-0.28,0.1-0.59,0.15-0.93,0.15h-0.78V37.06z M175.08,31.38v2.56h0.97c0.13,0,0.26-0.02,0.38-0.07
			c0.13-0.04,0.24-0.12,0.35-0.22c0.1-0.1,0.19-0.24,0.25-0.41c0.06-0.18,0.1-0.4,0.1-0.67c0-0.1-0.02-0.23-0.04-0.36
			c-0.03-0.14-0.09-0.27-0.18-0.4c-0.09-0.13-0.22-0.23-0.38-0.32c-0.16-0.08-0.38-0.13-0.65-0.13H175.08z M175.08,31.38"/>
		<path class="st9" d="M184.61,33.64c0,0.53-0.06,0.99-0.17,1.37c-0.12,0.38-0.26,0.69-0.44,0.95c-0.18,0.25-0.37,0.46-0.59,0.6
			c-0.22,0.15-0.43,0.26-0.64,0.33c-0.2,0.07-0.39,0.12-0.56,0.14c-0.17,0.02-0.29,0.03-0.38,0.03h-2.45v-6.48h1.95
			c0.54,0,1.02,0.08,1.43,0.26c0.41,0.17,0.76,0.4,1.03,0.69c0.27,0.29,0.48,0.61,0.61,0.98C184.55,32.88,184.61,33.26,184.61,33.64
			L184.61,33.64z M181.48,36.29c0.72,0,1.23-0.23,1.55-0.68c0.32-0.46,0.47-1.12,0.47-1.99c0-0.27-0.03-0.54-0.09-0.8
			c-0.07-0.26-0.19-0.5-0.37-0.72c-0.18-0.21-0.44-0.39-0.75-0.52c-0.32-0.13-0.73-0.2-1.23-0.2h-0.62v4.9H181.48z M181.48,36.29"/>
		<path class="st9" d="M187.21,31.38v2.04h2.71v0.72h-2.71v2.92h-1.07v-6.48h4.05v0.8H187.21z M187.21,31.38"/>
	</g>
</g>
</svg>
