<?xml version="1.0" encoding="utf-8"?>
<!-- Generator: Adobe Illustrator 23.0.0, SVG Export Plug-In . SVG Version: 6.00 Build 0)  -->
<svg version="1.1" id="Capa_1" xmlns="http://www.w3.org/2000/svg" xmlns:xlink="http://www.w3.org/1999/xlink" x="0px" y="0px"
	 viewBox="0 0 111.32 124.68" style="enable-background:new 0 0 111.32 124.68;" xml:space="preserve">
<style type="text/css">
	.st0{fill:#FFFFFF;}
</style>
<path class="st0" d="M73,54"/>
<path class="st0" d="M103.77,111.15c0.01-0.4-0.14-0.79-0.42-1.07l0,0L75.04,80.63l0.26-0.26c7.4-7.43,11.48-17.27,11.48-27.71
	c0-21.66-17.62-39.28-39.28-39.28C25.85,13.38,8.23,31,8.23,52.65s17.62,39.28,39.28,39.28c9.1,0,17.99-3.21,25.03-9.04l0.27-0.22
	l28.36,29.5c0.54,0.57,1.54,0.6,2.15,0.03C103.6,111.93,103.76,111.55,103.77,111.15z M47.51,88.9c-19.99,0-36.25-16.26-36.25-36.25
	s16.26-36.25,36.25-36.25c19.99,0,36.25,16.26,36.25,36.25S67.49,88.9,47.51,88.9z"/>
</svg>
