<?xml version="1.0" encoding="utf-8"?>
<!-- Generator: Adobe Illustrator 23.0.0, SVG Export Plug-In . SVG Version: 6.00 Build 0)  -->
<svg version="1.1" id="Capa_1" xmlns="http://www.w3.org/2000/svg" xmlns:xlink="http://www.w3.org/1999/xlink" x="0px" y="0px"
	 viewBox="0 0 90.38 104.77" style="enable-background:new 0 0 90.38 104.77;" xml:space="preserve">
<style type="text/css">
	.st0{fill:#FFFFFF;}
</style>
<g>
	<g>
		<g>
			<path class="st0" d="M5.19,24.49v62.64c0,7.1,5.78,12.87,12.89,12.87h54.22c7.11,0,12.9-5.78,12.9-12.87V24.49
				c0-7.1-5.79-12.87-12.9-12.87h-1.63V5.81c0-0.57-0.46-1.04-1.03-1.04c-0.57,0-1.04,0.47-1.04,1.04v5.81h-6.07V5.81
				c0-0.57-0.47-1.04-1.04-1.04c-0.57,0-1.04,0.47-1.04,1.04v5.81h-6.07V5.81c0-0.57-0.47-1.04-1.04-1.04
				c-0.57,0-1.04,0.47-1.04,1.04v5.81h-6.07V5.81c0-0.57-0.47-1.04-1.04-1.04c-0.57,0-1.03,0.47-1.03,1.04v5.81h-6.07V5.81
				c0-0.57-0.47-1.04-1.04-1.04C36.47,4.77,36,5.23,36,5.81v5.81h-6.07V5.81c0-0.57-0.46-1.04-1.03-1.04
				c-0.57,0-1.04,0.47-1.04,1.04v5.81h-6.07V5.81c0-0.57-0.47-1.04-1.04-1.04c-0.57,0-1.04,0.47-1.04,1.04v5.81h-1.63
				C10.97,11.62,5.19,17.39,5.19,24.49z M20.75,19.47c0.57,0,1.04-0.46,1.04-1.04v-4.74h6.07v4.74c0,0.57,0.47,1.04,1.04,1.04
				c0.57,0,1.03-0.46,1.03-1.04v-4.74H36v4.74c0,0.57,0.47,1.04,1.04,1.04c0.57,0,1.04-0.46,1.04-1.04v-4.74h6.07v4.74
				c0,0.57,0.46,1.04,1.03,1.04c0.57,0,1.04-0.46,1.04-1.04v-4.74h6.07v4.74c0,0.57,0.47,1.04,1.04,1.04c0.57,0,1.04-0.46,1.04-1.04
				v-4.74h6.07v4.74c0,0.57,0.47,1.04,1.04,1.04c0.57,0,1.04-0.46,1.04-1.04v-4.74h6.07v4.74c0,0.57,0.47,1.04,1.04,1.04
				c0.57,0,1.03-0.46,1.03-1.04v-4.74h1.63c5.96,0,10.82,4.85,10.82,10.8v62.64c0,5.95-4.85,10.79-10.82,10.79H18.08
				c-5.96,0-10.81-4.84-10.81-10.79V24.49c0-5.96,4.85-10.8,10.81-10.8h1.63v4.74C19.71,19,20.18,19.47,20.75,19.47z"/>
		</g>
	</g>
	<path class="st0" d="M60.19,72.53c0-0.13-0.04-0.25-0.13-0.33l0,0l-8.82-9.18l0.08-0.08c2.31-2.32,3.58-5.38,3.58-8.64
		c0-6.75-5.49-12.24-12.24-12.24c-6.75,0-12.24,5.49-12.24,12.24s5.49,12.24,12.24,12.24c2.84,0,5.61-1,7.8-2.82l0.08-0.07l8.84,9.2
		c0.17,0.18,0.48,0.19,0.67,0.01C60.14,72.77,60.19,72.66,60.19,72.53z M42.65,65.6c-6.23,0-11.3-5.07-11.3-11.3S36.43,43,42.65,43
		c6.23,0,11.3,5.07,11.3,11.3S48.88,65.6,42.65,65.6z"/>
</g>
</svg>
