<?xml version="1.0" encoding="utf-8"?>
<!-- Generator: Adobe Illustrator 23.0.0, SVG Export Plug-In . SVG Version: 6.00 Build 0)  -->
<svg version="1.1" id="Capa_1" xmlns="http://www.w3.org/2000/svg" xmlns:xlink="http://www.w3.org/1999/xlink" x="0px" y="0px"
	 viewBox="0 0 111.32 124.68" style="enable-background:new 0 0 111.32 124.68;" xml:space="preserve">
<style type="text/css">
	.st0{fill:#60A3E3;}
</style>
<g>
	<g>
		<path class="st0" d="M17,32.11v62.64c0,7.1,5.78,12.87,12.89,12.87H84.1c7.11,0,12.9-5.78,12.9-12.87V32.11
			c0-7.1-5.79-12.87-12.9-12.87h-1.63v-5.81c0-0.57-0.46-1.04-1.03-1.04c-0.57,0-1.04,0.47-1.04,1.04v5.81h-6.07v-5.81
			c0-0.57-0.47-1.04-1.04-1.04c-0.57,0-1.04,0.47-1.04,1.04v5.81h-6.07v-5.81c0-0.57-0.47-1.04-1.04-1.04
			c-0.57,0-1.04,0.47-1.04,1.04v5.81h-6.07v-5.81c0-0.57-0.47-1.04-1.04-1.04c-0.57,0-1.03,0.47-1.03,1.04v5.81h-6.07v-5.81
			c0-0.57-0.47-1.04-1.04-1.04c-0.57,0-1.04,0.47-1.04,1.04v5.81h-6.07v-5.81c0-0.57-0.46-1.04-1.03-1.04
			c-0.57,0-1.04,0.47-1.04,1.04v5.81H33.6v-5.81c0-0.57-0.47-1.04-1.04-1.04c-0.57,0-1.04,0.47-1.04,1.04v5.81h-1.63
			C22.78,19.23,17,25.01,17,32.11z M32.56,27.08c0.57,0,1.04-0.46,1.04-1.04V21.3h6.07v4.74c0,0.57,0.47,1.04,1.04,1.04
			c0.57,0,1.03-0.46,1.03-1.04V21.3h6.07v4.74c0,0.57,0.47,1.04,1.04,1.04c0.57,0,1.04-0.46,1.04-1.04V21.3h6.07v4.74
			c0,0.57,0.46,1.04,1.03,1.04c0.57,0,1.04-0.46,1.04-1.04V21.3h6.07v4.74c0,0.57,0.47,1.04,1.04,1.04c0.57,0,1.04-0.46,1.04-1.04
			V21.3h6.07v4.74c0,0.57,0.47,1.04,1.04,1.04c0.57,0,1.04-0.46,1.04-1.04V21.3h6.07v4.74c0,0.57,0.47,1.04,1.04,1.04
			c0.57,0,1.03-0.46,1.03-1.04V21.3h1.63c5.96,0,10.82,4.85,10.82,10.8v62.64c0,5.95-4.85,10.79-10.82,10.79H29.89
			c-5.96,0-10.81-4.84-10.81-10.79V32.11c0-5.96,4.85-10.8,10.81-10.8h1.63v4.74C31.52,26.62,31.98,27.08,32.56,27.08z"/>
	</g>
</g>
<path class="st0" d="M74.21,83.46c0-0.15-0.05-0.29-0.15-0.39l0,0L63.8,72.39l0.09-0.09c2.68-2.69,4.16-6.26,4.16-10.05
	c0-7.85-6.39-14.24-14.24-14.24c-7.85,0-14.24,6.39-14.24,14.24s6.39,14.24,14.24,14.24c3.3,0,6.52-1.16,9.08-3.28l0.1-0.08
	l10.28,10.7c0.19,0.21,0.56,0.22,0.78,0.01C74.15,83.74,74.21,83.6,74.21,83.46z M53.81,75.39c-7.25,0-13.14-5.9-13.14-13.14
	s5.9-13.14,13.14-13.14c7.25,0,13.14,5.9,13.14,13.14S61.06,75.39,53.81,75.39z"/>
</svg>
