<?xml version="1.0" encoding="utf-8"?>
<!-- Generator: Adobe Illustrator 23.0.0, SVG Export Plug-In . SVG Version: 6.00 Build 0)  -->
<svg version="1.1" id="Capa_1" xmlns="http://www.w3.org/2000/svg" xmlns:xlink="http://www.w3.org/1999/xlink" x="0px" y="0px"
	 viewBox="0 0 101 105" style="enable-background:new 0 0 101 105;" xml:space="preserve">
<style type="text/css">
	.st0{fill:#60A3E3;}
</style>
<path class="st0" d="M97.77,100.15c0.01-0.4-0.14-0.79-0.42-1.07l0,0L69.04,69.63l0.26-0.26c7.4-7.43,11.48-17.27,11.48-27.71
	C80.78,20,63.16,2.38,41.51,2.38C19.85,2.38,2.23,20,2.23,41.65s17.62,39.28,39.28,39.28c9.1,0,17.99-3.21,25.03-9.04l0.27-0.22
	l28.36,29.5c0.54,0.57,1.54,0.6,2.15,0.03C97.6,100.93,97.76,100.55,97.77,100.15z M41.51,77.9c-19.99,0-36.25-16.26-36.25-36.25
	S21.52,5.41,41.51,5.41c19.99,0,36.25,16.26,36.25,36.25S61.49,77.9,41.51,77.9z"/>
</svg>
