<?xml version="1.0" encoding="utf-8"?>
<!-- Generator: Adobe Illustrator 23.0.0, SVG Export Plug-In . SVG Version: 6.00 Build 0)  -->
<svg version="1.1" id="Capa_1" xmlns="http://www.w3.org/2000/svg" xmlns:xlink="http://www.w3.org/1999/xlink" x="0px" y="0px"
	 viewBox="0 0 130 115" style="enable-background:new 0 0 130 115;" xml:space="preserve">
<style type="text/css">
	.st0{fill:#FFFFFF;}
</style>
<path class="st0" d="M89.42,28.36c-15.13,0-27.43,12.3-27.43,27.43c0,15.12,12.31,27.43,27.43,27.43s27.43-12.31,27.43-27.43
	C116.85,40.67,104.54,28.36,89.42,28.36 M114.25,55.79c0,13.69-11.14,24.84-24.84,24.84c-13.69,0-24.84-11.14-24.84-24.84
	c0-13.69,11.14-24.84,24.84-24.84C103.11,30.95,114.25,42.1,114.25,55.79"/>
<path class="st0" d="M124,104c-0.89,0-1.77-0.39-2.36-1.14l-18.03-22.86c-1.03-1.3-0.8-3.19,0.5-4.21c1.3-1.03,3.19-0.8,4.21,0.5
	l18.03,22.86c1.03,1.3,0.8,3.19-0.5,4.21C125.3,103.79,124.65,104,124,104"/>
<path class="st0" d="M19,29H4c-1.1,0-2-0.9-2-2c0-1.1,0.9-2,2-2h15c1.1,0,2,0.9,2,2C21,28.1,20.1,29,19,29"/>
<path class="st0" d="M19,40H4c-1.1,0-2-0.9-2-2c0-1.1,0.9-2,2-2h15c1.1,0,2,0.9,2,2C21,39.1,20.1,40,19,40"/>
<path class="st0" d="M19,51H4c-1.1,0-2-0.9-2-2c0-1.1,0.9-2,2-2h15c1.1,0,2,0.9,2,2C21,50.1,20.1,51,19,51"/>
<path class="st0" d="M19,70H4c-1.1,0-2-0.9-2-2c0-1.1,0.9-2,2-2h15c1.1,0,2,0.9,2,2C21,69.1,20.1,70,19,70"/>
<path class="st0" d="M19,81H4c-1.1,0-2-0.9-2-2c0-1.1,0.9-2,2-2h15c1.1,0,2,0.9,2,2C21,80.1,20.1,81,19,81"/>
<path class="st0" d="M19,92H4c-1.1,0-2-0.9-2-2c0-1.1,0.9-2,2-2h15c1.1,0,2,0.9,2,2C21,91.1,20.1,92,19,92"/>
<path class="st0" d="M97.17,86v17.28c0,0.77-0.63,1.38-1.39,1.38H15.22c-0.77,0-1.38-0.62-1.38-1.38V12.72
	c0-0.77,0.62-1.38,1.38-1.38h80.56c0.77,0,1.39,0.62,1.39,1.38V27h3.33V12.72c0-2.6-2.11-4.72-4.72-4.72H15.22
	c-2.6,0-4.72,2.12-4.72,4.72v90.56c0,2.6,2.12,4.72,4.72,4.72h80.56c2.6,0,4.72-2.12,4.72-4.72V86H97.17z"/>
</svg>
