<?xml version="1.0" encoding="utf-8"?>
<!-- Generator: Adobe Illustrator 23.0.0, SVG Export Plug-In . SVG Version: 6.00 Build 0)  -->
<svg version="1.1" id="Capa_1" xmlns="http://www.w3.org/2000/svg" xmlns:xlink="http://www.w3.org/1999/xlink" x="0px" y="0px"
	 viewBox="0 0 118 117" style="enable-background:new 0 0 118 117;" xml:space="preserve">
<style type="text/css">
	.st0{fill:#60A2E2;stroke:#FFFFFF;stroke-miterlimit:10;}
</style>
<g>
	<path class="st0" d="M108.89,23H12.3c-1.27,0-2.3,1.03-2.3,2.3v69c0,1.27,1.03,2.3,2.3,2.3h96.59c1.27,0,2.3-1.03,2.3-2.3v-69
		C111.19,24.03,110.16,23,108.89,23L108.89,23z M106.6,86.44L78.11,57.95l-3.25,3.25l30.8,30.8H15.55l30.79-30.8l-3.25-3.25
		L14.6,86.44V27.61h92V86.44z M106.6,86.44"/>
	<path class="st0" d="M101.95,27.61L60.6,68.95L19.25,27.61H14.6v1.85l44.37,44.37c0.9,0.9,2.35,0.9,3.25,0l44.38-44.37v-1.85
		H101.95z M101.95,27.61"/>
</g>
</svg>
