<?xml version="1.0" encoding="utf-8"?>
<!-- Generator: Adobe Illustrator 23.0.0, SVG Export Plug-In . SVG Version: 6.00 Build 0)  -->
<svg version="1.1" id="Capa_1" xmlns="http://www.w3.org/2000/svg" xmlns:xlink="http://www.w3.org/1999/xlink" x="0px" y="0px"
	 viewBox="0 0 156 106" style="enable-background:new 0 0 156 106;" xml:space="preserve">
<style type="text/css">
	.st0{fill:#60A3E3;}
</style>
<path class="st0" d="M77.14,32.75c-0.39,0-0.77-0.15-1.06-0.46l-4.15-4.49l-22.38,0.48c-0.01,0-0.02,0-0.03,0
	c-0.78,0-1.42-0.62-1.44-1.41c-0.02-0.79,0.61-1.45,1.41-1.47l23.02-0.5c0.41-0.01,0.81,0.16,1.09,0.46l4.59,4.96
	c0.54,0.58,0.5,1.49-0.08,2.03C77.84,32.62,77.49,32.75,77.14,32.75"/>
<path class="st0" d="M38.61,76.88c-2.53,0-5.01-1.21-6.39-3.39c-1.68-2.64-1.34-5.95,0.84-8.24c0.55-0.57,1.46-0.6,2.03-0.05
	c0.57,0.55,0.6,1.46,0.05,2.03c-1.25,1.32-1.45,3.21-0.49,4.71c1.28,2.01,4.1,2.67,6.29,1.47l3.75-2.04
	c0.7-0.38,1.57-0.12,1.95,0.58c0.38,0.7,0.12,1.57-0.58,1.95l-3.75,2.04C41.15,76.58,39.87,76.88,38.61,76.88"/>
<path class="st0" d="M68.94,96.31c-2.13,0-4.22-1.02-5.38-2.85c-0.85-1.34-1.11-2.91-0.71-4.43c0.4-1.56,1.42-2.86,2.88-3.67
	l1.51-1.02c0.66-0.44,1.55-0.27,1.99,0.39c0.44,0.66,0.27,1.55-0.39,1.99l-1.56,1.05c-0.04,0.02-0.08,0.05-0.12,0.07
	c-0.78,0.43-1.33,1.1-1.54,1.9c-0.19,0.74-0.06,1.51,0.36,2.17c0.95,1.49,3.05,1.98,4.68,1.09l6.43-3.68
	c0.69-0.39,1.57-0.15,1.96,0.54c0.39,0.69,0.15,1.57-0.54,1.96l-6.45,3.68l-0.02,0.01C71.08,96.06,70,96.31,68.94,96.31"/>
<path class="st0" d="M42.32,87.76c-2.53,0-5.01-1.21-6.39-3.39c-1.01-1.58-1.31-3.43-0.85-5.23c0.48-1.87,1.72-3.43,3.49-4.39
	l6.11-3.37c0.7-0.38,1.57-0.13,1.95,0.57c0.38,0.7,0.13,1.57-0.56,1.95l-6.12,3.37c-1.07,0.58-1.8,1.5-2.08,2.59
	c-0.26,1.01-0.09,2.06,0.49,2.96c1.28,2.01,4.09,2.67,6.28,1.48l11.45-6.54c0.69-0.39,1.57-0.15,1.96,0.54
	c0.39,0.69,0.15,1.57-0.54,1.96l-11.46,6.55c-0.01,0.01-0.02,0.01-0.02,0.01C44.86,87.45,43.58,87.76,42.32,87.76"/>
<path class="st0" d="M50.85,95.78c-2.53,0-5.01-1.21-6.39-3.38c-1.01-1.58-1.31-3.44-0.84-5.23c0.48-1.87,1.72-3.42,3.49-4.39
	l9.01-5.02c0.69-0.39,1.57-0.14,1.95,0.56c0.39,0.69,0.14,1.57-0.55,1.95l-9.02,5.03c-1.07,0.58-1.81,1.5-2.09,2.59
	c-0.26,1.01-0.09,2.07,0.49,2.97c1.28,2,4.1,2.67,6.29,1.47l14.67-8.06c0.7-0.38,1.57-0.13,1.95,0.57c0.38,0.7,0.13,1.57-0.57,1.95
	l-14.67,8.06C53.39,95.48,52.11,95.78,50.85,95.78"/>
<path class="st0" d="M111.13,73.92c-0.51,0-1-0.27-1.26-0.75c-0.38-0.7-0.12-1.57,0.57-1.95l7.83-4.27c3.67-2,6.56-4.93,8.35-8.47
	c0.36-0.71,1.22-0.99,1.93-0.63c0.71,0.36,0.99,1.22,0.63,1.93c-2.06,4.06-5.36,7.41-9.54,9.69l-7.83,4.27
	C111.6,73.86,111.36,73.92,111.13,73.92"/>
<path class="st0" d="M109.29,72.23c-1.27,0-2.54-0.3-3.71-0.94L71.13,52.39c-0.7-0.38-0.95-1.26-0.57-1.95
	c0.38-0.69,1.26-0.95,1.95-0.57l34.45,18.89c2.19,1.2,5.01,0.54,6.29-1.47c0.57-0.9,0.75-1.96,0.49-2.97
	c-0.28-1.09-1.02-2.01-2.08-2.59l-32.1-17.51c-0.7-0.38-0.95-1.25-0.57-1.95c0.38-0.7,1.25-0.95,1.95-0.57l32.11,17.51
	c1.77,0.97,3.01,2.53,3.49,4.39c0.46,1.79,0.16,3.65-0.85,5.23C114.29,71.02,111.82,72.23,109.29,72.23"/>
<path class="st0" d="M70.4,39.04c-0.24,0-0.48-0.06-0.7-0.18l-5.38-3c-0.69-0.39-0.94-1.26-0.55-1.95c0.39-0.69,1.26-0.94,1.96-0.55
	l5.38,3c0.69,0.39,0.94,1.26,0.55,1.95C71.4,38.78,70.91,39.04,70.4,39.04"/>
<path class="st0" d="M83.02,93.77c-1.06,0-2.13-0.25-3.11-0.78l-43.42-23.8c-0.7-0.38-0.95-1.26-0.57-1.95
	c0.38-0.7,1.26-0.95,1.95-0.57l43.42,23.8c1.63,0.89,3.74,0.4,4.69-1.09c0.42-0.66,0.55-1.43,0.36-2.17
	c-0.21-0.8-0.75-1.48-1.54-1.91L61.34,72.58c-0.7-0.38-0.96-1.25-0.58-1.95c0.38-0.7,1.25-0.96,1.95-0.58l23.46,12.73
	c1.5,0.82,2.54,2.14,2.95,3.72c0.39,1.52,0.13,3.09-0.72,4.43C87.24,92.75,85.15,93.77,83.02,93.77"/>
<path class="st0" d="M109.64,85.22c-1.26,0-2.54-0.3-3.7-0.93l-39.56-21.8c-0.7-0.38-0.95-1.26-0.57-1.95
	c0.38-0.69,1.26-0.95,1.95-0.57l39.55,21.8c2.19,1.19,5.01,0.53,6.29-1.48c0.58-0.9,0.75-1.95,0.49-2.96
	c-0.28-1.09-1.02-2.01-2.08-2.59L71.13,52.4c-0.7-0.38-0.95-1.25-0.57-1.95c0.38-0.7,1.25-0.95,1.95-0.57l40.89,22.34
	c1.77,0.96,3.01,2.52,3.49,4.39c0.46,1.79,0.16,3.65-0.85,5.23C114.65,84.01,112.18,85.22,109.64,85.22"/>
<path class="st0" d="M101.12,93.25c-1.26,0-2.54-0.3-3.71-0.94L61.34,72.58c-0.7-0.38-0.95-1.25-0.57-1.95
	c0.38-0.7,1.25-0.95,1.95-0.57l36.07,19.74c2.19,1.2,5.02,0.54,6.29-1.47c0.57-0.9,0.75-1.95,0.49-2.96
	c-0.28-1.09-1.02-2.01-2.08-2.59L66.39,62.49c-0.7-0.38-0.95-1.25-0.57-1.95c0.38-0.7,1.25-0.95,1.95-0.57l37.1,20.28
	c1.77,0.96,3.01,2.52,3.49,4.39c0.46,1.79,0.16,3.64-0.85,5.23C106.13,92.04,103.65,93.25,101.12,93.25"/>
<path class="st0" d="M48.11,75.35c-0.23,0-0.47-0.06-0.69-0.18l-15.11-8.24c-2.55-1.39-4.77-3.17-6.6-5.3
	c-0.52-0.6-0.45-1.51,0.15-2.03c0.6-0.52,1.51-0.45,2.03,0.15c1.6,1.86,3.55,3.43,5.79,4.65l15.11,8.24
	c0.7,0.38,0.95,1.25,0.57,1.95C49.12,75.08,48.62,75.35,48.11,75.35"/>
<path class="st0" d="M68.41,49.34c-1.06,0-2.02-0.12-2.83-0.29c-2.78-0.57-4.55-1.81-4.62-1.86c-0.35-0.25-0.57-0.64-0.6-1.07
	c-0.03-0.43,0.13-0.85,0.45-1.14L80.3,26.56c0.29-0.27,0.67-0.41,1.07-0.39l22.7,1.27c0.06,0,1.76,0.09,3.97,0.37
	c0.79,0.1,1.34,0.82,1.24,1.61c-0.1,0.79-0.82,1.34-1.61,1.24c-2.1-0.27-3.74-0.35-3.76-0.35l-22.09-1.24L64.24,45.68
	c2.12,0.85,6.09,1.67,10.69-1.17c7.48-4.62,11.81-8,11.85-8.04c0.37-0.29,0.85-0.38,1.3-0.25l15.46,4.61
	c0.02,0.01,0.04,0.01,0.05,0.02c0,0,0.84,0.27,2.05,0.33c0.79,0.04,1.4,0.71,1.36,1.51c-0.04,0.79-0.71,1.4-1.51,1.37
	c-1.52-0.07-2.59-0.4-2.81-0.47l-14.73-4.39c-1.44,1.09-5.42,4-11.52,7.77C73.47,48.79,70.69,49.34,68.41,49.34"/>
<path class="st0" d="M24.32,65.84c-0.28,0-0.56-0.08-0.8-0.24L4.41,52.88c-0.66-0.44-0.84-1.33-0.4-1.99l26.77-40.24
	c0.44-0.66,1.33-0.84,1.99-0.4L51.9,22.97c0.32,0.21,0.54,0.54,0.61,0.91c0.08,0.37,0,0.76-0.21,1.08L25.52,65.2
	c-0.21,0.32-0.54,0.54-0.91,0.61C24.51,65.83,24.42,65.84,24.32,65.84 M7.2,51.28l16.73,11.13l25.18-37.85L32.38,13.43L7.2,51.28z"
	/>
<path class="st0" d="M131.44,65.84c-0.09,0-0.19-0.01-0.28-0.03c-0.37-0.07-0.7-0.29-0.91-0.61l-26.78-40.24
	c-0.21-0.32-0.29-0.71-0.21-1.08c0.07-0.37,0.29-0.7,0.61-0.91l19.12-12.72c0.66-0.44,1.55-0.26,1.99,0.4l26.77,40.24
	c0.44,0.66,0.26,1.55-0.4,1.99L132.24,65.6C132,65.76,131.73,65.84,131.44,65.84 M106.66,24.56l25.18,37.85l16.73-11.13
	l-25.18-37.85L106.66,24.56z"/>
</svg>
