<?xml version="1.0" encoding="utf-8"?>
<!-- Generator: Adobe Illustrator 23.0.0, SVG Export Plug-In . SVG Version: 6.00 Build 0)  -->
<svg version="1.1" id="Capa_1" xmlns="http://www.w3.org/2000/svg" xmlns:xlink="http://www.w3.org/1999/xlink" x="0px" y="0px"
	 viewBox="0 0 76.85 68.94" style="enable-background:new 0 0 76.85 68.94;" xml:space="preserve">
<style type="text/css">
	.st0{fill:#FFFFFF;}
</style>
<g>
	<g>
		<path class="st0" d="M37.38,66.75l-0.64-0.33C35.79,65.93,13.43,54.17,3.75,29.1c-2.48-6.42-1.83-12.89,1.83-18.23
			c3.68-5.36,9.99-8.69,16.47-8.69c5.89,0,11.4,2.67,15.69,7.56c5.91-6.17,11.94-7.52,16.08-7.52c6.94,0,13.66,3.85,17.54,10.05
			c3.86,6.16,4.26,13.43,1.1,19.93C59.87,58.15,38.94,66.17,38.06,66.5L37.38,66.75z M21.41,4.31c-5.64,0-11.13,2.9-14.32,7.56
			c-3.15,4.6-3.7,10.21-1.53,15.81c8.66,22.44,28.13,34.42,32,36.62c3.78-1.66,22-10.61,33.2-33.66c2.76-5.68,2.41-12.04-0.97-17.43
			c-3.41-5.45-9.3-8.85-15.35-8.85c-5.6,0-10.96,2.81-15.49,8.12l-1.37,1.61L36.3,12.4C32.35,7.19,27.06,4.31,21.41,4.31z"/>
	</g>
	<g>
		<polygon class="st0" points="40.17,50.78 28.83,22.71 22.01,36.65 8.5,36.65 8.5,34.04 20.38,34.04 29.06,16.29 40.22,43.91 
			48.64,23.8 54.34,34.04 70.02,34.04 70.02,36.65 52.8,36.65 48.97,29.77 		"/>
	</g>
</g>
</svg>
