<?xml version="1.0" encoding="utf-8"?>
<!-- Generator: Adobe Illustrator 23.0.0, SVG Export Plug-In . SVG Version: 6.00 Build 0)  -->
<svg version="1.1" id="Capa_1" xmlns="http://www.w3.org/2000/svg" xmlns:xlink="http://www.w3.org/1999/xlink" x="0px" y="0px"
	 viewBox="0 0 167 52" style="enable-background:new 0 0 167 52;" xml:space="preserve">
<style type="text/css">
	.st0{fill:#EAEBED;}
	.st1{fill:#6C8A4A;}
	.st2{fill:#5F7B41;}
	.st3{fill:#F8F8F8;}
	.st4{fill-rule:evenodd;clip-rule:evenodd;fill:#6081C3;}
	.st5{fill-rule:evenodd;clip-rule:evenodd;fill:#FFFFFF;}
	.st6{fill:#E5E5DC;}
	.st7{fill:#D4D3C6;}
	.st8{fill:#98A0A0;}
	.st9{fill:#FFFFFF;}
	.st10{fill:#BEB9B4;}
</style>
<g>
	<g>
		<g>
			<path class="st0" d="M107.45,40.2h-16.8c-0.66,0-1.2-0.54-1.2-1.2c0-0.66,0-23.34,0-24s0.54-1.2,1.2-1.2h16.8
				c0.66,0,1.2,0.54,1.2,1.2v24C108.65,39.66,108.12,40.2,107.45,40.2z"/>
			<g>
				<path class="st1" d="M95.45,21h-4.8c-0.66,0-1.2-0.54-1.2-1.2s0.54-1.2,1.2-1.2h4.8c0.66,0,1.2,0.54,1.2,1.2S96.12,21,95.45,21z
					"/>
				<path class="st1" d="M95.45,25.8h-4.8c-0.66,0-1.2-0.54-1.2-1.2c0-0.66,0.54-1.2,1.2-1.2h4.8c0.66,0,1.2,0.54,1.2,1.2
					C96.65,25.26,96.12,25.8,95.45,25.8z"/>
				<path class="st1" d="M95.45,30.6h-4.8c-0.66,0-1.2-0.54-1.2-1.2c0-0.66,0.54-1.2,1.2-1.2h4.8c0.66,0,1.2,0.54,1.2,1.2
					C96.65,30.06,96.12,30.6,95.45,30.6z"/>
				<path class="st1" d="M95.45,35.4h-4.8c-0.66,0-1.2-0.54-1.2-1.2c0-0.66,0.54-1.2,1.2-1.2h4.8c0.66,0,1.2,0.54,1.2,1.2
					C96.65,34.86,96.12,35.4,95.45,35.4z"/>
				<path class="st1" d="M102.65,21h-2.4c-0.66,0-1.2-0.54-1.2-1.2s0.54-1.2,1.2-1.2h2.4c0.66,0,1.2,0.54,1.2,1.2
					S103.32,21,102.65,21z"/>
				<path class="st1" d="M102.65,25.8h-2.4c-0.66,0-1.2-0.54-1.2-1.2c0-0.66,0.54-1.2,1.2-1.2h2.4c0.66,0,1.2,0.54,1.2,1.2
					C103.85,25.26,103.32,25.8,102.65,25.8z"/>
				<path class="st1" d="M102.65,30.6h-2.4c-0.66,0-1.2-0.54-1.2-1.2c0-0.66,0.54-1.2,1.2-1.2h2.4c0.66,0,1.2,0.54,1.2,1.2
					C103.85,30.06,103.32,30.6,102.65,30.6z"/>
				<path class="st1" d="M102.65,35.4h-2.4c-0.66,0-1.2-0.54-1.2-1.2c0-0.66,0.54-1.2,1.2-1.2h2.4c0.66,0,1.2,0.54,1.2,1.2
					C103.85,34.86,103.32,35.4,102.65,35.4z"/>
			</g>
			<path class="st2" d="M91.42,9.28c-0.27-0.23-0.64-0.33-0.99-0.25l-19.2,3.6c-0.57,0.11-0.98,0.6-0.98,1.18v26.4
				c0,0.58,0.41,1.07,0.98,1.18l19.2,3.6c0.07,0.01,0.15,0.02,0.22,0.02c0.28,0,0.55-0.1,0.77-0.28c0.28-0.23,0.43-0.57,0.43-0.92
				V10.2C91.85,9.84,91.7,9.51,91.42,9.28z"/>
			<path class="st3" d="M86.76,31.01l-3.79-4.34l3.84-4.93c0.41-0.52,0.31-1.28-0.21-1.68s-1.27-0.31-1.68,0.21l-3.55,4.57l-3-3.42
				c-0.44-0.5-1.2-0.55-1.69-0.11c-0.5,0.44-0.55,1.2-0.11,1.69l3.3,3.77l-3.35,4.3c-0.41,0.52-0.31,1.28,0.21,1.68
				C76.94,32.92,77.2,33,77.45,33c0.36,0,0.71-0.16,0.95-0.46l3.06-3.94l3.49,3.99c0.24,0.27,0.57,0.41,0.9,0.41
				c0.28,0,0.56-0.1,0.79-0.3C87.14,32.27,87.19,31.51,86.76,31.01z"/>
		</g>
		<g id="layer1" transform="translate(0,-992.36218)">
			<g id="g3343" transform="matrix(0.96778326,0,0,0.96778326,4.2163353,39.614979)">
				<g id="g3128" transform="matrix(0.15227353,0,0,0.15227353,-50.593719,968.83104)">
					<path id="path3130" class="st4" d="M505.52,163.73c-67.49,0-122.2,54.67-122.2,122.13c0,8.59,0.9,16.97,2.59,25.07
						c10.74-2.92,22.03-4.48,33.7-4.48c18.69,0,36.44,4,52.46,11.19c20.96-14.95,46.65-23.74,74.37-23.74c17.36,0,33.91,3.45,49,9.7
						c0.08,0.03,0.15,0.06,0.23,0.09c0.62,0.31,1.06,0.95,1.06,1.7c0,1.04-0.85,1.9-1.91,1.9c-0.04,0-1.86-0.14-2.73-0.2
						c-3-0.22-6.06-0.33-9.11-0.33c-42.85,0-81.35,15.73-104.69,47.65c-0.37,0.51-1.1,1.54-1.11,1.54
						c-0.34,0.43-0.87,0.71-1.46,0.71c-0.48,0-0.91-0.18-1.24-0.48c-0.06-0.04-0.11-0.09-0.16-0.14
						c-22.15-20.83-51.33-29.07-84.09-29.65c16.72,47.53,62.01,81.63,115.28,81.63c67.49,0,122.21-54.69,122.21-122.14
						C627.72,218.41,573,163.74,505.52,163.73L505.52,163.73z M601.19,236.83c-0.43-0.04-1.16-0.16-1.63-0.23
						c-1.36-0.21-2.74-0.39-4.12-0.52c-24.92-2.35-48.11,4.57-63.25,22.1c-0.63,0.65-1.19,0.68-1.81,0.03
						c-12.03-13.64-29.16-19.7-48.83-21.56c-7.01-0.67-13.89-0.32-20.48,0.91c-0.03,0-0.06,0-0.09,0.01c-0.06,0-0.13,0.02-0.21,0.02
						c-0.7,0-1.27-0.57-1.27-1.27c0-0.41,0.2-0.77,0.49-0.99c0.12-0.07,0.24-0.14,0.36-0.2c12.27-6.42,26.45-9.49,41.25-8.09
						c10.73,1.02,20.72,4.27,29.52,9.27c12.86-7.45,28.09-11.1,44.01-9.6c9.01,0.85,17.5,3.3,25.2,7.01
						c0.47,0.24,0.96,0.47,1.43,0.73c0.47,0.23,0.68,0.64,0.68,1.13C602.47,236.27,602.01,236.93,601.19,236.83z"/>
					<path id="path3132" class="st5" d="M601.77,234.44c-0.47-0.26-0.96-0.49-1.43-0.73c-7.71-3.71-16.19-6.15-25.2-7.01
						c-15.92-1.5-31.15,2.15-44.01,9.6c-8.8-5-18.79-8.25-29.52-9.27c-14.8-1.4-28.98,1.67-41.25,8.09
						c-0.12,0.06-0.24,0.13-0.36,0.2c-0.29,0.23-0.49,0.59-0.49,0.99c0,0.7,0.56,1.27,1.27,1.27c0.07,0,0.14-0.02,0.21-0.02
						c0.03-0.01,0.06-0.01,0.09-0.01c6.59-1.22,13.47-1.57,20.48-0.91c19.67,1.86,36.8,7.92,48.83,21.56
						c0.62,0.65,1.18,0.61,1.81-0.03c15.13-17.53,38.32-24.45,63.25-22.1c1.38,0.13,2.76,0.31,4.12,0.52
						c0.47,0.06,1.21,0.18,1.63,0.23c0.83,0.1,1.28-0.56,1.28-1.26C602.45,235.08,602.24,234.67,601.77,234.44z"/>
					<path id="path3134" class="st5" d="M474.48,356.18c0.33,0.3,0.76,0.48,1.24,0.48c0.59,0,1.12-0.28,1.46-0.71
						c0.01,0,0.74-1.03,1.11-1.54c23.35-31.92,61.85-47.65,104.69-47.65c3.05,0,6.11,0.11,9.11,0.33c0.87,0.06,2.69,0.2,2.73,0.2
						c1.05,0,1.91-0.85,1.91-1.9c0-0.76-0.44-1.4-1.06-1.7c-0.08-0.03-0.15-0.06-0.23-0.09c-15.09-6.25-31.64-9.7-49-9.7
						c-27.72,0-53.4,8.79-74.38,23.74c-16.02-7.19-33.77-11.19-52.46-11.19c-11.66,0-22.96,1.56-33.7,4.48
						c1.1,5.29,2.57,10.44,4.33,15.45c32.76,0.57,61.93,8.82,84.09,29.65C474.36,356.09,474.42,356.14,474.48,356.18z"/>
				</g>
			</g>
		</g>
	</g>
	<g>
		<path class="st6" d="M148.85,9.8h-18.24c-0.51,0-0.92,0.41-0.92,1.21v33.36c0,0.22,0.41,0.63,0.92,0.63h25.19
			c0.51,0,0.92-0.41,0.92-0.63V17.96c0-0.44-0.06-0.58-0.16-0.68l-7.31-7.31C149.13,9.86,148.99,9.8,148.85,9.8L148.85,9.8z
			 M148.85,9.8"/>
		<path class="st7" d="M149.17,9.9v7.45h7.45L149.17,9.9z M149.17,9.9"/>
		<path class="st8" d="M155.79,45h-25.19c-0.51,0-0.92-0.41-0.92-0.92v-9.77h27.03v9.77C156.71,44.59,156.3,45,155.79,45L155.79,45z
			 M155.79,45"/>
		<path class="st9" d="M139.34,36.78v0.7h-1.89v5.63h-1.04v-5.63h-1.89v-0.7H139.34z M139.34,36.78"/>
		<path class="st9" d="M143.48,40.04l1.61,3.08h-1.2l-1-2.39h-0.09l-1.08,2.39h-1.19l1.61-3.08l-1.71-3.26h1.18l1.12,2.58h0.09
			l1.21-2.58h1.18L143.48,40.04z M143.48,40.04"/>
		<path class="st9" d="M151.07,36.78v0.7h-1.89v5.63h-1.04v-5.63h-1.89v-0.7H151.07z M151.07,36.78"/>
		<path class="st10" d="M137.23,17.97h-3.77c-0.35,0-0.63-0.28-0.63-0.63c0-0.35,0.28-0.63,0.63-0.63h3.77
			c0.35,0,0.63,0.28,0.63,0.63C137.86,17.69,137.58,17.97,137.23,17.97L137.23,17.97z M137.23,17.97"/>
		<path class="st10" d="M139.11,21.11h-5.66c-0.35,0-0.63-0.28-0.63-0.63c0-0.35,0.28-0.63,0.63-0.63h5.66
			c0.35,0,0.63,0.28,0.63,0.63C139.74,20.83,139.46,21.11,139.11,21.11L139.11,21.11z M139.11,21.11"/>
		<path class="st10" d="M141.63,21.11c-0.16,0-0.33-0.07-0.44-0.18c-0.11-0.12-0.18-0.28-0.18-0.44c0-0.17,0.07-0.33,0.19-0.45
			c0.23-0.23,0.65-0.23,0.89,0c0.11,0.12,0.18,0.28,0.18,0.45c0,0.16-0.07,0.33-0.18,0.44C141.96,21.05,141.79,21.11,141.63,21.11
			L141.63,21.11z M141.63,21.11"/>
		<path class="st10" d="M149.17,21.11h-5.03c-0.35,0-0.63-0.28-0.63-0.63c0-0.35,0.28-0.63,0.63-0.63h5.03
			c0.35,0,0.63,0.28,0.63,0.63C149.8,20.83,149.52,21.11,149.17,21.11L149.17,21.11z M149.17,21.11"/>
		<path class="st10" d="M133.46,30.54c-0.16,0-0.33-0.07-0.45-0.18c-0.11-0.12-0.18-0.28-0.18-0.44c0-0.17,0.07-0.33,0.18-0.45
			c0.23-0.23,0.66-0.23,0.89,0.01c0.11,0.11,0.18,0.28,0.18,0.44c0,0.16-0.07,0.33-0.18,0.44
			C133.78,30.47,133.62,30.54,133.46,30.54L133.46,30.54z M133.46,30.54"/>
		<path class="st10" d="M141,30.54h-5.03c-0.35,0-0.63-0.28-0.63-0.63c0-0.35,0.28-0.63,0.63-0.63H141c0.35,0,0.63,0.28,0.63,0.63
			C141.63,30.26,141.35,30.54,141,30.54L141,30.54z M141,30.54"/>
		<path class="st10" d="M152.94,21.11h-1.26c-0.35,0-0.63-0.28-0.63-0.63c0-0.35,0.28-0.63,0.63-0.63h1.26
			c0.35,0,0.63,0.28,0.63,0.63C153.57,20.83,153.29,21.11,152.94,21.11L152.94,21.11z M152.94,21.11"/>
		<path class="st10" d="M147.28,24.26h-13.83c-0.35,0-0.63-0.28-0.63-0.63c0-0.35,0.28-0.63,0.63-0.63h13.83
			c0.35,0,0.63,0.28,0.63,0.63C147.91,23.98,147.63,24.26,147.28,24.26L147.28,24.26z M147.28,24.26"/>
		<path class="st10" d="M152.94,24.26h-3.77c-0.35,0-0.63-0.28-0.63-0.63c0-0.35,0.28-0.63,0.63-0.63h3.77
			c0.35,0,0.63,0.28,0.63,0.63C153.57,23.98,153.29,24.26,152.94,24.26L152.94,24.26z M152.94,24.26"/>
		<path class="st10" d="M135.97,27.4h-2.51c-0.35,0-0.63-0.28-0.63-0.63c0-0.35,0.28-0.63,0.63-0.63h2.51
			c0.35,0,0.63,0.28,0.63,0.63C136.6,27.12,136.32,27.4,135.97,27.4L135.97,27.4z M135.97,27.4"/>
		<path class="st10" d="M144.77,27.4h-6.29c-0.35,0-0.63-0.28-0.63-0.63c0-0.35,0.28-0.63,0.63-0.63h6.29
			c0.35,0,0.63,0.28,0.63,0.63C145.4,27.12,145.12,27.4,144.77,27.4L144.77,27.4z M144.77,27.4"/>
		<path class="st10" d="M152.94,27.4h-5.66c-0.35,0-0.63-0.28-0.63-0.63c0-0.35,0.28-0.63,0.63-0.63h5.66
			c0.35,0,0.63,0.28,0.63,0.63C153.57,27.12,153.29,27.4,152.94,27.4L152.94,27.4z M152.94,27.4"/>
	</g>
</g>
</svg>
