<?xml version="1.0" encoding="utf-8"?>
<!-- Generator: Adobe Illustrator 23.0.0, SVG Export Plug-In . SVG Version: 6.00 Build 0)  -->
<svg version="1.1" id="Capa_1" xmlns="http://www.w3.org/2000/svg" xmlns:xlink="http://www.w3.org/1999/xlink" x="0px" y="0px"
	 viewBox="0 0 151 41" style="enable-background:new 0 0 151 41;" xml:space="preserve">
<style type="text/css">
	.st0{fill:#EBEDEF;}
	.st1{fill:#5C8C44;}
	.st2{fill:#507C3A;}
	.st3{fill:#F9F9F9;}
	.st4{fill-rule:evenodd;clip-rule:evenodd;fill:#4C83C8;}
	.st5{fill-rule:evenodd;clip-rule:evenodd;fill:#FFFFFF;}
	.st6{fill:#E7E7DE;}
	.st7{fill:#97A2A2;}
	.st8{fill:#FFFFFF;}
	.st9{fill:#C3BBB6;}
</style>
<path class="st0" d="M99.45,33.2h-16.8c-0.66,0-1.2-0.54-1.2-1.2V8c0-0.66,0.54-1.2,1.2-1.2h16.8c0.66,0,1.2,0.54,1.2,1.2v24
	C100.65,32.66,100.12,33.2,99.45,33.2"/>
<path class="st1" d="M87.45,14h-4.8c-0.66,0-1.2-0.54-1.2-1.2c0-0.66,0.54-1.2,1.2-1.2h4.8c0.66,0,1.2,0.54,1.2,1.2
	C88.65,13.46,88.12,14,87.45,14"/>
<path class="st1" d="M87.45,18.8h-4.8c-0.66,0-1.2-0.54-1.2-1.2c0-0.66,0.54-1.2,1.2-1.2h4.8c0.66,0,1.2,0.54,1.2,1.2
	C88.65,18.26,88.12,18.8,87.45,18.8"/>
<path class="st1" d="M87.45,23.6h-4.8c-0.66,0-1.2-0.54-1.2-1.2c0-0.66,0.54-1.2,1.2-1.2h4.8c0.66,0,1.2,0.54,1.2,1.2
	C88.65,23.06,88.12,23.6,87.45,23.6"/>
<path class="st1" d="M87.45,28.4h-4.8c-0.66,0-1.2-0.54-1.2-1.2c0-0.66,0.54-1.2,1.2-1.2h4.8c0.66,0,1.2,0.54,1.2,1.2
	C88.65,27.86,88.12,28.4,87.45,28.4"/>
<path class="st1" d="M94.65,14h-2.4c-0.66,0-1.2-0.54-1.2-1.2c0-0.66,0.54-1.2,1.2-1.2h2.4c0.66,0,1.2,0.54,1.2,1.2
	C95.85,13.46,95.32,14,94.65,14"/>
<path class="st1" d="M94.65,18.8h-2.4c-0.66,0-1.2-0.54-1.2-1.2c0-0.66,0.54-1.2,1.2-1.2h2.4c0.66,0,1.2,0.54,1.2,1.2
	C95.85,18.26,95.32,18.8,94.65,18.8"/>
<path class="st1" d="M94.65,23.6h-2.4c-0.66,0-1.2-0.54-1.2-1.2c0-0.66,0.54-1.2,1.2-1.2h2.4c0.66,0,1.2,0.54,1.2,1.2
	C95.85,23.06,95.32,23.6,94.65,23.6"/>
<path class="st1" d="M94.65,28.4h-2.4c-0.66,0-1.2-0.54-1.2-1.2c0-0.66,0.54-1.2,1.2-1.2h2.4c0.66,0,1.2,0.54,1.2,1.2
	C95.85,27.86,95.32,28.4,94.65,28.4"/>
<path class="st2" d="M83.42,2.28c-0.27-0.23-0.64-0.33-0.99-0.25l-19.2,3.6c-0.57,0.11-0.98,0.6-0.98,1.18v26.4
	c0,0.58,0.41,1.07,0.98,1.18l19.2,3.6c0.07,0.01,0.15,0.02,0.22,0.02c0.28,0,0.55-0.1,0.77-0.28c0.27-0.23,0.43-0.57,0.43-0.92V3.2
	C83.85,2.84,83.69,2.51,83.42,2.28"/>
<path class="st3" d="M78.76,24.01l-3.79-4.34l3.84-4.93c0.41-0.52,0.31-1.28-0.21-1.68c-0.52-0.41-1.27-0.31-1.69,0.21l-3.55,4.57
	l-2.99-3.42c-0.44-0.5-1.2-0.55-1.69-0.11c-0.5,0.44-0.55,1.2-0.11,1.69l3.3,3.77l-3.35,4.3c-0.41,0.52-0.31,1.28,0.21,1.68
	C68.94,25.92,69.2,26,69.45,26c0.36,0,0.71-0.16,0.95-0.46l3.06-3.93l3.49,3.99c0.24,0.27,0.57,0.41,0.9,0.41
	c0.28,0,0.56-0.1,0.79-0.3C79.14,25.27,79.19,24.51,78.76,24.01"/>
<path class="st4" d="M21.75,2C11.8,2,3.74,10.06,3.74,20c0,1.27,0.13,2.5,0.38,3.69c1.58-0.43,3.25-0.66,4.97-0.66
	c2.76,0,5.37,0.59,7.73,1.65c3.09-2.2,6.88-3.5,10.96-3.5c2.56,0,5,0.51,7.22,1.43c0.01,0,0.02,0.01,0.04,0.01
	c0.09,0.04,0.16,0.14,0.16,0.25c0,0.15-0.13,0.28-0.28,0.28c-0.01,0-0.27-0.02-0.4-0.03c-0.44-0.03-0.89-0.05-1.34-0.05
	c-6.31,0-11.99,2.32-15.43,7.02c-0.06,0.07-0.16,0.23-0.16,0.23c-0.05,0.06-0.13,0.1-0.22,0.1c-0.07,0-0.13-0.03-0.18-0.07
	c-0.01-0.01-0.02-0.01-0.02-0.02c-3.27-3.07-7.57-4.28-12.39-4.37C7.22,32.98,13.9,38,21.75,38c9.95,0,18.01-8.06,18.01-18
	C39.76,10.06,31.7,2,21.75,2L21.75,2z M35.85,12.77c-0.06-0.01-0.17-0.02-0.24-0.03c-0.2-0.03-0.4-0.06-0.61-0.08
	c-3.67-0.35-7.09,0.67-9.32,3.26c-0.09,0.09-0.17,0.1-0.27,0.01c-1.77-2.01-4.3-2.9-7.2-3.18c-1.03-0.1-2.05-0.05-3.02,0.13
	c0,0-0.01,0-0.01,0c-0.01,0-0.02,0-0.03,0c-0.1,0-0.19-0.08-0.19-0.19c0-0.06,0.03-0.11,0.07-0.15c0.02-0.01,0.03-0.02,0.05-0.03
	c1.81-0.95,3.9-1.4,6.08-1.19c1.58,0.15,3.05,0.63,4.35,1.37c1.89-1.1,4.14-1.64,6.49-1.41c1.33,0.13,2.58,0.49,3.71,1.03
	c0.07,0.04,0.14,0.07,0.21,0.11c0.07,0.03,0.1,0.09,0.1,0.17C36.04,12.69,35.97,12.79,35.85,12.77"/>
<path class="st5" d="M35.93,12.42c-0.07-0.04-0.14-0.07-0.21-0.11c-1.14-0.55-2.39-0.91-3.71-1.03c-2.35-0.22-4.59,0.32-6.48,1.41
	c-1.3-0.74-2.77-1.22-4.35-1.37c-2.18-0.21-4.27,0.25-6.08,1.19c-0.02,0.01-0.04,0.02-0.05,0.03c-0.04,0.03-0.07,0.09-0.07,0.15
	c0,0.1,0.08,0.19,0.19,0.19c0.01,0,0.02,0,0.03,0c0.01,0,0.01,0,0.01,0c0.97-0.18,1.98-0.23,3.02-0.13c2.9,0.27,5.42,1.17,7.2,3.18
	c0.09,0.1,0.17,0.09,0.27-0.01c2.23-2.58,5.65-3.6,9.32-3.26c0.2,0.02,0.41,0.05,0.61,0.08c0.07,0.01,0.18,0.03,0.24,0.03
	c0.12,0.01,0.19-0.08,0.19-0.19C36.04,12.51,36,12.45,35.93,12.42"/>
<path class="st5" d="M17.18,30.36c0.05,0.04,0.11,0.07,0.18,0.07c0.09,0,0.16-0.04,0.21-0.1c0,0,0.11-0.15,0.16-0.23
	c3.44-4.7,9.11-7.02,15.43-7.02c0.45,0,0.9,0.02,1.34,0.05c0.13,0.01,0.4,0.03,0.4,0.03c0.16,0,0.28-0.13,0.28-0.28
	c0-0.11-0.07-0.21-0.16-0.25c-0.01-0.01-0.02-0.01-0.03-0.01c-2.22-0.92-4.66-1.43-7.22-1.43c-4.08,0-7.87,1.29-10.96,3.5
	c-2.36-1.06-4.98-1.65-7.73-1.65c-1.72,0-3.38,0.23-4.97,0.66c0.16,0.78,0.38,1.54,0.64,2.28c4.83,0.09,9.13,1.3,12.39,4.37
	C17.16,30.35,17.17,30.36,17.18,30.36"/>
<path class="st6" d="M140.85,2.8h-18.24c-0.51,0-0.92,0.41-0.92,1.21v33.36c0,0.22,0.41,0.63,0.92,0.63h25.19
	c0.51,0,0.92-0.41,0.92-0.63V10.96c0-0.44-0.06-0.58-0.16-0.68l-7.31-7.31C141.13,2.86,140.99,2.8,140.85,2.8"/>
<path class="st7" d="M147.79,38h-25.19c-0.51,0-0.92-0.41-0.92-0.92v-9.77h27.03v9.77C148.71,37.59,148.3,38,147.79,38"/>
<polygon class="st8" points="131.34,29.78 131.34,30.48 129.45,30.48 129.45,36.11 128.41,36.11 128.41,30.48 126.52,30.48 
	126.52,29.78 "/>
<polygon class="st8" points="135.48,33.04 137.09,36.11 135.89,36.11 134.89,33.72 134.8,33.72 133.72,36.11 132.52,36.11 
	134.13,33.04 132.42,29.78 133.6,29.78 134.71,32.36 134.8,32.36 136.01,29.78 137.19,29.78 "/>
<polygon class="st8" points="143.07,29.78 143.07,30.48 141.18,30.48 141.18,36.11 140.14,36.11 140.14,30.48 138.25,30.48 
	138.25,29.78 "/>
<path class="st9" d="M131.11,14.11h-5.66c-0.35,0-0.63-0.28-0.63-0.63c0-0.35,0.28-0.63,0.63-0.63h5.66c0.35,0,0.63,0.28,0.63,0.63
	C131.74,13.83,131.46,14.11,131.11,14.11"/>
<path class="st9" d="M133.63,14.11c-0.16,0-0.33-0.07-0.45-0.18c-0.11-0.12-0.18-0.28-0.18-0.44c0-0.17,0.07-0.33,0.19-0.45
	c0.23-0.23,0.65-0.23,0.89,0c0.11,0.12,0.18,0.28,0.18,0.45c0,0.16-0.07,0.33-0.18,0.44C133.96,14.05,133.79,14.11,133.63,14.11"/>
<path class="st9" d="M141.17,14.11h-5.03c-0.35,0-0.63-0.28-0.63-0.63c0-0.35,0.28-0.63,0.63-0.63h5.03c0.35,0,0.63,0.28,0.63,0.63
	C141.8,13.83,141.52,14.11,141.17,14.11"/>
<path class="st9" d="M125.46,23.54c-0.16,0-0.33-0.07-0.45-0.18c-0.11-0.12-0.18-0.28-0.18-0.44c0-0.17,0.07-0.33,0.18-0.45
	c0.23-0.23,0.66-0.23,0.89,0.01c0.11,0.11,0.18,0.28,0.18,0.44c0,0.16-0.07,0.33-0.18,0.44C125.78,23.47,125.62,23.54,125.46,23.54"
	/>
<path class="st9" d="M133,23.54h-5.03c-0.35,0-0.63-0.28-0.63-0.63c0-0.35,0.28-0.63,0.63-0.63H133c0.35,0,0.63,0.28,0.63,0.63
	C133.63,23.26,133.35,23.54,133,23.54"/>
<path class="st9" d="M144.94,14.11h-1.26c-0.34,0-0.63-0.28-0.63-0.63c0-0.35,0.28-0.63,0.63-0.63h1.26c0.35,0,0.63,0.28,0.63,0.63
	C145.57,13.83,145.29,14.11,144.94,14.11"/>
<path class="st9" d="M139.28,17.26h-13.83c-0.35,0-0.63-0.28-0.63-0.63c0-0.35,0.28-0.63,0.63-0.63h13.83
	c0.35,0,0.63,0.28,0.63,0.63C139.91,16.98,139.63,17.26,139.28,17.26"/>
<path class="st9" d="M144.94,17.26h-3.77c-0.35,0-0.63-0.28-0.63-0.63c0-0.35,0.28-0.63,0.63-0.63h3.77c0.35,0,0.63,0.28,0.63,0.63
	C145.57,16.98,145.29,17.26,144.94,17.26"/>
<path class="st9" d="M127.97,20.4h-2.51c-0.35,0-0.63-0.28-0.63-0.63c0-0.35,0.28-0.63,0.63-0.63h2.51c0.35,0,0.63,0.28,0.63,0.63
	C128.6,20.12,128.32,20.4,127.97,20.4"/>
<path class="st9" d="M136.77,20.4h-6.29c-0.35,0-0.63-0.28-0.63-0.63c0-0.35,0.28-0.63,0.63-0.63h6.29c0.35,0,0.63,0.28,0.63,0.63
	C137.4,20.12,137.12,20.4,136.77,20.4"/>
<path class="st9" d="M144.94,20.4h-5.66c-0.35,0-0.63-0.28-0.63-0.63c0-0.35,0.28-0.63,0.63-0.63h5.66c0.35,0,0.63,0.28,0.63,0.63
	C145.57,20.12,145.29,20.4,144.94,20.4"/>
</svg>
