<?xml version="1.0" encoding="utf-8"?>
<!-- Generator: Adobe Illustrator 23.0.0, SVG Export Plug-In . SVG Version: 6.00 Build 0)  -->
<svg version="1.1" id="Capa_1" xmlns="http://www.w3.org/2000/svg" xmlns:xlink="http://www.w3.org/1999/xlink" x="0px" y="0px"
	 viewBox="0 0 111.32 124.68" style="enable-background:new 0 0 111.32 124.68;" xml:space="preserve">
<style type="text/css">
	.st0{fill:#FFFFFF;}
</style>
<g>
	<g>
		<g>
			<path class="st0" d="M55.78,76.98l11.97-11.97c0.43-0.43,0.43-1.13,0-1.56c-0.43-0.42-1.13-0.43-1.57,0L56.1,73.54V44.9
				c0-0.61-0.49-1.11-1.1-1.11c-0.61,0-1.11,0.5-1.11,1.11v28.65l-10.09-10.1c-0.21-0.21-0.5-0.32-0.78-0.32
				c-0.28,0-0.57,0.11-0.78,0.32c-0.21,0.21-0.33,0.49-0.33,0.78c0,0.3,0.12,0.57,0.32,0.78l11.97,11.97
				c0.02,0.02,0.06,0.04,0.1,0.07l0.18,0.12c0.03,0.02,0.06,0.04,0.08,0.05c0.27,0.11,0.57,0.12,0.84,0
				C55.56,77.17,55.68,77.09,55.78,76.98z"/>
		</g>
		<g>
			<path class="st0" d="M91.7,32.22L69.51,9.42c-0.21-0.22-0.49-0.33-0.78-0.33H24.65c-3.67,0-6.65,2.99-6.65,6.65v78.52
				c0,3.67,2.99,6.65,6.65,6.65h60.69c3.67,0,6.65-2.98,6.65-6.64V32.95c0-0.07-0.02-0.14-0.05-0.23c-0.02-0.09-0.03-0.12-0.04-0.15
				c-0.03-0.08-0.07-0.15-0.13-0.22C91.74,32.28,91.72,32.25,91.7,32.22z M69.83,12.91l18.45,18.95H69.83V12.91z M89.79,94.26
				c0,2.46-1.99,4.46-4.44,4.46H24.65c-2.45,0-4.44-2-4.44-4.46V15.74c0-2.45,1.99-4.45,4.44-4.45h42.96v21.67
				c0,0.6,0.5,1.1,1.11,1.1h21.06V94.26z"/>
		</g>
	</g>
</g>
</svg>
