<?xml version="1.0" encoding="utf-8"?>
<!-- Generator: Adobe Illustrator 23.0.0, SVG Export Plug-In . SVG Version: 6.00 Build 0)  -->
<svg version="1.1" id="Capa_1" xmlns="http://www.w3.org/2000/svg" xmlns:xlink="http://www.w3.org/1999/xlink" x="0px" y="0px"
	 viewBox="0 0 38 30" style="enable-background:new 0 0 38 30;" xml:space="preserve">
<style type="text/css">
	.st0{fill:#62A1D9;}
</style>
<path class="st0" d="M32.44,7.38l-4.26,4.32c-1.52,1.54-1.5,4.02,0.04,5.54l4.32,4.26c1.54,1.52,1.56,4,0.04,5.54l-0.34,0.35
	c-1.52,1.54-4,1.56-5.54,0.04l-4.32-4.25c-1.54-1.52-4.02-1.5-5.54,0.04l-4.25,4.32c-1.52,1.54-4,1.56-5.54,0.04l-0.35-0.34
	c-1.54-1.52-1.56-4-0.04-5.54l4.25-4.32c1.52-1.54,1.5-4.02-0.04-5.54L6.56,7.57C5.02,6.05,5,3.58,6.52,2.04l0.34-0.35
	c1.52-1.54,4-1.56,5.54-0.04l4.32,4.25c1.54,1.52,4.02,1.5,5.54-0.04l4.25-4.32c1.52-1.54,4-1.56,5.54-0.04l0.35,0.34
	C33.94,3.36,33.96,5.84,32.44,7.38"/>
</svg>
