<?xml version="1.0" encoding="utf-8"?>
<!-- Generator: Adobe Illustrator 23.0.0, SVG Export Plug-In . SVG Version: 6.00 Build 0)  -->
<svg version="1.1" id="Capa_1" xmlns="http://www.w3.org/2000/svg" xmlns:xlink="http://www.w3.org/1999/xlink" x="0px" y="0px"
	 viewBox="0 0 38 36" style="enable-background:new 0 0 38 36;" xml:space="preserve">
<style type="text/css">
	.st0{fill:#C81716;}
</style>
<g>
	<path class="st0" d="M33.27,8.02L9.92,31.37c-0.61,0.61-1.6,0.61-2.21,0L6.1,29.76c-0.61-0.61-0.61-1.6,0-2.21L29.45,4.2
		c0.61-0.61,1.6-0.61,2.21,0l1.61,1.61C33.88,6.42,33.88,7.41,33.27,8.02z"/>
	<path class="st0" d="M29.23,31.33L5.96,8.06c-0.63-0.63-0.63-1.66,0-2.29L7.5,4.24c0.63-0.63,1.66-0.63,2.29,0l23.27,23.27
		c0.63,0.63,0.63,1.66,0,2.29l-1.53,1.53C30.89,31.96,29.86,31.96,29.23,31.33z"/>
</g>
</svg>
