<?xml version="1.0" encoding="utf-8"?>
<!-- Generator: Adobe Illustrator 23.0.0, SVG Export Plug-In . SVG Version: 6.00 Build 0)  -->
<svg version="1.1" id="Capa_1" xmlns="http://www.w3.org/2000/svg" xmlns:xlink="http://www.w3.org/1999/xlink" x="0px" y="0px"
	 viewBox="0 0 59.74 77.11" style="enable-background:new 0 0 59.74 77.11;" xml:space="preserve">
<style type="text/css">
	.st0{fill:#1791B9;}
	.st1{fill:#1791B9;stroke:#FFFFFF;stroke-miterlimit:10;}
	.st2{fill:#FFFFFF;}
</style>
<g>
	<g>
		<path class="st0" d="M2.51,30.76c0-2.58,0.44-5.49,1.39-8.84C7.62,8.94,19.04,3.31,29.69,3.35c11.69,0.02,23.35,6.67,23.45,18.31
			c0,1.87-0.31,3.84-0.98,5.9c-0.25,0.8-1.11,1.24-1.92,0.99c-0.82-0.26-1.25-1.13-0.99-1.93c0.58-1.77,0.83-3.42,0.83-4.96
			c-0.02-9.18-9.62-15.22-20.39-15.25C19.99,6.46,10.15,11.3,6.85,22.76c-0.9,3.13-1.29,5.77-1.29,8
			C5.03,45.91,24.2,44.53,27.28,59.49c0.13,0.84-0.45,1.62-1.28,1.74c-0.08,0.01-0.16,0.02-0.25,0.02c-0.74,0-1.38-0.54-1.49-1.29
			C23.21,48.22,3.04,48.94,2.51,30.76z"/>
	</g>
	<path class="st1" d="M34.67,66.09c0.05,4.17-3.3,7.61-7.48,7.66c-4.18,0.05-7.61-3.3-7.66-7.47c-0.05-4.18,3.3-7.62,7.47-7.67
		C31.18,58.56,34.62,61.92,34.67,66.09z"/>
	<path class="st0" d="M22.05,42.51c0.04,1.83,1.55,3.27,3.39,3.23c1.83-0.04,3.28-1.55,3.24-3.38c-0.04-1.83-1.56-3.28-3.39-3.24
		C23.47,39.16,22.02,40.68,22.05,42.51z"/>
	<g>
		<path class="st2" d="M24.14,66.29c0.06,1.63,1.42,2.9,3.05,2.84c1.63-0.06,2.91-1.42,2.85-3.05c-0.06-1.63-1.42-2.9-3.05-2.85
			C25.37,63.29,24.09,64.66,24.14,66.29z"/>
	</g>
	<path class="st0" d="M45.48,54.45c0.04,1.83,1.56,3.27,3.39,3.23c1.83-0.04,3.28-1.55,3.24-3.38c-0.04-1.83-1.56-3.28-3.39-3.24
		C46.89,51.11,45.44,52.62,45.48,54.45z"/>
	<g>
		<path class="st0" d="M48.24,53.27c3.66-3.57,5.94-9.39,5.93-14.67c-0.02-4.91-1.85-9.17-5.97-11.31
			c-1.57-0.82-3.17-1.18-4.78-1.18c-7.3-0.13-15.29,7.97-16.56,15.99c-0.14,0.83-0.93,1.39-1.77,1.24
			c-0.83-0.14-1.39-0.93-1.24-1.76c1.67-9.39,10.17-18.41,19.57-18.53c2.07,0,4.19,0.48,6.2,1.53c5.35,2.8,7.62,8.38,7.61,14.02
			c-0.02,6.13-2.52,12.56-6.83,16.85c-0.3,0.29-0.69,0.44-1.08,0.44c-0.39,0-0.79-0.15-1.08-0.45
			C47.64,54.83,47.64,53.87,48.24,53.27z"/>
	</g>
</g>
</svg>
