<?xml version="1.0" encoding="utf-8"?>
<!-- Generator: Adobe Illustrator 23.0.0, SVG Export Plug-In . SVG Version: 6.00 Build 0)  -->
<svg version="1.1" id="Capa_1" xmlns="http://www.w3.org/2000/svg" xmlns:xlink="http://www.w3.org/1999/xlink" x="0px" y="0px"
	 viewBox="0 0 111.32 124.68" style="enable-background:new 0 0 111.32 124.68;" xml:space="preserve">
<style type="text/css">
	.st0{fill:#EAEBED;}
	.st1{fill:#6C8A4A;}
	.st2{fill:#5F7B41;}
	.st3{fill:#F8F8F8;}
	.st4{fill:#E7E7DE;}
	.st5{fill:#D6D5C8;}
	.st6{fill:#B14C4D;}
	.st7{fill:#FFFFFF;}
</style>
<g>
	<g>
		<path class="st0" d="M97.06,91.02h-37.9c-1.49,0-2.71-1.21-2.71-2.71s0-52.64,0-54.14s1.21-2.71,2.71-2.71h37.9
			c1.49,0,2.71,1.21,2.71,2.71v54.14C99.77,89.81,98.56,91.02,97.06,91.02z"/>
		<g>
			<path class="st1" d="M69.99,47.71H59.17c-1.49,0-2.71-1.21-2.71-2.71s1.21-2.71,2.71-2.71h10.83c1.49,0,2.71,1.21,2.71,2.71
				S71.49,47.71,69.99,47.71z"/>
			<path class="st1" d="M69.99,58.54H59.17c-1.49,0-2.71-1.21-2.71-2.71s1.21-2.71,2.71-2.71h10.83c1.49,0,2.71,1.21,2.71,2.71
				S71.49,58.54,69.99,58.54z"/>
			<path class="st1" d="M69.99,69.37H59.17c-1.49,0-2.71-1.21-2.71-2.71s1.21-2.71,2.71-2.71h10.83c1.49,0,2.71,1.21,2.71,2.71
				S71.49,69.37,69.99,69.37z"/>
			<path class="st1" d="M69.99,80.19H59.17c-1.49,0-2.71-1.21-2.71-2.71s1.21-2.71,2.71-2.71h10.83c1.49,0,2.71,1.21,2.71,2.71
				S71.49,80.19,69.99,80.19z"/>
			<path class="st1" d="M86.23,47.71h-5.41c-1.49,0-2.71-1.21-2.71-2.71s1.21-2.71,2.71-2.71h5.41c1.49,0,2.71,1.21,2.71,2.71
				S87.73,47.71,86.23,47.71z"/>
			<path class="st1" d="M86.23,58.54h-5.41c-1.49,0-2.71-1.21-2.71-2.71s1.21-2.71,2.71-2.71h5.41c1.49,0,2.71,1.21,2.71,2.71
				S87.73,58.54,86.23,58.54z"/>
			<path class="st1" d="M86.23,69.37h-5.41c-1.49,0-2.71-1.21-2.71-2.71s1.21-2.71,2.71-2.71h5.41c1.49,0,2.71,1.21,2.71,2.71
				S87.73,69.37,86.23,69.37z"/>
			<path class="st1" d="M86.23,80.19h-5.41c-1.49,0-2.71-1.21-2.71-2.71s1.21-2.71,2.71-2.71h5.41c1.49,0,2.71,1.21,2.71,2.71
				S87.73,80.19,86.23,80.19z"/>
		</g>
		<path class="st2" d="M60.89,21.27c-0.62-0.51-1.45-0.74-2.23-0.57l-43.31,8.12c-1.28,0.24-2.21,1.35-2.21,2.66v59.55
			c0,1.3,0.93,2.42,2.21,2.66l43.31,8.12c0.16,0.03,0.33,0.05,0.5,0.05c0.63,0,1.24-0.22,1.73-0.62c0.62-0.51,0.98-1.28,0.98-2.08
			V23.35C61.87,22.54,61.52,21.78,60.89,21.27z"/>
		<path class="st3" d="M50.37,70.29l-8.56-9.78l8.66-11.13c0.92-1.18,0.7-2.88-0.47-3.8c-1.17-0.92-2.87-0.7-3.8,0.47l-8.02,10.31
			l-6.76-7.72c-0.99-1.14-2.7-1.24-3.82-0.25c-1.13,0.99-1.24,2.7-0.25,3.82l7.44,8.51l-7.55,9.7c-0.92,1.18-0.7,2.88,0.47,3.8
			c0.5,0.38,1.09,0.57,1.67,0.57c0.81,0,1.6-0.36,2.14-1.04l6.9-8.88l7.87,8.99c0.54,0.62,1.28,0.93,2.04,0.93
			c0.63,0,1.27-0.22,1.78-0.67C51.25,73.12,51.36,71.41,50.37,70.29z"/>
	</g>
	<g>
		<path class="st4" d="M182.35,21.77h-42.08c-1.18,0-2.12,0.95-2.12,2.79v76.97c0,0.5,0.95,1.45,2.12,1.45h58.11
			c1.17,0,2.12-0.95,2.12-1.45V40.59c0-1.01-0.13-1.34-0.37-1.57l-16.87-16.87C183.01,21.9,182.69,21.77,182.35,21.77L182.35,21.77z
			 M182.35,21.77"/>
		<path class="st5" d="M183.1,21.99v17.19h17.18L183.1,21.99z M183.1,21.99"/>
		<path class="st6" d="M157.01,70.09c-0.5,0-0.98-0.16-1.4-0.47c-1.51-1.13-1.71-2.39-1.62-3.25c0.26-2.36,3.18-4.83,8.68-7.35
			c2.18-4.78,4.26-10.67,5.49-15.59c-1.44-3.15-2.85-7.24-1.83-9.63c0.36-0.84,0.81-1.49,1.64-1.76c0.33-0.11,1.17-0.25,1.47-0.25
			c0.74,0,1.37,0.94,1.83,1.52c0.43,0.55,1.4,1.7-0.55,9.86c1.95,4.04,4.73,8.15,7.38,10.96c1.9-0.34,3.54-0.52,4.87-0.52
			c2.27,0,3.65,0.53,4.21,1.62c0.47,0.9,0.28,1.95-0.56,3.13c-0.81,1.13-1.93,1.73-3.22,1.73c-1.76,0-3.82-1.11-6.11-3.32
			c-4.11,0.86-8.91,2.39-12.8,4.09c-1.21,2.57-2.37,4.65-3.45,6.17C159.57,69.12,158.28,70.09,157.01,70.09L157.01,70.09z
			 M160.87,62.66c-3.09,1.74-4.36,3.17-4.45,3.98c-0.02,0.13-0.06,0.48,0.62,1.01C157.26,67.57,158.52,67,160.87,62.66L160.87,62.66
			z M180.65,56.22c1.18,0.91,1.47,1.37,2.25,1.37c0.34,0,1.31-0.01,1.75-0.65c0.21-0.3,0.3-0.49,0.33-0.6
			c-0.18-0.09-0.42-0.28-1.71-0.28C182.55,56.06,181.63,56.1,180.65,56.22L180.65,56.22z M169.82,46.67
			c-1.04,3.59-2.4,7.46-3.87,10.97c3.03-1.17,6.32-2.2,9.42-2.92C173.41,52.44,171.44,49.6,169.82,46.67L169.82,46.67z M168.94,34.4
			c-0.14,0.05-1.93,2.55,0.14,4.67C170.45,36,169,34.38,168.94,34.4L168.94,34.4z M168.94,34.4"/>
		<path class="st6" d="M198.38,102.98h-58.11c-1.18,0-2.12-0.95-2.12-2.12V78.32h62.35v22.53
			C200.5,102.03,199.55,102.98,198.38,102.98L198.38,102.98z M198.38,102.98"/>
		<path class="st7" d="M153.93,98.62h-2.38V84.01h4.21c0.62,0,1.23,0.1,1.84,0.3c0.61,0.2,1.15,0.49,1.64,0.89
			c0.48,0.4,0.87,0.87,1.17,1.44c0.3,0.56,0.45,1.19,0.45,1.89c0,0.74-0.12,1.41-0.38,2.01c-0.25,0.6-0.6,1.11-1.05,1.52
			c-0.45,0.4-0.99,0.72-1.63,0.95c-0.63,0.23-1.34,0.34-2.1,0.34h-1.76V98.62z M153.93,85.82v5.78h2.18c0.29,0,0.58-0.05,0.86-0.15
			c0.28-0.1,0.55-0.26,0.78-0.49c0.23-0.22,0.43-0.54,0.57-0.94c0.14-0.4,0.22-0.91,0.22-1.5c0-0.23-0.04-0.51-0.1-0.82
			c-0.07-0.31-0.2-0.61-0.41-0.89c-0.21-0.28-0.49-0.52-0.86-0.72c-0.37-0.19-0.86-0.28-1.47-0.28H153.93z M153.93,85.82"/>
		<path class="st7" d="M175.44,90.91c0,1.2-0.13,2.23-0.38,3.09c-0.26,0.85-0.59,1.56-0.98,2.14c-0.4,0.57-0.84,1.03-1.34,1.36
			c-0.49,0.33-0.98,0.58-1.44,0.75c-0.46,0.16-0.88,0.27-1.27,0.32c-0.38,0.04-0.67,0.06-0.86,0.06h-5.53V84.01h4.4
			c1.23,0,2.31,0.19,3.24,0.58c0.94,0.39,1.71,0.91,2.32,1.56c0.62,0.64,1.08,1.39,1.38,2.21
			C175.29,89.19,175.44,90.04,175.44,90.91L175.44,90.91z M168.38,96.88c1.61,0,2.78-0.52,3.49-1.54c0.72-1.03,1.07-2.53,1.07-4.48
			c0-0.61-0.07-1.21-0.21-1.81c-0.15-0.59-0.43-1.13-0.84-1.61c-0.42-0.48-0.98-0.87-1.7-1.17c-0.72-0.3-1.64-0.45-2.78-0.45h-1.39
			v11.06H168.38z M168.38,96.88"/>
		<path class="st7" d="M181.31,85.82v4.6h6.11v1.63h-6.11v6.58h-2.42V84.01h9.14v1.81H181.31z M181.31,85.82"/>
	</g>
</g>
</svg>
