<?xml version="1.0" encoding="utf-8"?>
<!-- Generator: Adobe Illustrator 23.0.0, SVG Export Plug-In . SVG Version: 6.00 Build 0)  -->
<svg version="1.1" id="Capa_1" xmlns="http://www.w3.org/2000/svg" xmlns:xlink="http://www.w3.org/1999/xlink" x="0px" y="0px"
	 viewBox="0 0 100 112" style="enable-background:new 0 0 100 112;" xml:space="preserve">
<style type="text/css">
	.st0{fill:none;}
	.st1{fill:#FFFFFF;}
</style>
<path class="st0" d="M64,43.5"/>
<path class="st1" d="M90.62,97.27c0.01-0.34-0.12-0.66-0.35-0.9l0,0L66.45,71.58l0.22-0.22c6.23-6.25,9.66-14.54,9.66-23.32
	c0-18.23-14.83-33.05-33.05-33.05c-18.23,0-33.05,14.83-33.05,33.05s14.83,33.05,33.05,33.05c7.66,0,15.14-2.7,21.06-7.61l0.23-0.19
	l23.87,24.83c0.45,0.48,1.3,0.51,1.81,0.03C90.48,97.92,90.62,97.61,90.62,97.27z M43.27,78.54c-16.82,0-30.5-13.68-30.5-30.5
	s13.68-30.5,30.5-30.5c16.82,0,30.5,13.68,30.5,30.5S60.09,78.54,43.27,78.54z"/>
</svg>
