<?xml version="1.0" encoding="utf-8"?>
<!-- Generator: Adobe Illustrator 23.0.0, SVG Export Plug-In . SVG Version: 6.00 Build 0)  -->
<svg version="1.1" id="Capa_1" xmlns="http://www.w3.org/2000/svg" xmlns:xlink="http://www.w3.org/1999/xlink" x="0px" y="0px"
	 viewBox="0 0 113 115" style="enable-background:new 0 0 113 115;" xml:space="preserve">
<style type="text/css">
	.st0{fill:#60A3E3;}
</style>
<g>
	<g>
		<path class="st0" d="M96.78,6.5H16.22c-2.6,0-4.72,2.12-4.72,4.72v90.56c0,2.6,2.12,4.72,4.72,4.72h80.56
			c2.6,0,4.72-2.12,4.72-4.72V11.22C101.5,8.62,99.38,6.5,96.78,6.5L96.78,6.5z M16.22,9.84h80.56c0.76,0,1.39,0.62,1.39,1.38v43.61
			H14.84V11.22C14.84,10.45,15.45,9.84,16.22,9.84L16.22,9.84z M96.78,103.16H16.22c-0.77,0-1.38-0.62-1.38-1.38V58.17h83.33v43.61
			C98.17,102.55,97.54,103.16,96.78,103.16L96.78,103.16z M96.78,103.16"/>
	</g>
	<g>
		<path class="st0" d="M47.34,36.5h18.32c3.22,0,5.84-2.62,5.84-5.83v-2.5c0-0.92-0.75-1.66-1.67-1.66c-0.92,0-1.67,0.74-1.67,1.66
			v2.5c0,1.38-1.12,2.51-2.51,2.51H47.34c-1.38,0-2.51-1.12-2.51-2.51v-2.5c0-0.92-0.75-1.66-1.67-1.66c-0.92,0-1.67,0.74-1.67,1.66
			v2.5C41.5,33.88,44.12,36.5,47.34,36.5L47.34,36.5z M47.34,36.5"/>
	</g>
	<g>
		<path class="st0" d="M69.83,74.84c-0.92,0-1.67,0.74-1.67,1.67v2.49c0,1.38-1.12,2.51-2.51,2.51H47.34
			c-1.38,0-2.51-1.12-2.51-2.51V76.5c0-0.93-0.75-1.67-1.67-1.67c-0.92,0-1.67,0.74-1.67,1.67v2.49c0,3.22,2.62,5.84,5.84,5.84
			h18.32c3.22,0,5.84-2.62,5.84-5.84V76.5C71.5,75.57,70.75,74.84,69.83,74.84L69.83,74.84z M69.83,74.84"/>
	</g>
</g>
</svg>
