<?xml version="1.0" encoding="utf-8"?>
<!-- Generator: Adobe Illustrator 23.0.0, SVG Export Plug-In . SVG Version: 6.00 Build 0)  -->
<svg version="1.1" id="Capa_1" xmlns="http://www.w3.org/2000/svg" xmlns:xlink="http://www.w3.org/1999/xlink" x="0px" y="0px"
	 viewBox="0 0 42 36" style="enable-background:new 0 0 42 36;" xml:space="preserve">
<style type="text/css">
	.st0{clip-path:url(#SVGID_2_);fill:url(#SVGID_3_);}
	.st1{clip-path:url(#SVGID_5_);fill:url(#SVGID_6_);}
	.st2{clip-path:url(#SVGID_8_);fill:url(#SVGID_9_);}
	.st3{clip-path:url(#SVGID_11_);fill:url(#SVGID_12_);}
	.st4{clip-path:url(#SVGID_14_);fill:url(#SVGID_15_);}
	.st5{clip-path:url(#SVGID_17_);fill:url(#SVGID_18_);}
</style>
<g>
	<defs>
		<path id="SVGID_1_" d="M-96.38,13.83v21.93l-5.29-5.29c-0.16-0.16-0.37-0.24-0.59-0.24c-0.22,0-0.43,0.09-0.59,0.24
			c-0.16,0.16-0.25,0.37-0.25,0.58c0,0.22,0.09,0.43,0.24,0.58l6.7,6.7c0.16,0.16,0.38,0.25,0.6,0.25c0.22,0,0.42-0.09,0.58-0.24
			l0,0l6.7-6.7c0.32-0.33,0.32-0.85,0-1.17c-0.16-0.16-0.37-0.24-0.59-0.24s-0.43,0.09-0.59,0.24l-5.29,5.29V13.83
			c0-0.47-0.37-0.83-0.83-0.83C-96.02,12.99-96.38,13.36-96.38,13.83"/>
	</defs>
	<clipPath id="SVGID_2_">
		<use xlink:href="#SVGID_1_"  style="overflow:visible;"/>
	</clipPath>
	
		<linearGradient id="SVGID_3_" gradientUnits="userSpaceOnUse" x1="4324.0679" y1="140.2097" x2="4325.0679" y2="140.2097" gradientTransform="matrix(-15.0728 0 0 15.0728 65087.9375 -2087.5649)">
		<stop  offset="0" style="stop-color:#2D4F8C"/>
		<stop  offset="1" style="stop-color:#1E3477"/>
	</linearGradient>
	<rect x="-103.09" y="12.99" class="st0" width="15.15" height="25.59"/>
</g>
<g>
	<defs>
		<path id="SVGID_4_" d="M8.24,17.5c-0.41,0-0.74,0.33-0.74,0.74v0.52c0,0.41,0.33,0.74,0.74,0.74h25.52c0.41,0,0.74-0.33,0.74-0.74
			v-0.52c0-0.41-0.33-0.74-0.74-0.74H8.24z"/>
	</defs>
	<clipPath id="SVGID_5_">
		<use xlink:href="#SVGID_4_"  style="overflow:visible;"/>
	</clipPath>
	
		<linearGradient id="SVGID_6_" gradientUnits="userSpaceOnUse" x1="3786.5" y1="2214" x2="3787.5" y2="2214" gradientTransform="matrix(0 -2 -2 0 4449 7592.5)">
		<stop  offset="0" style="stop-color:#2D4F8C"/>
		<stop  offset="1" style="stop-color:#1E3477"/>
	</linearGradient>
	<rect x="7.5" y="17.5" class="st1" width="27" height="2"/>
</g>
<g>
	<defs>
		<path id="SVGID_7_" d="M8,11c0,1.66,1.34,3,3,3c1.66,0,3-1.34,3-3s-1.34-3-3-3C9.34,8,8,9.34,8,11"/>
	</defs>
	<clipPath id="SVGID_8_">
		<use xlink:href="#SVGID_7_"  style="overflow:visible;"/>
	</clipPath>
	
		<linearGradient id="SVGID_9_" gradientUnits="userSpaceOnUse" x1="3952.8333" y1="805.3333" x2="3953.8333" y2="805.3333" gradientTransform="matrix(0 -6 -6 0 4843 23731)">
		<stop  offset="0" style="stop-color:#2D4F8C"/>
		<stop  offset="1" style="stop-color:#1E3477"/>
	</linearGradient>
	<rect x="8" y="8" class="st2" width="6" height="6"/>
</g>
<g>
	<defs>
		<path id="SVGID_10_" d="M18,11c0,1.66,1.34,3,3,3s3-1.34,3-3s-1.34-3-3-3S18,9.34,18,11"/>
	</defs>
	<clipPath id="SVGID_11_">
		<use xlink:href="#SVGID_10_"  style="overflow:visible;"/>
	</clipPath>
	
		<linearGradient id="SVGID_12_" gradientUnits="userSpaceOnUse" x1="3952.8333" y1="805.3333" x2="3953.8333" y2="805.3333" gradientTransform="matrix(0 -6 -6 0 4853 23731)">
		<stop  offset="0" style="stop-color:#2D4F8C"/>
		<stop  offset="1" style="stop-color:#1E3477"/>
	</linearGradient>
	<rect x="18" y="8" class="st3" width="6" height="6"/>
</g>
<g>
	<defs>
		<path id="SVGID_13_" d="M18,25c0,1.66,1.34,3,3,3s3-1.34,3-3s-1.34-3-3-3S18,23.34,18,25"/>
	</defs>
	<clipPath id="SVGID_14_">
		<use xlink:href="#SVGID_13_"  style="overflow:visible;"/>
	</clipPath>
	
		<linearGradient id="SVGID_15_" gradientUnits="userSpaceOnUse" x1="3952.8333" y1="805.3333" x2="3953.8333" y2="805.3333" gradientTransform="matrix(0 -6 -6 0 4853 23745)">
		<stop  offset="0" style="stop-color:#2D4F8C"/>
		<stop  offset="1" style="stop-color:#1E3477"/>
	</linearGradient>
	<rect x="18" y="22" class="st4" width="6" height="6"/>
</g>
<g>
	<defs>
		<path id="SVGID_16_" d="M28,11c0,1.66,1.34,3,3,3c1.66,0,3-1.34,3-3s-1.34-3-3-3C29.34,8,28,9.34,28,11"/>
	</defs>
	<clipPath id="SVGID_17_">
		<use xlink:href="#SVGID_16_"  style="overflow:visible;"/>
	</clipPath>
	
		<linearGradient id="SVGID_18_" gradientUnits="userSpaceOnUse" x1="3952.8333" y1="805.3333" x2="3953.8333" y2="805.3333" gradientTransform="matrix(0 -6 -6 0 4863 23731)">
		<stop  offset="0" style="stop-color:#2D4F8C"/>
		<stop  offset="1" style="stop-color:#1E3477"/>
	</linearGradient>
	<rect x="28" y="8" class="st5" width="6" height="6"/>
</g>
</svg>
