<?xml version="1.0" encoding="utf-8"?>
<!-- Generator: Adobe Illustrator 23.0.0, SVG Export Plug-In . SVG Version: 6.00 Build 0)  -->
<svg version="1.1" id="Capa_1" xmlns="http://www.w3.org/2000/svg" xmlns:xlink="http://www.w3.org/1999/xlink" x="0px" y="0px"
	 viewBox="0 0 111.32 124.68" style="enable-background:new 0 0 111.32 124.68;" xml:space="preserve">
<style type="text/css">
	.st0{fill:#60A3E3;}
</style>
<path class="st0" d="M105.74,38.35L94.67,49.43l-27.7-27.7l11.07-11.07l-2.53-2.53L52.59,31.04l4.67,4.67l-6.76,6.76l-32.29,7.06
	L2.78,113.62l64.09-15.43l7.06-32.29l6.76-6.76l4.67,4.67l22.92-22.92L105.74,38.35z M70.65,64.1l-6.8,31.13l-52.88,12.73
	l27.23-27.23l0.98,0.54c1.46,0.8,3.13,1.22,4.81,1.22c2.69,0,5.22-1.05,7.13-2.95c3.93-3.93,3.93-10.32,0-14.25
	c-1.9-1.9-4.44-2.95-7.13-2.95s-5.22,1.05-7.13,2.95c-3.15,3.15-3.83,7.93-1.69,11.9l0.53,0.98L8.43,105.43l12.73-52.88l31.13-6.8
	l7.5-7.5L78.15,56.6L70.65,64.1z M37.49,72.41c0-1.74,0.67-3.37,1.9-4.59c0,0,0,0,0,0c1.23-1.23,2.86-1.9,4.6-1.9
	c1.74,0,3.37,0.68,4.6,1.9c1.23,1.23,1.9,2.86,1.9,4.59c0,1.74-0.67,3.37-1.9,4.59c-1.25,1.25-2.92,1.87-4.6,1.87
	c-1.67,0-3.35-0.62-4.6-1.87C38.16,75.78,37.49,74.15,37.49,72.41z M85.35,58.74L58.3,31.69l-0.01-0.61
	c-0.01-0.67-0.01-0.67,5.08-5.76l1.06-1.06l27.7,27.7L85.35,58.74z"/>
<g>
	<path class="st0" d="M222.69,50.26c-15.13,0-27.43,12.3-27.43,27.43c0,15.12,12.3,27.43,27.43,27.43s27.43-12.3,27.43-27.43
		C250.12,62.56,237.82,50.26,222.69,50.26z M247.53,77.69c0,13.69-11.14,24.84-24.84,24.84s-24.84-11.14-24.84-24.84
		c0-13.7,11.14-24.84,24.84-24.84S247.53,63.99,247.53,77.69z"/>
	<path class="st0" d="M260.75,113.36c0,2.76-2.24,5-4.98,5h-68.01c-2.75,0-4.98-2.24-4.98-5V45.89h23.6c0.69,0,1.25-0.55,1.25-1.23
		V20.37h48.15c2.75,0,4.98,2.23,4.98,4.98v81.54h2.48V25.36c0-4.12-3.34-7.46-7.46-7.46h-49.39c-0.33,0-0.64,0.13-0.88,0.37
		l-24.87,25.55c-0.02,0.04-0.04,0.07-0.1,0.15c-0.06,0.08-0.11,0.15-0.14,0.24c0,0.03-0.01,0.07-0.04,0.17
		c-0.03,0.1-0.05,0.18-0.05,0.26v68.73c0,4.11,3.33,7.44,7.44,7.44h68.03c4.12,0,7.46-3.34,7.46-7.46v-8.68h-2.48V113.36z
		 M205.15,22.18v21.23h-20.67l10.34-10.62L205.15,22.18z"/>
</g>
<g>
	<path class="st0" d="M223.11,67.51v7.24h7.24c1.01,0,1.83,0.82,1.83,1.83l0,0c0,1.01-0.82,1.83-1.83,1.83h-7.24v7.24
		c0,1.01-0.82,1.83-1.83,1.83l0,0c-1.01,0-1.83-0.82-1.83-1.83v-7.24h-7.24c-1.01,0-1.83-0.82-1.83-1.83l0,0
		c0-1.01,0.82-1.83,1.83-1.83h7.24v-7.24c0-1.01,0.82-1.83,1.83-1.83l0,0C222.29,65.68,223.11,66.5,223.11,67.51z"/>
</g>
</svg>
