<?xml version="1.0" encoding="utf-8"?>
<!-- Generator: Adobe Illustrator 23.0.0, SVG Export Plug-In . SVG Version: 6.00 Build 0)  -->
<svg version="1.1" id="Capa_1" xmlns="http://www.w3.org/2000/svg" xmlns:xlink="http://www.w3.org/1999/xlink" x="0px" y="0px"
	 viewBox="0 0 125 124" style="enable-background:new 0 0 125 124;" xml:space="preserve">
<style type="text/css">
	.st0{fill:#60A3E3;}
</style>
<path class="st0" d="M26.04,102.75h75.93c2.37,0,4.31-1.93,4.31-4.31V77.14l0.17-0.06c1.71-0.61,2.86-2.24,2.87-4.05v-33.8
	c0-2.37-1.93-4.31-4.31-4.31H85.01v-6.32c-0.01-4.04-3.3-7.34-7.34-7.34H50.33c-4.04,0-7.34,3.3-7.34,7.34v6.32H23
	c-2.37,0-4.31,1.93-4.31,4.31v33.8c0.01,1.81,1.16,3.44,2.87,4.05l0.17,0.06v21.31C21.73,100.82,23.66,102.75,26.04,102.75z
	 M103.73,98.44c0,0.98-0.79,1.77-1.77,1.77H26.04c-0.98,0-1.77-0.79-1.77-1.77v-20.9l33.91,4.68v4.07c0,2.37,1.93,4.31,4.31,4.31
	h3.04c2.37,0,4.31-1.93,4.31-4.31v-4.07l0.22-0.03l33.69-4.65V98.44z M60.71,86.3v-9.11c0-0.98,0.79-1.77,1.77-1.77h3.04
	c0.98,0,1.77,0.79,1.77,1.77v9.11c0,0.98-0.79,1.77-1.77,1.77h-3.04C61.51,88.06,60.71,87.27,60.71,86.3z M45.53,28.59
	c0-2.65,2.16-4.81,4.81-4.81h27.33c2.65,0,4.81,2.16,4.81,4.81v6.32h-3.54v-6.32c0-0.7-0.57-1.27-1.27-1.27H50.33
	c-0.7,0-1.27,0.57-1.27,1.27v6.32h-3.54V28.59z M76.4,29.86v5.06H51.6v-5.06H76.4z M21.23,73.02v-33.8c0-0.98,0.79-1.77,1.77-1.77
	h82c0.98,0,1.77,0.79,1.77,1.77v33.8c0,0.88-0.65,1.63-1.52,1.75l-35.42,4.89v-2.48c0-2.37-1.93-4.31-4.31-4.31h-3.04
	c-2.37,0-4.31,1.93-4.31,4.31v2.48l-35.42-4.88C21.89,74.65,21.23,73.9,21.23,73.02z"/>
</svg>
