<?xml version="1.0" encoding="utf-8"?>
<!-- Generator: Adobe Illustrator 23.0.0, SVG Export Plug-In . SVG Version: 6.00 Build 0)  -->
<svg version="1.1" id="Capa_1" xmlns="http://www.w3.org/2000/svg" xmlns:xlink="http://www.w3.org/1999/xlink" x="0px" y="0px"
	 viewBox="0 0 147.74 141.62" style="enable-background:new 0 0 147.74 141.62;" xml:space="preserve">
<style type="text/css">
	.st0{clip-path:url(#SVGID_2_);fill:url(#SVGID_3_);}
	.st1{clip-path:url(#SVGID_5_);}
	.st2{clip-path:url(#SVGID_7_);fill:url(#SVGID_8_);}
	.st3{clip-path:url(#SVGID_10_);fill:url(#SVGID_11_);}
	.st4{clip-path:url(#SVGID_13_);fill:url(#SVGID_14_);}
	.st5{clip-path:url(#SVGID_16_);}
	.st6{clip-path:url(#SVGID_18_);fill:url(#SVGID_19_);}
	.st7{clip-path:url(#SVGID_21_);}
	.st8{clip-path:url(#SVGID_23_);fill:url(#SVGID_24_);}
	.st9{clip-path:url(#SVGID_26_);}
	.st10{clip-path:url(#SVGID_28_);fill:url(#SVGID_29_);}
	.st11{clip-path:url(#SVGID_31_);fill:url(#SVGID_32_);}
	.st12{fill:#FFFFFF;}
	.st13{clip-path:url(#SVGID_34_);fill:url(#SVGID_35_);}
	.st14{clip-path:url(#SVGID_37_);}
	.st15{clip-path:url(#SVGID_39_);fill:url(#SVGID_40_);}
	.st16{clip-path:url(#SVGID_42_);fill:url(#SVGID_43_);}
	.st17{clip-path:url(#SVGID_45_);}
	.st18{clip-path:url(#SVGID_47_);fill:url(#SVGID_48_);}
	.st19{clip-path:url(#SVGID_50_);fill:url(#SVGID_51_);}
</style>
<g>
	<g>
		<defs>
			<path id="SVGID_1_" d="M2.74,64.09C1.41,69.5,9.45,81.1,26.16,80.46c-3.65-9.45-3.02-25.2-2.5-26c-1.84-1.85-2.91-3.81-3.18-5.39
				C12.61,51.78,3.88,59.48,2.74,64.09"/>
		</defs>
		<clipPath id="SVGID_2_">
			<use xlink:href="#SVGID_1_"  style="overflow:visible;"/>
		</clipPath>
		
			<linearGradient id="SVGID_3_" gradientUnits="userSpaceOnUse" x1="-643.2731" y1="462.2188" x2="-641.714" y2="462.2188" gradientTransform="matrix(11.0549 9.0478 9.0478 -11.0549 2935.9146 10989.2441)">
			<stop  offset="0" style="stop-color:#D2B32C"/>
			<stop  offset="0.2544" style="stop-color:#D8C132"/>
			<stop  offset="0.6831" style="stop-color:#E0D239"/>
			<stop  offset="1" style="stop-color:#E3D83C"/>
		</linearGradient>
		<polygon class="st0" points="11.34,36.94 41.85,61.92 16.23,93.23 -14.29,68.25 		"/>
	</g>
	<g>
		<g>
			<defs>
				<rect id="SVGID_4_" x="2.58" y="48.97" width="21.08" height="17.61"/>
			</defs>
			<clipPath id="SVGID_5_">
				<use xlink:href="#SVGID_4_"  style="overflow:visible;"/>
			</clipPath>
			<g class="st1">
				<defs>
					<path id="SVGID_6_" d="M20.48,49.07c0.61,2.94,3.18,5.39,3.18,5.39L2.71,66.57c0,0-0.59-1.89,0.7-4.16
						c1.3-2.27,3.24-6.53,8.76-10.42C17.7,48.1,20.12,49.07,20.48,49.07"/>
				</defs>
				<clipPath id="SVGID_7_">
					<use xlink:href="#SVGID_6_"  style="overflow:visible;"/>
				</clipPath>
				
					<linearGradient id="SVGID_8_" gradientUnits="userSpaceOnUse" x1="-676.3852" y1="511.7183" x2="-674.826" y2="511.7183" gradientTransform="matrix(-2.0203 -8.9521 -8.9521 2.0203 3228.1167 -7028.1187)">
					<stop  offset="0" style="stop-color:#FFFFFF"/>
					<stop  offset="0.8316" style="stop-color:#808080"/>
					<stop  offset="1" style="stop-color:#808080"/>
				</linearGradient>
				<polygon class="st2" points="3.16,71.19 -1.85,49 22.61,43.48 27.62,65.67 				"/>
			</g>
		</g>
	</g>
	<g>
		<defs>
			<path id="SVGID_9_" d="M85.15,18.22c6.88-1.04,17.35,1.71,17.8,2.18c1.51-0.96,2.99-1.39,4.09-1.33
				c-0.65-5.68-4.52-12.67-7.44-14.12c-0.53-0.26-1.18-0.39-1.92-0.39C93.58,4.55,86.88,8.66,85.15,18.22"/>
		</defs>
		<clipPath id="SVGID_10_">
			<use xlink:href="#SVGID_9_"  style="overflow:visible;"/>
		</clipPath>
		
			<linearGradient id="SVGID_11_" gradientUnits="userSpaceOnUse" x1="-615.1749" y1="488.2453" x2="-613.6158" y2="488.2453" gradientTransform="matrix(-4.6971 8.6143 8.6143 4.6971 -6995.5625 3011.5176)">
			<stop  offset="0" style="stop-color:#487F90"/>
			<stop  offset="1" style="stop-color:#7FA0B3"/>
		</linearGradient>
		<polygon class="st3" points="113.7,8.19 102.02,29.6 78.48,16.77 90.16,-4.65 		"/>
	</g>
	<g>
		<defs>
			<path id="SVGID_12_" d="M33.9,120.11c0.27,5.53,3.58,12.54,6.32,14.12c3.22,1.86,12.12-1.14,14.81-11.94
				c-6.72,0.58-16.67-2.73-17.09-3.21C36.41,119.91,34.96,120.23,33.9,120.11"/>
		</defs>
		<clipPath id="SVGID_13_">
			<use xlink:href="#SVGID_12_"  style="overflow:visible;"/>
		</clipPath>
		
			<linearGradient id="SVGID_14_" gradientUnits="userSpaceOnUse" x1="-685.4169" y1="495.6505" x2="-683.8577" y2="495.6505" gradientTransform="matrix(1.8943 -9.3212 -9.3212 -1.8943 5961.4048 -5315.0264)">
			<stop  offset="0" style="stop-color:#5F1762"/>
			<stop  offset="1" style="stop-color:#9A2C69"/>
		</linearGradient>
		<polygon class="st4" points="30.58,135.41 34.74,114.95 58.35,119.75 54.19,140.21 		"/>
	</g>
	<g>
		<g>
			<defs>
				<rect id="SVGID_15_" x="19.26" y="51.15" width="6.9" height="29.35"/>
			</defs>
			<clipPath id="SVGID_16_">
				<use xlink:href="#SVGID_15_"  style="overflow:visible;"/>
			</clipPath>
			<g class="st5">
				<defs>
					<path id="SVGID_17_" d="M19.26,63.4c0,6.11,1.38,11.89,3.86,17.06c0.98,0.05,1.99,0.06,3.04,0.02c-3.65-9.45-3.02-25.2-2.5-26
						c-1.1-1.11-1.91-2.25-2.46-3.33C19.95,55.01,19.26,59.12,19.26,63.4"/>
				</defs>
				<clipPath id="SVGID_18_">
					<use xlink:href="#SVGID_17_"  style="overflow:visible;"/>
				</clipPath>
				
					<linearGradient id="SVGID_19_" gradientUnits="userSpaceOnUse" x1="-684.9938" y1="416.5915" x2="-683.4348" y2="416.5915" gradientTransform="matrix(4.4242 0 0 -4.4242 3050.3035 1908.9196)">
					<stop  offset="0" style="stop-color:#FFFFFF"/>
					<stop  offset="0.8316" style="stop-color:#808080"/>
					<stop  offset="1" style="stop-color:#808080"/>
				</linearGradient>
				<rect x="19.26" y="51.15" class="st6" width="6.9" height="29.36"/>
			</g>
		</g>
	</g>
	<g>
		<g>
			<defs>
				<rect id="SVGID_20_" x="33.9" y="119.09" width="21.13" height="7.78"/>
			</defs>
			<clipPath id="SVGID_21_">
				<use xlink:href="#SVGID_20_"  style="overflow:visible;"/>
			</clipPath>
			<g class="st7">
				<defs>
					<path id="SVGID_22_" d="M37.94,119.09c-1.52,0.83-2.97,1.16-4.04,1.04c0.03,0.65,0.11,1.33,0.22,2.02
						c5.32,2.59,11.22,4.22,17.49,4.62l1.71,0.11c0.69-1.33,1.28-2.85,1.71-4.57C48.3,122.89,38.35,119.57,37.94,119.09"/>
				</defs>
				<clipPath id="SVGID_23_">
					<use xlink:href="#SVGID_22_"  style="overflow:visible;"/>
				</clipPath>
				
					<linearGradient id="SVGID_24_" gradientUnits="userSpaceOnUse" x1="-730.7423" y1="500.7723" x2="-729.1832" y2="500.7723" gradientTransform="matrix(1.1613 -4.1892 -4.1892 -1.1613 2990.2893 -2354.459)">
					<stop  offset="0" style="stop-color:#FFFFFF"/>
					<stop  offset="0.8316" style="stop-color:#2D2923"/>
					<stop  offset="1" style="stop-color:#2D2923"/>
				</linearGradient>
				<polygon class="st8" points="31.9,126.32 35.41,113.65 57.03,119.65 53.52,132.31 				"/>
			</g>
		</g>
	</g>
	<g>
		<g>
			<defs>
				<rect id="SVGID_25_" x="85.15" y="13.48" width="21.89" height="6.94"/>
			</defs>
			<clipPath id="SVGID_26_">
				<use xlink:href="#SVGID_25_"  style="overflow:visible;"/>
			</clipPath>
			<g class="st9">
				<defs>
					<path id="SVGID_27_" d="M86.57,13.48c-0.61,1.41-1.11,2.99-1.43,4.76c6.88-1.04,17.35,1.71,17.8,2.18
						c1.51-0.96,2.99-1.39,4.09-1.33c-0.06-0.49-0.15-1-0.25-1.51c-5.96-2.62-12.55-4.09-19.48-4.09H86.57z"/>
				</defs>
				<clipPath id="SVGID_28_">
					<use xlink:href="#SVGID_27_"  style="overflow:visible;"/>
				</clipPath>
				
					<linearGradient id="SVGID_29_" gradientUnits="userSpaceOnUse" x1="-719.8283" y1="497.9895" x2="-718.2692" y2="497.9895" gradientTransform="matrix(1.2508 -4.2706 -4.2706 -1.2508 3121.9609 -2430.1475)">
					<stop  offset="0" style="stop-color:#808080"/>
					<stop  offset="0.1684" style="stop-color:#808080"/>
					<stop  offset="1" style="stop-color:#FFFFFF"/>
				</linearGradient>
				<polygon class="st10" points="83.27,19.87 86.87,7.58 108.91,14.03 105.31,26.32 				"/>
			</g>
		</g>
	</g>
	<g>
		<defs>
			<path id="SVGID_30_" d="M79.2,14.93c-33.46,0-60.57,27.12-60.57,60.57c0,33.45,27.12,60.57,60.57,60.57h2.66
				c33.45,0,60.57-27.12,60.57-60.57c0-33.45-27.12-60.57-60.57-60.57H79.2z"/>
		</defs>
		<clipPath id="SVGID_31_">
			<use xlink:href="#SVGID_30_"  style="overflow:visible;"/>
		</clipPath>
		
			<radialGradient id="SVGID_32_" cx="-651.2866" cy="478.6685" r="1.5591" gradientTransform="matrix(39.7312 0 0 -39.7312 25956.9219 19092.3516)" gradientUnits="userSpaceOnUse">
			<stop  offset="0" style="stop-color:#A5C4DC"/>
			<stop  offset="0.9163" style="stop-color:#30598B"/>
			<stop  offset="1" style="stop-color:#2E4F81"/>
		</radialGradient>
		<rect x="18.62" y="14.93" class="st11" width="123.8" height="121.15"/>
	</g>
	<path class="st12" d="M43.33,96.94H31.55l12.25-43.62h11.41c5.69,0,9.58,1.16,11.68,3.48c2.47,2.73,3.03,6.53,1.66,11.38
		c-1.49,5.29-4.32,9.24-8.49,11.84c-2.85,1.75-6.47,2.63-10.88,2.63h-1.84L43.33,96.94z M50.09,72.84l0.53,0.03
		c1.43,0,2.69-0.44,3.79-1.31c1.09-0.88,1.86-2.08,2.28-3.6c0.42-1.51,0.35-2.73-0.21-3.67c-0.56-0.96-1.48-1.44-2.76-1.44H52.9
		L50.09,72.84z"/>
	<path class="st12" d="M91.84,96.94H79.66l0.68-5.54H72.4l-2.51,5.54H57.71l22.73-43.62h14.41L91.84,96.94z M81.58,82.05l0.66-5.09
		c-0.01-0.02,0.02-0.27,0.1-0.76c0.08-0.41,0.34-2.05,0.79-4.92c0.05-0.32,0.13-0.76,0.23-1.31c0.1-0.56,0.22-1.26,0.36-2.11
		l0.79-4.12c-0.15,0.4-0.32,0.84-0.53,1.33c-0.2,0.49-0.42,1.03-0.66,1.61c-0.46,1.17-0.78,1.98-0.96,2.43
		c-0.18,0.45-0.3,0.73-0.34,0.82l-2.3,5.28l-3.1,6.84H81.58z"/>
	<path class="st12" d="M121.23,83.52l-4.22,12.6c-2.91,1.05-5.41,1.58-7.48,1.58c-4.88,0-8.48-1.79-10.81-5.37
		c-2.6-4.01-2.87-9.69-0.81-17.03c1.93-6.88,5.23-12.39,9.9-16.55c4.67-4.14,9.93-6.21,15.79-6.21c1.9,0,3.74,0.36,5.52,1.07
		l-3.5,12.46c-1.26-1.75-2.81-2.63-4.66-2.63c-2.41,0-4.58,1.03-6.51,3.08c-1.94,2.07-3.42,4.93-4.44,8.59
		c-0.5,1.77-0.77,3.35-0.82,4.75c-0.05,1.39,0.1,2.57,0.46,3.53c0.36,0.96,0.93,1.7,1.71,2.2c0.78,0.51,1.76,0.76,2.95,0.76
		C116.34,86.35,118.65,85.41,121.23,83.52"/>
	<g>
		<defs>
			<path id="SVGID_33_" d="M15.25,30.73L2.79,63.88C7.07,52.9,27.53,44.23,53.73,44.4c-9.11-10.79-2.49-29.23,8.9-34.74
				c-1.69-0.54-4.18-0.85-7.16-0.85C42.87,8.81,21.56,14.29,15.25,30.73"/>
		</defs>
		<clipPath id="SVGID_34_">
			<use xlink:href="#SVGID_33_"  style="overflow:visible;"/>
		</clipPath>
		
			<linearGradient id="SVGID_35_" gradientUnits="userSpaceOnUse" x1="-651.1098" y1="478.1618" x2="-649.5507" y2="478.1618" gradientTransform="matrix(37.5638 5.0068 5.0068 -37.5638 22069.5391 21254.2617)">
			<stop  offset="0" style="stop-color:#DDCC33"/>
			<stop  offset="0.3496" style="stop-color:#E0D237"/>
			<stop  offset="1" style="stop-color:#E3D83C"/>
		</linearGradient>
		<polygon class="st13" points="3.84,0.98 69.84,9.77 61.58,71.72 -4.42,62.92 		"/>
	</g>
	<g>
		<g>
			<defs>
				<rect id="SVGID_36_" x="98.38" y="4.84" width="9.29" height="15.28"/>
			</defs>
			<clipPath id="SVGID_37_">
				<use xlink:href="#SVGID_36_"  style="overflow:visible;"/>
			</clipPath>
			<g class="st14">
				<defs>
					<path id="SVGID_38_" d="M107.28,19.05c-2.13-0.04-3.78,1.07-3.78,1.07L98.38,4.84c0,0,1.31-0.14,2.62,1.01
						c1.31,1.15,3.83,2.98,5.64,7.1C108.45,17.08,107.33,18.82,107.28,19.05"/>
				</defs>
				<clipPath id="SVGID_39_">
					<use xlink:href="#SVGID_38_"  style="overflow:visible;"/>
				</clipPath>
				
					<linearGradient id="SVGID_40_" gradientUnits="userSpaceOnUse" x1="-680.4159" y1="445.0201" x2="-678.8568" y2="445.0201" gradientTransform="matrix(5.9256 -1.3819 -1.3819 -5.9256 4747.6694 1709.7592)">
					<stop  offset="0" style="stop-color:#FFFFFF"/>
					<stop  offset="0.8316" style="stop-color:#808080"/>
					<stop  offset="1" style="stop-color:#808080"/>
				</linearGradient>
				<polygon class="st15" points="94.97,5.5 107.93,2.48 111.86,19.32 98.9,22.35 				"/>
			</g>
		</g>
	</g>
	<g>
		<defs>
			<path id="SVGID_41_" d="M105.24,42.06c8.59-4.51,19.97,2.67,21.98,11.12c3.2-5.5,5.37-26.65-7.11-34.89L99.66,5.04
				C106.39,9.53,109.4,24,105.24,42.06"/>
		</defs>
		<clipPath id="SVGID_42_">
			<use xlink:href="#SVGID_41_"  style="overflow:visible;"/>
		</clipPath>
		
			<linearGradient id="SVGID_43_" gradientUnits="userSpaceOnUse" x1="-635.7066" y1="484.3383" x2="-634.1475" y2="484.3383" gradientTransform="matrix(-5.9658 25.3028 25.3028 5.9658 -15926.9795 13205.6729)">
			<stop  offset="0" style="stop-color:#487F90"/>
			<stop  offset="1" style="stop-color:#7FA0B3"/>
		</linearGradient>
		<polygon class="st16" points="143.34,7.57 130.86,60.53 88.91,50.64 101.39,-2.32 		"/>
	</g>
	<g>
		<g>
			<defs>
				<rect id="SVGID_44_" x="33.39" y="119.33" width="8.24" height="15.1"/>
			</defs>
			<clipPath id="SVGID_45_">
				<use xlink:href="#SVGID_44_"  style="overflow:visible;"/>
			</clipPath>
			<g class="st17">
				<defs>
					<path id="SVGID_46_" d="M33.9,120.13c2.06,0.17,3.72-0.8,3.72-0.8l4.01,15.1c0,0-1.28,0.05-2.47-1.14
						c-1.2-1.19-3.52-3.12-5.01-7.22C32.65,121.96,33.84,120.35,33.9,120.13"/>
				</defs>
				<clipPath id="SVGID_47_">
					<use xlink:href="#SVGID_46_"  style="overflow:visible;"/>
				</clipPath>
				
					<linearGradient id="SVGID_48_" gradientUnits="userSpaceOnUse" x1="-612.0751" y1="537.5931" x2="-610.5159" y2="537.5931" gradientTransform="matrix(-5.8186 0.9678 0.9678 5.8186 -4041.918 -2409.21)">
					<stop  offset="0" style="stop-color:#FFFFFF"/>
					<stop  offset="0.8316" style="stop-color:#808080"/>
					<stop  offset="1" style="stop-color:#808080"/>
				</linearGradient>
				<polygon class="st18" points="44.08,134.07 32.89,135.93 30.19,119.74 41.38,117.88 				"/>
			</g>
		</g>
	</g>
	<g>
		<defs>
			<path id="SVGID_49_" d="M21.2,120.06l18.96,14.09c-6.23-4.77-8.24-18.95-3.1-36.17c-8.59,3.82-19.15-3.82-20.57-12.13
				C13.06,90.97,9.64,111.3,21.2,120.06"/>
		</defs>
		<clipPath id="SVGID_50_">
			<use xlink:href="#SVGID_49_"  style="overflow:visible;"/>
		</clipPath>
		
			<linearGradient id="SVGID_51_" gradientUnits="userSpaceOnUse" x1="-662.1743" y1="489.0576" x2="-660.6152" y2="489.0576" gradientTransform="matrix(7.3473 -24.107 -24.107 -7.3473 16674.373 -12241.9482)">
			<stop  offset="0" style="stop-color:#8A247D"/>
			<stop  offset="0.5873" style="stop-color:#972A68"/>
			<stop  offset="1" style="stop-color:#9D2D5E"/>
		</linearGradient>
		<polygon class="st19" points="-3.83,130.04 12.24,77.34 53.63,89.96 37.57,142.66 		"/>
	</g>
</g>
</svg>
