<?xml version="1.0" encoding="utf-8"?>
<!-- Generator: Adobe Illustrator 23.0.0, SVG Export Plug-In . SVG Version: 6.00 Build 0)  -->
<svg version="1.1" id="Capa_1" xmlns="http://www.w3.org/2000/svg" xmlns:xlink="http://www.w3.org/1999/xlink" x="0px" y="0px"
	 viewBox="0 0 70.78 89.36" style="enable-background:new 0 0 70.78 89.36;" xml:space="preserve">
<style type="text/css">
	.st0{fill:none;}
	.st1{fill:#60A1E1;}
	.st2{fill:#E5E5DC;}
	.st3{fill:#D4D3C6;}
	.st4{fill:#AF4C4D;}
	.st5{fill:#FFFFFF;}
</style>
<path class="st0" d="M130.51,37.07"/>
<g>
	<g>
		<path class="st1" d="M163.1,83.53c0,2.76-2.24,5-4.98,5H90.1c-2.75,0-4.98-2.24-4.98-5V16.06h23.6c0.69,0,1.25-0.55,1.25-1.23
			V-9.45h48.15c2.75,0,4.98,2.24,4.98,4.98v18.29h2.48V-4.47c0-4.11-3.35-7.46-7.46-7.46h-49.39c-0.33,0-0.64,0.13-0.88,0.37
			L82.98,14c-0.02,0.04-0.04,0.07-0.1,0.15c-0.06,0.08-0.11,0.15-0.14,0.24c0,0.03-0.01,0.07-0.04,0.17
			c-0.03,0.1-0.05,0.18-0.05,0.26v68.73c0,4.1,3.35,7.44,7.46,7.44h68.01c4.11,0,7.46-3.35,7.46-7.46v-8.68h-2.48V83.53z
			 M107.49-7.65v21.23H86.82L97.16,2.97L107.49-7.65z"/>
	</g>
	<g>
		<path class="st1" d="M135.83,22.4H94.09v2.86h39.34C134.17,24.26,134.98,23.31,135.83,22.4z"/>
	</g>
	<g>
		<path class="st1" d="M129.32,32.89H94.09v2.86h34.34C128.68,34.78,128.98,33.83,129.32,32.89z"/>
	</g>
	<g>
		<path class="st1" d="M94.09,46.24h33.52c-0.09-0.94-0.14-1.9-0.14-2.86H94.09V46.24z"/>
	</g>
	<g>
		<path class="st1" d="M94.09,53.87v2.86h36.45c-0.45-0.93-0.86-1.88-1.22-2.86H94.09z"/>
	</g>
	<g>
		<path class="st1" d="M94.09,64.36v2.86h44.86c-1.1-0.88-2.14-1.84-3.11-2.86H94.09z"/>
	</g>
	<g>
		<rect x="94.09" y="74.85" class="st1" width="61.03" height="2.86"/>
	</g>
</g>
<g>
	<g>
		<g>
			<path class="st1" d="M132.42,52.41c-0.18,0-0.35-0.04-0.52-0.14c-0.51-0.29-0.69-0.93-0.4-1.44l4.44-7.89
				c0.17-0.3,0.47-0.49,0.8-0.53c0.34-0.04,0.67,0.09,0.9,0.34l6.01,6.65c0.39,0.43,0.36,1.1-0.08,1.49
				c-0.43,0.39-1.1,0.36-1.49-0.08l-5.02-5.56l-3.72,6.61C133.15,52.21,132.79,52.41,132.42,52.41z"/>
		</g>
	</g>
	<g>
		<g>
			<path class="st1" d="M163.06,71.75c-8.71,0-17.26-4.22-22.42-12.01c-3.39-5.11-5.1-10.91-4.81-16.31c0.03-0.58,0.53-1.03,1.11-1
				c0.58,0.03,1.03,0.53,1,1.11c-0.26,4.95,1.33,10.29,4.47,15.03c7.53,11.37,22.91,14.49,34.28,6.96
				c5.51-3.65,9.26-9.22,10.58-15.7c1.31-6.47,0.03-13.07-3.62-18.58c-3.65-5.51-9.22-9.26-15.7-10.58
				c-6.47-1.31-13.07-0.03-18.58,3.62c-3.97,2.63-7.08,6.32-8.99,10.66c-0.23,0.53-0.86,0.78-1.39,0.54
				c-0.53-0.23-0.78-0.86-0.54-1.39c2.07-4.72,5.44-8.72,9.75-11.58c12.34-8.18,29.03-4.79,37.21,7.55
				c3.96,5.98,5.36,13.14,3.93,20.17c-1.43,7.03-5.51,13.08-11.48,17.04C173.3,70.31,168.15,71.75,163.06,71.75z"/>
		</g>
	</g>
</g>
<g>
	<path class="st2" d="M49.78,1.79H5.22c-1.25,0-2.25,1-2.25,2.95v81.51c0,0.53,1,1.54,2.25,1.54h61.54c1.24,0,2.24-1.01,2.24-1.54
		V21.72c0-1.07-0.14-1.42-0.39-1.66L50.74,2.19C50.49,1.93,50.14,1.79,49.78,1.79L49.78,1.79z M49.78,1.79"/>
	<path class="st3" d="M50.58,2.02v18.2h18.19L50.58,2.02z M50.58,2.02"/>
	<path class="st4" d="M22.95,52.97c-0.53,0-1.04-0.17-1.48-0.5c-1.6-1.2-1.82-2.53-1.71-3.44c0.28-2.5,3.37-5.12,9.19-7.78
		c2.31-5.06,4.51-11.3,5.81-16.51c-1.53-3.34-3.02-7.66-1.93-10.2c0.38-0.89,0.85-1.58,1.74-1.87c0.35-0.12,1.24-0.26,1.56-0.26
		c0.78,0,1.46,1,1.94,1.61c0.45,0.58,1.48,1.8-0.58,10.45c2.07,4.27,5.01,8.63,7.81,11.61c2.02-0.36,3.75-0.55,5.16-0.55
		c2.41,0,3.86,0.56,4.45,1.72c0.5,0.95,0.29,2.07-0.59,3.31c-0.86,1.2-2.04,1.83-3.41,1.83c-1.87,0-4.04-1.18-6.47-3.51
		c-4.36,0.92-9.44,2.54-13.56,4.33c-1.28,2.72-2.51,4.92-3.66,6.53C25.66,51.94,24.3,52.97,22.95,52.97L22.95,52.97z M27.04,45.1
		c-3.28,1.84-4.62,3.36-4.71,4.21c-0.02,0.14-0.06,0.51,0.66,1.07C23.22,50.3,24.55,49.69,27.04,45.1L27.04,45.1z M47.98,38.27
		c1.25,0.97,1.56,1.46,2.38,1.46c0.36,0,1.39-0.02,1.86-0.68c0.22-0.32,0.31-0.52,0.35-0.64c-0.19-0.1-0.44-0.3-1.81-0.3
		C49.99,38.11,49.02,38.14,47.98,38.27L47.98,38.27z M36.51,28.16c-1.1,3.8-2.54,7.9-4.1,11.62c3.21-1.24,6.7-2.33,9.97-3.1
		C40.31,34.27,38.24,31.27,36.51,28.16L36.51,28.16z M35.58,15.17c-0.15,0.05-2.04,2.7,0.15,4.94
		C37.19,16.86,35.65,15.15,35.58,15.17L35.58,15.17z M35.58,15.17"/>
	<path class="st4" d="M66.76,87.79H5.22c-1.25,0-2.25-1.01-2.25-2.25V61.68H69v23.86C69,86.79,68,87.79,66.76,87.79L66.76,87.79z
		 M66.76,87.79"/>
	<path class="st5" d="M19.68,83.18h-2.52V67.71h4.45c0.65,0,1.31,0.11,1.95,0.31c0.64,0.21,1.22,0.52,1.73,0.94
		c0.51,0.42,0.92,0.92,1.24,1.52c0.31,0.59,0.47,1.26,0.47,2c0,0.79-0.13,1.49-0.4,2.13c-0.26,0.64-0.64,1.18-1.11,1.61
		c-0.48,0.43-1.05,0.77-1.72,1.01c-0.67,0.24-1.42,0.36-2.23,0.36h-1.87V83.18z M19.68,69.62v6.13h2.31c0.31,0,0.61-0.05,0.92-0.16
		c0.3-0.1,0.58-0.28,0.83-0.52c0.25-0.23,0.45-0.57,0.61-0.99c0.15-0.43,0.23-0.96,0.23-1.59c0-0.25-0.04-0.54-0.11-0.87
		c-0.07-0.33-0.22-0.64-0.43-0.94c-0.22-0.3-0.52-0.55-0.92-0.76c-0.39-0.2-0.91-0.3-1.55-0.3H19.68z M19.68,69.62"/>
	<path class="st5" d="M42.46,75.01c0,1.27-0.13,2.36-0.41,3.27c-0.28,0.9-0.62,1.66-1.04,2.26c-0.42,0.61-0.89,1.09-1.42,1.44
		c-0.52,0.35-1.03,0.62-1.52,0.79c-0.49,0.17-0.94,0.28-1.34,0.34c-0.4,0.05-0.7,0.07-0.91,0.07h-5.86V67.71h4.66
		c1.3,0,2.45,0.2,3.43,0.61c0.99,0.41,1.81,0.97,2.46,1.65c0.65,0.68,1.14,1.47,1.46,2.34C42.31,73.19,42.46,74.09,42.46,75.01
		L42.46,75.01z M34.99,81.34c1.71,0,2.94-0.55,3.7-1.64c0.76-1.09,1.13-2.68,1.13-4.75c0-0.64-0.07-1.28-0.22-1.91
		c-0.16-0.63-0.46-1.2-0.89-1.71c-0.44-0.51-1.04-0.92-1.8-1.24c-0.76-0.31-1.73-0.47-2.94-0.47h-1.47v11.71H34.99z M34.99,81.34"/>
	<path class="st5" d="M48.68,69.62v4.87h6.47v1.73h-6.47v6.96h-2.56V67.71h9.68v1.91H48.68z M48.68,69.62"/>
</g>
</svg>
