<?xml version="1.0" encoding="utf-8"?>
<!-- Generator: Adobe Illustrator 23.0.0, SVG Export Plug-In . SVG Version: 6.00 Build 0)  -->
<svg version="1.1" id="Capa_1" xmlns="http://www.w3.org/2000/svg" xmlns:xlink="http://www.w3.org/1999/xlink" x="0px" y="0px"
	 viewBox="0 0 122.55 116.28" style="enable-background:new 0 0 122.55 116.28;" xml:space="preserve">
<style type="text/css">
	.st0{fill:#FFFFFF;}
</style>
<path class="st0" d="M55.16,54.98"/>
<g>
	<path class="st0" d="M87.74,101.43c0,2.76-2.24,5-4.98,5H14.75c-2.75,0-4.98-2.24-4.98-5V33.97h23.6c0.69,0,1.25-0.55,1.25-1.23
		V8.45h48.15c2.75,0,4.98,2.24,4.98,4.98v22.29h2.48V13.43c0-4.11-3.35-7.46-7.46-7.46H33.37c-0.33,0-0.64,0.13-0.88,0.37L7.62,31.9
		c-0.02,0.04-0.04,0.07-0.1,0.15c-0.06,0.08-0.11,0.15-0.14,0.24c0,0.03-0.01,0.07-0.04,0.17c-0.03,0.1-0.05,0.18-0.05,0.26v68.73
		c0,4.1,3.35,7.44,7.46,7.44h68.01c4.11,0,7.46-3.35,7.46-7.46V86.76h-2.48V101.43z M32.14,10.26v21.23H11.46L21.8,20.87
		L32.14,10.26z"/>
	<path class="st0" d="M60.48,40.31H18.73v2.86h39.34C58.82,42.16,59.62,41.21,60.48,40.31z"/>
	<path class="st0" d="M53.96,50.8H18.73v2.86h34.34C53.32,52.69,53.62,51.73,53.96,50.8z"/>
	<path class="st0" d="M18.73,64.15h33.52c-0.09-0.94-0.14-1.9-0.14-2.86H18.73V64.15z"/>
	<path class="st0" d="M18.73,71.78v2.86h36.45c-0.45-0.93-0.86-1.88-1.22-2.86H18.73z"/>
	<path class="st0" d="M18.73,82.27v2.86h44.86c-1.1-0.88-2.14-1.84-3.11-2.86H18.73z"/>
	<rect x="18.73" y="92.76" class="st0" width="61.03" height="2.86"/>
</g>
<path class="st0" d="M82.03,40.48c11.45,0,20.77,9.32,20.77,20.77c0,11.45-9.32,20.77-20.77,20.77c-11.45,0-20.77-9.32-20.77-20.77
	C61.26,49.79,70.58,40.48,82.03,40.48 M82.03,37.48c-13.13,0-23.77,10.64-23.77,23.77c0,13.13,10.64,23.77,23.77,23.77
	c13.13,0,23.77-10.64,23.77-23.77C105.81,48.12,95.16,37.48,82.03,37.48L82.03,37.48z"/>
<g>
	<path class="st0" d="M96.65,58.47c-0.58,0-1.14-0.34-1.38-0.92C92.84,51.81,87.5,47.77,81.33,47c-0.82-0.1-1.41-0.85-1.3-1.67
		c0.1-0.82,0.86-1.41,1.67-1.3c7.23,0.9,13.48,5.64,16.33,12.36c0.32,0.76-0.03,1.64-0.8,1.97C97.04,58.43,96.84,58.47,96.65,58.47z
		"/>
</g>
<path class="st0" d="M95.1,83.17c3.64,8.94,13.19,30.55,18.96,26.68s-10.62-20.88-17.53-27.64L95.1,83.17z"/>
</svg>
