<?xml version="1.0" encoding="utf-8"?>
<!-- Generator: Adobe Illustrator 23.0.0, SVG Export Plug-In . SVG Version: 6.00 Build 0)  -->
<svg version="1.1" id="Capa_1" xmlns="http://www.w3.org/2000/svg" xmlns:xlink="http://www.w3.org/1999/xlink" x="0px" y="0px"
	 viewBox="0 0 27 26" style="enable-background:new 0 0 27 26;" xml:space="preserve">
<style type="text/css">
	.st0{fill:#60A6E6;}
</style>
<g>
	<g>
		<g>
			<path class="st0" d="M25.68,20.04c0.05,0.4-0.07,0.74-0.36,1.03l-3.43,3.41c-0.15,0.17-0.36,0.32-0.61,0.44
				c-0.25,0.12-0.49,0.2-0.74,0.23c-0.02,0-0.07,0-0.16,0.01c-0.09,0.01-0.2,0.01-0.34,0.01c-0.33,0-0.86-0.06-1.59-0.17
				c-0.73-0.11-1.63-0.39-2.68-0.83c-1.06-0.44-2.26-1.1-3.6-1.97c-1.34-0.88-2.77-2.08-4.28-3.61c-1.2-1.19-2.2-2.32-2.99-3.41
				c-0.79-1.08-1.43-2.09-1.91-3.01c-0.48-0.92-0.84-1.75-1.08-2.5c-0.24-0.75-0.4-1.39-0.49-1.94C1.33,7.21,1.3,6.78,1.32,6.47
				c0.02-0.31,0.03-0.48,0.03-0.52c0.03-0.24,0.11-0.49,0.23-0.74c0.12-0.25,0.27-0.45,0.44-0.61l3.43-3.43
				c0.24-0.24,0.52-0.36,0.83-0.36c0.22,0,0.42,0.06,0.59,0.19C7.04,1.14,7.18,1.3,7.3,1.49l2.76,5.24c0.15,0.28,0.2,0.58,0.13,0.9
				c-0.07,0.33-0.21,0.6-0.44,0.83L8.49,9.72C8.46,9.76,8.43,9.81,8.4,9.89c-0.03,0.08-0.04,0.14-0.04,0.19
				c0.07,0.36,0.22,0.77,0.46,1.24c0.21,0.41,0.52,0.92,0.95,1.51c0.43,0.59,1.04,1.28,1.83,2.05c0.77,0.79,1.46,1.41,2.06,1.85
				c0.6,0.44,1.11,0.76,1.51,0.97c0.4,0.21,0.71,0.33,0.93,0.37l0.32,0.06c0.03,0,0.09-0.01,0.17-0.04
				c0.08-0.03,0.13-0.06,0.17-0.09l1.47-1.5c0.31-0.28,0.67-0.41,1.08-0.41c0.29,0,0.52,0.05,0.7,0.15h0.03l4.98,2.94
				C25.39,19.42,25.61,19.7,25.68,20.04L25.68,20.04z M25.68,20.04"/>
		</g>
	</g>
</g>
</svg>
