<?xml version="1.0" encoding="utf-8"?>
<!-- Generator: Adobe Illustrator 23.0.0, SVG Export Plug-In . SVG Version: 6.00 Build 0)  -->
<svg version="1.1" id="Capa_1" xmlns="http://www.w3.org/2000/svg" xmlns:xlink="http://www.w3.org/1999/xlink" x="0px" y="0px"
	 viewBox="0 0 31.15 29.45" style="enable-background:new 0 0 31.15 29.45;" xml:space="preserve">
<style type="text/css">
	.st0{fill:#194F8C;}
</style>
<g>
	<g>
		<path class="st0" d="M3.89,27.03c0-1.51,0-2.97,0.01-4.42c0-0.11,0.08-0.23,0.16-0.31c4.34-4.37,8.67-8.74,13.01-13.11
			c0.02-0.02,0.05-0.03,0.05-0.03c1.51,1.52,3.01,3.03,4.54,4.57c-0.04,0.05-0.13,0.15-0.23,0.25c-4.21,4.24-8.41,8.47-12.61,12.72
			c-0.25,0.26-0.5,0.36-0.86,0.35C6.63,27.02,5.3,27.03,3.89,27.03z"/>
	</g>
	<g>
		<path class="st0" d="M12.38,27c0.79-0.79,1.52-1.54,2.27-2.27c0.09-0.08,0.26-0.11,0.39-0.11c4.22-0.01,8.45,0,12.67,0
			c0.09,0,0.18,0.02,0.29,0.03c0,0.78,0,1.55,0,2.34C22.82,27,17.65,27,12.38,27z"/>
	</g>
	<g>
		<path class="st0" d="M18.73,7.88c0.71-0.74,1.43-1.53,2.2-2.26c0.43-0.41,1.05-0.37,1.5,0.06c0.97,0.94,1.93,1.89,2.87,2.86
			c0.41,0.42,0.45,1.04,0.09,1.47c-0.62,0.75-1.29,1.46-1.94,2.19c-0.07,0.08-0.12,0.18-0.17,0.24
			C21.71,10.87,20.21,9.36,18.73,7.88z"/>
	</g>
</g>
</svg>
