<?xml version="1.0" encoding="utf-8"?>
<!-- Generator: Adobe Illustrator 23.0.0, SVG Export Plug-In . SVG Version: 6.00 Build 0)  -->
<svg version="1.1" id="Capa_1" xmlns="http://www.w3.org/2000/svg" xmlns:xlink="http://www.w3.org/1999/xlink" x="0px" y="0px"
	 viewBox="0 0 89.11 79.91" style="enable-background:new 0 0 89.11 79.91;" xml:space="preserve">
<style type="text/css">
	.st0{fill:#EAEBED;}
	.st1{fill:#6C8A4A;}
	.st2{fill:#5F7B41;}
	.st3{fill:#F8F8F8;}
</style>
<g>
	<path class="st0" d="M82.6,67.66H46.85c-1.41,0-2.55-1.14-2.55-2.55c0-1.41,0-49.66,0-51.07s1.14-2.55,2.55-2.55H82.6
		c1.41,0,2.55,1.14,2.55,2.55V65.1C85.16,66.51,84.01,67.66,82.6,67.66z"/>
	<g>
		<path class="st1" d="M57.07,26.8H46.85c-1.41,0-2.55-1.14-2.55-2.55s1.14-2.55,2.55-2.55h10.21c1.41,0,2.55,1.14,2.55,2.55
			S58.48,26.8,57.07,26.8z"/>
		<path class="st1" d="M57.07,37.01H46.85c-1.41,0-2.55-1.14-2.55-2.55s1.14-2.55,2.55-2.55h10.21c1.41,0,2.55,1.14,2.55,2.55
			S58.48,37.01,57.07,37.01z"/>
		<path class="st1" d="M57.07,47.23H46.85c-1.41,0-2.55-1.14-2.55-2.55c0-1.41,1.14-2.55,2.55-2.55h10.21
			c1.41,0,2.55,1.14,2.55,2.55C59.62,46.08,58.48,47.23,57.07,47.23z"/>
		<path class="st1" d="M57.07,57.44H46.85c-1.41,0-2.55-1.14-2.55-2.55s1.14-2.55,2.55-2.55h10.21c1.41,0,2.55,1.14,2.55,2.55
			S58.48,57.44,57.07,57.44z"/>
		<path class="st1" d="M72.39,26.8h-5.11c-1.41,0-2.55-1.14-2.55-2.55s1.14-2.55,2.55-2.55h5.11c1.41,0,2.55,1.14,2.55,2.55
			S73.8,26.8,72.39,26.8z"/>
		<path class="st1" d="M72.39,37.01h-5.11c-1.41,0-2.55-1.14-2.55-2.55s1.14-2.55,2.55-2.55h5.11c1.41,0,2.55,1.14,2.55,2.55
			S73.8,37.01,72.39,37.01z"/>
		<path class="st1" d="M72.39,47.23h-5.11c-1.41,0-2.55-1.14-2.55-2.55c0-1.41,1.14-2.55,2.55-2.55h5.11c1.41,0,2.55,1.14,2.55,2.55
			C74.94,46.08,73.8,47.23,72.39,47.23z"/>
		<path class="st1" d="M72.39,57.44h-5.11c-1.41,0-2.55-1.14-2.55-2.55s1.14-2.55,2.55-2.55h5.11c1.41,0,2.55,1.14,2.55,2.55
			S73.8,57.44,72.39,57.44z"/>
	</g>
	<path class="st2" d="M48.48,1.85c-0.58-0.49-1.36-0.69-2.1-0.54L5.52,8.97c-1.21,0.22-2.08,1.28-2.08,2.51v56.18
		c0,1.23,0.87,2.28,2.08,2.51l40.86,7.66c0.15,0.03,0.31,0.05,0.47,0.05c0.59,0,1.17-0.2,1.63-0.59c0.59-0.49,0.92-1.21,0.92-1.97
		V3.82C49.41,3.05,49.07,2.33,48.48,1.85z"/>
	<path class="st3" d="M38.56,48.1l-8.07-9.23l8.17-10.5c0.87-1.11,0.66-2.72-0.44-3.59c-1.11-0.87-2.71-0.66-3.59,0.44l-7.56,9.72
		l-6.37-7.28c-0.93-1.07-2.55-1.17-3.6-0.24c-1.06,0.93-1.17,2.54-0.24,3.6l7.02,8.03l-7.12,9.15c-0.87,1.11-0.66,2.72,0.44,3.59
		c0.47,0.36,1.03,0.54,1.57,0.54c0.76,0,1.51-0.34,2.02-0.99l6.51-8.38l7.43,8.48c0.51,0.58,1.21,0.88,1.92,0.88
		c0.6,0,1.2-0.21,1.68-0.63C39.38,50.77,39.49,49.16,38.56,48.1z"/>
</g>
</svg>
