<?xml version="1.0" encoding="utf-8"?>
<!-- Generator: Adobe Illustrator 23.0.0, SVG Export Plug-In . SVG Version: 6.00 Build 0)  -->
<svg version="1.1" id="Capa_1" xmlns="http://www.w3.org/2000/svg" xmlns:xlink="http://www.w3.org/1999/xlink" x="0px" y="0px"
	 viewBox="0 0 26.04 25.79" style="enable-background:new 0 0 26.04 25.79;" xml:space="preserve">
<style type="text/css">
	.st0{fill:#3989B4;}
</style>
<g>
	<g>
		<path class="st0" d="M18.73,6.17c0.89,0,1.61-0.72,1.61-1.61V2.87c0-0.89-0.72-1.62-1.61-1.62c-0.89,0-1.62,0.72-1.62,1.62v1.69
			C17.12,5.45,17.84,6.17,18.73,6.17L18.73,6.17z M18.73,6.17"/>
		<path class="st0" d="M24.47,4.05h-3.25v0.82c0,1.35-1.1,2.46-2.46,2.46c-1.36,0-2.46-1.1-2.46-2.46V4.05H9.74v0.82
			c0,1.35-1.1,2.46-2.46,2.46c-1.35,0-2.46-1.1-2.46-2.46V4.05L1.55,4.01v20.52h21.3l1.64,0L24.47,4.05z M22.85,22.9H3.19V9.79
			h19.66V22.9z M22.85,22.9"/>
	</g>
	<path class="st0" d="M7.26,6.17c0.89,0,1.61-0.72,1.61-1.61V2.87c0-0.9-0.72-1.62-1.61-1.62c-0.89,0-1.62,0.72-1.62,1.62v1.69
		C5.65,5.45,6.37,6.17,7.26,6.17L7.26,6.17z M7.26,6.17"/>
	<rect x="9.75" y="11.54" class="st0" width="2.58" height="2.28"/>
	<rect x="13.92" y="11.54" class="st0" width="2.58" height="2.28"/>
	<rect x="17.8" y="11.54" class="st0" width="2.58" height="2.28"/>
	<rect x="9.75" y="15.33" class="st0" width="2.58" height="2.28"/>
	<rect x="13.92" y="15.33" class="st0" width="2.58" height="2.28"/>
	<rect x="17.8" y="15.33" class="st0" width="2.58" height="2.28"/>
	<rect x="9.75" y="19.19" class="st0" width="2.58" height="2.27"/>
	<rect x="5.65" y="15.33" class="st0" width="2.58" height="2.28"/>
	<rect x="5.65" y="19.19" class="st0" width="2.58" height="2.27"/>
	<rect x="13.92" y="19.19" class="st0" width="2.58" height="2.27"/>
	<rect x="17.8" y="19.19" class="st0" width="2.58" height="2.27"/>
</g>
</svg>
