<?xml version="1.0" encoding="utf-8"?>
<!-- Generator: Adobe Illustrator 23.0.0, SVG Export Plug-In . SVG Version: 6.00 Build 0)  -->
<svg version="1.1" id="Capa_1" xmlns="http://www.w3.org/2000/svg" xmlns:xlink="http://www.w3.org/1999/xlink" x="0px" y="0px"
	 viewBox="0 0 26 23" style="enable-background:new 0 0 26 23;" xml:space="preserve">
<style type="text/css">
	.st0{fill:#EEEEEE;}
</style>
<g>
	<path class="st0" d="M13,21.79c-3.34,0-6.67,0-10.01,0c-1.19,0-1.74-0.55-1.74-1.74c0-4.73,0-9.46,0-14.19
		c0-1.15,0.56-1.71,1.73-1.71c1.01,0,2.02-0.01,3.03,0.01c0.29,0.01,0.44-0.07,0.54-0.35c0.19-0.53,0.41-1.05,0.64-1.57
		C7.49,1.54,8,1.2,8.8,1.21c2.8,0.02,5.6,0.02,8.4,0c0.8-0.01,1.31,0.33,1.62,1.03c0.23,0.52,0.45,1.04,0.64,1.57
		c0.1,0.28,0.25,0.36,0.54,0.35c1.04-0.02,2.08-0.01,3.12-0.01c1.04,0,1.63,0.59,1.63,1.61c0,4.81,0,9.61,0,14.42
		c0,1-0.6,1.6-1.61,1.6C19.76,21.79,16.38,21.79,13,21.79z M18.88,12.99c0.01-3.24-2.62-5.88-5.85-5.89
		c-3.25-0.01-5.89,2.6-5.9,5.84C7.11,16.2,9.74,18.85,13,18.85C16.23,18.85,18.87,16.22,18.88,12.99z"/>
	<path class="st0" d="M15.93,13c-0.01,1.62-1.34,2.93-2.97,2.91c-1.62-0.01-2.92-1.35-2.9-2.98c0.02-1.6,1.34-2.89,2.95-2.89
		C14.63,10.04,15.94,11.37,15.93,13z"/>
</g>
</svg>
