<?xml version="1.0" encoding="utf-8"?>
<!-- Generator: Adobe Illustrator 23.0.0, SVG Export Plug-In . SVG Version: 6.00 Build 0)  -->
<svg version="1.1" id="Capa_1" xmlns="http://www.w3.org/2000/svg" xmlns:xlink="http://www.w3.org/1999/xlink" x="0px" y="0px"
	 viewBox="0 0 92.6 109.87" style="enable-background:new 0 0 92.6 109.87;" xml:space="preserve">
<style type="text/css">
	.st0{fill:#FFFFFF;}
</style>
<g>
	<path class="st0" d="M84.93,98.94c0,2.76-2.24,5-4.98,5H11.94c-2.75,0-4.98-2.24-4.98-5V31.47h23.6c0.69,0,1.25-0.55,1.25-1.23
		V5.95h48.15c2.75,0,4.98,2.23,4.98,4.98v81.54h2.48V10.94c0-4.12-3.34-7.46-7.46-7.46H30.56c-0.33,0-0.64,0.13-0.88,0.37L4.81,29.4
		c-0.02,0.04-0.04,0.07-0.1,0.15C4.65,29.63,4.6,29.7,4.57,29.8c0,0.03-0.01,0.07-0.04,0.17c-0.03,0.1-0.05,0.18-0.05,0.26v68.73
		c0,4.11,3.33,7.44,7.44,7.44h68.03c4.12,0,7.46-3.34,7.46-7.46v-8.68h-2.48V98.94z M29.33,7.76v21.23H8.65l10.34-10.62L29.33,7.76z
		"/>
</g>
</svg>
