<?xml version="1.0" encoding="utf-8"?>
<!-- Generator: Adobe Illustrator 23.0.0, SVG Export Plug-In . SVG Version: 6.00 Build 0)  -->
<svg version="1.1" id="Capa_1" xmlns="http://www.w3.org/2000/svg" xmlns:xlink="http://www.w3.org/1999/xlink" x="0px" y="0px"
	 viewBox="0 0 86.43 115.06" style="enable-background:new 0 0 86.43 115.06;" xml:space="preserve">
<style type="text/css">
	.st0{fill:#FFFFFF;}
</style>
<g id="_215-User_1_">
	<g>
		<path class="st0" d="M44.46,55.42c-14.68,0-26.62-11.94-26.62-26.62c0-14.68,11.94-26.62,26.62-26.62
			c14.68,0,26.62,11.94,26.62,26.62C71.08,43.48,59.14,55.42,44.46,55.42z M44.46,5.18c-13.02,0-23.62,10.59-23.62,23.62
			c0,13.02,10.59,23.62,23.62,23.62c13.02,0,23.62-10.59,23.62-23.62C68.08,15.78,57.49,5.18,44.46,5.18z"/>
	</g>
	<g>
		<path class="st0" d="M37.29,112.83H3.49V93.39c0-10.5,3.97-20.49,11.17-28.12c7.51-7.96,17.67-12.52,28.61-12.83
			c10.96-0.31,21.35,3.65,29.3,11.16l-2.06,2.18c-7.38-6.96-17.03-10.62-27.16-10.34c-10.14,0.29-19.56,4.52-26.52,11.89
			C10.17,74.4,6.49,83.66,6.49,93.39v16.44h30.79V112.83z"/>
	</g>
	<g>
		<path class="st0" d="M62.42,109.24H50.14V96.96l21.81-21.77l12.24,12.24L62.42,109.24z M53.14,106.24h8.03l18.78-18.81l-8-8
			L53.14,98.21V106.24z"/>
	</g>
</g>
</svg>
