<?xml version="1.0" encoding="utf-8"?>
<!-- Generator: Adobe Illustrator 23.0.0, SVG Export Plug-In . SVG Version: 6.00 Build 0)  -->
<svg version="1.1" id="Capa_1" xmlns="http://www.w3.org/2000/svg" xmlns:xlink="http://www.w3.org/1999/xlink" x="0px" y="0px"
	 viewBox="0 0 31.15 29.45" style="enable-background:new 0 0 31.15 29.45;" xml:space="preserve">
<style type="text/css">
	.st0{fill:#5F9EC7;}
</style>
<g>
	<path class="st0" d="M27.17,6.72l1.72,0L28.87,1.3l-5.42-0.01l0,1.72l2.5,0L22.6,6.36c-1.51-1.23-3.38-1.91-5.36-1.91
		c-1.35,0-2.65,0.31-3.81,0.9c-1.14-0.58-2.44-0.9-3.8-0.9c-4.67,0-8.47,3.8-8.47,8.47c0,4.38,3.35,8,7.62,8.43v2.72H6.4v1.72h2.38
		v2.37h1.72v-2.37h2.38v-1.72h-2.38v-2.72c1.05-0.11,2.04-0.4,2.94-0.86c1.17,0.59,2.47,0.9,3.81,0.9c2.26,0,4.39-0.88,5.99-2.48
		c1.6-1.6,2.48-3.73,2.48-5.99c0-1.98-0.67-3.85-1.91-5.36l3.35-3.35L27.17,6.72z M9.63,19.68c-3.73,0-6.76-3.03-6.76-6.76
		c0-3.73,3.03-6.76,6.76-6.76c0.73,0,1.43,0.12,2.09,0.33c-0.16,0.14-0.32,0.28-0.47,0.43c-3.3,3.3-3.3,8.68,0,11.98
		c0.15,0.15,0.31,0.3,0.47,0.43C11.06,19.57,10.36,19.68,9.63,19.68L9.63,19.68z M16.39,12.92c0,2.32-1.17,4.36-2.95,5.58
		c-0.34-0.24-0.67-0.5-0.97-0.8c-2.64-2.64-2.64-6.92,0-9.56c0.3-0.3,0.62-0.57,0.97-0.8C15.22,8.56,16.39,10.61,16.39,12.92
		L16.39,12.92z M22.03,17.7c-1.28,1.28-2.97,1.98-4.78,1.98c-0.72,0-1.43-0.11-2.1-0.33c1.81-1.56,2.96-3.86,2.96-6.43
		c0-2.57-1.15-4.87-2.96-6.43c0.67-0.22,1.38-0.33,2.1-0.33c1.81,0,3.5,0.7,4.78,1.98c1.28,1.28,1.98,2.97,1.98,4.78
		C24.01,14.73,23.3,16.43,22.03,17.7L22.03,17.7z M22.03,17.7"/>
</g>
</svg>
