<?xml version="1.0" encoding="utf-8"?>
<!-- Generator: Adobe Illustrator 23.0.0, SVG Export Plug-In . SVG Version: 6.00 Build 0)  -->
<svg version="1.1" id="Capa_1" xmlns="http://www.w3.org/2000/svg" xmlns:xlink="http://www.w3.org/1999/xlink" x="0px" y="0px"
	 viewBox="0 0 21 28" style="enable-background:new 0 0 21 28;" xml:space="preserve">
<style type="text/css">
	.st0{fill:#619FD7;}
</style>
<g>
	<g>
		<path class="st0" d="M10.5,13.73c2.79,0,5.05-2.75,5.05-6.14c0-3.39-0.74-6.14-5.05-6.14c-4.31,0-5.05,2.75-5.05,6.14
			C5.45,10.98,7.71,13.73,10.5,13.73L10.5,13.73z M10.5,13.73"/>
		<path class="st0" d="M0.96,23.09C0.96,22.89,0.96,23.04,0.96,23.09L0.96,23.09z M0.96,23.09"/>
	</g>
	<path class="st0" d="M20.03,22.85c-0.09-5.9-0.86-7.59-6.76-8.65c0,0-0.83,1.06-2.77,1.06c-1.94,0-2.77-1.06-2.77-1.06
		c-5.84,1.05-6.65,2.71-6.76,8.46c-0.01,0.47-0.01,0.49-0.01,0.44c0,0.1,0,0.29,0,0.62c0,0,1.4,2.83,9.54,2.83
		c8.14,0,9.54-2.83,9.54-2.83c0-0.21,0-0.36,0-0.46C20.04,23.29,20.04,23.22,20.03,22.85L20.03,22.85z M20.03,22.85"/>
</g>
</svg>
