<?xml version="1.0" encoding="utf-8"?>
<!-- Generator: Adobe Illustrator 23.0.0, SVG Export Plug-In . SVG Version: 6.00 Build 0)  -->
<svg version="1.1" id="Capa_1" xmlns="http://www.w3.org/2000/svg" xmlns:xlink="http://www.w3.org/1999/xlink" x="0px" y="0px"
	 viewBox="0 0 150.38 107.66" style="enable-background:new 0 0 150.38 107.66;" xml:space="preserve">
<style type="text/css">
	.st0{fill:#20A4E5;}
</style>
<g>
	<path class="st0" d="M119.93,21.64v55.33h3.34V17.74H28.02v59.23h3.34V21.64v-0.56h0.56H56.7h1.35l-0.95,0.95l-11.9,11.9
		c-0.32,0.32-0.49,0.74-0.49,1.18c0,0.45,0.17,0.87,0.49,1.18c0.32,0.32,0.74,0.49,1.18,0.49c0.45,0,0.87-0.17,1.18-0.49
		l15.05-15.05l0.16-0.16H63h14.46h1.35l-0.95,0.95L44.92,54.98c-0.32,0.32-0.49,0.74-0.49,1.18c0,0.45,0.17,0.87,0.49,1.18
		c0.32,0.32,0.74,0.49,1.18,0.49c0.45,0,0.87-0.17,1.18-0.49l36.09-36.09l0.16-0.16h0.23h35.61h0.56V21.64z"/>
	<path class="st0" d="M124.55,7.71c4.83,0,8.76,3.93,8.76,8.76v60.5h3.34v-60.5c0-6.68-5.43-12.11-12.11-12.11h-97.8
		c-6.68,0-12.11,5.43-12.11,12.11v60.5h3.34v-60.5c0-4.83,3.93-8.76,8.76-8.76H124.55z"/>
	<path class="st0" d="M143.17,85.63H93.3c-0.75,0-1.48,0.21-2.11,0.62l-3.36,2.16l-0.14,0.09h-0.16H63.76H63.6l-0.14-0.09
		l-3.36-2.16c-0.63-0.41-1.36-0.62-2.11-0.62H8.12c-2.2,0-4.57,1.74-4.57,5.55c0,2.95,1.24,6.19,3.32,8.66
		c1.97,2.35,5.65,5.15,11.92,5.15h113.7c6.29,0,9.96-2.8,11.93-5.14c2.07-2.47,3.31-5.7,3.31-8.66
		C147.73,87.37,145.37,85.63,143.17,85.63z M141.86,97.69c-1.51,1.8-4.37,3.95-9.37,3.95H18.8c-4.99,0-7.85-2.15-9.36-3.95
		c-1.87-2.22-2.54-4.82-2.54-6.51c0-2.05,0.93-2.21,1.22-2.21h49.87h0.16l0.14,0.09l4.32,2.78h26.06L93,89.06l0.14-0.09h0.16h49.87
		c0.29,0,1.22,0.16,1.22,2.21C144.39,92.88,143.72,95.47,141.86,97.69z"/>
</g>
</svg>
