<?xml version="1.0" encoding="utf-8"?>
<!-- Generator: Adobe Illustrator 23.0.0, SVG Export Plug-In . SVG Version: 6.00 Build 0)  -->
<svg version="1.1" id="Capa_1" xmlns="http://www.w3.org/2000/svg" xmlns:xlink="http://www.w3.org/1999/xlink" x="0px" y="0px"
	 viewBox="0 0 131.74 102.47" style="enable-background:new 0 0 131.74 102.47;" xml:space="preserve">
<style type="text/css">
	.st0{fill:#249FC7;}
</style>
<g>
	<g>
		<g>
			<path class="st0" d="M79.6,23.11H51.74c-3.35,0-6.08-2.73-6.08-6.08V13.6c0-3.35,2.73-6.08,6.08-6.08h0.57V6.37
				c0-2.7,2.19-4.89,4.89-4.89h16.95c2.7,0,4.89,2.19,4.89,4.89v1.15h0.57c3.35,0,6.08,2.73,6.08,6.08v3.44
				C85.68,20.38,82.96,23.11,79.6,23.11z M51.74,9.52c-2.25,0-4.08,1.83-4.08,4.08v3.44c0,2.25,1.83,4.08,4.08,4.08H79.6
				c2.25,0,4.08-1.83,4.08-4.08V13.6c0-2.25-1.83-4.08-4.08-4.08h-1.57c-0.55,0-1-0.45-1-1V6.37c0-1.59-1.3-2.89-2.89-2.89H57.2
				c-1.59,0-2.89,1.3-2.89,2.89v2.15c0,0.55-0.45,1-1,1H51.74z"/>
		</g>
		<g>
			<path class="st0" d="M113.15,99.55H18.17C9.8,99.55,3,92.74,3,84.38V29.94c0-8.37,6.81-15.17,15.17-15.17h23.8c0.55,0,1,0.45,1,1
				v1.26c0,4.84,3.94,8.78,8.78,8.78h27.84c4.84,0,8.78-3.94,8.78-8.78v-1.26c0-0.55,0.45-1,1-1h23.8c8.37,0,15.17,6.81,15.17,15.17
				v54.44C128.32,92.74,121.52,99.55,113.15,99.55z M18.17,16.77C10.91,16.77,5,22.68,5,29.94v54.44c0,7.26,5.91,13.17,13.17,13.17
				h94.98c7.26,0,13.17-5.91,13.17-13.17V29.94c0-7.26-5.91-13.17-13.17-13.17h-22.8v0.26c0,5.94-4.83,10.78-10.78,10.78H51.74
				c-5.94,0-10.78-4.83-10.78-10.78v-0.26H18.17z M39.49,82.7c-14.08,0-25.53-11.45-25.53-25.53s11.45-25.53,25.53-25.53
				c14.08,0,25.53,11.45,25.53,25.53S53.57,82.7,39.49,82.7z M39.49,33.64c-12.97,0-23.53,10.55-23.53,23.53S26.51,80.7,39.49,80.7
				s23.53-10.55,23.53-23.53S52.46,33.64,39.49,33.64z"/>
		</g>
		<g>
			<path class="st0" d="M37.39,73.96c0,0-0.01,0-0.02,0c-0.43-0.01-0.81-0.29-0.94-0.69l-2.94-9.27c-1.3,0.77-3.6,1.97-6.24,2.64
				c-1.22,0.31-1.94,1.33-2.13,3.06c-0.04,0.4-0.33,0.74-0.71,0.85c-0.39,0.11-0.81-0.02-1.06-0.33c-2.96-3.67-4.59-8.3-4.59-13.03
				c0-11.47,9.33-20.8,20.8-20.8c5.57,0,10.8,2.17,14.72,6.11c3.92,3.93,6.06,9.16,6.03,14.72c0,4.73-1.63,9.35-4.59,13.03
				c-0.25,0.31-0.67,0.45-1.06,0.33c-0.39-0.11-0.67-0.45-0.71-0.85c-0.19-1.72-0.91-2.75-2.13-3.06c-2.64-0.67-4.94-1.87-6.24-2.64
				l-2.51,8c-0.01,0.04-0.03,0.09-0.05,0.13l-0.36,1.1c-0.13,0.41-0.51,0.69-0.94,0.69c-0.44,0.01-0.81-0.26-0.95-0.67l-1.2-3.45
				l-1.23,3.47C38.19,73.69,37.82,73.96,37.39,73.96z M36.97,68.32l0.48,1.51l0.15-0.43C37.34,69.02,37.13,68.66,36.97,68.32z
				 M41.54,69.4l0.14,0.39l0.41-1.31C41.93,68.77,41.75,69.08,41.54,69.4z M39.55,65.85c-0.43,0-0.96,0.12-1.08,0.33
				c-0.12,0.22-0.03,0.99,1.04,2.48c0.02,0.02,0.03,0.05,0.05,0.07c0.01-0.02,0.03-0.05,0.05-0.07c1.07-1.49,1.16-2.26,1.04-2.48
				c-0.13-0.24-0.75-0.35-1.04-0.33C39.59,65.85,39.57,65.85,39.55,65.85z M45.12,61.48c0.17,0.02,0.33,0.08,0.47,0.18
				c0.03,0.02,3.06,2.13,6.72,3.06c1.4,0.35,2.44,1.25,3.05,2.59c1.91-3,2.95-6.52,2.95-10.11c0.02-5.03-1.91-9.75-5.45-13.31
				c-3.54-3.56-8.27-5.52-13.3-5.52c-10.37,0-18.8,8.44-18.8,18.8c0,3.59,1.04,7.11,2.95,10.11c0.61-1.34,1.66-2.24,3.06-2.59
				c3.65-0.92,6.69-3.03,6.72-3.06c0.11-0.08,0.23-0.13,0.36-0.16c-0.9-1.12-1.49-2.4-1.76-3.57c-0.74-0.55-1.15-1.74-1.44-2.8
				c-0.48-1.68-0.42-2.79,0.17-3.48c0.08-0.09,0.17-0.17,0.26-0.25c-0.01-0.06-0.02-0.11-0.04-0.17c-0.28-1.44-0.29-2.63-0.02-3.75
				c0.32-1.37,1.05-2.66,2.16-3.84c0.59-0.62,1.27-1.18,1.96-1.62c0.69-0.46,1.33-0.79,1.94-0.99c0.59-0.21,1.2-0.32,1.83-0.35
				c1.64-0.15,3.17,0.18,4.5,0.97c1.07,0.58,1.71,1.32,2.04,1.78c0.43,0.15,1.05,0.46,1.58,1.14c1.09,1.38,1.39,3.6,0.9,6.61
				c-0.01,0.07-0.02,0.14-0.04,0.21c0.15,0.1,0.25,0.21,0.33,0.31c0.56,0.69,0.61,1.78,0.14,3.43c-0.29,1.06-0.71,2.24-1.44,2.79
				C46.64,59.09,46.02,60.37,45.12,61.48z M35.24,62.87l1.22,3.84c-0.06-0.55,0.03-1.04,0.27-1.47c0.27-0.5,0.68-0.82,1.1-1.02
				c-0.14-0.04-0.28-0.08-0.42-0.13C36.6,63.79,35.87,63.37,35.24,62.87z M41.26,64.18c0.44,0.2,0.87,0.53,1.15,1.05
				c0.21,0.4,0.31,0.84,0.28,1.33l1.2-3.82c-0.67,0.56-1.44,1.02-2.29,1.33C41.49,64.11,41.37,64.15,41.26,64.18z M33.25,56.26
				c0.37,0.11,0.65,0.42,0.71,0.81c0.29,1.91,1.8,4.29,4.12,5.12c0.91,0.32,1.92,0.33,2.84,0c2.3-0.84,3.84-3.26,4.12-5.12
				c0.06-0.39,0.34-0.7,0.71-0.81c0.1-0.12,0.37-0.53,0.68-1.68c0,0,0,0,0,0c0.25-0.89,0.26-1.34,0.24-1.53
				c-0.29-0.02-0.59-0.16-0.77-0.39c-0.21-0.27-0.3-0.62-0.18-0.94c0.12-0.33,0.19-0.61,0.23-0.85c0.51-3.13-0.06-4.48-0.44-5
				c-0.37-0.5-0.78-0.57-0.79-0.57c-0.32-0.05-0.64-0.25-0.79-0.54l0,0c0,0-0.44-0.79-1.51-1.37c-1-0.59-2.12-0.83-3.38-0.72
				c-0.49,0.02-0.9,0.1-1.32,0.25c-0.46,0.15-0.94,0.4-1.5,0.77c-0.57,0.37-1.12,0.82-1.6,1.32c-0.88,0.93-1.42,1.89-1.67,2.92
				c-0.2,0.84-0.19,1.75,0.03,2.89c0.07,0.3,0.13,0.59,0.24,0.89c0.12,0.33,0.06,0.69-0.16,0.96c-0.18,0.23-0.45,0.37-0.74,0.38
				c-0.02,0.21,0,0.67,0.24,1.53C32.89,55.73,33.15,56.14,33.25,56.26z M33.04,56.23C33.04,56.23,33.05,56.23,33.04,56.23
				C33.05,56.23,33.04,56.23,33.04,56.23z"/>
		</g>
	</g>
	<rect x="77.46" y="46.61" class="st0" width="37.94" height="4.52"/>
	<rect x="77.46" y="55.19" class="st0" width="37.94" height="4.52"/>
	<rect x="77.46" y="63.77" class="st0" width="37.94" height="4.52"/>
</g>
</svg>
