<?xml version="1.0" encoding="utf-8"?>
<!-- Generator: Adobe Illustrator 23.0.0, SVG Export Plug-In . SVG Version: 6.00 Build 0)  -->
<svg version="1.1" id="Capa_1" xmlns="http://www.w3.org/2000/svg" xmlns:xlink="http://www.w3.org/1999/xlink" x="0px" y="0px"
	 viewBox="0 0 38 40" style="enable-background:new 0 0 38 40;" xml:space="preserve">
<style type="text/css">
	.st0{fill:#62A1D9;}
</style>
<path class="st0" d="M23.61,6.37l0.05,6.06c0.02,2.16,1.78,3.9,3.94,3.89l6.06-0.05c2.16-0.02,3.93,1.72,3.94,3.89l0,0.49
	c0.02,2.16-1.72,3.93-3.89,3.94l-6.06,0.05c-2.16,0.02-3.9,1.78-3.89,3.94l0.05,6.06c0.02,2.16-1.72,3.93-3.89,3.94l-0.49,0
	c-2.16,0.02-3.93-1.72-3.94-3.89l-0.05-6.06c-0.02-2.16-1.78-3.9-3.95-3.89L5.45,24.8c-2.16,0.02-3.93-1.72-3.94-3.89l0-0.49
	c-0.02-2.16,1.72-3.93,3.88-3.95l6.06-0.04c2.16-0.02,3.9-1.78,3.89-3.94l-0.05-6.06c-0.02-2.16,1.72-3.93,3.89-3.94l0.49,0
	C21.83,2.46,23.59,4.2,23.61,6.37"/>
</svg>
