<?xml version="1.0" encoding="utf-8"?>
<!-- Generator: Adobe Illustrator 23.0.0, SVG Export Plug-In . SVG Version: 6.00 Build 0)  -->
<svg version="1.1" id="Capa_1" xmlns="http://www.w3.org/2000/svg" xmlns:xlink="http://www.w3.org/1999/xlink" x="0px" y="0px"
	 viewBox="0 0 113.7 110.81" style="enable-background:new 0 0 113.7 110.81;" xml:space="preserve">
<style type="text/css">
	.st0{fill:#249FC7;}
</style>
<path class="st0" d="M50.57,52.15"/>
<g>
	<path class="st0" d="M83.16,98.61c0,2.76-2.24,5-4.98,5H10.16c-2.75,0-4.98-2.24-4.98-5V31.14h23.6c0.69,0,1.25-0.55,1.25-1.23
		V5.62h48.15c2.75,0,4.98,2.24,4.98,4.98V32.9h2.48V10.61c0-4.11-3.35-7.46-7.46-7.46H28.78c-0.33,0-0.64,0.13-0.88,0.37L3.04,29.07
		c-0.02,0.04-0.04,0.07-0.1,0.15c-0.06,0.08-0.11,0.15-0.14,0.24c0,0.03-0.01,0.07-0.04,0.17c-0.03,0.1-0.05,0.18-0.05,0.26v68.73
		c0,4.1,3.35,7.44,7.46,7.44h68.01c4.11,0,7.46-3.35,7.46-7.46V83.93h-2.48V98.61z M27.55,7.43v21.23H6.88l10.34-10.62L27.55,7.43z"
		/>
	<path class="st0" d="M55.9,37.48H14.15v2.86h39.34C54.23,39.34,55.04,38.39,55.9,37.48z"/>
	<path class="st0" d="M49.38,47.97H14.15v2.86h34.34C48.74,49.86,49.04,48.9,49.38,47.97z"/>
	<path class="st0" d="M14.15,61.32h33.52c-0.09-0.94-0.14-1.9-0.14-2.86H14.15V61.32z"/>
	<path class="st0" d="M14.15,68.95v2.86H50.6c-0.45-0.93-0.86-1.88-1.22-2.86H14.15z"/>
	<path class="st0" d="M14.15,79.44v2.86h44.86c-1.1-0.88-2.14-1.84-3.11-2.86H14.15z"/>
	<rect x="14.15" y="89.93" class="st0" width="61.03" height="2.86"/>
</g>
<path class="st0" d="M77.45,37.65c11.45,0,20.77,9.32,20.77,20.77c0,11.45-9.32,20.77-20.77,20.77c-11.45,0-20.77-9.32-20.77-20.77
	C56.68,46.97,66,37.65,77.45,37.65 M77.45,34.65c-13.13,0-23.77,10.64-23.77,23.77s10.64,23.77,23.77,23.77
	c13.13,0,23.77-10.64,23.77-23.77S90.58,34.65,77.45,34.65L77.45,34.65z"/>
<g>
	<path class="st0" d="M92.06,55.64c-0.58,0-1.14-0.34-1.38-0.92c-2.43-5.74-7.77-9.78-13.93-10.55c-0.82-0.1-1.41-0.85-1.3-1.67
		c0.1-0.82,0.85-1.4,1.67-1.3c7.23,0.9,13.48,5.64,16.33,12.36c0.32,0.76-0.03,1.64-0.8,1.97C92.46,55.6,92.26,55.64,92.06,55.64z"
		/>
</g>
<path class="st0" d="M90.51,80.35c3.64,8.94,13.19,30.55,18.96,26.68c5.77-3.88-10.62-20.88-17.53-27.64L90.51,80.35z"/>
</svg>
