<?xml version="1.0" encoding="utf-8"?>
<!-- Generator: Adobe Illustrator 23.0.0, SVG Export Plug-In . SVG Version: 6.00 Build 0)  -->
<svg version="1.1" id="Capa_1" xmlns="http://www.w3.org/2000/svg" xmlns:xlink="http://www.w3.org/1999/xlink" x="0px" y="0px"
	 viewBox="0 0 90.21 105.19" style="enable-background:new 0 0 90.21 105.19;" xml:space="preserve">
<style type="text/css">
	.st0{fill:#FFFFFF;}
</style>
<g>
	<g>
		<g>
			<path class="st0" d="M81.7,30.22L59.51,7.42c-0.21-0.22-0.49-0.33-0.78-0.33H14.65C10.99,7.08,8,10.07,8,13.74v78.52
				c0,3.67,2.99,6.65,6.65,6.65h60.69c3.67,0,6.65-2.98,6.65-6.64V30.95c0-0.07-0.02-0.14-0.05-0.23c-0.02-0.09-0.03-0.12-0.04-0.15
				c-0.03-0.08-0.07-0.15-0.13-0.22C81.74,30.28,81.72,30.25,81.7,30.22z M59.83,10.91l18.45,18.95H59.83V10.91z M79.79,92.26
				c0,2.46-1.99,4.46-4.44,4.46H14.65c-2.45,0-4.44-2-4.44-4.46V13.74c0-2.45,1.99-4.45,4.44-4.45h42.96v21.67
				c0,0.6,0.5,1.1,1.11,1.1h21.06V92.26z"/>
		</g>
	</g>
</g>
<g>
	<polygon class="st0" points="61.52,45.41 37.61,69.29 28.67,60.35 27.51,61.52 37.61,71.61 62.68,46.57 	"/>
</g>
</svg>
