<?xml version="1.0" encoding="utf-8"?>
<!-- Generator: Adobe Illustrator 23.0.0, SVG Export Plug-In . SVG Version: 6.00 Build 0)  -->
<svg version="1.1" id="Capa_1" xmlns="http://www.w3.org/2000/svg" xmlns:xlink="http://www.w3.org/1999/xlink" x="0px" y="0px"
	 viewBox="0 0 26.77 27.19" style="enable-background:new 0 0 26.77 27.19;" xml:space="preserve">
<style type="text/css">
	.st0{fill:#789FD5;}
</style>
<g>
	<path class="st0" d="M11.13,22.39c-2.25-0.4-3.77-1.26-5.05-2.74c-0.31-0.36-0.25-0.84,0.17-1.13L7.4,17.7
		c0.55-0.39,1.41-0.3,1.85,0.15c0.91,0.93,2.17,1.66,3.85,1.66c1.91,0,3.19-1.09,3.19-2.44c0-1.69-2.34-2.22-4.67-3.04
		c-2.34-0.82-4.67-1.88-4.67-4.66c0-2.33,1.6-4.13,4.36-4.88c0.67-0.18,1.02-0.72,0.73-1.2l-0.03-0.05C11.65,2.66,12.24,2,13.11,2
		h1.4c0.88,0,1.46,0.66,1.11,1.25l0,0c-0.31,0.51,0.1,1.07,0.83,1.22c1.18,0.24,2.17,0.65,3.07,1.29c0.43,0.31,0.51,0.81,0.16,1.17
		l-0.8,0.83c-0.41,0.42-1.21,0.5-1.76,0.17c-0.77-0.47-1.71-0.77-2.74-0.77c-1.45,0-2.8,0.8-2.8,1.91c0,1.47,2.37,1.98,4.71,2.82
		c2.37,0.84,4.71,2.03,4.71,4.9c0,2.44-1.73,4.57-4.76,5.41c-0.65,0.18-0.97,0.7-0.71,1.17l0.15,0.27c0.33,0.59-0.26,1.23-1.12,1.23
		H13.1c-0.87,0-1.46-0.66-1.11-1.25l0.01-0.01C12.3,23.09,11.88,22.52,11.13,22.39z"/>
</g>
</svg>
