<?xml version="1.0" encoding="utf-8"?>
<!-- Generator: Adobe Illustrator 23.0.0, SVG Export Plug-In . SVG Version: 6.00 Build 0)  -->
<svg version="1.1" id="Capa_1" xmlns="http://www.w3.org/2000/svg" xmlns:xlink="http://www.w3.org/1999/xlink" x="0px" y="0px"
	 viewBox="0 0 33.96 26.17" style="enable-background:new 0 0 33.96 26.17;" xml:space="preserve">
<style type="text/css">
	.st0{fill:#789FD5;}
</style>
<g>
	<g>
		<path class="st0" d="M29.28,7.16h-6.44V2.78c0-0.78-0.6-1.42-1.38-1.42h-8.77c-0.78,0-1.46,0.64-1.46,1.42v4.38H4.76
			C3.97,7.16,3.3,7.8,3.3,8.58v14.81c0,0.78,0.68,1.42,1.46,1.42h24.52c0.79,0,1.38-0.64,1.38-1.42V8.58
			C30.66,7.8,30.06,7.16,29.28,7.16L29.28,7.16z M13.13,3.25h7.82v3.91h-7.82V3.25z M21.9,17.94h-2.96v2.96h-3.91v-2.96h-2.96v-3.91
			h2.96v-2.96h3.91v2.96h2.96V17.94z M21.9,17.94"/>
	</g>
</g>
</svg>
