<?xml version="1.0" encoding="utf-8"?>
<!-- Generator: Adobe Illustrator 23.0.0, SVG Export Plug-In . SVG Version: 6.00 Build 0)  -->
<svg version="1.1" id="Capa_1" xmlns="http://www.w3.org/2000/svg" xmlns:xlink="http://www.w3.org/1999/xlink" x="0px" y="0px"
	 viewBox="0 0 206.73 89.36" style="enable-background:new 0 0 206.73 89.36;" xml:space="preserve">
<style type="text/css">
	.st0{fill:#2D4F8A;}
</style>
<g>
	<g id="XMLID_34_">
		<circle class="st0" cx="11.09" cy="57.78" r="1.13"/>
	</g>
	<g id="XMLID_38_">
		<path class="st0" d="M7.88,45.59c0,0.62-0.51,1.13-1.13,1.13s-1.13-0.51-1.13-1.13c0-0.62,0.51-1.13,1.13-1.13
			S7.88,44.97,7.88,45.59z"/>
	</g>
	<g id="XMLID_39_">
		<circle class="st0" cx="10.78" cy="34.14" r="1.13"/>
	</g>
	<g>
		<g id="XMLID_37_">
			<g id="XMLID_54_">
				<path class="st0" d="M154.62,64.27h-21.57c-0.68,0-1.22-0.55-1.22-1.22s0.55-1.22,1.22-1.22h21.45c0.82-0.17,6.48-1.6,6.74-8.25
					c0.25-6.59-3.53-7.25-4.14-7.32c0,0-13.83,0-13.84,0c-5.55-0.93-6.71-5.92-6.55-8.57c-0.03-6.9,5.79-9.99,8.88-10.66
					c0.09-0.02,0.17-0.03,0.26-0.03h19.42c0.68,0,1.22,0.55,1.22,1.22c0,0.68-0.55,1.22-1.22,1.22h-19.28
					c-0.94,0.24-6.89,2-6.84,8.26c0,0.03,0,0.06,0,0.09c-0.01,0.22-0.27,5.15,4.4,6.01c0,0,13.67,0,13.66,0
					c0.07,0,6.83,0.52,6.47,9.86c-0.28,7.23-5.92,10.09-8.86,10.59C154.75,64.26,154.69,64.27,154.62,64.27z"/>
			</g>
		</g>
		<g id="XMLID_20_">
			<g id="XMLID_31_">
				<path class="st0" d="M195.26,64.4h-19.9c-0.04,0-0.09,0-0.13-0.01c-2.62-0.28-7.62-2.11-7.73-7.01
					c-0.12-5.21,3.37-21.04,3.52-21.71c0.01-0.06,0.03-0.11,0.05-0.16c0.12-0.33,3.05-8.02,9.53-8.02h14.32
					c0.11,0,0.23,0.02,0.34,0.05c0.25,0.07,6.12,1.83,6.12,6.88c0,4.25-1.24,11.43-1.3,11.73c-0.1,0.58-0.61,1.01-1.2,1.01
					l-27.7,0.23c-0.7,3.94-1.28,7.88-1.23,9.92c0.09,3.79,4.86,4.54,5.48,4.62h19.83c0.68,0,1.22,0.55,1.22,1.22
					S195.94,64.4,195.26,64.4z M173.39,36.29c-0.14,0.63-0.96,4.39-1.76,8.66l26.2-0.22c0.34-2.13,1.1-7.18,1.1-10.31
					c0-2.86-3.44-4.21-4.21-4.48H180.6C176.07,29.95,173.67,35.59,173.39,36.29z"/>
			</g>
		</g>
		<g id="XMLID_11_">
			<g id="XMLID_14_">
				<path class="st0" d="M95.7,80.47c-0.07,0-0.15-0.01-0.22-0.02c-0.67-0.12-1.11-0.76-0.99-1.42c0,0,1.95-10.79,3.92-21.58
					c0.98-5.4,1.97-10.79,2.71-14.84c0.37-2.02,0.69-3.71,0.91-4.89c0.18-0.98,0.31-1.62,0.44-2.04l-0.02-0.01
					c1.38-3.78,5.69-7.83,8.87-8.34c0.11-0.02,0.22-0.02,0.33-0.01c0.81,0.03,8.58,0.01,13.7-0.01c0,0,0,0,0,0
					c1.19-0.03,7.54,2.38,6.8,7.4c-0.01,0.04-0.01,0.09-0.01,0.13l-3.42,20.86c-0.01,0.05-0.02,0.09-0.03,0.13
					c-0.07,0.26-1.87,6.42-7.84,8.21c-0.1,0.03-0.21,0.05-0.32,0.05l-12.59,0.36c-0.05,0-0.1,0-0.15,0
					c-0.2-0.02-4.18-0.44-7.37-4.47c-1.36,7.45-2.71,14.91-3.53,19.48C96.8,80.06,96.28,80.47,95.7,80.47z M101.08,56.49
					c2.49,4.75,6.34,5.45,6.91,5.53l12.33-0.35c4.28-1.38,5.84-5.88,6.02-6.43l3.39-20.7c0.35-2.31-3.18-4.77-4.64-4.76
					c-0.9,0-3.77,0.01-6.64,0.02c-1.73,0-3.47,0-4.76,0c-0.89,0-1.53,0-2-0.03c-2.07,0.35-5.77,3.65-6.91,6.72
					C104.56,37.44,102.89,46.52,101.08,56.49z"/>
			</g>
		</g>
		<g id="XMLID_12_">
			<path class="st0" d="M79.15,22.16c0,1.89-1.53,3.42-3.42,3.42c-1.89,0-3.42-1.53-3.42-3.42c0-1.89,1.53-3.42,3.42-3.42
				C77.62,18.74,79.15,20.27,79.15,22.16z"/>
		</g>
		<g id="XMLID_13_">
			<circle class="st0" cx="68" cy="10.55" r="3.42"/>
		</g>
		<g id="XMLID_15_">
			<path class="st0" d="M63.64,22.16c0,1.89-1.53,3.42-3.42,3.42c-1.89,0-3.42-1.53-3.42-3.42c0-1.89,1.53-3.42,3.42-3.42
				C62.11,18.74,63.64,20.27,63.64,22.16z"/>
		</g>
		<g id="XMLID_16_">
			<circle class="st0" cx="75.34" cy="68.69" r="3.42"/>
		</g>
		<g id="XMLID_17_">
			<circle class="st0" cx="67.98" cy="57.78" r="3.42"/>
		</g>
		<g id="XMLID_21_">
			<circle class="st0" cx="52.9" cy="57.78" r="2.83"/>
		</g>
		<g id="XMLID_22_">
			<path class="st0" d="M63.27,68.69c0,1.56-1.27,2.83-2.83,2.83c-1.56,0-2.83-1.27-2.83-2.83c0-1.56,1.27-2.83,2.83-2.83
				C62.01,65.87,63.27,67.13,63.27,68.69z"/>
		</g>
		<g id="XMLID_23_">
			<circle class="st0" cx="52.71" cy="80.65" r="2.83"/>
		</g>
		<g id="XMLID_24_">
			<circle class="st0" cx="45.39" cy="68.69" r="2.19"/>
		</g>
		<g id="XMLID_25_">
			<circle class="st0" cx="18.46" cy="45.79" r="2.19"/>
		</g>
		<g id="XMLID_26_">
			<circle class="st0" cx="22.39" cy="34.12" r="2.19"/>
		</g>
		<g id="XMLID_27_">
			<path class="st0" d="M32,22.16c0,1.21-0.98,2.19-2.19,2.19c-1.21,0-2.19-0.98-2.19-2.19c0-1.21,0.98-2.19,2.19-2.19
				C31.02,19.97,32,20.95,32,22.16z"/>
		</g>
		<g id="XMLID_28_">
			<path class="st0" d="M39.52,10.81c0,1.21-0.98,2.19-2.19,2.19c-1.21,0-2.19-0.98-2.19-2.19c0-1.21,0.98-2.19,2.19-2.19
				C38.54,8.62,39.52,9.6,39.52,10.81z"/>
		</g>
		<g id="XMLID_29_">
			<circle class="st0" cx="37.55" cy="80.65" r="2.19"/>
		</g>
		<g id="XMLID_30_">
			<circle class="st0" cx="30.02" cy="68.69" r="2.19"/>
		</g>
		<g id="XMLID_32_">
			<circle class="st0" cx="22.28" cy="57.78" r="2.19"/>
		</g>
		<g id="XMLID_33_">
			<circle class="st0" cx="18.14" cy="68.69" r="1.13"/>
		</g>
		<g id="XMLID_40_">
			<circle class="st0" cx="18.41" cy="22.27" r="1.13"/>
		</g>
		<g id="XMLID_10_">
			<circle class="st0" cx="37.44" cy="57.78" r="2.83"/>
		</g>
		<g id="XMLID_9_">
			<circle class="st0" cx="29.49" cy="45.82" r="2.83"/>
		</g>
		<g id="XMLID_8_">
			<path class="st0" d="M40.16,34.12c0,1.56-1.27,2.83-2.83,2.83c-1.56,0-2.83-1.27-2.83-2.83c0-1.56,1.27-2.83,2.83-2.83
				C38.89,31.3,40.16,32.56,40.16,34.12z"/>
		</g>
		<g id="XMLID_7_">
			<circle class="st0" cx="45.18" cy="22.16" r="2.83"/>
		</g>
		<g id="XMLID_6_">
			<circle class="st0" cx="52.6" cy="10.6" r="2.83"/>
		</g>
		<g id="XMLID_5_">
			<circle class="st0" cx="44.98" cy="45.82" r="3.42"/>
		</g>
		<g id="XMLID_4_">
			<circle class="st0" cx="52.6" cy="34.12" r="3.42"/>
		</g>
		<g id="XMLID_3_">
			<circle class="st0" cx="67.98" cy="80.65" r="3.42"/>
		</g>
		<g id="XMLID_70_">
			<rect x="46.71" y="44.61" class="st0" width="50.57" height="2.1"/>
		</g>
		<g id="XMLID_66_">
			<rect x="55.13" y="33.07" class="st0" width="15.9" height="2.1"/>
		</g>
		<g id="XMLID_69_">
			<polygon class="st0" points="77.86,46.59 69.11,33.07 71.55,33.07 80.31,46.59 			"/>
		</g>
		<g id="XMLID_68_">
			<rect x="70.65" y="56.73" class="st0" width="8.11" height="2.1"/>
		</g>
		<g id="XMLID_67_">
			<polygon class="st0" points="76.83,58.83 84.09,46.59 86.18,46.59 78.92,58.83 			"/>
		</g>
	</g>
</g>
</svg>
