<?xml version="1.0" encoding="utf-8"?>
<!-- Generator: Adobe Illustrator 23.0.0, SVG Export Plug-In . SVG Version: 6.00 Build 0)  -->
<svg version="1.1" id="Capa_1" xmlns="http://www.w3.org/2000/svg" xmlns:xlink="http://www.w3.org/1999/xlink" x="0px" y="0px"
	 viewBox="0 0 16.72 29.62" style="enable-background:new 0 0 16.72 29.62;" xml:space="preserve">
<style type="text/css">
	.st0{fill:#789FD5;}
</style>
<g>
	<path class="st0" d="M12.86,8.31h-9c-0.55,0-1,0.45-1,1v9c0,0.55,0.45,1,1,1h0c0.55,0,1,0.45,1,1v7c0,0.55,0.45,1,1,1h5
		c0.55,0,1-0.45,1-1v-7c0-0.55,0.45-1,1-1h0c0.55,0,1-0.45,1-1v-9C13.86,8.76,13.41,8.31,12.86,8.31z"/>
	<circle class="st0" cx="8.36" cy="4.31" r="3"/>
</g>
</svg>
