<?xml version="1.0" encoding="utf-8"?>
<!-- Generator: Adobe Illustrator 23.0.0, SVG Export Plug-In . SVG Version: 6.00 Build 0)  -->
<svg version="1.1" id="Capa_1" xmlns="http://www.w3.org/2000/svg" xmlns:xlink="http://www.w3.org/1999/xlink" x="0px" y="0px"
	 viewBox="0 0 122.04 122.72" style="enable-background:new 0 0 122.04 122.72;" xml:space="preserve">
<style type="text/css">
	.st0{fill:#5EA0CA;}
	.st1{clip-path:url(#SVGID_2_);}
</style>
<g>
	<g>
		<path class="st0" d="M14.32,17.83c0.39,0.39,0.89,0.58,1.4,0.58c0.51,0,1.01-0.19,1.4-0.58c0.77-0.77,0.77-2.03,0-2.8l-5.61-5.6
			c-0.78-0.78-2.03-0.78-2.8,0c-0.78,0.77-0.78,2.03,0,2.8L14.32,17.83z M14.32,17.83"/>
	</g>
	<g>
		<path class="st0" d="M35.34,18.41c0.51,0,1.01-0.19,1.4-0.58l5.6-5.61c0.77-0.78,0.77-2.03,0-2.8c-0.77-0.78-2.03-0.78-2.8,0
			l-5.6,5.61c-0.78,0.77-0.78,2.03,0,2.8C34.32,18.22,34.83,18.41,35.34,18.41L35.34,18.41z M35.34,18.41"/>
	</g>
	<g>
		<path class="st0" d="M25.53,14.35c1.09,0,1.98-0.89,1.98-1.98V4.44c0-1.09-0.89-1.98-1.98-1.98c-1.09,0-1.98,0.89-1.98,1.98v7.93
			C23.55,13.46,24.43,14.35,25.53,14.35L25.53,14.35z M25.53,14.35"/>
	</g>
	<g>
		<path class="st0" d="M13.64,26.24c0-1.09-0.89-1.98-1.98-1.98H3.73c-1.09,0-1.98,0.89-1.98,1.98c0,1.09,0.89,1.98,1.98,1.98h7.93
			C12.75,28.22,13.64,27.33,13.64,26.24L13.64,26.24z M13.64,26.24"/>
	</g>
	<g>
		<defs>
			<rect id="SVGID_1_" x="1.74" y="2.36" width="119" height="119.28"/>
		</defs>
		<clipPath id="SVGID_2_">
			<use xlink:href="#SVGID_1_"  style="overflow:visible;"/>
		</clipPath>
		<g class="st1">
			<path class="st0" d="M14.32,34.65l-5.61,5.61c-0.77,0.77-0.77,2.03,0,2.8c0.39,0.39,0.89,0.58,1.4,0.58
				c0.51,0,1.01-0.19,1.4-0.58l5.61-5.61c0.77-0.77,0.77-2.03,0-2.8C16.34,33.87,15.09,33.87,14.32,34.65L14.32,34.65z M14.32,34.65
				"/>
		</g>
		<g class="st1">
			<path class="st0" d="M120.52,94.86c-2.16-5.38-2.65-9.31-3.12-13.11c-0.64-5.12-1.29-10.42-5.99-18.57L98.52,40.87
				c-2.07-3.59-7.23-4.98-10.83-2.9c-1.2,0.7-2.21,1.74-2.9,2.98c-1.33-1.92-3.28-3.29-5.56-3.9c-2.56-0.69-5.23-0.33-7.52,0.99
				c-2.18,1.26-3.7,3.23-4.44,5.44c-3.1-2.56-7.59-3.08-11.28-0.95c-2.14,1.24-3.71,3.19-4.47,5.52L34.48,24.07
				c-5.02-6.84-9.95-5.45-12.45-4c-2.3,1.33-3.82,3.44-4.28,5.96c-0.42,2.31,0.08,4.85,1.43,7.19L46.6,77.78
				c0.57,0.93,1.79,1.22,2.72,0.65c0.93-0.58,1.23-1.79,0.65-2.73l-27.4-44.51c-0.85-1.48-1.19-3.06-0.93-4.45
				c0.25-1.37,1.07-2.49,2.36-3.23c0.89-0.52,3.6-2.09,7.26,2.89l21.21,29.84c0.61,0.86,1.79,1.09,2.69,0.52
				c0.89-0.57,1.17-1.74,0.64-2.66c-0.79-1.37-1-2.98-0.59-4.51c0.41-1.53,1.39-2.82,2.77-3.61c2.84-1.64,6.49-0.66,8.12,2.18
				l1.97,3.42c0,0,0.01,0.01,0.01,0.01c0.55,0.95,1.76,1.27,2.71,0.72c0.95-0.55,1.27-1.76,0.73-2.71
				c-1.64-2.84-0.66-6.48,2.18-8.12c1.37-0.8,2.98-1,4.51-0.59c1.54,0.41,2.82,1.39,3.61,2.77l2.97,5.14c0,0,0,0.01,0.01,0.01
				c0.55,0.95,1.76,1.27,2.71,0.73c0.95-0.55,1.27-1.76,0.73-2.71c-0.5-0.87-0.63-1.96-0.34-3.01c0.29-1.04,0.94-1.92,1.79-2.41
				c1.74-1,4.42-0.28,5.42,1.45l12.88,22.31c4.3,7.45,4.88,12.12,5.49,17.07c0.46,3.67,0.92,7.45,2.76,12.49l-38.34,22.14
				c-6.68-7.19-16.89-14.74-30.38-22.45c-1.46-0.83-2.91-1.64-4.33-2.42c-3.64-1.99-6.21-5.93-6.26-9.6
				c-0.02-1.66,0.5-3.97,3.11-5.47c0.95-0.55,1.27-1.76,0.73-2.71c-0.55-0.95-1.76-1.27-2.71-0.72c-3.33,1.92-5.14,5.1-5.09,8.95
				c0.06,5.11,3.41,10.35,8.33,13.03c1.4,0.76,2.82,1.55,4.25,2.37c13.86,7.93,24.11,15.61,30.46,22.83
				c0.39,0.44,0.93,0.67,1.49,0.67c0.34,0,0.68-0.09,0.99-0.27l41.19-23.78C120.52,96.82,120.88,95.78,120.52,94.86L120.52,94.86z
				 M120.52,94.86"/>
		</g>
	</g>
</g>
</svg>
