<?xml version="1.0" encoding="utf-8"?>
<!-- Generator: Adobe Illustrator 23.0.0, SVG Export Plug-In . SVG Version: 6.00 Build 0)  -->
<svg version="1.1" id="Capa_1" xmlns="http://www.w3.org/2000/svg" xmlns:xlink="http://www.w3.org/1999/xlink" x="0px" y="0px"
	 viewBox="0 0 31.15 29.45" style="enable-background:new 0 0 31.15 29.45;" xml:space="preserve">
<style type="text/css">
	.st0{fill:#5F9EC7;}
</style>
<g>
	<g>
		<path class="st0" d="M15.54,15.16c2.79,0,5.05-2.75,5.05-6.14c0-3.39-0.74-6.14-5.05-6.14c-4.31,0-5.05,2.75-5.05,6.14
			C10.49,12.41,12.75,15.16,15.54,15.16L15.54,15.16z M15.54,15.16"/>
		<path class="st0" d="M5.99,24.52C5.99,24.32,5.99,24.47,5.99,24.52L5.99,24.52z M5.99,24.52"/>
	</g>
	<path class="st0" d="M25.07,24.28c-0.09-5.9-0.86-7.59-6.76-8.65c0,0-0.83,1.06-2.77,1.06c-1.94,0-2.77-1.06-2.77-1.06
		c-5.84,1.05-6.65,2.71-6.76,8.46C6,24.55,6,24.58,5.99,24.52c0,0.1,0,0.29,0,0.62c0,0,1.4,2.83,9.54,2.83
		c8.14,0,9.54-2.83,9.54-2.83c0-0.21,0-0.36,0-0.46C25.08,24.72,25.07,24.65,25.07,24.28L25.07,24.28z M25.07,24.28"/>
</g>
</svg>
