<?xml version="1.0" encoding="utf-8"?>
<!-- Generator: Adobe Illustrator 23.0.0, SVG Export Plug-In . SVG Version: 6.00 Build 0)  -->
<svg version="1.1" id="Capa_1" xmlns="http://www.w3.org/2000/svg" xmlns:xlink="http://www.w3.org/1999/xlink" x="0px" y="0px"
	 viewBox="0 0 34.04 32.77" style="enable-background:new 0 0 34.04 32.77;" xml:space="preserve">
<style type="text/css">
	.st0{fill:#62A1D9;}
</style>
<g>
	<path class="st0" d="M27.08,1.5H8.33c-0.51,0-0.92,0.41-0.92,0.92v26.99c0,0.51,0.41,0.92,0.92,0.92h18.75
		c0.51,0,0.92-0.41,0.92-0.92V2.42C28,1.91,27.59,1.5,27.08,1.5z M12.23,25.24c-0.67,0-1.22-0.55-1.22-1.22
		c0-0.68,0.55-1.22,1.22-1.22c0.67,0,1.22,0.55,1.22,1.22C13.45,24.69,12.91,25.24,12.23,25.24z M12.23,20.19
		c-0.68,0-1.22-0.55-1.22-1.22c0-0.68,0.55-1.22,1.22-1.22c0.68,0,1.22,0.55,1.22,1.22C13.45,19.64,12.91,20.19,12.23,20.19z
		 M12.23,15.3c-0.68,0-1.22-0.55-1.22-1.22c0-0.68,0.55-1.22,1.22-1.22c0.68,0,1.22,0.55,1.22,1.22
		C13.45,14.75,12.91,15.3,12.23,15.3z M18.83,28.77h-2.61c-0.25,0-0.46-0.21-0.46-0.46c0-0.25,0.21-0.46,0.46-0.46h2.61
		c0.25,0,0.46,0.21,0.46,0.46C19.29,28.56,19.09,28.77,18.83,28.77z M16.66,18.1c0.23-0.23,0.54-0.36,0.86-0.36
		c0.68,0,1.22,0.55,1.22,1.22c0,0.68-0.55,1.22-1.22,1.22c-0.68,0-1.22-0.55-1.22-1.22C16.3,18.64,16.43,18.33,16.66,18.1z
		 M16.3,14.08c0-0.32,0.13-0.64,0.36-0.86c0.23-0.23,0.54-0.36,0.86-0.36c0.68,0,1.22,0.55,1.22,1.22c0,0.68-0.55,1.22-1.22,1.22
		C16.85,15.3,16.3,14.75,16.3,14.08z M16.66,23.15c0.23-0.23,0.54-0.36,0.86-0.36c0.67,0,1.22,0.55,1.22,1.22
		c0,0.67-0.55,1.22-1.22,1.22c-0.67,0-1.22-0.55-1.22-1.22C16.3,23.69,16.43,23.38,16.66,23.15z M22.82,25.24
		c-0.67,0-1.22-0.55-1.22-1.22c0-0.68,0.55-1.22,1.22-1.22c0.68,0,1.22,0.55,1.22,1.22C24.05,24.69,23.5,25.24,22.82,25.24z
		 M22.82,20.19c-0.68,0-1.22-0.55-1.22-1.22c0-0.68,0.55-1.22,1.22-1.22c0.68,0,1.22,0.55,1.22,1.22
		C24.05,19.64,23.5,20.19,22.82,20.19z M22.82,15.3c-0.68,0-1.22-0.55-1.22-1.22c0-0.68,0.55-1.22,1.22-1.22
		c0.68,0,1.22,0.55,1.22,1.22C24.05,14.75,23.5,15.3,22.82,15.3z M24.48,9.32H10.57V5.73h13.91V9.32z"/>
</g>
</svg>
