<?xml version="1.0" encoding="utf-8"?>
<!-- Generator: Adobe Illustrator 23.0.0, SVG Export Plug-In . SVG Version: 6.00 Build 0)  -->
<svg version="1.1" id="Capa_1" xmlns="http://www.w3.org/2000/svg" xmlns:xlink="http://www.w3.org/1999/xlink" x="0px" y="0px"
	 viewBox="0 0 44 34.13" style="enable-background:new 0 0 44 34.13;" xml:space="preserve">
<style type="text/css">
	.st0{fill:#2D4F8A;}
</style>
<g>
	<g>
		<path class="st0" d="M17.41,7.71h9.22c0.93,0,1.68-0.75,1.68-1.68V4.89c0-0.93-0.75-1.68-1.68-1.68h-0.52V2.5
			c0-0.71-0.58-1.29-1.29-1.29h-5.61c-0.71,0-1.29,0.58-1.29,1.29v0.71h-0.52c-0.93,0-1.68,0.75-1.68,1.68v1.14
			C15.73,6.96,16.49,7.71,17.41,7.71L17.41,7.71z M17.41,7.71"/>
	</g>
	<g>
		<path class="st0" d="M37.74,5.61h-7.87v0.42c0,1.78-1.45,3.24-3.24,3.24h-9.21c-1.78,0-3.24-1.45-3.24-3.24V5.61H6.3
			c-2.59,0-4.69,2.1-4.69,4.69v18.01C1.61,30.9,3.71,33,6.3,33h31.43c2.59,0,4.69-2.1,4.69-4.69V10.3
			C42.43,7.72,40.33,5.61,37.74,5.61L37.74,5.61z M13.36,27.43c-4.48,0-8.12-3.64-8.12-8.12s3.64-8.12,8.12-8.12
			c4.48,0,8.12,3.64,8.12,8.12S17.85,27.43,13.36,27.43L13.36,27.43z M37.84,23.87h-13.7v-1.75h13.69L37.84,23.87L37.84,23.87z
			 M37.84,20.18h-13.7v-1.75h13.69L37.84,20.18L37.84,20.18z M37.84,16.49h-13.7v-1.75h13.69L37.84,16.49L37.84,16.49z M37.84,16.49
			"/>
	</g>
	<g>
		<path class="st0" d="M13.38,12.76c-3.62,0-6.55,2.93-6.55,6.55c0,1.55,0.54,2.98,1.45,4.1c0.06-0.53,0.28-1.13,0.95-1.3
			c1.29-0.33,2.33-1.06,2.33-1.06l0.97,3.06l0.13,0.42l0.43-1.23c-1.09-1.51,0.28-1.45,0.28-1.45s1.37-0.06,0.28,1.45l0.43,1.22
			l0.13-0.41v0.01l0.15-0.48l0.81-2.57c0,0,1.04,0.74,2.33,1.06c0.67,0.17,0.89,0.77,0.95,1.3c0.9-1.12,1.45-2.55,1.45-4.1
			C19.94,15.69,17,12.76,13.38,12.76L13.38,12.76z M15.98,18.54c-0.17,0.6-0.33,0.78-0.45,0.79c-0.11,0.72-0.69,1.63-1.58,1.96
			c-0.38,0.13-0.79,0.13-1.16,0c-0.91-0.33-1.47-1.24-1.58-1.96c-0.12-0.01-0.28-0.18-0.45-0.79c-0.23-0.83,0.02-0.95,0.23-0.93
			c-0.04-0.12-0.07-0.23-0.09-0.34c-0.08-0.38-0.09-0.74-0.01-1.1c0.11-0.46,0.36-0.83,0.64-1.12c0.18-0.18,0.38-0.35,0.59-0.48
			c0.18-0.12,0.37-0.23,0.57-0.29c0.17-0.06,0.33-0.09,0.52-0.1c0.57-0.05,0.99,0.09,1.3,0.28c0.46,0.25,0.64,0.59,0.64,0.59
			s1.05,0.08,0.7,2.22c-0.02,0.11-0.05,0.23-0.09,0.34C15.96,17.6,16.21,17.71,15.98,18.54L15.98,18.54z M15.98,18.54"/>
	</g>
</g>
</svg>
