<?xml version="1.0" encoding="utf-8"?>
<!-- Generator: Adobe Illustrator 23.0.0, SVG Export Plug-In . SVG Version: 6.00 Build 0)  -->
<svg version="1.1" id="Capa_1" xmlns="http://www.w3.org/2000/svg" xmlns:xlink="http://www.w3.org/1999/xlink" x="0px" y="0px"
	 viewBox="0 0 117.45 109.53" style="enable-background:new 0 0 117.45 109.53;" xml:space="preserve">
<style type="text/css">
	.st0{fill:none;}
	.st1{fill:#20A4E5;}
	.st2{fill:none;stroke:#20A4E5;stroke-width:3;stroke-linecap:round;stroke-miterlimit:10;}
</style>
<g>
	<path class="st0" d="M54.21,51.47"/>
	<g>
		<g>
			<path class="st1" d="M86.8,97.93c0,2.76-2.24,5-4.98,5H13.81c-2.75,0-4.98-2.24-4.98-5V30.46h23.6c0.69,0,1.25-0.55,1.25-1.23
				V4.95h48.15c2.75,0,4.98,2.24,4.98,4.98v22.29h2.48V9.93c0-4.11-3.35-7.46-7.46-7.46H32.43c-0.33,0-0.64,0.13-0.88,0.37
				L6.68,28.4c-0.02,0.04-0.04,0.07-0.1,0.15c-0.06,0.08-0.11,0.15-0.14,0.24c0,0.03-0.01,0.07-0.04,0.17
				c-0.03,0.1-0.05,0.18-0.05,0.26v68.73c0,4.1,3.35,7.44,7.46,7.44h68.01c4.11,0,7.46-3.35,7.46-7.46V83.26H86.8V97.93z M31.2,6.76
				v21.23H10.52l10.34-10.62L31.2,6.76z"/>
		</g>
		<g>
			<path class="st1" d="M59.54,36.8H17.79v2.86h39.34C57.88,38.66,58.68,37.71,59.54,36.8z"/>
		</g>
		<g>
			<path class="st1" d="M53.02,47.29H17.79v2.86h34.34C52.38,49.18,52.68,48.23,53.02,47.29z"/>
		</g>
		<g>
			<path class="st1" d="M17.79,60.65h33.52c-0.09-0.94-0.14-1.9-0.14-2.86H17.79V60.65z"/>
		</g>
		<g>
			<path class="st1" d="M17.79,68.28v2.86h36.45c-0.45-0.93-0.86-1.88-1.22-2.86H17.79z"/>
		</g>
		<g>
			<path class="st1" d="M17.79,78.77v2.86h44.86c-1.1-0.88-2.14-1.84-3.11-2.86H17.79z"/>
		</g>
		<g>
			<rect x="17.79" y="89.26" class="st1" width="61.03" height="2.86"/>
		</g>
	</g>
	<g>
		<path class="st1" d="M81.09,36.97c11.45,0,20.77,9.32,20.77,20.77c0,11.45-9.32,20.77-20.77,20.77
			c-11.45,0-20.77-9.32-20.77-20.77C60.32,46.29,69.64,36.97,81.09,36.97 M81.09,33.97c-13.13,0-23.77,10.64-23.77,23.77
			c0,13.13,10.64,23.77,23.77,23.77c13.13,0,23.77-10.64,23.77-23.77C104.86,44.61,94.22,33.97,81.09,33.97L81.09,33.97z"/>
	</g>
	<path class="st2" d="M80.57,42.01c6.83,0.85,12.54,5.33,15.13,11.46"/>
	<path class="st1" d="M94.16,79.67c3.64,8.94,13.19,30.55,18.96,26.68s-10.62-20.88-17.53-27.64L94.16,79.67z"/>
</g>
</svg>
