<?xml version="1.0" encoding="utf-8"?>
<!-- Generator: Adobe Illustrator 23.0.0, SVG Export Plug-In . SVG Version: 6.00 Build 0)  -->
<svg version="1.1" id="Capa_1" xmlns="http://www.w3.org/2000/svg" xmlns:xlink="http://www.w3.org/1999/xlink" x="0px" y="0px"
	 viewBox="0 0 31.15 25.02" style="enable-background:new 0 0 31.15 25.02;" xml:space="preserve">
<style type="text/css">
	.st0{fill:#60A2C9;}
</style>
<g>
	<g>
		<path class="st0" d="M26.4,11.46c0.39-0.43,0.36-1.1-0.08-1.48L16.63,1.5c-0.44-0.38-1.15-0.38-1.58,0.02l-9.73,8.92
			c-0.43,0.39-0.45,1.06-0.05,1.48l0.24,0.25c0.41,0.42,1.06,0.47,1.46,0.11l0.73-0.65v9.53c0,0.58,0.47,1.06,1.06,1.06h3.79
			c0.59,0,1.06-0.47,1.06-1.06v-6.67h4.84v6.67c-0.01,0.58,0.41,1.06,1,1.06h4.02c0.59,0,1.06-0.47,1.06-1.06v-9.4
			c0,0,0.2,0.18,0.45,0.39c0.25,0.22,0.77,0.04,1.16-0.39L26.4,11.46z M26.4,11.46"/>
	</g>
</g>
</svg>
