<?xml version="1.0" encoding="utf-8"?>
<!-- Generator: Adobe Illustrator 23.0.0, SVG Export Plug-In . SVG Version: 6.00 Build 0)  -->
<svg version="1.1" id="Capa_1" xmlns="http://www.w3.org/2000/svg" xmlns:xlink="http://www.w3.org/1999/xlink" x="0px" y="0px"
	 viewBox="0 0 90.21 105.19" style="enable-background:new 0 0 90.21 105.19;" xml:space="preserve">
<style type="text/css">
	.st0{fill:#20A4E5;}
</style>
<g>
	<g>
		<path class="st0" d="M5.11,24.7v62.64c0,7.1,5.78,12.87,12.89,12.87h54.22c7.11,0,12.9-5.78,12.9-12.87V24.7
			c0-7.1-5.79-12.87-12.9-12.87h-1.63V6.02c0-0.57-0.46-1.04-1.03-1.04c-0.57,0-1.04,0.47-1.04,1.04v5.81h-6.07V6.02
			c0-0.57-0.47-1.04-1.04-1.04c-0.57,0-1.04,0.47-1.04,1.04v5.81h-6.07V6.02c0-0.57-0.47-1.04-1.04-1.04
			c-0.57,0-1.04,0.47-1.04,1.04v5.81h-6.07V6.02c0-0.57-0.47-1.04-1.04-1.04c-0.57,0-1.03,0.47-1.03,1.04v5.81H38V6.02
			c0-0.57-0.47-1.04-1.04-1.04c-0.57,0-1.04,0.47-1.04,1.04v5.81h-6.07V6.02c0-0.57-0.46-1.04-1.03-1.04
			c-0.57,0-1.04,0.47-1.04,1.04v5.81H21.7V6.02c0-0.57-0.47-1.04-1.04-1.04c-0.57,0-1.04,0.47-1.04,1.04v5.81h-1.63
			C10.89,11.83,5.11,17.6,5.11,24.7z M20.66,19.68c0.57,0,1.04-0.46,1.04-1.04V13.9h6.07v4.74c0,0.57,0.47,1.04,1.04,1.04
			c0.57,0,1.03-0.46,1.03-1.04V13.9h6.07v4.74c0,0.57,0.47,1.04,1.04,1.04c0.57,0,1.04-0.46,1.04-1.04V13.9h6.07v4.74
			c0,0.57,0.46,1.04,1.03,1.04c0.57,0,1.04-0.46,1.04-1.04V13.9h6.07v4.74c0,0.57,0.47,1.04,1.04,1.04c0.57,0,1.04-0.46,1.04-1.04
			V13.9h6.07v4.74c0,0.57,0.47,1.04,1.04,1.04c0.57,0,1.04-0.46,1.04-1.04V13.9h6.07v4.74c0,0.57,0.47,1.04,1.04,1.04
			c0.57,0,1.03-0.46,1.03-1.04V13.9h1.63c5.96,0,10.82,4.85,10.82,10.8v62.64c0,5.95-4.85,10.79-10.82,10.79H17.99
			c-5.96,0-10.81-4.84-10.81-10.79V24.7c0-5.96,4.85-10.8,10.81-10.8h1.63v4.74C19.62,19.21,20.09,19.68,20.66,19.68z"/>
	</g>
	<g>
		<polygon class="st0" points="61.63,46 37.72,69.88 28.78,60.95 27.61,62.11 37.72,72.2 62.79,47.16 		"/>
	</g>
</g>
</svg>
