<?xml version="1.0" encoding="utf-8"?>
<!-- Generator: Adobe Illustrator 23.0.0, SVG Export Plug-In . SVG Version: 6.00 Build 0)  -->
<svg version="1.1" id="Capa_1" xmlns="http://www.w3.org/2000/svg" xmlns:xlink="http://www.w3.org/1999/xlink" x="0px" y="0px"
	 viewBox="0 0 202.98 47.74" style="enable-background:new 0 0 202.98 47.74;" xml:space="preserve">
<style type="text/css">
	.st0{fill:#EAEBED;}
	.st1{fill:#6C8A4A;}
	.st2{fill:#5F7B41;}
	.st3{fill:#F8F8F8;}
	.st4{fill-rule:evenodd;clip-rule:evenodd;fill:#6081C3;}
	.st5{fill-rule:evenodd;clip-rule:evenodd;fill:#FFFFFF;}
	.st6{fill:#E5E5DC;}
	.st7{fill:#D4D3C6;}
	.st8{fill:#98A0A0;}
	.st9{fill:#FFFFFF;}
	.st10{fill:#BEB9B4;}
	.st11{fill:#E7E7DE;}
	.st12{fill:#D6D5C8;}
	.st13{fill:#B14C4D;}
</style>
<g>
	<g>
		<g>
			<g>
				<path class="st0" d="M101.09,38.29h-16.8c-0.66,0-1.2-0.54-1.2-1.2c0-0.66,0-23.34,0-24c0-0.66,0.54-1.2,1.2-1.2h16.8
					c0.66,0,1.2,0.54,1.2,1.2v24C102.29,37.75,101.75,38.29,101.09,38.29z"/>
				<g>
					<path class="st1" d="M89.09,19.09h-4.8c-0.66,0-1.2-0.54-1.2-1.2s0.54-1.2,1.2-1.2h4.8c0.66,0,1.2,0.54,1.2,1.2
						S89.75,19.09,89.09,19.09z"/>
					<path class="st1" d="M89.09,23.89h-4.8c-0.66,0-1.2-0.54-1.2-1.2s0.54-1.2,1.2-1.2h4.8c0.66,0,1.2,0.54,1.2,1.2
						S89.75,23.89,89.09,23.89z"/>
					<path class="st1" d="M89.09,28.69h-4.8c-0.66,0-1.2-0.54-1.2-1.2c0-0.66,0.54-1.2,1.2-1.2h4.8c0.66,0,1.2,0.54,1.2,1.2
						C90.29,28.15,89.75,28.69,89.09,28.69z"/>
					<path class="st1" d="M89.09,33.49h-4.8c-0.66,0-1.2-0.54-1.2-1.2c0-0.66,0.54-1.2,1.2-1.2h4.8c0.66,0,1.2,0.54,1.2,1.2
						C90.29,32.95,89.75,33.49,89.09,33.49z"/>
					<path class="st1" d="M96.29,19.09h-2.4c-0.66,0-1.2-0.54-1.2-1.2s0.54-1.2,1.2-1.2h2.4c0.66,0,1.2,0.54,1.2,1.2
						S96.95,19.09,96.29,19.09z"/>
					<path class="st1" d="M96.29,23.89h-2.4c-0.66,0-1.2-0.54-1.2-1.2s0.54-1.2,1.2-1.2h2.4c0.66,0,1.2,0.54,1.2,1.2
						S96.95,23.89,96.29,23.89z"/>
					<path class="st1" d="M96.29,28.69h-2.4c-0.66,0-1.2-0.54-1.2-1.2c0-0.66,0.54-1.2,1.2-1.2h2.4c0.66,0,1.2,0.54,1.2,1.2
						C97.49,28.15,96.95,28.69,96.29,28.69z"/>
					<path class="st1" d="M96.29,33.49h-2.4c-0.66,0-1.2-0.54-1.2-1.2c0-0.66,0.54-1.2,1.2-1.2h2.4c0.66,0,1.2,0.54,1.2,1.2
						C97.49,32.95,96.95,33.49,96.29,33.49z"/>
				</g>
				<path class="st2" d="M85.06,7.36c-0.27-0.23-0.64-0.33-0.99-0.25l-19.2,3.6c-0.57,0.11-0.98,0.6-0.98,1.18v26.4
					c0,0.58,0.41,1.07,0.98,1.18l19.2,3.6c0.07,0.01,0.15,0.02,0.22,0.02c0.28,0,0.55-0.1,0.77-0.28c0.28-0.23,0.43-0.57,0.43-0.92
					V8.29C85.49,7.93,85.33,7.59,85.06,7.36z"/>
				<path class="st3" d="M80.4,29.1l-3.79-4.34l3.84-4.93c0.41-0.52,0.31-1.28-0.21-1.68s-1.27-0.31-1.68,0.21l-3.55,4.57l-3-3.42
					c-0.44-0.5-1.2-0.55-1.69-0.11c-0.5,0.44-0.55,1.2-0.11,1.69l3.3,3.77l-3.35,4.3c-0.41,0.52-0.31,1.28,0.21,1.68
					c0.22,0.17,0.48,0.25,0.74,0.25c0.36,0,0.71-0.16,0.95-0.46l3.06-3.94l3.49,3.99c0.24,0.27,0.57,0.41,0.9,0.41
					c0.28,0,0.56-0.1,0.79-0.3C80.78,30.35,80.83,29.59,80.4,29.1z"/>
			</g>
			<g id="layer1_2_" transform="translate(0,-992.36218)">
				<g id="g3343_2_" transform="matrix(0.96778326,0,0,0.96778326,4.2163353,39.614979)">
					<g id="g3128_2_" transform="matrix(0.15227353,0,0,0.15227353,-50.593719,968.83104)">
						<path id="path3130_2_" class="st4" d="M462.35,150.74c-67.49,0-122.2,54.67-122.2,122.13c0,8.59,0.9,16.97,2.59,25.07
							c10.74-2.92,22.03-4.48,33.7-4.48c18.69,0,36.44,4,52.46,11.19c20.96-14.95,46.65-23.74,74.37-23.74
							c17.36,0,33.91,3.45,49,9.7c0.08,0.03,0.15,0.06,0.23,0.09c0.62,0.31,1.06,0.95,1.06,1.7c0,1.04-0.85,1.9-1.91,1.9
							c-0.04,0-1.86-0.14-2.73-0.2c-3-0.22-6.06-0.33-9.11-0.33c-42.85,0-81.35,15.73-104.69,47.65c-0.37,0.51-1.1,1.54-1.11,1.54
							c-0.34,0.43-0.87,0.71-1.46,0.71c-0.48,0-0.91-0.18-1.24-0.48c-0.06-0.04-0.11-0.09-0.16-0.14
							c-22.15-20.83-51.33-29.07-84.09-29.65c16.72,47.53,62.01,81.63,115.28,81.63c67.49,0,122.21-54.69,122.21-122.14
							C584.55,205.42,529.83,150.74,462.35,150.74L462.35,150.74z M558.02,223.83c-0.43-0.04-1.16-0.16-1.63-0.23
							c-1.36-0.21-2.74-0.39-4.12-0.52c-24.92-2.35-48.11,4.57-63.25,22.1c-0.63,0.65-1.19,0.68-1.81,0.03
							c-12.03-13.64-29.16-19.7-48.83-21.56c-7.01-0.67-13.89-0.32-20.48,0.91c-0.03,0-0.06,0-0.09,0.01
							c-0.06,0-0.13,0.02-0.21,0.02c-0.7,0-1.27-0.57-1.27-1.27c0-0.41,0.2-0.77,0.49-0.99c0.12-0.07,0.24-0.14,0.36-0.2
							c12.27-6.42,26.45-9.49,41.25-8.09c10.73,1.02,20.72,4.27,29.52,9.27c12.86-7.45,28.09-11.1,44.01-9.6
							c9.01,0.85,17.5,3.3,25.2,7.01c0.47,0.24,0.96,0.47,1.43,0.73c0.47,0.23,0.68,0.64,0.68,1.13
							C559.3,223.27,558.85,223.93,558.02,223.83z"/>
						<path id="path3132_2_" class="st5" d="M558.6,221.44c-0.47-0.26-0.96-0.49-1.43-0.73c-7.71-3.71-16.19-6.15-25.2-7.01
							c-15.92-1.5-31.15,2.15-44.01,9.6c-8.8-5-18.79-8.25-29.52-9.27c-14.8-1.4-28.98,1.67-41.25,8.09
							c-0.12,0.06-0.24,0.13-0.36,0.2c-0.29,0.23-0.49,0.59-0.49,0.99c0,0.7,0.56,1.27,1.27,1.27c0.07,0,0.14-0.02,0.21-0.02
							c0.03-0.01,0.06-0.01,0.09-0.01c6.59-1.22,13.47-1.57,20.48-0.91c19.67,1.86,36.8,7.92,48.83,21.56
							c0.62,0.65,1.18,0.61,1.81-0.03c15.13-17.53,38.32-24.45,63.25-22.1c1.38,0.13,2.76,0.31,4.12,0.52
							c0.47,0.06,1.21,0.18,1.63,0.23c0.83,0.1,1.28-0.56,1.28-1.26C559.28,222.08,559.07,221.68,558.6,221.44z"/>
						<path id="path3134_2_" class="st5" d="M431.31,343.19c0.33,0.3,0.76,0.48,1.24,0.48c0.59,0,1.12-0.28,1.46-0.71
							c0.01,0,0.74-1.03,1.11-1.54c23.35-31.92,61.85-47.65,104.69-47.65c3.05,0,6.11,0.11,9.11,0.33c0.87,0.06,2.69,0.2,2.73,0.2
							c1.05,0,1.91-0.85,1.91-1.9c0-0.76-0.44-1.4-1.06-1.7c-0.08-0.03-0.15-0.06-0.23-0.09c-15.09-6.25-31.64-9.7-49-9.7
							c-27.72,0-53.4,8.79-74.38,23.74c-16.02-7.19-33.77-11.19-52.46-11.19c-11.66,0-22.96,1.56-33.7,4.48
							c1.1,5.29,2.57,10.44,4.33,15.45c32.76,0.57,61.93,8.82,84.09,29.65C431.19,343.09,431.25,343.15,431.31,343.19z"/>
					</g>
				</g>
			</g>
		</g>
		<g>
			<path class="st6" d="M142.48,7.89h-18.24c-0.51,0-0.92,0.41-0.92,1.21v33.36c0,0.22,0.41,0.63,0.92,0.63h25.19
				c0.51,0,0.92-0.41,0.92-0.63V16.04c0-0.44-0.06-0.58-0.16-0.68l-7.31-7.31C142.77,7.94,142.63,7.89,142.48,7.89L142.48,7.89z
				 M142.48,7.89"/>
			<path class="st7" d="M142.81,7.98v7.45h7.45L142.81,7.98z M142.81,7.98"/>
			<path class="st8" d="M149.43,43.09h-25.19c-0.51,0-0.92-0.41-0.92-0.92V32.4h27.03v9.77C150.35,42.67,149.94,43.09,149.43,43.09
				L149.43,43.09z M149.43,43.09"/>
			<path class="st9" d="M132.98,34.87v0.7h-1.89v5.63h-1.04v-5.63h-1.89v-0.7H132.98z M132.98,34.87"/>
			<path class="st9" d="M137.12,38.12l1.61,3.08h-1.2l-1-2.39h-0.09l-1.08,2.39h-1.19l1.61-3.08l-1.71-3.26h1.18l1.12,2.58h0.09
				l1.21-2.58h1.18L137.12,38.12z M137.12,38.12"/>
			<path class="st9" d="M144.71,34.87v0.7h-1.89v5.63h-1.04v-5.63h-1.89v-0.7H144.71z M144.71,34.87"/>
			<path class="st10" d="M130.87,16.06h-3.77c-0.35,0-0.63-0.28-0.63-0.63c0-0.35,0.28-0.63,0.63-0.63h3.77
				c0.35,0,0.63,0.28,0.63,0.63C131.49,15.78,131.22,16.06,130.87,16.06L130.87,16.06z M130.87,16.06"/>
			<path class="st10" d="M132.75,19.2h-5.66c-0.35,0-0.63-0.28-0.63-0.63c0-0.35,0.28-0.63,0.63-0.63h5.66
				c0.35,0,0.63,0.28,0.63,0.63C133.38,18.92,133.1,19.2,132.75,19.2L132.75,19.2z M132.75,19.2"/>
			<path class="st10" d="M135.27,19.2c-0.16,0-0.33-0.07-0.44-0.18c-0.11-0.12-0.18-0.28-0.18-0.44c0-0.17,0.07-0.33,0.19-0.45
				c0.23-0.23,0.65-0.23,0.89,0c0.11,0.12,0.18,0.28,0.18,0.45c0,0.16-0.07,0.33-0.18,0.44C135.59,19.13,135.43,19.2,135.27,19.2
				L135.27,19.2z M135.27,19.2"/>
			<path class="st10" d="M142.81,19.2h-5.03c-0.35,0-0.63-0.28-0.63-0.63c0-0.35,0.28-0.63,0.63-0.63h5.03
				c0.35,0,0.63,0.28,0.63,0.63C143.44,18.92,143.16,19.2,142.81,19.2L142.81,19.2z M142.81,19.2"/>
			<path class="st10" d="M127.1,28.63c-0.16,0-0.33-0.07-0.45-0.18c-0.11-0.12-0.18-0.28-0.18-0.44c0-0.17,0.07-0.33,0.18-0.45
				c0.23-0.23,0.66-0.23,0.89,0.01c0.11,0.11,0.18,0.28,0.18,0.44c0,0.16-0.07,0.33-0.18,0.44
				C127.42,28.56,127.26,28.63,127.1,28.63L127.1,28.63z M127.1,28.63"/>
			<path class="st10" d="M134.64,28.63h-5.03c-0.35,0-0.63-0.28-0.63-0.63c0-0.35,0.28-0.63,0.63-0.63h5.03
				c0.35,0,0.63,0.28,0.63,0.63C135.27,28.35,134.99,28.63,134.64,28.63L134.64,28.63z M134.64,28.63"/>
			<path class="st10" d="M146.58,19.2h-1.26c-0.35,0-0.63-0.28-0.63-0.63c0-0.35,0.28-0.63,0.63-0.63h1.26
				c0.35,0,0.63,0.28,0.63,0.63C147.21,18.92,146.93,19.2,146.58,19.2L146.58,19.2z M146.58,19.2"/>
			<path class="st10" d="M140.92,22.34H127.1c-0.35,0-0.63-0.28-0.63-0.63c0-0.35,0.28-0.63,0.63-0.63h13.83
				c0.35,0,0.63,0.28,0.63,0.63C141.55,22.06,141.27,22.34,140.92,22.34L140.92,22.34z M140.92,22.34"/>
			<path class="st10" d="M146.58,22.34h-3.77c-0.35,0-0.63-0.28-0.63-0.63c0-0.35,0.28-0.63,0.63-0.63h3.77
				c0.35,0,0.63,0.28,0.63,0.63C147.21,22.06,146.93,22.34,146.58,22.34L146.58,22.34z M146.58,22.34"/>
			<path class="st10" d="M129.61,25.48h-2.51c-0.35,0-0.63-0.28-0.63-0.63c0-0.35,0.28-0.63,0.63-0.63h2.51
				c0.35,0,0.63,0.28,0.63,0.63C130.24,25.2,129.96,25.48,129.61,25.48L129.61,25.48z M129.61,25.48"/>
			<path class="st10" d="M138.41,25.48h-6.29c-0.35,0-0.63-0.28-0.63-0.63c0-0.35,0.28-0.63,0.63-0.63h6.29
				c0.35,0,0.63,0.28,0.63,0.63C139.04,25.2,138.76,25.48,138.41,25.48L138.41,25.48z M138.41,25.48"/>
			<path class="st10" d="M146.58,25.48h-5.66c-0.35,0-0.63-0.28-0.63-0.63c0-0.35,0.28-0.63,0.63-0.63h5.66
				c0.35,0,0.63,0.28,0.63,0.63C147.21,25.2,146.93,25.48,146.58,25.48L146.58,25.48z M146.58,25.48"/>
		</g>
	</g>
	<g>
		<path class="st11" d="M190.99,7.59h-18.65c-0.52,0-0.94,0.42-0.94,1.24v34.12c0,0.22,0.42,0.64,0.94,0.64h25.76
			c0.52,0,0.94-0.42,0.94-0.64V15.93c0-0.45-0.06-0.59-0.16-0.7l-7.48-7.48C191.29,7.64,191.14,7.59,190.99,7.59L190.99,7.59z
			 M190.99,7.59"/>
		<path class="st12" d="M191.32,7.68v7.62h7.61L191.32,7.68z M191.32,7.68"/>
		<path class="st13" d="M179.76,29.01c-0.22,0-0.44-0.07-0.62-0.21c-0.67-0.5-0.76-1.06-0.72-1.44c0.12-1.05,1.41-2.14,3.85-3.26
			c0.97-2.12,1.89-4.73,2.43-6.91c-0.64-1.4-1.26-3.21-0.81-4.27c0.16-0.37,0.36-0.66,0.73-0.78c0.15-0.05,0.52-0.11,0.65-0.11
			c0.33,0,0.61,0.42,0.81,0.67c0.19,0.24,0.62,0.75-0.24,4.37c0.87,1.79,2.1,3.61,3.27,4.86c0.84-0.15,1.57-0.23,2.16-0.23
			c1.01,0,1.62,0.24,1.86,0.72c0.21,0.4,0.12,0.87-0.25,1.39c-0.36,0.5-0.85,0.77-1.43,0.77c-0.78,0-1.69-0.49-2.71-1.47
			c-1.82,0.38-3.95,1.06-5.67,1.81c-0.54,1.14-1.05,2.06-1.53,2.73C180.89,28.58,180.32,29.01,179.76,29.01L179.76,29.01z
			 M181.47,25.71c-1.37,0.77-1.93,1.41-1.97,1.76c-0.01,0.06-0.02,0.21,0.28,0.45C179.87,27.89,180.43,27.64,181.47,25.71
			L181.47,25.71z M190.24,22.86c0.52,0.4,0.65,0.61,1,0.61c0.15,0,0.58-0.01,0.78-0.29c0.09-0.13,0.13-0.22,0.15-0.27
			c-0.08-0.04-0.19-0.13-0.76-0.13C191.08,22.79,190.67,22.8,190.24,22.86L190.24,22.86z M185.44,18.62
			c-0.46,1.59-1.06,3.31-1.72,4.86c1.34-0.52,2.8-0.98,4.17-1.3C187.03,21.18,186.16,19.92,185.44,18.62L185.44,18.62z
			 M185.05,13.19c-0.06,0.02-0.85,1.13,0.06,2.07C185.72,13.89,185.07,13.18,185.05,13.19L185.05,13.19z M185.05,13.19"/>
		<path class="st13" d="M198.1,43.59h-25.76c-0.52,0-0.94-0.42-0.94-0.94v-9.99h27.64v9.99C199.04,43.16,198.62,43.59,198.1,43.59
			L198.1,43.59z M198.1,43.59"/>
		<path class="st9" d="M178.39,41.65h-1.05v-6.48h1.86c0.27,0,0.55,0.04,0.82,0.13c0.27,0.09,0.51,0.22,0.73,0.4
			c0.21,0.18,0.39,0.39,0.52,0.64c0.13,0.25,0.2,0.53,0.2,0.84c0,0.33-0.05,0.62-0.17,0.89c-0.11,0.27-0.27,0.49-0.46,0.67
			c-0.2,0.18-0.44,0.32-0.72,0.42c-0.28,0.1-0.59,0.15-0.93,0.15h-0.78V41.65z M178.39,35.98v2.56h0.97c0.13,0,0.26-0.02,0.38-0.07
			c0.13-0.04,0.24-0.12,0.35-0.22c0.1-0.1,0.19-0.24,0.25-0.41c0.06-0.18,0.1-0.4,0.1-0.67c0-0.1-0.02-0.23-0.04-0.36
			c-0.03-0.14-0.09-0.27-0.18-0.4c-0.09-0.13-0.22-0.23-0.38-0.32c-0.16-0.08-0.38-0.13-0.65-0.13H178.39z M178.39,35.98"/>
		<path class="st9" d="M187.93,38.24c0,0.53-0.06,0.99-0.17,1.37c-0.12,0.38-0.26,0.69-0.44,0.95c-0.18,0.25-0.37,0.46-0.59,0.6
			c-0.22,0.15-0.43,0.26-0.64,0.33c-0.2,0.07-0.39,0.12-0.56,0.14c-0.17,0.02-0.29,0.03-0.38,0.03h-2.45v-6.48h1.95
			c0.54,0,1.02,0.08,1.43,0.26c0.41,0.17,0.76,0.4,1.03,0.69c0.27,0.29,0.48,0.61,0.61,0.98C187.86,37.47,187.93,37.85,187.93,38.24
			L187.93,38.24z M184.8,40.88c0.72,0,1.23-0.23,1.55-0.68c0.32-0.46,0.47-1.12,0.47-1.99c0-0.27-0.03-0.54-0.09-0.8
			c-0.07-0.26-0.19-0.5-0.37-0.72c-0.18-0.21-0.44-0.39-0.75-0.52c-0.32-0.13-0.73-0.2-1.23-0.2h-0.62v4.9H184.8z M184.8,40.88"/>
		<path class="st9" d="M190.53,35.98v2.04h2.71v0.72h-2.71v2.92h-1.07v-6.48h4.05v0.8H190.53z M190.53,35.98"/>
	</g>
</g>
</svg>
