<?xml version="1.0" encoding="utf-8"?>
<!-- Generator: Adobe Illustrator 23.0.0, SVG Export Plug-In . SVG Version: 6.00 Build 0)  -->
<svg version="1.1" id="Capa_1" xmlns="http://www.w3.org/2000/svg" xmlns:xlink="http://www.w3.org/1999/xlink" x="0px" y="0px"
	 viewBox="0 0 42.3 32.34" style="enable-background:new 0 0 42.3 32.34;" xml:space="preserve">
<style type="text/css">
	.st0{fill:#2D4F8A;}
</style>
<g>
	<g>
		<path class="st0" d="M21.38,21.71l-4.85-4.25L2.66,29.33c0.5,0.48,1.18,0.77,1.93,0.77h33.56c0.75,0,1.42-0.29,1.92-0.77
			L26.21,17.45L21.38,21.71z M21.38,21.71"/>
	</g>
	<g>
		<path class="st0" d="M40.08,2.87C39.59,2.39,38.9,2.1,38.15,2.1H4.59c-0.74,0-1.42,0.29-1.93,0.77L21.38,18.9L40.08,2.87z
			 M40.08,2.87"/>
	</g>
	<g>
		<path class="st0" d="M1.77,4.56v23.26l13.53-11.5L1.77,4.56z M1.77,4.56"/>
	</g>
	<g>
		<path class="st0" d="M27.43,16.32l13.53,11.5V4.55L27.43,16.32z M27.43,16.32"/>
	</g>
</g>
</svg>
