<?xml version="1.0" encoding="utf-8"?>
<!-- Generator: Adobe Illustrator 23.0.0, SVG Export Plug-In . SVG Version: 6.00 Build 0)  -->
<svg version="1.1" id="Capa_1" xmlns="http://www.w3.org/2000/svg" xmlns:xlink="http://www.w3.org/1999/xlink" x="0px" y="0px"
	 viewBox="0 0 113.7 110.81" style="enable-background:new 0 0 113.7 110.81;" xml:space="preserve">
<style type="text/css">
	.st0{fill:#FFFFFF;}
</style>
<g>
	<path class="st0" d="M88.95,54"/>
	<g>
		<g>
			<path class="st0" d="M96.92,100.46c0,2.76-2.24,5-4.98,5H23.93c-2.75,0-4.98-2.24-4.98-5V32.99h23.6c0.69,0,1.25-0.55,1.25-1.23
				V7.47h48.15c2.75,0,4.98,2.24,4.98,4.98v22.29h2.48V12.46C99.4,8.35,96.05,5,91.94,5H42.55c-0.33,0-0.64,0.13-0.88,0.37
				L16.8,30.92c-0.02,0.04-0.04,0.07-0.1,0.15c-0.06,0.08-0.11,0.15-0.14,0.24c0,0.03-0.01,0.07-0.04,0.17
				c-0.03,0.1-0.05,0.18-0.05,0.26v68.73c0,4.1,3.35,7.44,7.46,7.44h68.01c4.11,0,7.46-3.35,7.46-7.46V28h-2.48V100.46z M41.31,9.28
				v21.23H20.64L30.98,19.9L41.31,9.28z"/>
		</g>
		<g>
			<path class="st0" d="M27.91,70.8v2.86h61.03c-0.45-0.93,0.36-1.88,0-2.86H27.91z"/>
		</g>
		<g>
			<path class="st0" d="M27.91,59.8v2.86h61.03c-0.45-0.93,0.36-1.88,0-2.86H27.91z"/>
		</g>
		<g>
			<path class="st0" d="M27.91,48.8v2.86h61.03c-0.45-0.93,0.36-1.88,0-2.86H27.91z"/>
		</g>
		<g>
			<path class="st0" d="M27.91,37.8v2.86h61.03c-0.45-0.93,0.36-1.88,0-2.86H27.91z"/>
		</g>
		<g>
			<path class="st0" d="M27.91,81.29v2.86h61.03c-1.1-0.88,0.97-1.84,0-2.86H27.91z"/>
		</g>
		<g>
			<rect x="27.91" y="91.78" class="st0" width="61.03" height="2.86"/>
		</g>
	</g>
</g>
</svg>
