<?xml version="1.0" encoding="utf-8"?>
<!-- Generator: Adobe Illustrator 23.0.0, SVG Export Plug-In . SVG Version: 6.00 Build 0)  -->
<svg version="1.1" id="Capa_1" xmlns="http://www.w3.org/2000/svg" xmlns:xlink="http://www.w3.org/1999/xlink" x="0px" y="0px"
	 viewBox="0 0 112.6 101.87" style="enable-background:new 0 0 112.6 101.87;" xml:space="preserve">
<style type="text/css">
	.st0{fill:#60A3E3;}
</style>
<g>
	<path class="st0" d="M47.5,11.61l-0.31,0.09c-1.95,0.53-3.83,1.21-5.59,2.02c-7.74,3.57-15.59,12.18-15.67,23.35v16.17
		c0,11.6-4.1,21.55-12.17,29.58c-0.36,0.36-0.5,0.89-0.34,1.38c0.16,0.5,0.57,0.86,1.08,0.95l17.06,2.94
		c3.11,0.54,6.01,0.99,8.86,1.37l0.22,0.03l0.1,0.2c3.11,6.08,9.1,9.86,15.65,9.86c6.55,0,12.55-3.78,15.65-9.86l0.1-0.2l0.22-0.03
		c2.87-0.38,5.75-0.83,8.83-1.37l17.06-2.94c0.51-0.09,0.92-0.45,1.07-0.95c0.16-0.48,0.02-1.02-0.34-1.38
		c-8.45-8.41-12.74-18.36-12.74-29.59V37.07c0.07-12.14-8.08-20.17-15.08-23.36c-1.96-0.9-4.05-1.63-6.21-2.16l-0.32-0.08v-1.37
		c0-4.72-3.84-8.56-8.56-8.56s-8.56,3.84-8.56,8.56V11.61z M68.27,90.66c-2.83,3.84-7.27,6.13-11.88,6.13
		c-4.6,0-9.04-2.29-11.87-6.13l-0.57-0.77l0.95,0.1c7.99,0.84,15.02,0.83,22.98,0l0.95-0.1L68.27,90.66z M50.26,10.11
		c0-3.2,2.61-5.81,5.81-5.81c3.2,0,5.81,2.61,5.81,5.81v0.81l-0.48-0.07c-3.58-0.51-7.16-0.48-10.65,0.09l-0.49,0.08V10.11z
		 M62.91,13.93l0.05,0c2.53,0.52,4.87,1.29,7.05,2.28c6.75,3.09,13.54,10.74,13.48,20.86v16.17c0,10.7,3.89,20.75,11.24,29.08
		l0.5,0.57l-14.5,2.5c-3.55,0.61-6.69,1.08-9.62,1.46c-1.33,0.17-2.61,0.31-3.87,0.44c-1.18,0.12-2.31,0.21-3.43,0.29l-0.64,0.04
		c-0.95,0.07-1.91,0.11-2.85,0.15l-0.18,0.01c-0.14,0.01-0.28,0.02-0.42,0.02c-1.12,0.04-2.23,0.06-3.34,0.06
		c-1.11,0-2.23-0.02-3.35-0.06c-0.12,0.01-0.28-0.01-0.42-0.02l-0.18-0.01c-0.93-0.04-1.87-0.08-2.82-0.14
		c-0.22-0.02-0.44-0.04-0.67-0.04c-1.09-0.08-2.19-0.17-3.3-0.28l-0.12-0.01c-1.25-0.13-2.53-0.27-3.83-0.44
		c-2.84-0.35-5.91-0.82-9.67-1.47l-14.51-2.5L18,82.31c7.09-8.1,10.68-17.89,10.68-29.08V37.07c0.06-9.95,7.11-17.64,14.06-20.85
		c2.02-0.92,4.17-1.65,6.37-2.15C53.64,13.06,58.39,13.01,62.91,13.93z"/>
	<path class="st0" d="M45.37,21.88c-3.85,1.78-10.39,6.98-10.45,15.18c0,0.75,0.62,1.38,1.37,1.38c0.77,0,1.38-0.6,1.38-1.37
		c0.05-6.82,5.58-11.18,8.84-12.69c6.07-2.8,13.65-2.8,19.76,0c0.33,0.15,0.71,0.17,1.05,0.04c0.34-0.13,0.62-0.38,0.77-0.72
		c0.15-0.34,0.17-0.71,0.04-1.05c-0.13-0.34-0.38-0.61-0.72-0.77l0,0c-3.41-1.56-7.23-2.34-11.04-2.34
		C52.56,19.54,48.76,20.32,45.37,21.88z"/>
	<path class="st0" d="M9.51,37.49C9.51,37.49,9.51,37.49,9.51,37.49c-0.37,0-0.71,0.14-0.97,0.4c-3.85,3.84-5.97,8.96-5.97,14.42
		c0,5.46,2.12,10.58,5.97,14.43c0.52,0.52,1.44,0.51,1.94,0c0.27-0.26,0.41-0.61,0.41-0.98c0-0.37-0.14-0.71-0.41-0.98
		c-3.32-3.32-5.15-7.75-5.15-12.48c0-4.73,1.83-9.15,5.15-12.47c0.26-0.26,0.4-0.6,0.4-0.97s-0.14-0.71-0.4-0.97
		C10.22,37.63,9.87,37.49,9.51,37.49z"/>
	<path class="st0" d="M16.1,62.65c0.51,0.51,1.41,0.52,1.95,0c0.53-0.54,0.53-1.41,0-1.95c-4.76-4.76-4.76-12.51,0-17.27
		c0.53-0.53,0.53-1.41,0-1.94c-0.27-0.27-0.62-0.4-0.97-0.4c-0.35,0-0.71,0.13-0.98,0.4C10.27,47.31,10.27,56.81,16.1,62.65z"/>
	<path class="st0" d="M103.59,66.73c3.85-3.85,5.97-8.97,5.97-14.43c0-5.46-2.12-10.58-5.97-14.42l0,0c-0.26-0.26-0.6-0.4-0.97-0.4
		c0,0,0,0,0,0c-0.37,0-0.71,0.14-0.97,0.4c-0.26,0.26-0.41,0.61-0.41,0.97c0,0.37,0.14,0.71,0.41,0.97
		c3.32,3.33,5.15,7.75,5.15,12.47c0,4.72-1.83,9.16-5.15,12.48c-0.26,0.26-0.41,0.61-0.41,0.98c0,0.37,0.14,0.71,0.41,0.97
		C102.15,67.25,103.07,67.25,103.59,66.73z"/>
	<path class="st0" d="M96.03,62.64c5.83-5.83,5.83-15.33,0-21.16c-0.54-0.54-1.41-0.54-1.95,0c-0.53,0.54-0.53,1.41,0,1.94
		c4.76,4.76,4.76,12.51,0,17.27c-0.53,0.53-0.53,1.41,0,1.95C94.6,63.16,95.5,63.16,96.03,62.64z"/>
</g>
</svg>
