<?xml version="1.0" encoding="utf-8"?>
<!-- Generator: Adobe Illustrator 23.0.0, SVG Export Plug-In . SVG Version: 6.00 Build 0)  -->
<svg version="1.1" id="Capa_1" xmlns="http://www.w3.org/2000/svg" xmlns:xlink="http://www.w3.org/1999/xlink" x="0px" y="0px"
	 viewBox="0 0 101.79 103.15" style="enable-background:new 0 0 101.79 103.15;" xml:space="preserve">
<style type="text/css">
	.st0{fill:#5EA0CA;}
</style>
<path class="st0" d="M98.07,99.33c0.01-0.4-0.14-0.79-0.42-1.07l0,0L69.35,68.81l0.26-0.26c7.4-7.43,11.48-17.27,11.48-27.71
	c0-21.66-17.62-39.28-39.28-39.28c-21.66,0-39.28,17.62-39.28,39.28s17.62,39.28,39.28,39.28c9.1,0,17.99-3.21,25.03-9.04l0.27-0.22
	l28.36,29.5c0.54,0.57,1.54,0.6,2.15,0.03C97.9,100.11,98.06,99.73,98.07,99.33z M41.81,77.08c-19.99,0-36.25-16.26-36.25-36.25
	S21.82,4.59,41.81,4.59c19.99,0,36.25,16.26,36.25,36.25S61.8,77.08,41.81,77.08z"/>
</svg>
