<?xml version="1.0" encoding="utf-8"?>
<!-- Generator: Adobe Illustrator 23.0.0, SVG Export Plug-In . SVG Version: 6.00 Build 0)  -->
<svg version="1.1" id="Capa_1" xmlns="http://www.w3.org/2000/svg" xmlns:xlink="http://www.w3.org/1999/xlink" x="0px" y="0px"
	 viewBox="0 0 109.28 109.87" style="enable-background:new 0 0 109.28 109.87;" xml:space="preserve">
<style type="text/css">
	.st0{fill:#20A4E5;}
</style>
<g>
	<g>
		<path class="st0" d="M79.49,30.57c-15.13,0-27.43,12.3-27.43,27.43c0,15.12,12.3,27.43,27.43,27.43s27.43-12.3,27.43-27.43
			C106.92,42.88,94.61,30.57,79.49,30.57z M104.32,58c0,13.69-11.14,24.84-24.84,24.84S54.65,71.7,54.65,58
			c0-13.7,11.14-24.84,24.84-24.84S104.32,44.31,104.32,58z"/>
	</g>
	<g>
		<path class="st0" d="M93,46.25c-0.35,0.02-0.67,0.17-0.9,0.44L76.2,64.58l-9.49-7.59c-0.27-0.22-0.6-0.31-0.94-0.28
			c-0.35,0.04-0.66,0.21-0.88,0.48c-0.44,0.56-0.35,1.37,0.2,1.82l10.45,8.36c0.23,0.18,0.52,0.28,0.81,0.28
			c0.37,0,0.73-0.16,0.97-0.44l16.72-18.81c0.23-0.26,0.35-0.59,0.33-0.94s-0.18-0.66-0.43-0.89C93.68,46.35,93.35,46.23,93,46.25z"
			/>
	</g>
	<g>
		<path class="st0" d="M83.55,97.67c0,2.76-2.24,5-4.98,5H10.55c-2.75,0-4.98-2.24-4.98-5V30.21h23.6c0.69,0,1.25-0.55,1.25-1.23
			V4.69h48.15c2.75,0,4.98,2.24,4.98,4.98v18.29h2.48V9.67c0-4.11-3.35-7.46-7.46-7.46H29.17c-0.33,0-0.64,0.13-0.88,0.37
			L3.43,28.14c-0.02,0.04-0.04,0.07-0.1,0.15c-0.06,0.08-0.11,0.15-0.14,0.24c0,0.03-0.01,0.07-0.04,0.17
			c-0.03,0.1-0.05,0.18-0.05,0.26v68.73c0,4.1,3.35,7.44,7.46,7.44h68.01c4.11,0,7.46-3.35,7.46-7.46V89h-2.48V97.67z M27.94,6.5
			v21.23H7.27l10.34-10.62L27.94,6.5z"/>
	</g>
	<g>
		<path class="st0" d="M56.29,36.54H14.54v2.86h39.34C54.62,38.4,55.43,37.45,56.29,36.54z"/>
	</g>
	<g>
		<path class="st0" d="M49.77,47.04H14.54v2.86h34.34C49.13,48.92,49.43,47.97,49.77,47.04z"/>
	</g>
	<g>
		<path class="st0" d="M14.54,60.39h33.52c-0.09-0.94-0.14-1.9-0.14-2.86H14.54V60.39z"/>
	</g>
	<g>
		<path class="st0" d="M14.54,68.02v2.86h36.45c-0.45-0.93-0.86-1.88-1.22-2.86H14.54z"/>
	</g>
	<g>
		<path class="st0" d="M14.54,78.51v2.86H59.4c-1.1-0.88-2.14-1.84-3.11-2.86H14.54z"/>
	</g>
	<g>
		<rect x="14.54" y="89" class="st0" width="61.03" height="2.86"/>
	</g>
</g>
</svg>
