<?xml version="1.0" encoding="utf-8"?>
<!-- Generator: Adobe Illustrator 23.0.0, SVG Export Plug-In . SVG Version: 6.00 Build 0)  -->
<svg version="1.1" id="Capa_1" xmlns="http://www.w3.org/2000/svg" xmlns:xlink="http://www.w3.org/1999/xlink" x="0px" y="0px"
	 viewBox="0 0 117.11 98.55" style="enable-background:new 0 0 117.11 98.55;" xml:space="preserve">
<style type="text/css">
	.st0{fill:#FFFFFF;}
</style>
<path class="st0" d="M106.69,18.5H92.81c-1.08,0-1.96,0.88-1.96,1.96s0.88,1.96,1.96,1.96h13.88c1.8,0,3.27,1.47,3.27,3.27v62.81
	c0,0.9-0.36,1.73-1,2.35c-0.61,0.59-1.41,0.91-2.26,0.92c0,0-0.01,0-0.01,0h-0.02c-0.03,0-0.07,0-0.1,0
	c-1.74-0.06-3.15-1.58-3.15-3.39V33.55c0-3.97-3.23-7.2-7.2-7.2h-3.27V10c0-3.97-3.23-7.2-7.2-7.2H33.41c-3.97,0-7.2,3.23-7.2,7.2
	v8.51h-3.27c-3.97,0-7.2,3.23-7.2,7.2v8.74c0,1.08,0.88,1.96,1.96,1.96c1.08,0,1.96-0.88,1.96-1.96V25.7c0-1.8,1.47-3.27,3.27-3.27
	h3.27V34.2H12.48c-3.97,0-7.2,3.23-7.2,7.2v47.11c0,3.97,3.23,7.2,7.2,7.2h94.17c0.02,0,0.03,0,0.05,0c1.87,0,3.64-0.71,4.99-2.02
	c1.42-1.37,2.2-3.21,2.2-5.18V25.7C113.89,21.73,110.66,18.5,106.69,18.5z M30.14,10c0-1.8,1.47-3.27,3.27-3.27h52.34
	c1.8,0,3.27,1.47,3.27,3.27v16.36H77.51c-3.95,0-7.77,1.66-10.47,4.55c-1.96,2.1-4.73,3.3-7.6,3.3H30.14V10z M12.48,91.78
	c-1.8,0-3.27-1.47-3.27-3.27V41.4c0-1.8,1.47-3.27,3.27-3.27h46.97c3.95,0,7.77-1.66,10.47-4.55c1.96-2.1,4.73-3.3,7.6-3.3h18.71
	c1.8,0,3.27,1.47,3.27,3.27v54.83c0,1.23,0.29,2.38,0.81,3.4L12.48,91.78L12.48,91.78z"/>
<g>
	<path class="st0" d="M56.77,53.92v9.89h9.89v3.99h-9.89v9.89h-3.99v-9.89h-9.89v-3.99h9.89v-9.89H56.77z"/>
</g>
</svg>
