<?xml version="1.0" encoding="utf-8"?>
<!-- Generator: Adobe Illustrator 23.0.0, SVG Export Plug-In . SVG Version: 6.00 Build 0)  -->
<svg version="1.1" id="Capa_1" xmlns="http://www.w3.org/2000/svg" xmlns:xlink="http://www.w3.org/1999/xlink" x="0px" y="0px"
	 viewBox="0 0 94.47 93.62" style="enable-background:new 0 0 94.47 93.62;" xml:space="preserve">
<style type="text/css">
	.st0{fill:#FFFFFF;}
</style>
<g>
	<g>
		<g>
			<path class="st0" d="M92.4,50.45v-7.54c0-4.71-3.83-8.54-8.54-8.54H59.22V9.92c0-4.71-3.83-8.54-8.54-8.54h-7.54
				c-4.71,0-8.54,3.83-8.54,8.54v24.46H9.95c-4.71,0-8.54,3.83-8.54,8.54v7.54c0,4.71,3.83,8.54,8.54,8.54H34.6v24.84
				c0,4.7,3.83,8.53,8.54,8.53h7.54c4.58,0,8.33-3.63,8.53-8.16l-0.01-0.87l0.02-0.05V58.99h24.65
				C88.57,58.99,92.4,55.16,92.4,50.45z M58.22,57c-0.55,0-1,0.45-1,1l-0.01,26.28c-0.23,3.4-3.07,6.1-6.54,6.1h-7.54
				c-3.61,0-6.55-2.94-6.55-6.55V58c0-0.55-0.45-1-1-1H9.95c-3.61,0-6.55-2.94-6.55-6.55v-7.54c0-3.61,2.94-6.55,6.55-6.55H35.6
				c0.55,0,1-0.45,1-0.99V9.92c0-3.61,2.94-6.55,6.55-6.55h7.54c3.61,0,6.55,2.94,6.55,6.55v25.45c0,0.55,0.45,0.99,1,0.99h25.64
				c3.61,0,6.55,2.94,6.55,6.55v7.54c0,3.61-2.94,6.55-6.55,6.55H58.22z"/>
		</g>
	</g>
</g>
</svg>
