<?xml version="1.0" encoding="utf-8"?>
<!-- Generator: Adobe Illustrator 23.0.0, SVG Export Plug-In . SVG Version: 6.00 Build 0)  -->
<svg version="1.1" id="Capa_1" xmlns="http://www.w3.org/2000/svg" xmlns:xlink="http://www.w3.org/1999/xlink" x="0px" y="0px"
	 viewBox="0 0 98.04 120.26" style="enable-background:new 0 0 98.04 120.26;" xml:space="preserve">
<style type="text/css">
	.st0{fill:none;}
	.st1{fill:#60A1E1;}
	.st2{fill:#FFFFFF;}
</style>
<path class="st0" d="M193.66,47.79"/>
<g>
	<g>
		<path class="st1" d="M226.25,94.25c0,2.76-2.24,5-4.98,5h-68.01c-2.75,0-4.98-2.24-4.98-5V26.79h23.6c0.69,0,1.25-0.55,1.25-1.23
			V1.27h48.15c2.75,0,4.98,2.24,4.98,4.98v18.29h2.48V6.25c0-4.11-3.35-7.46-7.46-7.46h-49.39c-0.33,0-0.64,0.13-0.88,0.37
			l-24.87,25.55c-0.02,0.04-0.04,0.07-0.1,0.15c-0.06,0.08-0.11,0.15-0.14,0.24c0,0.03-0.01,0.07-0.04,0.17
			c-0.03,0.1-0.05,0.18-0.05,0.26v68.73c0,4.1,3.35,7.44,7.46,7.44h68.01c4.11,0,7.46-3.35,7.46-7.46v-8.68h-2.48V94.25z
			 M170.64,3.08v21.23h-20.67l10.34-10.62L170.64,3.08z"/>
	</g>
	<g>
		<path class="st1" d="M198.98,33.13h-41.75v2.86h39.34C197.32,34.98,198.13,34.03,198.98,33.13z"/>
	</g>
	<g>
		<path class="st1" d="M192.47,43.62h-35.23v2.86h34.34C191.83,45.5,192.13,44.55,192.47,43.62z"/>
	</g>
	<g>
		<path class="st1" d="M157.24,56.97h33.52c-0.09-0.94-0.14-1.9-0.14-2.86h-33.38V56.97z"/>
	</g>
	<g>
		<path class="st1" d="M157.24,64.6v2.86h36.45c-0.45-0.93-0.86-1.88-1.22-2.86H157.24z"/>
	</g>
	<g>
		<path class="st1" d="M157.24,75.09v2.86h44.86c-1.1-0.88-2.14-1.84-3.11-2.86H157.24z"/>
	</g>
	<g>
		<rect x="157.24" y="85.58" class="st1" width="61.03" height="2.86"/>
	</g>
</g>
<g>
	<g>
		<g>
			<path class="st1" d="M195.57,63.13c-0.18,0-0.35-0.04-0.52-0.14c-0.51-0.29-0.69-0.93-0.4-1.44l4.44-7.89
				c0.17-0.3,0.47-0.49,0.8-0.53c0.34-0.04,0.67,0.09,0.9,0.34l6.01,6.65c0.39,0.43,0.36,1.1-0.08,1.49
				c-0.43,0.39-1.1,0.36-1.49-0.08l-5.02-5.56l-3.72,6.61C196.3,62.93,195.94,63.13,195.57,63.13z"/>
		</g>
	</g>
	<g>
		<g>
			<path class="st1" d="M226.21,82.47c-8.71,0-17.26-4.22-22.42-12.01c-3.39-5.11-5.1-10.91-4.81-16.31c0.03-0.58,0.53-1.03,1.11-1
				c0.58,0.03,1.03,0.53,1,1.11c-0.26,4.95,1.33,10.29,4.47,15.03c7.53,11.37,22.91,14.49,34.28,6.96
				c5.51-3.65,9.26-9.22,10.58-15.7c1.31-6.47,0.03-13.07-3.62-18.58c-3.65-5.51-9.22-9.26-15.7-10.58
				c-6.47-1.31-13.07-0.03-18.58,3.62c-3.97,2.63-7.08,6.32-8.99,10.66c-0.23,0.53-0.86,0.78-1.39,0.54
				c-0.53-0.23-0.78-0.86-0.54-1.39c2.07-4.72,5.44-8.72,9.75-11.58c12.34-8.18,29.03-4.79,37.21,7.55
				c3.96,5.98,5.36,13.14,3.93,20.17C251.05,68,246.98,74.05,241,78.01C236.45,81.03,231.3,82.47,226.21,82.47z"/>
		</g>
	</g>
</g>
<g>
	<g>
		<path class="st2" d="M88.64,102.13c0,2.76-2.24,5-4.98,5H15.65c-2.75,0-4.98-2.24-4.98-5V34.66h23.6c0.69,0,1.25-0.55,1.25-1.23
			V9.14h48.15c2.75,0,4.98,2.23,4.98,4.98v81.54h2.48V14.13c0-4.12-3.34-7.46-7.46-7.46H34.27c-0.33,0-0.64,0.13-0.88,0.37
			L8.52,32.59c-0.02,0.04-0.04,0.07-0.1,0.15c-0.06,0.08-0.11,0.15-0.14,0.24c0,0.03-0.01,0.07-0.04,0.17
			c-0.03,0.1-0.05,0.18-0.05,0.26v68.73c0,4.11,3.33,7.44,7.44,7.44h68.03c4.12,0,7.46-3.34,7.46-7.46v-8.68h-2.48V102.13z
			 M33.04,10.95v21.23H12.36L22.7,21.57L33.04,10.95z"/>
	</g>
</g>
<g>
	<path class="st2" d="M51.2,37.79c-13.47,0-24.43,10.96-24.43,24.43S37.73,86.64,51.2,86.64c13.47,0,24.43-10.96,24.43-24.43
		S64.67,37.79,51.2,37.79z M51.2,84c-12.01,0-21.78-9.77-21.78-21.78c0-12.01,9.77-21.78,21.78-21.78
		c12.01,0,21.78,9.77,21.78,21.78C72.98,74.23,63.21,84,51.2,84z"/>
</g>
<g>
	<g>
		<path class="st2" d="M50.73,78.01c1.07,0,1.94-0.87,1.94-1.94V73.1l0.25-0.09c2.61-0.93,4.37-3.41,4.37-6.18
			c0-3.62-2.94-6.56-6.56-6.56c-1.48,0-2.68-1.2-2.68-2.68c0-1.48,1.2-2.69,2.68-2.69c0.92,0,1.87,0.45,2.76,1.31
			c0.37,0.36,0.82,0.56,1.38,0.54c0.52-0.01,1-0.22,1.36-0.59s0.55-0.86,0.54-1.38c-0.01-0.52-0.22-1-0.59-1.36
			c-1-0.97-2.1-1.65-3.26-2.04l-0.26-0.08v-2.96c0-1.07-0.87-1.94-1.94-1.94c-1.07,0-1.93,0.87-1.93,1.94v2.97l-0.25,0.09
			c-2.61,0.93-4.37,3.41-4.37,6.18c0,3.62,2.94,6.56,6.56,6.56c1.48,0,2.69,1.21,2.69,2.69s-1.21,2.68-2.69,2.68
			c-1.1,0-2.27-0.67-3.29-1.88c-0.38-0.45-0.93-0.69-1.48-0.69c-0.44,0-0.88,0.15-1.25,0.45c-0.82,0.69-0.92,1.91-0.24,2.73
			c1.17,1.4,2.58,2.4,4.06,2.9l0.26,0.09v2.97C48.8,77.14,49.67,78.01,50.73,78.01z"/>
	</g>
</g>
</svg>
