<?xml version="1.0" encoding="utf-8"?>
<!-- Generator: Adobe Illustrator 23.0.0, SVG Export Plug-In . SVG Version: 6.00 Build 0)  -->
<svg version="1.1" id="Capa_1" xmlns="http://www.w3.org/2000/svg" xmlns:xlink="http://www.w3.org/1999/xlink" x="0px" y="0px"
	 viewBox="0 0 121.19 120" style="enable-background:new 0 0 121.19 120;" xml:space="preserve">
<style type="text/css">
	.st0{fill:#60A1E1;}
</style>
<g>
	<path class="st0" d="M70.83,2.44c-13.47,0-24.43,10.96-24.43,24.43s10.96,24.43,24.43,24.43c13.47,0,24.43-10.96,24.43-24.43
		S84.3,2.44,70.83,2.44z M70.83,48.65c-12.01,0-21.78-9.77-21.78-21.78c0-12.01,9.77-21.78,21.78-21.78
		c12.01,0,21.78,9.77,21.78,21.78C92.61,38.88,82.84,48.65,70.83,48.65z"/>
	<path class="st0" d="M82.63,95.81c5.23,0,10.17-2.01,13.92-5.66c0.08-0.08,0.85-1,3.84-4.58l17.05-20.39
		c2.99-3.54,2.54-8.86-1-11.85c-3.51-2.96-8.8-2.53-11.8,0.94L90.34,68.99l-0.59-0.73c-1.62-1.99-4-3.13-6.54-3.13l-26.09-0.06
		c-3.56-1.49-7.35-2.25-11.25-2.25c-11.16,0-20.39,5.23-25.32,14.34l-0.29,0.54l-0.6-0.12c-0.37-0.07-0.75-0.11-1.13-0.11
		c-1.62,0-3.15,0.64-4.31,1.79L3.24,90.28c-0.57,0.57-0.57,1.51,0,2.08l25.94,26.14c0.57,0.58,1.5,0.58,2.08,0.01l11.21-11.04
		c1.63-1.63,2.19-4.1,1.44-6.31l-0.17-0.5l2.79-2.69c1.45-1.4,3.37-2.18,5.39-2.18H82.63z M40.38,105.39L40.38,105.39l-10.15,10
		L6.36,91.33l9.95-9.98c1.04-1.04,2.64-1.22,3.89-0.44c0.29,0.16,0.29,0.16,4.29,4.18l0.64,0.65c2.87,2.88,7.55,7.56,15.22,15.22
		c0.59,0.59,0.92,1.38,0.92,2.22C41.29,104.01,40.96,104.81,40.38,105.39z M44.47,95.86l-2.55,2.46l-0.26-0.26L22.8,79.21l0.29-0.54
		c4.37-8.19,12.67-12.89,22.78-12.89c3.66,0,7.19,0.74,10.51,2.19c0.19,0.08,0.39,0.12,0.59,0.12h26.24c3.01,0,5.46,2.45,5.46,5.46
		s-2.45,5.46-5.46,5.46H64.36c-0.81,0-1.48,0.66-1.48,1.48c0,0.81,0.66,1.48,1.48,1.48h18.85c4.64,0,8.41-3.77,8.41-8.41
		c0-0.36-0.02-0.72-0.07-1.1l-0.05-0.4l10.72-11.02c3.52-3.62,4.58-4.71,4.66-4.8c1.94-2.29,5.39-2.58,7.68-0.64
		c2.3,1.94,2.58,5.4,0.64,7.7l-20.75,24.8c-3.2,3.08-7.4,4.77-11.81,4.77H51.91C49.12,92.86,46.48,93.92,44.47,95.86z"/>
</g>
</svg>
