<?xml version="1.0" encoding="utf-8"?>
<!-- Generator: Adobe Illustrator 23.0.0, SVG Export Plug-In . SVG Version: 6.00 Build 0)  -->
<svg version="1.1" id="Capa_1" xmlns="http://www.w3.org/2000/svg" xmlns:xlink="http://www.w3.org/1999/xlink" x="0px" y="0px"
	 viewBox="0 0 119.32 121.53" style="enable-background:new 0 0 119.32 121.53;" xml:space="preserve">
<style type="text/css">
	.st0{fill:#FFFFFF;}
</style>
<g>
	<g>
		<path class="st0" d="M68.48,3.22c-13.47,0-24.43,10.96-24.43,24.43s10.96,24.43,24.43,24.43c13.47,0,24.43-10.96,24.43-24.43
			S81.95,3.22,68.48,3.22z M68.48,49.43c-12.01,0-21.78-9.77-21.78-21.78c0-12.01,9.77-21.78,21.78-21.78
			c12.01,0,21.78,9.77,21.78,21.78C90.26,39.66,80.49,49.43,68.48,49.43z"/>
		<path class="st0" d="M80.28,96.59c5.23,0,10.17-2.01,13.92-5.66c0.08-0.08,0.85-1,3.84-4.58l17.05-20.39
			c2.99-3.54,2.54-8.86-1-11.85c-3.51-2.96-8.8-2.53-11.8,0.94L87.99,69.77l-0.59-0.73c-1.62-1.99-4-3.13-6.54-3.13l-26.09-0.06
			c-3.56-1.49-7.35-2.25-11.25-2.25c-11.16,0-20.39,5.23-25.32,14.34l-0.29,0.54l-0.6-0.12c-0.37-0.07-0.75-0.11-1.13-0.11
			c-1.62,0-3.15,0.64-4.31,1.79L0.89,91.07c-0.57,0.57-0.57,1.51,0,2.08l25.94,26.14c0.57,0.58,1.5,0.58,2.08,0.01l11.21-11.04
			c1.63-1.63,2.19-4.1,1.44-6.31l-0.17-0.5l2.79-2.69c1.45-1.4,3.37-2.18,5.39-2.18H80.28z M38.04,106.18L38.04,106.18l-10.15,10
			L4.02,92.12l9.95-9.98c1.04-1.04,2.64-1.22,3.89-0.44c0.29,0.16,0.29,0.16,4.29,4.18l0.64,0.65c2.87,2.88,7.55,7.56,15.22,15.22
			c0.59,0.59,0.92,1.38,0.92,2.22C38.94,104.79,38.61,105.6,38.04,106.18z M42.13,96.65l-2.55,2.46l-0.26-0.26L20.45,79.99
			l0.29-0.54c4.37-8.19,12.67-12.89,22.78-12.89c3.66,0,7.19,0.74,10.51,2.19c0.19,0.08,0.39,0.12,0.59,0.12h26.24
			c3.01,0,5.46,2.45,5.46,5.46s-2.45,5.46-5.46,5.46H62.01c-0.81,0-1.48,0.66-1.48,1.48c0,0.81,0.66,1.48,1.48,1.48h18.85
			c4.64,0,8.41-3.77,8.41-8.41c0-0.36-0.02-0.72-0.07-1.1l-0.05-0.4l10.72-11.02c3.52-3.62,4.58-4.71,4.66-4.8
			c1.94-2.29,5.39-2.58,7.68-0.64c2.3,1.94,2.58,5.4,0.64,7.7l-20.75,24.8c-3.2,3.08-7.4,4.77-11.81,4.77H49.57
			C46.77,93.64,44.13,94.71,42.13,96.65z"/>
	</g>
	<g>
		<path class="st0" d="M68.01,43.45c1.07,0,1.94-0.87,1.94-1.94v-2.97l0.25-0.09c2.61-0.93,4.37-3.41,4.37-6.18
			c0-3.62-2.94-6.56-6.56-6.56c-1.48,0-2.68-1.2-2.68-2.68c0-1.48,1.2-2.69,2.68-2.69c0.92,0,1.87,0.45,2.76,1.31
			c0.37,0.36,0.82,0.56,1.38,0.54c0.52-0.01,1-0.22,1.36-0.59s0.55-0.86,0.54-1.38c-0.01-0.52-0.22-1-0.59-1.36
			c-1-0.97-2.1-1.65-3.26-2.04l-0.26-0.08v-2.96c0-1.07-0.87-1.94-1.94-1.94c-1.07,0-1.93,0.87-1.93,1.94v2.97l-0.25,0.09
			c-2.61,0.93-4.37,3.41-4.37,6.18c0,3.62,2.94,6.56,6.56,6.56c1.48,0,2.69,1.21,2.69,2.69c0,1.48-1.21,2.68-2.69,2.68
			c-1.1,0-2.27-0.67-3.29-1.88c-0.38-0.45-0.93-0.69-1.48-0.69c-0.44,0-0.88,0.15-1.25,0.45c-0.82,0.69-0.92,1.91-0.24,2.73
			c1.17,1.4,2.58,2.4,4.06,2.9l0.26,0.09v2.97C66.08,42.58,66.95,43.45,68.01,43.45z"/>
		<g>
			<path class="st0" d="M68.02,44.28c-1.53,0-2.77-1.24-2.77-2.77v-2.37c-1.51-0.58-2.93-1.62-4.12-3.04
				c-0.98-1.17-0.83-2.92,0.34-3.9c1.17-0.98,2.92-0.83,3.9,0.34c0.86,1.02,1.8,1.58,2.65,1.58c1.02,0,1.85-0.83,1.85-1.85
				c0-1.02-0.83-1.85-1.85-1.85c-4.07,0-7.39-3.32-7.39-7.39c0-3.01,1.84-5.73,4.62-6.85v-2.39c0-1.53,1.24-2.77,2.77-2.77
				c1.53,0,2.77,1.24,2.77,2.77v2.37c1.17,0.44,2.26,1.15,3.26,2.12c0.53,0.51,0.83,1.21,0.84,1.94c0.01,0.74-0.26,1.44-0.78,1.97
				c-0.51,0.53-1.2,0.83-1.94,0.84c-0.02,0-0.03,0-0.05,0c-0.72,0-1.4-0.28-1.92-0.78c-0.73-0.71-1.48-1.08-2.18-1.08
				c-1.02,0-1.85,0.83-1.85,1.85c0,1.02,0.83,1.85,1.85,1.85c4.08,0,7.39,3.32,7.39,7.39c0,3.01-1.84,5.73-4.62,6.85v2.39
				C70.79,43.04,69.54,44.28,68.02,44.28z M63.25,32.47c-0.42,0-0.84,0.14-1.19,0.43c-0.78,0.66-0.88,1.83-0.22,2.61
				c1.16,1.38,2.55,2.38,4.02,2.87l0.31,0.11v3.03c0,1.02,0.83,1.85,1.85,1.85c1.02,0,1.85-0.83,1.85-1.85v-3.03l0.31-0.11
				c2.58-0.91,4.32-3.37,4.32-6.1c0-3.57-2.9-6.47-6.47-6.47c-1.53,0-2.77-1.24-2.77-2.77c0-1.53,1.24-2.77,2.77-2.77
				c0.94,0,1.92,0.46,2.82,1.34c0.73,0.71,1.91,0.69,2.62-0.04c0.34-0.36,0.53-0.82,0.52-1.32c-0.01-0.5-0.21-0.96-0.56-1.3
				c-0.99-0.96-2.08-1.64-3.23-2.02l-0.31-0.1v-3.02c0-1.02-0.83-1.85-1.85-1.85c-1.02,0-1.85,0.83-1.85,1.85v3.03l-0.31,0.11
				c-2.58,0.92-4.31,3.37-4.31,6.1c0,3.57,2.9,6.47,6.47,6.47c1.53,0,2.77,1.24,2.77,2.77c0,1.53-1.24,2.77-2.77,2.77
				c-1.13,0-2.32-0.68-3.35-1.91C64.3,32.7,63.77,32.47,63.25,32.47z"/>
			<path class="st0" d="M68.02,44.66c-1.73,0-3.15-1.41-3.15-3.15v-2.12c-1.48-0.61-2.87-1.66-4.03-3.05
				c-1.12-1.33-0.94-3.31,0.38-4.43c1.33-1.12,3.31-0.94,4.43,0.38c0.78,0.93,1.62,1.45,2.36,1.45c0.81,0,1.48-0.66,1.48-1.47
				c0-0.81-0.66-1.48-1.48-1.48c-4.28,0-7.77-3.48-7.77-7.77c0-3.09,1.8-5.85,4.62-7.1v-2.14c0-1.74,1.41-3.15,3.15-3.15
				s3.14,1.41,3.14,3.15v2.11c1.12,0.46,2.18,1.17,3.15,2.11c0.6,0.58,0.94,1.37,0.96,2.21c0.01,0.84-0.3,1.63-0.88,2.24
				c-0.58,0.6-1.37,0.94-2.21,0.96c0,0,0,0,0,0c-0.87,0-1.65-0.31-2.24-0.88c-0.66-0.64-1.32-0.97-1.92-0.97
				c-0.81,0-1.48,0.66-1.48,1.48c0,0.81,0.66,1.48,1.48,1.48c4.28,0,7.77,3.48,7.77,7.77c0,3.09-1.81,5.85-4.62,7.1v2.14
				C71.16,43.25,69.75,44.66,68.02,44.66z M63.25,31.93c-0.54,0-1.09,0.18-1.54,0.56c-1.01,0.85-1.14,2.36-0.29,3.37
				c1.15,1.36,2.52,2.38,3.96,2.93l0.24,0.09v2.63c0,1.32,1.07,2.4,2.4,2.4c1.32,0,2.39-1.07,2.39-2.4v-2.64l0.23-0.09
				c2.67-1.08,4.39-3.63,4.39-6.5c0-3.87-3.15-7.02-7.02-7.02c-1.23,0-2.23-1-2.23-2.23c0-1.23,1-2.23,2.23-2.23
				c0.8,0,1.64,0.41,2.44,1.19c0.45,0.43,1.04,0.67,1.66,0.67c0.68-0.01,1.28-0.27,1.72-0.73c0.45-0.46,0.68-1.07,0.67-1.71
				c-0.01-0.64-0.27-1.24-0.73-1.68c-0.96-0.93-2.02-1.62-3.13-2.04l-0.24-0.09v-2.62c0-1.32-1.07-2.4-2.39-2.4
				c-1.32,0-2.4,1.08-2.4,2.4v2.64l-0.23,0.09c-2.66,1.08-4.39,3.63-4.39,6.5c0,3.87,3.15,7.02,7.02,7.02c1.23,0,2.23,1,2.23,2.23
				c0,1.23-1,2.22-2.23,2.22c-0.96,0-2.01-0.61-2.94-1.72C64.61,32.22,63.93,31.93,63.25,31.93z M68.02,43.74
				c-1.23,0-2.23-1-2.23-2.23v-2.76l-0.06-0.02c-1.53-0.51-2.98-1.55-4.19-2.98c-0.79-0.94-0.67-2.34,0.27-3.14
				c0.91-0.76,2.38-0.63,3.14,0.27c0.96,1.15,2.05,1.78,3.06,1.78c1.32,0,2.39-1.07,2.39-2.39c0-1.32-1.07-2.39-2.39-2.39
				c-3.78,0-6.85-3.07-6.85-6.85c0-2.89,1.83-5.49,4.56-6.46l0.06-0.02v-2.77c0-1.23,1-2.23,2.23-2.23s2.23,1,2.23,2.23v2.75
				l0.06,0.02c1.21,0.4,2.34,1.11,3.37,2.11c0.43,0.41,0.67,0.97,0.68,1.56c0.01,0.6-0.21,1.16-0.63,1.58
				c-0.41,0.43-0.97,0.67-1.56,0.68c-0.61,0.03-1.16-0.21-1.59-0.63c-0.83-0.81-1.72-1.23-2.56-1.23c-1.32,0-2.4,1.08-2.4,2.4
				c0,1.32,1.07,2.39,2.4,2.39c3.78,0,6.85,3.07,6.85,6.85c0,2.89-1.83,5.49-4.57,6.45l-0.06,0.02v2.77
				C70.24,42.74,69.24,43.74,68.02,43.74z M63.25,32.85c-0.35,0-0.68,0.12-0.95,0.34c-0.62,0.52-0.7,1.46-0.18,2.08
				c1.12,1.33,2.45,2.28,3.85,2.75l0.57,0.19v3.3c0,0.81,0.66,1.48,1.48,1.48s1.48-0.66,1.48-1.48v-3.3l0.56-0.2
				c2.43-0.86,4.07-3.17,4.07-5.75c0-3.36-2.74-6.1-6.1-6.1c-1.73,0-3.15-1.41-3.15-3.14c0-1.74,1.41-3.15,3.15-3.15
				c1.04,0,2.11,0.5,3.08,1.44c0.28,0.27,0.65,0.39,1.05,0.42c0.39-0.01,0.76-0.17,1.04-0.45c0.27-0.28,0.42-0.66,0.42-1.05
				c-0.01-0.39-0.17-0.76-0.45-1.04c-0.95-0.92-1.99-1.57-3.08-1.94l-0.57-0.19v-3.29c0-0.81-0.66-1.48-1.48-1.48
				s-1.48,0.66-1.48,1.48v3.29l-0.56,0.2c-2.43,0.86-4.06,3.17-4.06,5.75c0,3.36,2.74,6.1,6.1,6.1c1.73,0,3.14,1.41,3.14,3.14
				c0,1.73-1.41,3.14-3.14,3.14c-1.24,0-2.53-0.73-3.64-2.04C64.1,33.04,63.68,32.85,63.25,32.85z"/>
		</g>
	</g>
</g>
</svg>
