<?xml version="1.0" encoding="utf-8"?>
<!-- Generator: Adobe Illustrator 23.0.0, SVG Export Plug-In . SVG Version: 6.00 Build 0)  -->
<svg version="1.1" id="Capa_1" xmlns="http://www.w3.org/2000/svg" xmlns:xlink="http://www.w3.org/1999/xlink" x="0px" y="0px"
	 viewBox="0 0 34.04 32.77" style="enable-background:new 0 0 34.04 32.77;" xml:space="preserve">
<style type="text/css">
	.st0{fill:#5F9FDF;}
</style>
<g>
	<g>
		<path class="st0" d="M33,14.97c0-6.47-5.26-11.73-11.73-11.73c-6.47,0-11.73,5.26-11.73,11.73S14.81,26.7,21.27,26.7
			C27.74,26.7,33,21.44,33,14.97z M21.27,25.59c-5.86,0-10.62-4.76-10.62-10.62S15.42,4.35,21.27,4.35
			c5.86,0,10.62,4.76,10.62,10.62S27.13,25.59,21.27,25.59z"/>
	</g>
	<g>
		<path class="st0" d="M0.66,29.76c0-0.38,0.17-0.75,0.49-1.01l9.78-7.71c0.56-0.44,1.36-0.34,1.8,0.21
			c0.44,0.56,0.34,1.36-0.21,1.8l-9.78,7.71c-0.56,0.44-1.36,0.34-1.8-0.21C0.75,30.32,0.66,30.04,0.66,29.76z"/>
	</g>
</g>
</svg>
