<?xml version="1.0" encoding="utf-8"?>
<!-- Generator: Adobe Illustrator 23.0.0, SVG Export Plug-In . SVG Version: 6.00 Build 0)  -->
<svg version="1.1" id="Capa_1" xmlns="http://www.w3.org/2000/svg" xmlns:xlink="http://www.w3.org/1999/xlink" x="0px" y="0px"
	 viewBox="0 0 85.96 99.74" style="enable-background:new 0 0 85.96 99.74;" xml:space="preserve">
<style type="text/css">
	.st0{fill:#FFFFFF;}
</style>
<g>
	<g>
		<path class="st0" d="M3.21,22.23v62.64c0,7.1,5.78,12.87,12.89,12.87h54.22c7.11,0,12.9-5.78,12.9-12.87V22.23
			c0-7.1-5.79-12.87-12.9-12.87h-1.63V3.55c0-0.57-0.46-1.04-1.03-1.04c-0.57,0-1.04,0.47-1.04,1.04v5.81h-6.07V3.55
			c0-0.57-0.47-1.04-1.04-1.04c-0.57,0-1.04,0.47-1.04,1.04v5.81H52.4V3.55c0-0.57-0.47-1.04-1.04-1.04c-0.57,0-1.04,0.47-1.04,1.04
			v5.81h-6.07V3.55c0-0.57-0.47-1.04-1.04-1.04c-0.57,0-1.03,0.47-1.03,1.04v5.81H36.1V3.55c0-0.57-0.47-1.04-1.04-1.04
			c-0.57,0-1.04,0.47-1.04,1.04v5.81h-6.07V3.55c0-0.57-0.46-1.04-1.03-1.04c-0.57,0-1.04,0.47-1.04,1.04v5.81h-6.07V3.55
			c0-0.57-0.47-1.04-1.04-1.04c-0.57,0-1.04,0.47-1.04,1.04v5.81H16.1C8.99,9.36,3.21,15.14,3.21,22.23z M18.77,17.21
			c0.57,0,1.04-0.46,1.04-1.04v-4.74h6.07v4.74c0,0.57,0.47,1.04,1.04,1.04c0.57,0,1.03-0.46,1.03-1.04v-4.74h6.07v4.74
			c0,0.57,0.47,1.04,1.04,1.04c0.57,0,1.04-0.46,1.04-1.04v-4.74h6.07v4.74c0,0.57,0.46,1.04,1.03,1.04c0.57,0,1.04-0.46,1.04-1.04
			v-4.74h6.07v4.74c0,0.57,0.47,1.04,1.04,1.04c0.57,0,1.04-0.46,1.04-1.04v-4.74h6.07v4.74c0,0.57,0.47,1.04,1.04,1.04
			c0.57,0,1.04-0.46,1.04-1.04v-4.74h6.07v4.74c0,0.57,0.47,1.04,1.04,1.04c0.57,0,1.03-0.46,1.03-1.04v-4.74h1.63
			c5.96,0,10.82,4.85,10.82,10.8v62.64c0,5.95-4.85,10.79-10.82,10.79H16.1c-5.96,0-10.81-4.84-10.81-10.79V22.23
			c0-5.96,4.85-10.8,10.81-10.8h1.63v4.74C17.73,16.75,18.2,17.21,18.77,17.21z"/>
	</g>
	<g>
		<polygon class="st0" points="59.73,43.53 35.82,67.42 26.88,58.48 25.72,59.64 35.82,69.74 60.9,44.69 		"/>
	</g>
</g>
</svg>
