<?xml version="1.0" encoding="utf-8"?>
<!-- Generator: Adobe Illustrator 23.0.0, SVG Export Plug-In . SVG Version: 6.00 Build 0)  -->
<svg version="1.1" id="Capa_1" xmlns="http://www.w3.org/2000/svg" xmlns:xlink="http://www.w3.org/1999/xlink" x="0px" y="0px"
	 viewBox="0 0 22.72 18.38" style="enable-background:new 0 0 22.72 18.38;" xml:space="preserve">
<style type="text/css">
	.st0{fill:#60A3E3;}
	.st1{fill:#29A8DF;}
	.st2{fill:#60A3E3;stroke:#29A8DF;stroke-width:0.5;stroke-miterlimit:10;}
</style>
<g>
	<g>
		<path class="st0" d="M13.68,14.56c-3.73,0-6.76-3.03-6.76-6.76s3.03-6.76,6.76-6.76c3.73,0,6.76,3.03,6.76,6.76
			S17.4,14.56,13.68,14.56z M13.68,1.21c-3.64,0-6.59,2.96-6.59,6.59s2.96,6.6,6.59,6.6c3.64,0,6.59-2.96,6.59-6.6
			S17.31,1.21,13.68,1.21z"/>
		<path class="st1" d="M13.68,0.8c-3.86,0-7.01,3.14-7.01,7.01c0,3.86,3.14,7.01,7.01,7.01c3.86,0,7.01-3.14,7.01-7.01
			C20.68,3.94,17.54,0.8,13.68,0.8L13.68,0.8z M13.68,14.15c-3.5,0-6.34-2.85-6.34-6.34c0-3.5,2.85-6.34,6.34-6.34
			c3.5,0,6.34,2.85,6.34,6.34C20.02,11.31,17.18,14.15,13.68,14.15L13.68,14.15z"/>
	</g>
	<g>
		<path class="st2" d="M1.36,16.64c0-0.23,0.1-0.45,0.29-0.6l5.84-4.61c0.33-0.26,0.81-0.21,1.08,0.13
			c0.26,0.33,0.21,0.81-0.13,1.08L2.6,17.24c-0.33,0.26-0.81,0.21-1.08-0.13C1.42,16.97,1.36,16.81,1.36,16.64z"/>
	</g>
</g>
</svg>
