<?xml version="1.0" encoding="utf-8"?>
<!-- Generator: Adobe Illustrator 23.0.0, SVG Export Plug-In . SVG Version: 6.00 Build 0)  -->
<svg version="1.1" id="Capa_1" xmlns="http://www.w3.org/2000/svg" xmlns:xlink="http://www.w3.org/1999/xlink" x="0px" y="0px"
	 viewBox="0 0 318.3 66.89" style="enable-background:new 0 0 318.3 66.89;" xml:space="preserve">
<style type="text/css">
	.st0{fill:#EAEBEB;}
	.st1{fill:#6C8A4A;}
	.st2{fill:#5F7B41;}
	.st3{fill:#F8F8F8;}
	.st4{fill-rule:evenodd;clip-rule:evenodd;fill:#5F80BA;}
	.st5{fill-rule:evenodd;clip-rule:evenodd;fill:#FFFFFF;}
	.st6{fill:#E5E4DC;}
	.st7{fill:#D4D3C6;}
	.st8{fill:#98A0A0;}
	.st9{fill:#FFFFFF;}
	.st10{fill:#BEB9B4;}
	.st11{fill:#E7E6DE;}
	.st12{fill:#D6D5C8;}
	.st13{fill:#B14C4D;}
</style>
<g>
	<g>
		<g>
			<g>
				<path class="st0" d="M157.53,54.44h-26.65c-1.05,0-1.9-0.85-1.9-1.9c0-1.05,0-37.02,0-38.07s0.85-1.9,1.9-1.9h26.65
					c1.05,0,1.9,0.85,1.9,1.9v38.07C159.43,53.59,158.58,54.44,157.53,54.44z"/>
				<g>
					<path class="st1" d="M138.49,23.99h-7.61c-1.05,0-1.9-0.85-1.9-1.9s0.85-1.9,1.9-1.9h7.61c1.05,0,1.9,0.85,1.9,1.9
						S139.54,23.99,138.49,23.99z"/>
					<path class="st1" d="M138.49,31.6h-7.61c-1.05,0-1.9-0.85-1.9-1.9s0.85-1.9,1.9-1.9h7.61c1.05,0,1.9,0.85,1.9,1.9
						S139.54,31.6,138.49,31.6z"/>
					<path class="st1" d="M138.49,39.22h-7.61c-1.05,0-1.9-0.85-1.9-1.9c0-1.05,0.85-1.9,1.9-1.9h7.61c1.05,0,1.9,0.85,1.9,1.9
						C140.4,38.36,139.54,39.22,138.49,39.22z"/>
					<path class="st1" d="M138.49,46.83h-7.61c-1.05,0-1.9-0.85-1.9-1.9c0-1.05,0.85-1.9,1.9-1.9h7.61c1.05,0,1.9,0.85,1.9,1.9
						C140.4,45.98,139.54,46.83,138.49,46.83z"/>
					<path class="st1" d="M149.91,23.99h-3.81c-1.05,0-1.9-0.85-1.9-1.9s0.85-1.9,1.9-1.9h3.81c1.05,0,1.9,0.85,1.9,1.9
						S150.96,23.99,149.91,23.99z"/>
					<path class="st1" d="M149.91,31.6h-3.81c-1.05,0-1.9-0.85-1.9-1.9s0.85-1.9,1.9-1.9h3.81c1.05,0,1.9,0.85,1.9,1.9
						S150.96,31.6,149.91,31.6z"/>
					<path class="st1" d="M149.91,39.22h-3.81c-1.05,0-1.9-0.85-1.9-1.9c0-1.05,0.85-1.9,1.9-1.9h3.81c1.05,0,1.9,0.85,1.9,1.9
						C151.82,38.36,150.96,39.22,149.91,39.22z"/>
					<path class="st1" d="M149.91,46.83h-3.81c-1.05,0-1.9-0.85-1.9-1.9c0-1.05,0.85-1.9,1.9-1.9h3.81c1.05,0,1.9,0.85,1.9,1.9
						C151.82,45.98,150.96,46.83,149.91,46.83z"/>
				</g>
				<path class="st2" d="M132.09,5.39c-0.43-0.36-1.02-0.52-1.56-0.4l-30.45,5.71c-0.9,0.17-1.55,0.95-1.55,1.87v41.88
					c0,0.91,0.65,1.7,1.55,1.87l30.45,5.71c0.11,0.02,0.23,0.03,0.35,0.03c0.44,0,0.87-0.15,1.21-0.44c0.44-0.36,0.69-0.9,0.69-1.47
					V6.86C132.78,6.29,132.53,5.75,132.09,5.39z"/>
				<path class="st3" d="M124.7,39.87l-6.02-6.88l6.09-7.83c0.65-0.83,0.49-2.03-0.33-2.67c-0.83-0.65-2.02-0.49-2.67,0.33
					l-5.64,7.25l-4.75-5.43c-0.7-0.8-1.9-0.87-2.68-0.18c-0.79,0.69-0.87,1.9-0.18,2.68l5.23,5.98l-5.31,6.82
					c-0.65,0.83-0.49,2.03,0.33,2.67c0.35,0.27,0.77,0.4,1.17,0.4c0.57,0,1.13-0.25,1.5-0.73l4.85-6.24l5.54,6.32
					c0.38,0.43,0.9,0.65,1.43,0.65c0.45,0,0.89-0.16,1.25-0.47C125.31,41.86,125.39,40.66,124.7,39.87z"/>
			</g>
			<g id="layer1_1_" transform="translate(0,-992.36218)">
				<g id="g3343_1_" transform="matrix(0.96778326,0,0,0.96778326,4.2163353,39.614979)">
					<g id="g3128_1_" transform="matrix(0.15227353,0,0,0.15227353,-50.593719,968.83104)">
						<path id="path3130_1_" class="st4" d="M536.18,136.27c-107.06,0-193.84,86.73-193.84,193.74c0,13.63,1.42,26.92,4.1,39.76
							c17.03-4.63,34.95-7.11,53.45-7.11c29.65,0,57.81,6.34,83.22,17.75c33.25-23.71,74-37.66,117.97-37.66
							c27.53,0,53.79,5.48,77.72,15.39c0.13,0.05,0.24,0.1,0.37,0.15c0.99,0.49,1.69,1.5,1.69,2.7c0,1.66-1.35,3.01-3.02,3.01
							c-0.06,0-2.94-0.22-4.32-0.31c-4.77-0.34-9.61-0.52-14.46-0.52c-67.96,0-129.04,24.96-166.07,75.59
							c-0.59,0.8-1.75,2.44-1.77,2.44c-0.54,0.68-1.38,1.12-2.32,1.12c-0.77,0-1.45-0.28-1.96-0.76c-0.09-0.06-0.18-0.15-0.26-0.23
							c-35.14-33.04-81.43-46.12-133.38-47.03c26.53,75.4,98.36,129.48,182.87,129.48c107.06,0,193.86-86.75,193.86-193.75
							C730.03,223,643.23,136.27,536.18,136.27L536.18,136.27z M687.94,252.22c-0.68-0.07-1.84-0.26-2.59-0.36
							c-2.15-0.34-4.34-0.61-6.54-0.83c-39.53-3.73-76.32,7.25-100.32,35.06c-1,1.03-1.89,1.08-2.88,0.05
							c-19.08-21.64-46.26-31.24-77.45-34.2c-11.11-1.06-22.03-0.5-32.48,1.44c-0.04,0-0.09,0-0.14,0.02c-0.1,0-0.21,0.03-0.33,0.03
							c-1.12,0-2.01-0.91-2.01-2.02c0-0.65,0.32-1.22,0.78-1.58c0.19-0.11,0.38-0.23,0.57-0.32c19.46-10.18,41.95-15.06,65.43-12.83
							c17.03,1.61,32.87,6.78,46.83,14.7c20.4-11.82,44.55-17.62,69.81-15.23c14.3,1.35,27.76,5.23,39.98,11.11
							c0.75,0.38,1.52,0.75,2.28,1.16c0.75,0.37,1.08,1.01,1.08,1.79C689.96,251.32,689.25,252.37,687.94,252.22z"/>
						<path id="path3132_1_" class="st5" d="M688.86,248.42c-0.75-0.41-1.53-0.78-2.28-1.16c-12.22-5.88-25.68-9.76-39.98-11.11
							c-25.26-2.39-49.41,3.41-69.81,15.23c-13.96-7.92-29.8-13.09-46.83-14.7c-23.48-2.22-45.97,2.65-65.43,12.83
							c-0.19,0.09-0.38,0.21-0.57,0.32c-0.46,0.36-0.78,0.93-0.78,1.58c0,1.11,0.89,2.02,2.01,2.02c0.12,0,0.23-0.03,0.33-0.03
							c0.05-0.02,0.1-0.02,0.14-0.02c10.45-1.94,21.37-2.5,32.48-1.44c31.19,2.95,58.37,12.56,77.45,34.2
							c0.99,1.02,1.87,0.97,2.88-0.05c24-27.81,60.79-38.78,100.32-35.06c2.2,0.21,4.38,0.49,6.54,0.83
							c0.75,0.1,1.91,0.29,2.59,0.36c1.31,0.16,2.02-0.89,2.02-2C689.95,249.44,689.61,248.8,688.86,248.42z"/>
						<path id="path3134_1_" class="st5" d="M486.94,441.54c0.52,0.48,1.2,0.76,1.96,0.76c0.93,0,1.78-0.44,2.32-1.12
							c0.01,0,1.17-1.63,1.77-2.44c37.04-50.63,98.11-75.59,166.07-75.59c4.84,0,9.69,0.18,14.46,0.52
							c1.38,0.09,4.26,0.31,4.32,0.31c1.67,0,3.02-1.35,3.02-3.01c0-1.2-0.7-2.21-1.69-2.7c-0.13-0.05-0.24-0.1-0.37-0.15
							c-23.93-9.91-50.19-15.39-77.72-15.39c-43.98,0-84.7,13.95-117.98,37.66c-25.41-11.41-53.56-17.75-83.22-17.75
							c-18.5,0-36.42,2.48-53.45,7.11c1.75,8.39,4.07,16.56,6.87,24.51c51.96,0.91,98.24,13.99,133.38,47.03
							C486.76,441.39,486.85,441.48,486.94,441.54z"/>
					</g>
				</g>
			</g>
		</g>
		<g>
			<path class="st6" d="M223.19,6.22h-28.93c-0.81,0-1.46,0.65-1.46,1.92v52.92c0,0.35,0.65,1,1.46,1h39.95c0.8,0,1.46-0.65,1.46-1
				v-41.9c0-0.7-0.09-0.92-0.25-1.08l-11.6-11.6C223.64,6.32,223.42,6.22,223.19,6.22L223.19,6.22z M223.19,6.22"/>
			<path class="st7" d="M223.7,6.37v11.82h11.81L223.7,6.37z M223.7,6.37"/>
			<path class="st8" d="M234.21,62.06h-39.95c-0.81,0-1.46-0.65-1.46-1.46V45.11h42.87V60.6C235.66,61.41,235.01,62.06,234.21,62.06
				L234.21,62.06z M234.21,62.06"/>
			<path class="st9" d="M208.11,49.02v1.11h-3v8.93h-1.65v-8.93h-3v-1.11H208.11z M208.11,49.02"/>
			<path class="st9" d="M214.67,54.19l2.55,4.88h-1.9l-1.59-3.79h-0.14l-1.72,3.79h-1.89l2.55-4.88l-2.72-5.16h1.87l1.77,4.09h0.14
				l1.92-4.09h1.86L214.67,54.19z M214.67,54.19"/>
			<path class="st9" d="M226.72,49.02v1.11h-3v8.93h-1.65v-8.93h-3v-1.11H226.72z M226.72,49.02"/>
			<path class="st10" d="M204.76,19.18h-5.98c-0.55,0-1-0.44-1-0.99c0-0.55,0.45-1,1-1h5.98c0.55,0,0.99,0.45,0.99,1
				C205.75,18.74,205.31,19.18,204.76,19.18L204.76,19.18z M204.76,19.18"/>
			<path class="st10" d="M207.75,24.17h-8.97c-0.55,0-1-0.44-1-0.99c0-0.55,0.45-1,1-1h8.97c0.55,0,1,0.45,1,1
				C208.75,23.72,208.3,24.17,207.75,24.17L207.75,24.17z M207.75,24.17"/>
			<path class="st10" d="M211.74,24.17c-0.26,0-0.52-0.11-0.71-0.29c-0.18-0.19-0.29-0.44-0.29-0.71c0-0.27,0.11-0.52,0.3-0.71
				c0.36-0.37,1.04-0.37,1.41,0c0.17,0.19,0.29,0.45,0.29,0.71c0,0.26-0.11,0.52-0.29,0.71C212.26,24.06,211.99,24.17,211.74,24.17
				L211.74,24.17z M211.74,24.17"/>
			<path class="st10" d="M223.7,24.17h-7.98c-0.55,0-0.99-0.44-0.99-0.99c0-0.55,0.44-1,0.99-1h7.98c0.55,0,1,0.45,1,1
				C224.7,23.72,224.25,24.17,223.7,24.17L223.7,24.17z M223.7,24.17"/>
			<path class="st10" d="M198.78,39.12c-0.26,0-0.52-0.11-0.71-0.29c-0.18-0.19-0.29-0.45-0.29-0.71c0-0.26,0.11-0.52,0.29-0.71
				c0.37-0.37,1.05-0.37,1.42,0.01c0.18,0.18,0.29,0.44,0.29,0.7c0,0.26-0.11,0.52-0.29,0.71
				C199.29,39.02,199.04,39.12,198.78,39.12L198.78,39.12z M198.78,39.12"/>
			<path class="st10" d="M210.74,39.12h-7.97c-0.55,0-1-0.44-1-0.99c0-0.55,0.45-1,1-1h7.97c0.56,0,1,0.45,1,1
				C211.74,38.68,211.29,39.12,210.74,39.12L210.74,39.12z M210.74,39.12"/>
			<path class="st10" d="M229.69,24.17h-2c-0.55,0-1-0.44-1-0.99c0-0.55,0.45-1,1-1h2c0.55,0,0.99,0.45,0.99,1
				C230.68,23.72,230.24,24.17,229.69,24.17L229.69,24.17z M229.69,24.17"/>
			<path class="st10" d="M220.71,29.15h-21.93c-0.55,0-1-0.44-1-0.99c0-0.55,0.45-1,1-1h21.93c0.56,0,1,0.45,1,1
				C221.71,28.71,221.26,29.15,220.71,29.15L220.71,29.15z M220.71,29.15"/>
			<path class="st10" d="M229.69,29.15h-5.98c-0.55,0-1-0.44-1-0.99c0-0.55,0.45-1,1-1h5.98c0.55,0,0.99,0.45,0.99,1
				C230.68,28.71,230.24,29.15,229.69,29.15L229.69,29.15z M229.69,29.15"/>
			<path class="st10" d="M202.76,34.14h-3.99c-0.55,0-1-0.44-1-0.99c0-0.55,0.45-1,1-1h3.99c0.55,0,1,0.45,1,1
				C203.76,33.7,203.31,34.14,202.76,34.14L202.76,34.14z M202.76,34.14"/>
			<path class="st10" d="M216.72,34.14h-9.97c-0.55,0-1-0.44-1-0.99c0-0.55,0.45-1,1-1h9.97c0.55,0,1,0.45,1,1
				C217.72,33.7,217.27,34.14,216.72,34.14L216.72,34.14z M216.72,34.14"/>
			<path class="st10" d="M229.69,34.14h-8.98c-0.55,0-0.99-0.44-0.99-0.99c0-0.55,0.44-1,0.99-1h8.98c0.55,0,0.99,0.45,0.99,1
				C230.68,33.7,230.24,34.14,229.69,34.14L229.69,34.14z M229.69,34.14"/>
		</g>
	</g>
	<g>
		<path class="st11" d="M300.13,5.75h-29.59c-0.83,0-1.49,0.67-1.49,1.96v54.12c0,0.35,0.67,1.02,1.49,1.02h40.86
			c0.82,0,1.49-0.67,1.49-1.02V18.98c0-0.71-0.09-0.94-0.26-1.11L300.77,6.01C300.6,5.84,300.37,5.75,300.13,5.75L300.13,5.75z
			 M300.13,5.75"/>
		<path class="st12" d="M300.66,5.9v12.08h12.08L300.66,5.9z M300.66,5.9"/>
		<path class="st13" d="M282.32,39.73c-0.35,0-0.69-0.11-0.99-0.33c-1.06-0.8-1.21-1.68-1.14-2.29c0.18-1.66,2.24-3.4,6.1-5.17
			c1.53-3.36,2.99-7.5,3.86-10.96c-1.01-2.22-2.01-5.09-1.28-6.77c0.25-0.59,0.57-1.05,1.15-1.24c0.23-0.08,0.82-0.17,1.04-0.17
			c0.52,0,0.97,0.66,1.29,1.07c0.3,0.38,0.98,1.2-0.38,6.94c1.37,2.84,3.33,5.73,5.19,7.71c1.34-0.24,2.49-0.36,3.42-0.36
			c1.6,0,2.56,0.37,2.96,1.14c0.33,0.63,0.2,1.37-0.39,2.2c-0.57,0.8-1.35,1.22-2.27,1.22c-1.24,0-2.68-0.78-4.3-2.33
			c-2.89,0.61-6.27,1.68-9,2.88c-0.85,1.81-1.67,3.27-2.43,4.34C284.11,39.05,283.21,39.73,282.32,39.73L282.32,39.73z M285.03,34.5
			c-2.18,1.22-3.07,2.23-3.13,2.8c-0.02,0.09-0.04,0.34,0.44,0.71C282.49,37.96,283.38,37.55,285.03,34.5L285.03,34.5z
			 M298.94,29.97c0.83,0.64,1.04,0.97,1.58,0.97c0.24,0,0.92-0.01,1.23-0.45c0.15-0.21,0.21-0.35,0.23-0.42
			c-0.12-0.07-0.29-0.2-1.2-0.2C300.27,29.86,299.62,29.89,298.94,29.97L298.94,29.97z M291.32,23.26
			c-0.73,2.53-1.69,5.25-2.72,7.71c2.13-0.83,4.45-1.55,6.62-2.06C293.84,27.32,292.46,25.32,291.32,23.26L291.32,23.26z
			 M290.7,14.63c-0.1,0.03-1.35,1.79,0.1,3.28C291.77,15.75,290.75,14.61,290.7,14.63L290.7,14.63z M290.7,14.63"/>
		<path class="st13" d="M311.4,62.85h-40.86c-0.83,0-1.49-0.67-1.49-1.49V45.51h43.85v15.84C312.89,62.18,312.23,62.85,311.4,62.85
			L311.4,62.85z M311.4,62.85"/>
		<path class="st9" d="M280.15,59.79h-1.67V49.52h2.96c0.43,0,0.87,0.07,1.29,0.21c0.43,0.14,0.81,0.35,1.15,0.63
			c0.34,0.28,0.61,0.61,0.82,1.01c0.21,0.39,0.31,0.84,0.31,1.33c0,0.52-0.08,0.99-0.26,1.41c-0.17,0.42-0.42,0.78-0.74,1.07
			c-0.32,0.28-0.7,0.51-1.14,0.67c-0.44,0.16-0.94,0.24-1.48,0.24h-1.24V59.79z M280.15,50.79v4.07h1.53c0.2,0,0.41-0.03,0.61-0.1
			c0.2-0.07,0.38-0.18,0.55-0.34c0.16-0.15,0.3-0.38,0.4-0.66c0.1-0.28,0.15-0.64,0.15-1.06c0-0.16-0.03-0.36-0.07-0.58
			c-0.05-0.22-0.14-0.43-0.29-0.63c-0.15-0.2-0.34-0.37-0.61-0.5c-0.26-0.13-0.6-0.2-1.03-0.2H280.15z M280.15,50.79"/>
		<path class="st9" d="M295.27,54.37c0,0.85-0.09,1.57-0.27,2.17c-0.18,0.6-0.41,1.1-0.69,1.5c-0.28,0.4-0.59,0.72-0.94,0.96
			c-0.35,0.23-0.69,0.41-1.01,0.52c-0.32,0.11-0.62,0.19-0.89,0.22c-0.27,0.03-0.47,0.04-0.6,0.04h-3.89V49.52h3.1
			c0.86,0,1.62,0.13,2.28,0.41c0.66,0.27,1.2,0.64,1.63,1.1c0.43,0.45,0.76,0.98,0.97,1.55C295.17,53.16,295.27,53.75,295.27,54.37
			L295.27,54.37z M290.31,58.56c1.13,0,1.95-0.36,2.45-1.09c0.5-0.73,0.75-1.78,0.75-3.15c0-0.43-0.05-0.85-0.15-1.27
			c-0.1-0.42-0.3-0.8-0.59-1.13c-0.29-0.34-0.69-0.61-1.19-0.82c-0.5-0.21-1.15-0.31-1.95-0.31h-0.98v7.78H290.31z M290.31,58.56"/>
		<path class="st9" d="M299.4,50.79v3.23h4.29v1.15h-4.29v4.62h-1.7V49.52h6.43v1.27H299.4z M299.4,50.79"/>
	</g>
</g>
</svg>
