<?xml version="1.0" encoding="utf-8"?>
<!-- Generator: Adobe Illustrator 23.0.0, SVG Export Plug-In . SVG Version: 6.00 Build 0)  -->
<svg version="1.1" id="Capa_1" xmlns="http://www.w3.org/2000/svg" xmlns:xlink="http://www.w3.org/1999/xlink" x="0px" y="0px"
	 viewBox="0 0 31.15 29.45" style="enable-background:new 0 0 31.15 29.45;" xml:space="preserve">
<style type="text/css">
	.st0{fill:#5EA4CC;}
</style>
<g>
	<g>
		<g>
			<path class="st0" d="M27.9,22.89c0.05,0.42-0.07,0.79-0.38,1.1l-3.65,3.62c-0.16,0.18-0.38,0.34-0.64,0.47
				c-0.27,0.13-0.53,0.21-0.78,0.25c-0.02,0-0.07,0-0.16,0.01c-0.09,0.01-0.21,0.01-0.36,0.01c-0.35,0-0.91-0.06-1.69-0.18
				c-0.78-0.12-1.73-0.41-2.85-0.88c-1.12-0.47-2.4-1.17-3.83-2.1c-1.43-0.93-2.94-2.21-4.55-3.84c-1.28-1.26-2.34-2.47-3.18-3.62
				c-0.84-1.15-1.52-2.22-2.03-3.2c-0.51-0.98-0.9-1.87-1.15-2.66c-0.26-0.8-0.43-1.48-0.52-2.06C2.02,9.24,1.99,8.79,2,8.46
				c0.02-0.33,0.03-0.51,0.03-0.55C2.07,7.66,2.15,7.4,2.28,7.13c0.13-0.27,0.28-0.48,0.47-0.64l3.65-3.65
				c0.26-0.26,0.55-0.38,0.88-0.38c0.24,0,0.45,0.07,0.63,0.21C8.09,2.8,8.24,2.96,8.37,3.17l2.94,5.57
				c0.16,0.29,0.21,0.61,0.14,0.96c-0.07,0.35-0.23,0.64-0.47,0.88l-1.34,1.34c-0.04,0.04-0.07,0.1-0.1,0.18
				c-0.03,0.08-0.04,0.15-0.04,0.21c0.07,0.38,0.24,0.82,0.49,1.32c0.22,0.44,0.56,0.97,1.02,1.61c0.46,0.63,1.11,1.36,1.95,2.18
				c0.82,0.84,1.55,1.5,2.19,1.96c0.64,0.47,1.17,0.81,1.6,1.03c0.43,0.22,0.76,0.35,0.99,0.4l0.34,0.07c0.04,0,0.1-0.01,0.18-0.04
				c0.08-0.03,0.14-0.06,0.18-0.1L20,19.13c0.33-0.29,0.71-0.44,1.15-0.44c0.31,0,0.56,0.05,0.74,0.16h0.03l5.29,3.13
				C27.6,22.22,27.83,22.53,27.9,22.89L27.9,22.89z M27.9,22.89"/>
		</g>
	</g>
</g>
</svg>
