<?xml version="1.0" encoding="utf-8"?>
<!-- Generator: Adobe Illustrator 23.0.0, SVG Export Plug-In . SVG Version: 6.00 Build 0)  -->
<svg version="1.1" id="Capa_1" xmlns="http://www.w3.org/2000/svg" xmlns:xlink="http://www.w3.org/1999/xlink" x="0px" y="0px"
	 viewBox="0 0 34.04 29.96" style="enable-background:new 0 0 34.04 29.96;" xml:space="preserve">
<style type="text/css">
	.st0{fill:#2D9FD9;}
</style>
<g>
	<g>
		<path class="st0" d="M23.73,7.94c0.99,0,1.78-0.8,1.78-1.78V4.29c0-0.99-0.79-1.79-1.78-1.79c-0.99,0-1.79,0.8-1.79,1.79v1.87
			C21.94,7.14,22.74,7.94,23.73,7.94L23.73,7.94z M23.73,7.94"/>
		<path class="st0" d="M30.08,5.59h-3.59V6.5c0,1.5-1.22,2.72-2.72,2.72c-1.5,0-2.72-1.22-2.72-2.72V5.59h-7.26V6.5
			c0,1.5-1.22,2.72-2.72,2.72C9.56,9.22,8.34,8,8.34,6.5V5.59L4.71,5.55v22.72H28.3l1.82,0L30.08,5.59z M28.3,26.46H6.53V11.94H28.3
			V26.46z M28.3,26.46"/>
	</g>
	<path class="st0" d="M11.04,7.94c0.98,0,1.78-0.8,1.78-1.78V4.29c0-0.99-0.8-1.79-1.78-1.79c-0.99,0-1.79,0.8-1.79,1.79v1.87
		C9.25,7.14,10.05,7.94,11.04,7.94L11.04,7.94z M11.04,7.94"/>
	<rect x="13.79" y="13.89" class="st0" width="2.86" height="2.52"/>
	<rect x="18.41" y="13.89" class="st0" width="2.86" height="2.52"/>
	<rect x="22.7" y="13.89" class="st0" width="2.86" height="2.52"/>
	<rect x="13.79" y="18.08" class="st0" width="2.86" height="2.52"/>
	<rect x="18.41" y="18.08" class="st0" width="2.86" height="2.52"/>
	<rect x="22.7" y="18.08" class="st0" width="2.86" height="2.52"/>
	<rect x="13.79" y="22.36" class="st0" width="2.86" height="2.52"/>
	<rect x="9.25" y="18.08" class="st0" width="2.86" height="2.52"/>
	<rect x="9.25" y="22.36" class="st0" width="2.86" height="2.52"/>
	<rect x="18.41" y="22.36" class="st0" width="2.86" height="2.52"/>
	<rect x="22.7" y="22.36" class="st0" width="2.86" height="2.52"/>
</g>
</svg>
