<?xml version="1.0" encoding="utf-8"?>
<!-- Generator: Adobe Illustrator 23.0.0, SVG Export Plug-In . SVG Version: 6.00 Build 0)  -->
<svg version="1.1" id="Capa_1" xmlns="http://www.w3.org/2000/svg" xmlns:xlink="http://www.w3.org/1999/xlink" x="0px" y="0px"
	 viewBox="0 0 105.87 95.66" style="enable-background:new 0 0 105.87 95.66;" xml:space="preserve">
<style type="text/css">
	.st0{fill:#FFFFFF;}
</style>
<g>
	<g>
		<path class="st0" d="M69.54,27.62c-13.14,0-23.82,10.69-23.82,23.82c0,13.13,10.69,23.82,23.82,23.82s23.82-10.69,23.82-23.82
			C93.36,38.31,82.67,27.62,69.54,27.62z M91.1,51.44c0,11.89-9.68,21.57-21.57,21.57s-21.57-9.68-21.57-21.57
			c0-11.89,9.68-21.57,21.57-21.57S91.1,39.55,91.1,51.44z"/>
	</g>
	<g>
		<path class="st0" d="M73.06,85.89c0,2.4-1.94,4.34-4.33,4.34H9.67c-2.38,0-4.33-1.95-4.33-4.34V27.3h20.5
			c0.6,0,1.08-0.48,1.08-1.07V5.14h41.82c2.38,0,4.33,1.94,4.33,4.33v15.89h2.15V9.47c0-3.57-2.91-6.48-6.48-6.48h-42.9
			c-0.29,0-0.56,0.11-0.76,0.32L3.48,25.51c-0.02,0.03-0.04,0.06-0.08,0.13c-0.05,0.07-0.1,0.13-0.12,0.21
			c0,0.03-0.01,0.06-0.03,0.15c-0.02,0.08-0.05,0.16-0.05,0.23v59.69c0,3.56,2.91,6.46,6.48,6.46h59.07c3.57,0,6.48-2.91,6.48-6.48
			v-7.53h-2.15V85.89z M24.77,6.71v18.44H6.82l8.98-9.22L24.77,6.71z"/>
	</g>
	<g>
		<path class="st0" d="M49.39,32.81H13.13v2.48H47.3C47.94,34.42,48.64,33.59,49.39,32.81z"/>
	</g>
	<g>
		<path class="st0" d="M43.73,41.92h-30.6v2.48h29.82C43.17,43.56,43.43,42.73,43.73,41.92z"/>
	</g>
	<g>
		<path class="st0" d="M13.13,53.51h29.11c-0.08-0.82-0.12-1.65-0.12-2.48H13.13V53.51z"/>
	</g>
	<g>
		<path class="st0" d="M13.13,60.14v2.48h31.66c-0.39-0.81-0.75-1.63-1.06-2.48H13.13z"/>
	</g>
	<g>
		<path class="st0" d="M13.13,69.25v2.48h38.96c-0.96-0.77-1.86-1.6-2.7-2.48H13.13z"/>
	</g>
	<g>
		<rect x="13.13" y="78.36" class="st0" width="53.01" height="2.48"/>
	</g>
	<g>
		<path class="st0" d="M99.57,93.31c-0.77,0-1.53-0.34-2.05-0.99L81.86,72.46c-0.89-1.13-0.7-2.77,0.43-3.66
			c1.13-0.89,2.77-0.7,3.66,0.43l15.66,19.86c0.89,1.13,0.7,2.77-0.43,3.66C100.7,93.13,100.13,93.31,99.57,93.31z"/>
	</g>
</g>
</svg>
