<?xml version="1.0" encoding="utf-8"?>
<!-- Generator: Adobe Illustrator 23.0.0, SVG Export Plug-In . SVG Version: 6.00 Build 0)  -->
<svg version="1.1" id="Capa_1" xmlns="http://www.w3.org/2000/svg" xmlns:xlink="http://www.w3.org/1999/xlink" x="0px" y="0px"
	 viewBox="0 0 79.83 97.87" style="enable-background:new 0 0 79.83 97.87;" xml:space="preserve">
<style type="text/css">
	.st0{fill:#FFFFFF;}
</style>
<g>
	<g>
		<g>
			<g>
				<path class="st0" d="M76.62,26.15L54.43,3.35c-0.21-0.22-0.49-0.33-0.78-0.33H9.57c-3.67,0-6.65,2.99-6.65,6.65V88.2
					c0,3.67,2.99,6.65,6.65,6.65h60.69c3.67,0,6.65-2.98,6.65-6.64V26.89c0-0.07-0.02-0.14-0.05-0.23
					c-0.02-0.09-0.03-0.12-0.04-0.15c-0.03-0.08-0.07-0.15-0.13-0.22C76.66,26.22,76.64,26.18,76.62,26.15z M54.74,6.84l18.45,18.95
					H54.74V6.84z M74.7,88.2c0,2.46-1.99,4.46-4.44,4.46H9.57c-2.45,0-4.44-2-4.44-4.46V9.67c0-2.45,1.99-4.45,4.44-4.45h42.96V26.9
					c0,0.6,0.5,1.1,1.11,1.1H74.7V88.2z"/>
			</g>
		</g>
	</g>
	<g>
		<polygon class="st0" points="56.44,41.34 32.53,65.22 23.58,56.29 22.42,57.45 32.53,67.54 57.6,42.5 		"/>
	</g>
</g>
</svg>
