<?xml version="1.0" encoding="utf-8"?>
<!-- Generator: Adobe Illustrator 23.0.0, SVG Export Plug-In . SVG Version: 6.00 Build 0)  -->
<svg version="1.1" id="Capa_1" xmlns="http://www.w3.org/2000/svg" xmlns:xlink="http://www.w3.org/1999/xlink" x="0px" y="0px"
	 viewBox="0 0 22.34 34.75" style="enable-background:new 0 0 22.34 34.75;" xml:space="preserve">
<style type="text/css">
	.st0{fill:#78A3E2;}
</style>
<g>
	<g>
		<path class="st0" d="M18.5,1.4H5.03C3.74,1.4,2.7,2.45,2.7,3.73V31.1c0,1.29,1.04,2.33,2.33,2.33H18.5c1.29,0,2.33-1.04,2.33-2.33
			V3.73C20.83,2.45,19.79,1.4,18.5,1.4z M8.44,2.82h6.65c0.17,0,0.3,0.25,0.3,0.56s-0.14,0.56-0.3,0.56H8.44
			c-0.17,0-0.3-0.25-0.3-0.56C8.14,3.07,8.27,2.82,8.44,2.82z M11.77,31.13c-0.82,0-1.49-0.67-1.49-1.49c0-0.82,0.67-1.49,1.49-1.49
			c0.82,0,1.49,0.67,1.49,1.49C13.25,30.46,12.58,31.13,11.77,31.13z M19.09,26.03H4.44V5.34h14.64L19.09,26.03z"/>
	</g>
</g>
</svg>
