<?xml version="1.0" encoding="utf-8"?>
<!-- Generator: Adobe Illustrator 23.0.0, SVG Export Plug-In . SVG Version: 6.00 Build 0)  -->
<svg version="1.1" id="Capa_1" xmlns="http://www.w3.org/2000/svg" xmlns:xlink="http://www.w3.org/1999/xlink" x="0px" y="0px"
	 viewBox="0 0 31.15 25.02" style="enable-background:new 0 0 31.15 25.02;" xml:space="preserve">
<style type="text/css">
	.st0{fill:#60A0C8;}
</style>
<g>
	<path class="st0" d="M12.33,5.9h6.49C19.47,5.9,20,5.37,20,4.72v-0.8c0-0.65-0.53-1.18-1.18-1.18h-0.36v-0.5
		c0-0.5-0.41-0.91-0.91-0.91H13.6c-0.5,0-0.91,0.41-0.91,0.91v0.5h-0.36c-0.65,0-1.18,0.53-1.18,1.18v0.8
		C11.15,5.38,11.68,5.9,12.33,5.9L12.33,5.9z M12.33,5.9"/>
	<path class="st0" d="M26.63,4.42h-5.54v0.29c0,1.25-1.02,2.28-2.28,2.28h-6.48c-1.25,0-2.28-1.02-2.28-2.28V4.42H4.52
		c-1.82,0-3.3,1.48-3.3,3.3v12.67c0,1.82,1.48,3.3,3.3,3.3h22.11c1.82,0,3.3-1.48,3.3-3.3V7.72C29.93,5.9,28.45,4.42,26.63,4.42
		L26.63,4.42z M9.48,19.77c-3.15,0-5.71-2.56-5.71-5.71s2.56-5.71,5.71-5.71c3.15,0,5.71,2.56,5.71,5.71S12.64,19.77,9.48,19.77
		L9.48,19.77z M26.7,17.26h-9.64v-1.23h9.63L26.7,17.26L26.7,17.26z M26.7,14.67h-9.64v-1.23h9.63L26.7,14.67L26.7,14.67z
		 M26.7,12.08h-9.64v-1.23h9.63L26.7,12.08L26.7,12.08z M26.7,12.08"/>
	<path class="st0" d="M9.5,9.45c-2.55,0-4.61,2.06-4.61,4.61c0,1.09,0.38,2.1,1.02,2.89c0.04-0.37,0.2-0.79,0.67-0.91
		c0.91-0.23,1.64-0.75,1.64-0.75l0.68,2.15L9,17.73l0.31-0.86c-0.76-1.06,0.2-1.02,0.2-1.02s0.96-0.04,0.2,1.02l0.3,0.86l0.09-0.29
		v0.01l0.11-0.34l0.57-1.81c0,0,0.73,0.52,1.64,0.75c0.47,0.12,0.63,0.54,0.67,0.91c0.64-0.79,1.02-1.79,1.02-2.89
		C14.11,11.51,12.05,9.45,9.5,9.45L9.5,9.45z M11.32,13.52c-0.12,0.42-0.24,0.55-0.32,0.55c-0.08,0.51-0.48,1.15-1.11,1.38
		c-0.26,0.09-0.55,0.09-0.82,0c-0.64-0.23-1.03-0.87-1.11-1.38c-0.08-0.01-0.2-0.12-0.32-0.55c-0.16-0.58,0.01-0.67,0.16-0.65
		c-0.03-0.08-0.05-0.16-0.06-0.24c-0.05-0.27-0.06-0.52-0.01-0.77c0.08-0.32,0.25-0.58,0.45-0.79c0.12-0.13,0.26-0.25,0.41-0.34
		c0.12-0.08,0.26-0.16,0.4-0.21c0.12-0.04,0.24-0.06,0.36-0.07c0.4-0.03,0.7,0.06,0.92,0.19c0.32,0.18,0.45,0.42,0.45,0.42
		s0.74,0.05,0.49,1.56c-0.01,0.08-0.04,0.16-0.06,0.24C11.31,12.85,11.49,12.94,11.32,13.52L11.32,13.52z M11.32,13.52"/>
</g>
</svg>
