<?xml version="1.0" encoding="utf-8"?>
<!-- Generator: Adobe Illustrator 23.0.0, SVG Export Plug-In . SVG Version: 6.00 Build 0)  -->
<svg version="1.1" id="Capa_1" xmlns="http://www.w3.org/2000/svg" xmlns:xlink="http://www.w3.org/1999/xlink" x="0px" y="0px"
	 viewBox="0 0 110.13 111.15" style="enable-background:new 0 0 110.13 111.15;" xml:space="preserve">
<style type="text/css">
	.st0{fill:#FFFFFF;}
</style>
<path class="st0" d="M85.23,63.15h-2.92l19.59-19.59c4.48-4.4,7.01-10.4,7.04-16.67c0.03-6.27-2.45-12.3-6.89-16.73
	C97.62,5.72,91.6,3.24,85.32,3.27c-6.27,0.03-12.27,2.56-16.67,7.04L25.16,53.8c-2.73,2.73-4.74,6.09-5.86,9.78
	C7.42,65.89,0.79,77.4,1.94,89.45c1.15,12.05,9.83,19.07,21.93,19.1h61.19c12.98,0,21.71-8.91,21.71-21.89S98.22,63.15,85.23,63.15
	L85.23,63.15z M71.04,12.15c7.81-7.49,20.18-7.37,27.84,0.29c7.66,7.65,7.78,20.03,0.29,27.84L78.71,60.76L50.57,32.62L71.04,12.15z
	 M27.55,55.64l20.46-20.47l27.91,27.91l-52.54,0.36c-0.16,0-0.44-0.08-0.6-0.07C23.78,60.81,25.61,57.58,27.55,55.64L27.55,55.64z
	 M3.67,85.94c0.01-10.98,8.91-19.88,19.89-19.89h29.47v39.79H23.57C12.58,105.82,3.69,96.92,3.67,85.94L3.67,85.94z M85.06,105.84
	H55.38V66.05h29.68c10.99,0,19.89,8.91,19.89,19.89S96.04,105.84,85.06,105.84L85.06,105.84z M85.06,105.84"/>
<path class="st0" d="M96.46,87.15h2.37c-0.01-8.99-7.29-16.27-16.28-16.28v1.89C89.55,72.76,96.46,80.16,96.46,87.15L96.46,87.15z"
	/>
</svg>
