<?xml version="1.0" encoding="utf-8"?>
<!-- Generator: Adobe Illustrator 23.0.0, SVG Export Plug-In . SVG Version: 6.00 Build 0)  -->
<svg version="1.1" id="Capa_1" xmlns="http://www.w3.org/2000/svg" xmlns:xlink="http://www.w3.org/1999/xlink" x="0px" y="0px"
	 viewBox="0 0 36.85 46.39" style="enable-background:new 0 0 36.85 46.39;" xml:space="preserve">
<style type="text/css">
	.st0{fill:#2D4F8A;}
</style>
<g>
	<path class="st0" d="M33.72,17.62h-2.81v-3.74c0-7.22-5.88-13.1-13.1-13.1s-13.1,5.88-13.1,13.1v3.74H1.9
		c-0.52,0-0.94,0.42-0.94,0.94v23.39c0,2.06,1.68,3.74,3.74,3.74h26.2c2.06,0,3.74-1.68,3.74-3.74V18.56
		C34.65,18.04,34.23,17.62,33.72,17.62z M20.02,31.86l0.59,5.31c0.03,0.26-0.06,0.53-0.23,0.73c-0.18,0.2-0.43,0.31-0.7,0.31h-3.74
		c-0.27,0-0.52-0.11-0.7-0.31c-0.18-0.2-0.26-0.46-0.23-0.73l0.59-5.31c-0.96-0.7-1.53-1.8-1.53-3.01c0-2.06,1.68-3.74,3.74-3.74
		s3.74,1.68,3.74,3.74C21.55,30.06,20.98,31.17,20.02,31.86z M25.29,17.62H10.32v-3.74c0-4.13,3.36-7.49,7.49-7.49
		s7.49,3.36,7.49,7.49V17.62z"/>
</g>
</svg>
