<?xml version="1.0" encoding="utf-8"?>
<!-- Generator: Adobe Illustrator 23.0.0, SVG Export Plug-In . SVG Version: 6.00 Build 0)  -->
<svg version="1.1" id="Capa_1" xmlns="http://www.w3.org/2000/svg" xmlns:xlink="http://www.w3.org/1999/xlink" x="0px" y="0px"
	 viewBox="0 0 31.15 29.45" style="enable-background:new 0 0 31.15 29.45;" xml:space="preserve">
<style type="text/css">
	.st0{fill:#5EA4CC;}
</style>
<g>
	<g>
		<path class="st0" d="M15.68,19.69l-3.3-2.89l-9.43,8.08c0.34,0.33,0.8,0.52,1.31,0.52h22.83c0.51,0,0.97-0.2,1.31-0.52l-9.43-8.08
			L15.68,19.69z M15.68,19.69"/>
	</g>
	<g>
		<path class="st0" d="M28.4,6.88c-0.33-0.33-0.8-0.52-1.31-0.52H4.26c-0.5,0-0.97,0.2-1.31,0.52l12.73,10.91L28.4,6.88z M28.4,6.88
			"/>
	</g>
	<g>
		<path class="st0" d="M2.34,8.03v15.82l9.2-7.82L2.34,8.03z M2.34,8.03"/>
	</g>
	<g>
		<path class="st0" d="M19.8,16.03l9.2,7.82V8.02L19.8,16.03z M19.8,16.03"/>
	</g>
</g>
</svg>
