<?xml version="1.0" encoding="utf-8"?>
<!-- Generator: Adobe Illustrator 23.0.0, SVG Export Plug-In . SVG Version: 6.00 Build 0)  -->
<svg version="1.1" id="Capa_1" xmlns="http://www.w3.org/2000/svg" xmlns:xlink="http://www.w3.org/1999/xlink" x="0px" y="0px"
	 viewBox="0 0 122.55 116.28" style="enable-background:new 0 0 122.55 116.28;" xml:space="preserve">
<style type="text/css">
	.st0{fill:none;}
	.st1{fill:#5EA0CA;}
	.st2{fill:none;stroke:#5EA0CA;stroke-width:3;stroke-linecap:round;stroke-miterlimit:10;}
</style>
<g>
	<path class="st0" d="M361.36,62.37"/>
	<g>
		<g>
			<path class="st1" d="M393.95,108.83c0,2.76-2.24,5-4.98,5h-68.01c-2.75,0-4.98-2.24-4.98-5V41.36h23.6
				c0.69,0,1.25-0.55,1.25-1.23V15.84h48.15c2.75,0,4.98,2.24,4.98,4.98v22.29h2.48V20.82c0-4.11-3.35-7.46-7.46-7.46h-49.39
				c-0.33,0-0.64,0.13-0.88,0.37l-24.87,25.55c-0.02,0.04-0.04,0.07-0.1,0.15c-0.06,0.08-0.11,0.15-0.14,0.24
				c0,0.03-0.01,0.07-0.04,0.17c-0.03,0.1-0.05,0.18-0.05,0.26v68.73c0,4.1,3.35,7.44,7.46,7.44h68.01c4.11,0,7.46-3.35,7.46-7.46
				V94.15h-2.48V108.83z M338.34,17.65v21.23h-20.67l10.34-10.62L338.34,17.65z"/>
		</g>
		<g>
			<path class="st1" d="M366.69,47.7h-41.75v2.86h39.34C365.02,49.56,365.83,48.6,366.69,47.7z"/>
		</g>
		<g>
			<path class="st1" d="M360.17,58.19h-35.23v2.86h34.34C359.53,60.08,359.83,59.12,360.17,58.19z"/>
		</g>
		<g>
			<path class="st1" d="M324.94,71.54h33.52c-0.09-0.94-0.14-1.9-0.14-2.86h-33.38V71.54z"/>
		</g>
		<g>
			<path class="st1" d="M324.94,79.17v2.86h36.45c-0.45-0.93-0.86-1.88-1.22-2.86H324.94z"/>
		</g>
		<g>
			<path class="st1" d="M324.94,89.66v2.86h44.86c-1.1-0.88-2.14-1.84-3.11-2.86H324.94z"/>
		</g>
		<g>
			<rect x="324.94" y="100.15" class="st1" width="61.03" height="2.86"/>
		</g>
	</g>
	<g>
		<path class="st1" d="M388.24,47.87c11.45,0,20.77,9.32,20.77,20.77c0,11.45-9.32,20.77-20.77,20.77
			c-11.45,0-20.77-9.32-20.77-20.77C367.47,57.18,376.79,47.87,388.24,47.87 M388.24,44.87c-13.13,0-23.77,10.64-23.77,23.77
			c0,13.13,10.64,23.77,23.77,23.77c13.13,0,23.77-10.64,23.77-23.77C412.01,55.51,401.37,44.87,388.24,44.87L388.24,44.87z"/>
	</g>
	<path class="st2" d="M387.72,52.9c6.83,0.85,12.54,5.33,15.13,11.46"/>
	<path class="st1" d="M401.3,90.56c3.64,8.94,13.19,30.55,18.96,26.68c5.77-3.88-10.62-20.88-17.53-27.64L401.3,90.56z"/>
</g>
<path class="st1" d="M92.05,65.87h-2.92l19.59-19.59c4.48-4.4,7.01-10.4,7.04-16.67c0.03-6.27-2.45-12.3-6.89-16.73
	c-4.44-4.44-10.46-6.91-16.73-6.89c-6.27,0.03-12.27,2.56-16.67,7.04L31.98,56.52c-2.73,2.73-4.74,6.09-5.86,9.78
	C14.24,68.62,7.61,80.12,8.76,92.17c1.15,12.05,9.83,19.07,21.93,19.1h61.19c12.98,0,21.71-8.91,21.71-21.89
	S105.04,65.87,92.05,65.87L92.05,65.87z M77.85,14.88c7.81-7.49,20.18-7.37,27.84,0.29c7.66,7.65,7.78,20.03,0.29,27.84L85.53,63.48
	L57.38,35.34L77.85,14.88z M34.36,58.37L54.83,37.9L82.73,65.8L30.2,66.16c-0.16,0-0.44-0.08-0.6-0.07
	C30.6,63.53,32.42,60.31,34.36,58.37L34.36,58.37z M10.49,88.66c0.01-10.98,8.91-19.88,19.89-19.89h29.47v39.79H30.38
	C19.4,108.55,10.5,99.65,10.49,88.66L10.49,88.66z M91.87,108.56H62.19V68.77h29.68c10.99,0,19.89,8.91,19.89,19.89
	S102.86,108.56,91.87,108.56L91.87,108.56z M91.87,108.56"/>
<g>
	<path class="st1" d="M89.38,73.59v1.89c6.99,0.01,13.89,7.4,13.9,14.39h2.37C105.65,80.88,98.36,73.6,89.38,73.59L89.38,73.59z"/>
</g>
</svg>
