<?xml version="1.0" encoding="utf-8"?>
<!-- Generator: Adobe Illustrator 23.0.0, SVG Export Plug-In . SVG Version: 6.00 Build 0)  -->
<svg version="1.1" id="Capa_1" xmlns="http://www.w3.org/2000/svg" xmlns:xlink="http://www.w3.org/1999/xlink" x="0px" y="0px"
	 viewBox="0 0 135.83 126.64" style="enable-background:new 0 0 135.83 126.64;" xml:space="preserve">
<style type="text/css">
	.st0{fill:#5D9FC9;}
</style>
<g>
	<g>
		<path class="st0" d="M75.34,51.78V25.31c-0.01-7.31-5.93-13.22-13.23-13.23h-1.89V8.3h-5.67c-3.13,0-5.67,2.54-5.67,5.67
			s2.54,5.67,5.67,5.67h5.67v-3.78h1.89c5.22,0.01,9.45,4.23,9.45,9.45v26.47c0,15.66-12.7,28.36-28.36,28.36
			s-28.36-12.7-28.36-28.36V25.31c0.01-5.22,4.23-9.45,9.45-9.45h1.89v3.78h5.67c3.13,0,5.67-2.54,5.67-5.67S34.99,8.3,31.86,8.3
			h-5.67v3.78H24.3C17,12.09,11.08,18.01,11.07,25.31v26.47c0,17.75,14.39,32.14,32.14,32.14S75.34,69.53,75.34,51.78z M56.44,15.86
			h-1.89c-1.04,0-1.89-0.85-1.89-1.89s0.85-1.89,1.89-1.89h1.89V15.86z M29.97,12.08h1.89c1.04,0,1.89,0.85,1.89,1.89
			s-0.85,1.89-1.89,1.89h-1.89V12.08z"/>
	</g>
	<g>
		<path class="st0" d="M103.7,95.26c0,3.13-2.54,5.67-5.67,5.67c-3.13,0-5.67-2.54-5.67-5.67v-10.4c0-5.74-4.66-10.4-10.4-10.4
			c-5.74,0-10.4,4.66-10.4,10.4v19.85c0,7.31-5.92,13.23-13.23,13.23s-13.23-5.92-13.23-13.23V83.91h-3.78v20.79
			c0,9.4,7.62,17.01,17.01,17.01s17.01-7.62,17.01-17.01V84.86c0-3.65,2.96-6.62,6.62-6.62c3.65,0,6.62,2.96,6.62,6.62v10.4
			c0,5.22,4.23,9.45,9.45,9.45c5.22,0,9.45-4.23,9.45-9.45V46.11h-3.78V95.26z"/>
	</g>
	<g>
		<path class="st0" d="M124.49,27.2c0-10.44-8.46-18.9-18.9-18.9s-18.9,8.46-18.9,18.9s8.46,18.9,18.9,18.9
			C116.03,46.09,124.48,37.64,124.49,27.2z M105.59,42.32c-8.35,0-15.12-6.77-15.12-15.12s6.77-15.12,15.12-15.12
			s15.12,6.77,15.12,15.12C120.7,35.55,113.94,42.32,105.59,42.32z"/>
	</g>
	<g>
		<path class="st0" d="M105.59,19.64c-4.18,0-7.56,3.39-7.56,7.56s3.39,7.56,7.56,7.56c4.18,0,7.56-3.39,7.56-7.56
			S109.77,19.64,105.59,19.64z M105.59,30.98c-2.09,0-3.78-1.69-3.78-3.78s1.69-3.78,3.78-3.78c2.09,0,3.78,1.69,3.78,3.78
			S107.68,30.98,105.59,30.98z"/>
	</g>
</g>
</svg>
