<?xml version="1.0" encoding="utf-8"?>
<!-- Generator: Adobe Illustrator 23.0.0, SVG Export Plug-In . SVG Version: 6.00 Build 0)  -->
<svg version="1.1" id="Capa_1" xmlns="http://www.w3.org/2000/svg" xmlns:xlink="http://www.w3.org/1999/xlink" x="0px" y="0px"
	 viewBox="0 0 81.45 97.02" style="enable-background:new 0 0 81.45 97.02;" xml:space="preserve">
<style type="text/css">
	.st0{fill:#60A3E3;}
</style>
<g>
	<g>
		<g>
			<path class="st0" d="M40.19,37.21L28.22,49.17c-0.43,0.43-0.43,1.13,0,1.56c0.43,0.42,1.13,0.43,1.57,0l10.08-10.08v28.63
				c0,0.61,0.49,1.11,1.1,1.11c0.61,0,1.11-0.5,1.11-1.11V40.64l10.09,10.1c0.21,0.21,0.5,0.32,0.78,0.32
				c0.28,0,0.57-0.11,0.78-0.32c0.21-0.21,0.33-0.49,0.33-0.78c0-0.3-0.12-0.57-0.32-0.78L41.75,37.2c-0.02-0.02-0.06-0.04-0.1-0.07
				l-0.18-0.12c-0.03-0.02-0.06-0.04-0.08-0.05c-0.27-0.11-0.57-0.12-0.84,0C40.41,37.02,40.29,37.1,40.19,37.21z"/>
		</g>
		<g>
			<path class="st0" d="M77.68,25.3L55.49,2.5C55.28,2.29,55,2.17,54.71,2.17H10.63c-3.67,0-6.65,2.99-6.65,6.65v78.52
				c0,3.67,2.99,6.65,6.65,6.65h60.69c3.67,0,6.65-2.98,6.65-6.64V26.04c0-0.07-0.02-0.14-0.05-0.23c-0.02-0.09-0.03-0.12-0.04-0.15
				c-0.03-0.08-0.07-0.15-0.13-0.22C77.72,25.37,77.7,25.33,77.68,25.3z M55.81,5.99l18.45,18.95H55.81V5.99z M75.77,87.35
				c0,2.46-1.99,4.46-4.44,4.46H10.63c-2.45,0-4.44-2-4.44-4.46V8.82c0-2.45,1.99-4.45,4.44-4.45H53.6v21.67c0,0.6,0.5,1.1,1.11,1.1
				h21.06V87.35z"/>
		</g>
	</g>
</g>
</svg>
