<?xml version="1.0" encoding="utf-8"?>
<!-- Generator: Adobe Illustrator 23.0.0, SVG Export Plug-In . SVG Version: 6.00 Build 0)  -->
<svg version="1.1" id="Capa_1" xmlns="http://www.w3.org/2000/svg" xmlns:xlink="http://www.w3.org/1999/xlink" x="0px" y="0px"
	 viewBox="0 0 22.09 20.94" style="enable-background:new 0 0 22.09 20.94;" xml:space="preserve">
<style type="text/css">
	.st0{fill:#60A3E3;}
</style>
<g>
	<polygon class="st0" points="6.1,2.37 15.98,2.37 15.98,3.94 17.14,3.94 17.14,1.22 4.95,1.22 4.95,3.94 6.1,3.94 	"/>
	<rect x="17.58" y="6.25" class="st0" width="1.24" height="1.15"/>
	<rect x="17.58" y="7.8" class="st0" width="1.24" height="1.15"/>
	<path class="st0" d="M18.86,4.42H3.22c-1.01,0-1.83,0.82-1.83,1.83v5.57c0,1.01,0.82,1.83,1.83,1.83h1.7v6.06h8.77l3.47-3.47v-2.59
		h1.7c1.01,0,1.83-0.82,1.83-1.83V6.25C20.69,5.24,19.87,4.42,18.86,4.42z M15.2,16.58l-1.16,1.16v-1.16H15.2z M4.01,10.16v1.15
		h0.91v1.19h-1.7c-0.37,0-0.68-0.3-0.68-0.68V6.25c0-0.37,0.3-0.68,0.68-0.68h15.64c0.37,0,0.68,0.3,0.68,0.68v5.57
		c0,0.37-0.3,0.68-0.68,0.68h-1.7v-1.19h0.91v-1.15H4.01z M12.88,15.43v3.13h-6.8v-7.25h9.94v4.12H12.88z"/>
</g>
</svg>
