<?xml version="1.0" encoding="utf-8"?>
<!-- Generator: Adobe Illustrator 23.0.0, SVG Export Plug-In . SVG Version: 6.00 Build 0)  -->
<svg version="1.1" id="Capa_1" xmlns="http://www.w3.org/2000/svg" xmlns:xlink="http://www.w3.org/1999/xlink" x="0px" y="0px"
	 viewBox="0 0 84 107" style="enable-background:new 0 0 84 107;" xml:space="preserve">
<style type="text/css">
	.st0{fill:#FFFFFF;}
</style>
<g>
	<g>
		<g>
			<path class="st0" d="M42.6,3c-9.15,0-16.59,7.45-16.59,16.62c0,9.15,7.44,16.6,16.59,16.6c9.15,0,16.6-7.45,16.6-16.6
				C59.2,10.45,51.76,3,42.6,3z M42.6,34.16c-8.02,0-14.54-6.52-14.54-14.54c0-8.03,6.52-14.57,14.54-14.57
				c8.02,0,14.55,6.54,14.55,14.57C57.16,27.64,50.63,34.16,42.6,34.16z"/>
		</g>
		<g>
			<path class="st0" d="M66.28,102.46v-1.97l0.21,0.24c1.45,1.63,3.52,2.56,5.65,2.56c4.19,0,7.6-3.43,7.6-7.65l-0.01-38.4
				c-0.44-5.2-2.55-9.38-6.28-12.44c-6.64-5.43-15.89-5.34-15.97-5.33l-31.24,0c-7.75,0-13.28,3-13.33,3.03
				c-7.88,4.79-8.56,10.75-8.58,12.46c0,0.04,0,0.06,0,0.07L4.28,80.81c-0.06,0.38-0.01,3.22,1.75,5.26
				c1.21,1.41,2.92,2.12,5.06,2.12h9.81l-0.01,14.24L66.28,102.46z M57.47,41.53c0.77-0.01,18.88-0.04,20.21,15.79l0,38.37
				c0,3.06-2.49,5.55-5.54,5.55c-3.06,0-5.54-2.51-5.54-5.6l-0.02-1.14V53.84H64.2l0.03,46.57h-0.12l-41.16-0.03l0.01-12.29h20.07
				c3.86,0,7-3.14,7-7c0-3.85-3.14-6.99-7-6.99h-5.01l-0.02-0.09l-8.65-32.49H57.47z M38.82,76.32l-0.06-0.16h4.27
				c2.73,0,4.95,2.22,4.95,4.94c0,2.73-2.22,4.95-4.95,4.95l-2.31,0.01l0.03-0.15C41.31,83.26,39.78,78.76,38.82,76.32z
				 M12.19,86.13l-1.1,0.01c-1.42,0-2.55-0.41-3.34-1.23c-1.39-1.43-1.43-3.67-1.43-3.92l0.06-25.86c0.01-0.07,0.64-6,6.36-9.99
				l0.19-0.13L12.19,86.13z M14.24,86.04l0-0.12l0.76-42.03l0.08-0.03c1.55-0.53,5.84-1.82,12.06-2.28l0.1-0.01l0.03,0.1l9.04,33.89
				c1.74,4,3.13,9.09,2.32,10.32c-0.07,0.11-0.15,0.16-0.39,0.16H14.24z"/>
		</g>
	</g>
</g>
</svg>
