<?xml version="1.0" encoding="utf-8"?>
<!-- Generator: Adobe Illustrator 23.0.0, SVG Export Plug-In . SVG Version: 6.00 Build 0)  -->
<svg version="1.1" id="Capa_1" xmlns="http://www.w3.org/2000/svg" xmlns:xlink="http://www.w3.org/1999/xlink" x="0px" y="0px"
	 viewBox="0 0 107.28 122.89" style="enable-background:new 0 0 107.28 122.89;" xml:space="preserve">
<style type="text/css">
	.st0{fill:#2DA1DB;}
	.st1{fill:none;}
</style>
<g>
	<path class="st0" d="M84.19,85.1v9.02h9.02c1.26,0,2.28,1.02,2.28,2.28v0c0,1.26-1.02,2.28-2.28,2.28h-9.02v9.02
		c0,1.26-1.02,2.28-2.28,2.28h0c-1.26,0-2.28-1.02-2.28-2.28v-9.02h-9.02c-1.26,0-2.28-1.02-2.28-2.28v0c0-1.26,1.02-2.28,2.28-2.28
		h9.02V85.1c0-1.26,1.02-2.28,2.28-2.28h0C83.17,82.82,84.19,83.84,84.19,85.1z"/>
</g>
<g>
	<path class="st0" d="M84.19,85.1v9.02h9.02c1.26,0,2.28,1.02,2.28,2.28v0c0,1.26-1.02,2.28-2.28,2.28h-9.02v9.02
		c0,1.26-1.02,2.28-2.28,2.28h0c-1.26,0-2.28-1.02-2.28-2.28v-9.02h-9.02c-1.26,0-2.28-1.02-2.28-2.28v0c0-1.26,1.02-2.28,2.28-2.28
		h9.02V85.1c0-1.26,1.02-2.28,2.28-2.28h0C83.17,82.82,84.19,83.84,84.19,85.1z"/>
</g>
<g>
	<path class="st0" d="M84.19,85.1v9.02h9.02c1.26,0,2.28,1.02,2.28,2.28v0c0,1.26-1.02,2.28-2.28,2.28h-9.02v9.02
		c0,1.26-1.02,2.28-2.28,2.28h0c-1.26,0-2.28-1.02-2.28-2.28v-9.02h-9.02c-1.26,0-2.28-1.02-2.28-2.28v0c0-1.26,1.02-2.28,2.28-2.28
		h9.02V85.1c0-1.26,1.02-2.28,2.28-2.28h0C83.17,82.82,84.19,83.84,84.19,85.1z"/>
</g>
<g>
	<path class="st0" d="M84.19,85.1v9.02h9.02c1.26,0,2.28,1.02,2.28,2.28v0c0,1.26-1.02,2.28-2.28,2.28h-9.02v9.02
		c0,1.26-1.02,2.28-2.28,2.28h0c-1.26,0-2.28-1.02-2.28-2.28v-9.02h-9.02c-1.26,0-2.28-1.02-2.28-2.28v0c0-1.26,1.02-2.28,2.28-2.28
		h9.02V85.1c0-1.26,1.02-2.28,2.28-2.28h0C83.17,82.82,84.19,83.84,84.19,85.1z"/>
</g>
<g>
	<path class="st0" d="M84.19,85.1v9.02h9.02c1.26,0,2.28,1.02,2.28,2.28v0c0,1.26-1.02,2.28-2.28,2.28h-9.02v9.02
		c0,1.26-1.02,2.28-2.28,2.28h0c-1.26,0-2.28-1.02-2.28-2.28v-9.02h-9.02c-1.26,0-2.28-1.02-2.28-2.28v0c0-1.26,1.02-2.28,2.28-2.28
		h9.02V85.1c0-1.26,1.02-2.28,2.28-2.28h0C83.17,82.82,84.19,83.84,84.19,85.1z"/>
</g>
<path class="st1" d="M82.99,93.48c0-5.55-1.37-10.82-3.81-15.52c-9.68,1.13-17.23,9.37-17.23,19.36c0,4.26,1.39,8.2,3.72,11.41
	c4.73-0.24,9.45-0.55,14.11-0.95C81.91,103.27,82.99,98.46,82.99,93.48z"/>
<path class="st1" d="M44.35,47c11.11,0,20.15-9.03,20.15-20.13S55.46,6.74,44.35,6.74c-11.1,0-20.13,9.03-20.13,20.13
	S33.25,47,44.35,47z"/>
<path class="st1" d="M78.13,76.1c-6.6-11.01-19.27-18.48-33.78-18.48c-21.3,0-38.62,16.08-38.62,35.85c0,4.99,1.08,9.79,3.21,14.3
	c11.62,1.01,23.53,1.53,35.42,1.53c6.34,0,12.68-0.16,18.98-0.45c-2.13-3.34-3.38-7.29-3.38-11.54
	C59.95,86.57,67.84,77.7,78.13,76.1z"/>
<path class="st0" d="M44.35,50C57.13,50,67.5,39.64,67.5,26.87c0-12.78-10.36-23.13-23.15-23.13c-12.77,0-23.13,10.35-23.13,23.13
	C21.22,39.64,31.58,50,44.35,50z M44.35,6.74c11.11,0,20.15,9.03,20.15,20.13S55.46,47,44.35,47c-11.1,0-20.13-9.03-20.13-20.13
	S33.25,6.74,44.35,6.74z"/>
<path class="st0" d="M44.35,109.3c-11.89,0-23.79-0.51-35.42-1.53c-2.13-4.51-3.21-9.31-3.21-14.3c0-19.77,17.33-35.85,38.62-35.85
	c14.51,0,27.18,7.47,33.78,18.48c1.08-0.17,2.18-0.28,3.31-0.28c-6.89-12.58-20.91-21.19-37.09-21.19
	c-22.98,0-41.62,17.39-41.62,38.85c0,6.16,1.54,11.97,4.27,17.14c12.05,1.1,24.55,1.69,37.35,1.69c7.18,0,14.24-0.2,21.2-0.56
	c-0.82-0.9-1.56-1.86-2.21-2.89C57.03,109.15,50.69,109.3,44.35,109.3z"/>
<path class="st0" d="M79.18,77.96c-0.33-0.63-0.68-1.25-1.05-1.86c-10.29,1.6-18.18,10.48-18.18,21.22c0,4.25,1.25,8.2,3.38,11.54
	c0.78-0.04,1.56-0.09,2.34-0.13c-2.33-3.21-3.72-7.15-3.72-11.41C61.95,87.33,69.49,79.09,79.18,77.96z"/>
<path class="st0" d="M81.45,75.82c0,0-0.01,0-0.01,0c0.37,0.67,0.72,1.36,1.05,2.05c10.27,0.54,18.47,9.04,18.47,19.45
	c0,10.75-8.75,19.5-19.5,19.5c-5.11,0-9.76-1.99-13.24-5.22c-0.89,0.05-1.78,0.11-2.67,0.15c3.93,4.33,9.59,7.07,15.91,7.07
	c11.87,0,21.5-9.63,21.5-21.5S93.32,75.82,81.45,75.82z"/>
<path class="st0" d="M65.67,108.73c-0.78,0.04-1.56,0.09-2.34,0.13c0.66,1.03,1.4,1.99,2.21,2.89c0.89-0.05,1.78-0.1,2.67-0.15
	C67.27,110.72,66.42,109.77,65.67,108.73z"/>
<path class="st0" d="M79.18,77.96c0.75-0.09,1.5-0.14,2.27-0.14c0.35,0,0.69,0.03,1.03,0.05c-0.33-0.7-0.68-1.38-1.05-2.05
	c-1.13,0-2.23,0.11-3.31,0.28C78.5,76.71,78.85,77.33,79.18,77.96z"/>
<g>
	<path class="st0" d="M84.19,85.1v9.02h9.02c1.26,0,2.28,1.02,2.28,2.28v0c0,1.26-1.02,2.28-2.28,2.28h-9.02v9.02
		c0,1.26-1.02,2.28-2.28,2.28h0c-1.26,0-2.28-1.02-2.28-2.28v-9.02h-9.02c-1.26,0-2.28-1.02-2.28-2.28v0c0-1.26,1.02-2.28,2.28-2.28
		h9.02V85.1c0-1.26,1.02-2.28,2.28-2.28h0C83.17,82.82,84.19,83.84,84.19,85.1z"/>
</g>
</svg>
