<?xml version="1.0" encoding="utf-8"?>
<!-- Generator: Adobe Illustrator 23.0.0, SVG Export Plug-In . SVG Version: 6.00 Build 0)  -->
<svg version="1.1" id="Capa_1" xmlns="http://www.w3.org/2000/svg" xmlns:xlink="http://www.w3.org/1999/xlink" x="0px" y="0px"
	 viewBox="0 0 111.32 124.68" style="enable-background:new 0 0 111.32 124.68;" xml:space="preserve">
<style type="text/css">
	.st0{fill:#60A3E3;}
	.st1{fill:none;}
</style>
<g>
	<g>
		<path class="st0" d="M86.02,85.66v9.02h9.02c1.26,0,2.28,1.02,2.28,2.28l0,0c0,1.26-1.02,2.28-2.28,2.28h-9.02v9.02
			c0,1.26-1.02,2.28-2.28,2.28h0c-1.26,0-2.28-1.02-2.28-2.28v-9.02h-9.02c-1.26,0-2.28-1.02-2.28-2.28l0,0
			c0-1.26,1.02-2.28,2.28-2.28h9.02v-9.02c0-1.26,1.02-2.28,2.28-2.28h0C85,83.38,86.02,84.4,86.02,85.66z"/>
	</g>
	<g>
		<path class="st0" d="M86.02,85.66v9.02h9.02c1.26,0,2.28,1.02,2.28,2.28l0,0c0,1.26-1.02,2.28-2.28,2.28h-9.02v9.02
			c0,1.26-1.02,2.28-2.28,2.28h0c-1.26,0-2.28-1.02-2.28-2.28v-9.02h-9.02c-1.26,0-2.28-1.02-2.28-2.28l0,0
			c0-1.26,1.02-2.28,2.28-2.28h9.02v-9.02c0-1.26,1.02-2.28,2.28-2.28h0C85,83.38,86.02,84.4,86.02,85.66z"/>
	</g>
	<g>
		<path class="st0" d="M86.02,85.66v9.02h9.02c1.26,0,2.28,1.02,2.28,2.28l0,0c0,1.26-1.02,2.28-2.28,2.28h-9.02v9.02
			c0,1.26-1.02,2.28-2.28,2.28h0c-1.26,0-2.28-1.02-2.28-2.28v-9.02h-9.02c-1.26,0-2.28-1.02-2.28-2.28l0,0
			c0-1.26,1.02-2.28,2.28-2.28h9.02v-9.02c0-1.26,1.02-2.28,2.28-2.28h0C85,83.38,86.02,84.4,86.02,85.66z"/>
	</g>
	<g>
		<path class="st0" d="M86.02,85.66v9.02h9.02c1.26,0,2.28,1.02,2.28,2.28l0,0c0,1.26-1.02,2.28-2.28,2.28h-9.02v9.02
			c0,1.26-1.02,2.28-2.28,2.28h0c-1.26,0-2.28-1.02-2.28-2.28v-9.02h-9.02c-1.26,0-2.28-1.02-2.28-2.28l0,0
			c0-1.26,1.02-2.28,2.28-2.28h9.02v-9.02c0-1.26,1.02-2.28,2.28-2.28h0C85,83.38,86.02,84.4,86.02,85.66z"/>
	</g>
	<g>
		<path class="st0" d="M86.02,85.66v9.02h9.02c1.26,0,2.28,1.02,2.28,2.28l0,0c0,1.26-1.02,2.28-2.28,2.28h-9.02v9.02
			c0,1.26-1.02,2.28-2.28,2.28h0c-1.26,0-2.28-1.02-2.28-2.28v-9.02h-9.02c-1.26,0-2.28-1.02-2.28-2.28l0,0
			c0-1.26,1.02-2.28,2.28-2.28h9.02v-9.02c0-1.26,1.02-2.28,2.28-2.28h0C85,83.38,86.02,84.4,86.02,85.66z"/>
	</g>
	<path class="st1" d="M46.17,47.56c11.11,0,20.15-9.03,20.15-20.13S57.28,7.3,46.17,7.3c-11.1,0-20.13,9.03-20.13,20.13
		S35.07,47.56,46.17,47.56z"/>
	<path class="st1" d="M46.17,58.19c-21.3,0-38.62,16.08-38.62,35.85c0,4.99,1.08,9.79,3.21,14.3c11.62,1.01,23.53,1.53,35.42,1.53
		c6.56,0,13.12-0.17,19.64-0.48c-2.53-3.53-4.03-7.84-4.03-12.51c0-10.54,7.6-19.3,17.61-21.13C72.64,65.24,60.28,58.19,46.17,58.19
		z"/>
	<path class="st0" d="M46.17,50.56c12.78,0,23.15-10.36,23.15-23.13c0-12.78-10.36-23.13-23.15-23.13
		c-12.77,0-23.13,10.35-23.13,23.13C23.04,40.2,33.4,50.56,46.17,50.56z M46.17,7.3c11.11,0,20.15,9.03,20.15,20.13
		s-9.04,20.13-20.15,20.13c-11.1,0-20.13-9.03-20.13-20.13S35.07,7.3,46.17,7.3z"/>
	<path class="st0" d="M65.81,109.38c-6.52,0.31-13.08,0.48-19.64,0.48c-11.89,0-23.79-0.51-35.42-1.53
		c-2.13-4.51-3.21-9.31-3.21-14.3c0-19.77,17.33-35.85,38.62-35.85c14.11,0,26.47,7.06,33.22,17.56c1.08-0.2,2.2-0.31,3.33-0.34
		c-7.07-12.05-20.78-20.22-36.55-20.22c-22.98,0-41.62,17.39-41.62,38.85c0,6.16,1.54,11.97,4.27,17.14
		c12.05,1.1,24.55,1.69,37.35,1.69c7.49,0,14.85-0.22,22.09-0.61C67.36,111.38,66.54,110.41,65.81,109.38z"/>
	<g>
		<path class="st0" d="M86.02,85.66v9.02h9.02c1.26,0,2.28,1.02,2.28,2.28l0,0c0,1.26-1.02,2.28-2.28,2.28h-9.02v9.02
			c0,1.26-1.02,2.28-2.28,2.28h0c-1.26,0-2.28-1.02-2.28-2.28v-9.02h-9.02c-1.26,0-2.28-1.02-2.28-2.28l0,0
			c0-1.26,1.02-2.28,2.28-2.28h9.02v-9.02c0-1.26,1.02-2.28,2.28-2.28h0C85,83.38,86.02,84.4,86.02,85.66z"/>
	</g>
	<g>
		<path class="st0" d="M83.27,120.38c-12.96,0-23.5-10.54-23.5-23.5s10.54-23.5,23.5-23.5s23.5,10.54,23.5,23.5
			S96.23,120.38,83.27,120.38z M83.27,77.38c-10.75,0-19.5,8.75-19.5,19.5s8.75,19.5,19.5,19.5s19.5-8.75,19.5-19.5
			S94.02,77.38,83.27,77.38z"/>
	</g>
</g>
</svg>
