<?xml version="1.0" encoding="utf-8"?>
<!-- Generator: Adobe Illustrator 23.0.0, SVG Export Plug-In . SVG Version: 6.00 Build 0)  -->
<svg version="1.1" id="Capa_1" xmlns="http://www.w3.org/2000/svg" xmlns:xlink="http://www.w3.org/1999/xlink" x="0px" y="0px"
	 viewBox="0 0 111 88" style="enable-background:new 0 0 111 88;" xml:space="preserve">
<style type="text/css">
	.st0{fill:#60A2E2;}
</style>
<g>
	<path class="st0" d="M104.29,8.65H7.71c-0.91,0-1.65,0.74-1.65,1.65v69c0,0.91,0.74,1.65,1.65,1.65h96.59
		c0.91,0,1.65-0.74,1.65-1.65v-69C105.95,9.39,105.2,8.65,104.29,8.65z M102.65,73.01L73.51,43.87l-2.33,2.33l31.45,31.45H9.38
		l31.44-31.45l-2.33-2.33L9.36,73.01V11.96h93.29V73.01z"/>
	<path class="st0" d="M57.16,58.37l44.19-44.18v-0.93h-3.73L56.01,54.87L14.39,13.26h-3.73v0.93l44.18,44.18
		C55.48,59.01,56.52,59.01,57.16,58.37z"/>
</g>
</svg>
