<?xml version="1.0" encoding="utf-8"?>
<!-- Generator: Adobe Illustrator 23.0.0, SVG Export Plug-In . SVG Version: 6.00 Build 0)  -->
<svg version="1.1" id="Capa_1" xmlns="http://www.w3.org/2000/svg" xmlns:xlink="http://www.w3.org/1999/xlink" x="0px" y="0px"
	 viewBox="0 0 83 96" style="enable-background:new 0 0 83 96;" xml:space="preserve">
<style type="text/css">
	.st0{fill:#FFFFFF;}
</style>
<g>
	<g>
		<g>
			<path class="st0" d="M41.21,37.12L29.24,49.09c-0.43,0.43-0.43,1.13,0,1.56c0.43,0.42,1.13,0.43,1.57,0l10.08-10.08V69.2
				c0,0.61,0.49,1.11,1.1,1.11c0.61,0,1.11-0.5,1.11-1.11V40.55l10.09,10.1c0.21,0.21,0.5,0.32,0.78,0.32
				c0.28,0,0.57-0.11,0.78-0.32c0.21-0.21,0.33-0.49,0.33-0.78c0-0.3-0.12-0.57-0.32-0.78L42.77,37.12
				c-0.02-0.02-0.06-0.04-0.1-0.07l-0.18-0.12c-0.03-0.02-0.06-0.04-0.08-0.05c-0.27-0.11-0.57-0.12-0.84,0
				C41.43,36.94,41.31,37.02,41.21,37.12z"/>
		</g>
		<g>
			<path class="st0" d="M78.7,25.22L56.51,2.42c-0.21-0.22-0.49-0.33-0.78-0.33H11.65C7.99,2.08,5,5.07,5,8.74v78.52
				c0,3.67,2.99,6.65,6.65,6.65h60.69c3.67,0,6.65-2.98,6.65-6.64V25.95c0-0.07-0.02-0.14-0.05-0.23c-0.02-0.09-0.03-0.12-0.04-0.15
				c-0.03-0.08-0.07-0.15-0.13-0.22C78.74,25.28,78.72,25.25,78.7,25.22z M56.83,5.91l18.45,18.95H56.83V5.91z M76.79,87.26
				c0,2.46-1.99,4.46-4.44,4.46H11.65c-2.45,0-4.44-2-4.44-4.46V8.74c0-2.45,1.99-4.45,4.44-4.45h42.96v21.67
				c0,0.6,0.5,1.1,1.11,1.1h21.06V87.26z"/>
		</g>
	</g>
</g>
</svg>
