<?xml version="1.0" encoding="utf-8"?>
<!-- Generator: Adobe Illustrator 23.0.0, SVG Export Plug-In . SVG Version: 6.00 Build 0)  -->
<svg version="1.1" id="Capa_1" xmlns="http://www.w3.org/2000/svg" xmlns:xlink="http://www.w3.org/1999/xlink" x="0px" y="0px"
	 viewBox="0 0 38 36" style="enable-background:new 0 0 38 36;" xml:space="preserve">
<style type="text/css">
	.st0{fill:#BC5A4C;}
	.st1{fill:#D5882B;}
	.st2{fill:#C6C8C5;}
	.st3{fill:#EECC9D;}
	.st4{fill:#3E4750;}
	.st5{fill:#EFEABF;}
	.st6{fill:#DDB832;}
</style>
<g>
	<g>
		<path class="st0" d="M26.9,3.43c1.9-1.91,5-1.91,6.9,0c1.91,1.91,1.91,5,0,6.9L26.9,3.43z M26.9,3.43"/>
	</g>
	<path class="st1" d="M28.62,12.92L12.81,28.74l-0.32,2.91l17.43-17.44L28.62,12.92z M28.62,12.92"/>
	<path class="st1" d="M9.03,28.2l2.91-0.32l15.82-15.82l-2.59-2.59L9.36,25.29L9.03,28.2z M9.03,28.2"/>
	<path class="st1" d="M24.31,8.61l-1.3-1.3L5.58,24.75l2.92-0.32L24.31,8.61z M24.31,8.61"/>
	<path class="st2" d="M32.51,11.63l1.3-1.29l-6.9-6.9l-1.3,1.29L32.51,11.63z M32.51,11.63"/>
	<path class="st2" d="M24.74,5.58l-0.86,0.86l6.9,6.9l0.86-0.86L24.74,5.58z M24.74,5.58"/>
	<path class="st3" d="M11.53,29.15L8.41,29.5c-0.02,0-0.04,0-0.07,0h0c-0.02,0-0.05,0-0.07,0c-0.02,0-0.05-0.02-0.07-0.02
		c-0.05-0.01-0.09-0.02-0.13-0.04C8.05,29.42,8.02,29.4,8,29.38c-0.03-0.03-0.07-0.05-0.1-0.08c-0.02-0.02-0.04-0.05-0.06-0.08
		c-0.02-0.04-0.04-0.07-0.06-0.11c-0.01-0.03-0.02-0.07-0.03-0.1c-0.01-0.02-0.02-0.04-0.02-0.06c0-0.02,0.01-0.05,0.01-0.07
		c0-0.02-0.01-0.04-0.01-0.07l0.35-3.13l-3.13,0.35c-0.02,0-0.05,0-0.07,0c-0.05,0-0.09-0.01-0.14-0.02L3,33.37l1.28-1.29
		c0.24-0.24,0.62-0.24,0.86,0c0.24,0.24,0.24,0.63,0,0.86l-1.28,1.28l7.34-1.75c-0.01-0.07-0.03-0.14-0.02-0.21L11.53,29.15z
		 M11.53,29.15"/>
	<path class="st4" d="M5.15,32.08c-0.24-0.24-0.62-0.24-0.86,0L3,33.37L2.73,34.5l1.13-0.27l1.28-1.28
		C5.39,32.71,5.39,32.32,5.15,32.08L5.15,32.08z M5.15,32.08"/>
	<path class="st5" d="M32.51,11.63l-6.9-6.9l-0.86,0.86l6.91,6.9L32.51,11.63z M32.51,11.63"/>
	<path class="st6" d="M27.76,12.06L11.94,27.88L9.03,28.2l0.32-2.91L25.17,9.47l-0.86-0.86L8.49,24.42l-2.92,0.32l-0.69,0.69
		l-0.14,0.58c0.05,0.01,0.09,0.02,0.14,0.02c0.02,0,0.05,0,0.07,0l3.13-0.35l-0.35,3.13c0,0.02,0.01,0.05,0.01,0.07
		c0,0.02-0.01,0.05-0.01,0.07c0,0.02,0.01,0.04,0.02,0.06c0.01,0.04,0.02,0.07,0.03,0.1c0.02,0.04,0.04,0.07,0.06,0.11
		c0.02,0.03,0.04,0.05,0.06,0.08c0.03,0.03,0.06,0.06,0.1,0.08c0.03,0.02,0.05,0.04,0.08,0.05c0.04,0.02,0.08,0.03,0.13,0.04
		c0.02,0,0.04,0.02,0.07,0.02c0.02,0,0.04,0,0.07,0h0c0.02,0,0.05,0,0.07,0l3.13-0.35l-0.35,3.13c-0.01,0.07,0,0.14,0.02,0.21
		l0.59-0.14l0.69-0.69l0.32-2.91l15.81-15.82L27.76,12.06z M27.76,12.06"/>
	<path class="st5" d="M30.78,13.35l-6.9-6.9l-0.86,0.86l6.9,6.9L30.78,13.35z M30.78,13.35"/>
</g>
</svg>
