<?xml version="1.0" encoding="utf-8"?>
<!-- Generator: Adobe Illustrator 23.0.0, SVG Export Plug-In . SVG Version: 6.00 Build 0)  -->
<svg version="1.1" id="Capa_1" xmlns="http://www.w3.org/2000/svg" xmlns:xlink="http://www.w3.org/1999/xlink" x="0px" y="0px"
	 viewBox="0 0 227.18 49.25" style="enable-background:new 0 0 227.18 49.25;" xml:space="preserve">
<style type="text/css">
	.st0{fill-rule:evenodd;clip-rule:evenodd;fill:#9CBD80;}
	.st1{fill-rule:evenodd;clip-rule:evenodd;fill:#FFFFFF;}
	.st2{fill-rule:evenodd;clip-rule:evenodd;fill:#779F7B;}
	.st3{fill:#180C0C;}
	.st4{fill:#61936B;}
</style>
<g>
	<g>
		<g>
			<path class="st0" d="M202.93,42.91c10.54,0.03,19.16-8.5,19.18-18.98c0.02-10.47-8.56-19.04-19.09-19.07
				c-10.54-0.03-19.16,8.5-19.19,18.98C183.81,34.32,192.38,42.89,202.93,42.91z"/>
			<path class="st1" d="M201,42.29c9.31,0.02,16.93-7.57,16.95-16.9c0.02-9.34-7.56-16.96-16.87-16.98
				c-9.32-0.02-16.93,7.56-16.95,16.9C184.1,34.63,191.68,42.26,201,42.29z"/>
		</g>
		<path class="st2" d="M199.03,16.66c1.02,0,1.83-0.82,1.84-1.83c0-1.01-0.81-1.84-1.83-1.84c-1,0-1.83,0.83-1.83,1.83
			C197.21,15.83,198.03,16.66,199.03,16.66z"/>
		<path class="st2" d="M209.33,18.05c1.1,0,2.01-0.89,2.02-1.99c0-1.11-0.91-2.01-2.01-2.01c-1.1,0-2,0.9-2.01,2
			C207.33,17.15,208.23,18.04,209.33,18.05z"/>
		<path class="st2" d="M211.3,26.22c1.1,0,2.01-0.9,2.01-2c0-1.1-0.9-2.01-2-2.01c-1.11,0-2.01,0.9-2.01,2
			C209.3,25.31,210.19,26.22,211.3,26.22z"/>
		<path class="st2" d="M190.65,38.54c0,0-1.24-8.95,0.26-13.82c1.5-4.88,2.08-5.87,2.72-6.69c0.63-0.83,2.26-1.62,3.23-0.32
			c0.97,1.3,0.13,2.01-0.57,3c-0.69,0.98-2.93,4.34-3.84,7.44c-0.9,3.1-1.03,3.88-1.26,6.11C190.97,36.49,190.65,38.54,190.65,38.54
			z"/>
		<path class="st2" d="M191.94,38.67c0,0,2.07-10.43,5.65-15.13c3.59-4.7,4.53-5.34,5.53-5.96c0.99-0.61,3.02-0.8,3.53,0.96
			c0.5,1.76-0.67,2.17-1.81,2.93c-1.11,0.77-4.81,3.39-7,6.3c-2.18,2.9-2.63,3.67-3.76,5.92C192.98,35.95,191.94,38.67,191.94,38.67
			z"/>
		<path class="st2" d="M193.8,39.17c0,0,2.95-7.38,6.21-10.45c3.27-3.07,4.13-3.58,4.97-3.93c0.84-0.35,2.44-0.26,2.61,1.16
			c0.19,1.42-0.78,1.59-1.73,2.04c-0.96,0.46-4.13,2.04-6.18,4.02c-2.04,1.97-2.28,2.36-3.61,4.12
			C194.76,37.89,193.8,39.17,193.8,39.17z"/>
	</g>
	<path class="st3" d="M9.35,43.22l-0.99,0L3.89,32.6l1.79,0l3.2,7.91l3.21-7.89l1.78,0L9.35,43.22L9.35,43.22z M16.21,43.24l-1.69,0
		l0.03-10.61l1.69,0L16.21,43.24L16.21,43.24z M22.38,37.9l7.22,0.02c-0.09,1.65-0.69,2.99-1.79,4.02
		c-1.11,1.02-2.49,1.54-4.19,1.53c-0.87,0-1.68-0.16-2.41-0.47c-0.74-0.31-1.41-0.76-1.98-1.36c-0.51-0.51-0.88-1.08-1.13-1.71
		c-0.25-0.64-0.38-1.32-0.38-2.06c0-0.74,0.16-1.44,0.47-2.11c0.31-0.66,0.76-1.27,1.37-1.79c0.57-0.52,1.19-0.9,1.9-1.16
		c0.7-0.25,1.47-0.38,2.33-0.37c1.18,0,2.21,0.26,3.1,0.77c0.88,0.5,1.56,1.22,2.01,2.14l-2.09,0c-0.38-0.45-0.85-0.79-1.38-1.02
		c-0.52-0.23-1.13-0.34-1.79-0.34c-0.54,0-1.06,0.09-1.56,0.27c-0.49,0.19-0.93,0.46-1.32,0.82c-0.41,0.38-0.72,0.8-0.95,1.3
		c-0.22,0.5-0.34,0.99-0.34,1.51c0,0.55,0.1,1.08,0.29,1.57c0.21,0.49,0.5,0.92,0.89,1.28c0.39,0.38,0.85,0.68,1.37,0.88
		c0.52,0.21,1.05,0.31,1.59,0.31c0.9,0,1.68-0.2,2.35-0.63c0.68-0.43,1.24-1.06,1.67-1.9l-5.27-0.01L22.38,37.9L22.38,37.9z
		 M32.83,43.28l-1.69,0l0.03-10.61l1.69,0L32.83,43.28L32.83,43.28z M40.37,43.3l-5.51-0.01l0.03-10.61l1.69,0l-0.02,9.14l3.82,0.01
		L40.37,43.3L40.37,43.3z M47.54,38.73L45.9,34.7l-1.69,4.02L47.54,38.73L47.54,38.73z M43.61,40.22l-1.32,3.09l-1.78,0l4.58-10.6
		l1.64,0l4.53,10.62l-1.85,0l-1.27-3.09L43.61,40.22L43.61,40.22z M53.46,41.91l2.05,0c1.3,0,2.33-0.34,3.08-1.02
		c0.75-0.69,1.13-1.62,1.13-2.8c0-1.23-0.39-2.18-1.18-2.87c-0.8-0.69-1.91-1.04-3.32-1.04l-1.74,0L53.46,41.91L53.46,41.91z
		 M55.09,43.33l-3.27-0.01l0.03-10.61l3.75,0.01c1.75,0,3.16,0.5,4.23,1.48c1.07,0.99,1.61,2.29,1.61,3.87c0,0.9-0.2,1.73-0.61,2.48
		c-0.41,0.74-0.98,1.35-1.74,1.84c-0.52,0.34-1.06,0.58-1.64,0.72C56.85,43.26,56.08,43.34,55.09,43.33L55.09,43.33z M64.22,38
		c0,0.55,0.09,1.08,0.3,1.57c0.19,0.49,0.49,0.92,0.87,1.28c0.4,0.38,0.86,0.68,1.37,0.88c0.53,0.21,1.06,0.31,1.61,0.31
		c1.2,0,2.22-0.38,3.02-1.15c0.82-0.78,1.22-1.74,1.23-2.91c0-0.49-0.1-0.96-0.29-1.4c-0.18-0.44-0.47-0.86-0.84-1.23
		c-0.45-0.43-0.91-0.75-1.43-0.96c-0.51-0.21-1.05-0.31-1.67-0.31c-0.55,0-1.07,0.09-1.56,0.27c-0.51,0.19-0.94,0.46-1.32,0.82
		c-0.41,0.38-0.72,0.8-0.94,1.3C64.33,36.98,64.22,37.48,64.22,38L64.22,38z M62.47,37.98c0-0.74,0.15-1.44,0.46-2.11
		c0.31-0.66,0.76-1.27,1.36-1.79c0.56-0.51,1.2-0.89,1.89-1.14c0.7-0.26,1.43-0.4,2.22-0.39c0.82,0,1.58,0.14,2.28,0.4
		c0.7,0.25,1.33,0.64,1.9,1.16c0.59,0.53,1.04,1.13,1.33,1.78c0.29,0.66,0.45,1.37,0.44,2.12c0,0.75-0.14,1.45-0.39,2.08
		c-0.25,0.63-0.65,1.2-1.16,1.7c-0.6,0.6-1.29,1.04-2.03,1.34c-0.74,0.3-1.54,0.45-2.41,0.45c-0.87,0-1.67-0.16-2.41-0.47
		c-0.75-0.31-1.4-0.76-1.99-1.36c-0.49-0.51-0.86-1.08-1.12-1.71C62.59,39.39,62.47,38.71,62.47,37.98z"/>
	<path class="st4" d="M81.5,39.24l1.95,0c0.04,0.74,0.26,1.33,0.69,1.76c0.42,0.45,0.99,0.67,1.66,0.67c0.75,0,1.35-0.21,1.81-0.66
		c0.46-0.43,0.68-1.03,0.68-1.77c0-0.65-0.16-1.14-0.49-1.49c-0.33-0.35-1.03-0.68-2.08-1c-0.06-0.01-0.15-0.03-0.27-0.07
		c-1.28-0.32-2.19-0.84-2.75-1.58c-0.25-0.32-0.45-0.67-0.57-1.03c-0.12-0.36-0.18-0.74-0.18-1.16c0-1.21,0.38-2.2,1.15-2.95
		c0.77-0.75,1.78-1.13,3.02-1.13c1.15,0,2.07,0.34,2.78,1.02c0.71,0.67,1.1,1.6,1.17,2.78l-2.05,0c-0.03-0.57-0.22-1.03-0.59-1.38
		c-0.37-0.35-0.84-0.53-1.39-0.53c-0.6,0-1.09,0.19-1.46,0.58C84.18,31.7,84,32.2,84,32.82c0,0.22,0.04,0.42,0.11,0.61
		c0.07,0.19,0.17,0.37,0.31,0.53c0.3,0.34,0.94,0.62,1.91,0.87c0.45,0.12,0.78,0.21,1.03,0.29c0.99,0.36,1.76,0.87,2.26,1.54
		c0.52,0.67,0.77,1.48,0.77,2.42c0,1.37-0.42,2.49-1.25,3.32c-0.83,0.84-1.92,1.26-3.28,1.26c-1.3,0-2.33-0.4-3.14-1.22
		C81.91,41.62,81.51,40.56,81.5,39.24L81.5,39.24z M101.73,43.4l-1.97,0l0-1.2c-0.41,0.49-0.87,0.85-1.37,1.09
		c-0.51,0.23-1.09,0.34-1.71,0.34c-1.44,0-2.54-0.42-3.33-1.27c-0.78-0.84-1.16-2.03-1.16-3.56l0.01-6.2l2.04,0l-0.01,5.64
		c0,1.16,0.22,2.04,0.65,2.63c0.43,0.58,1.09,0.87,1.95,0.87c0.54,0,1.03-0.12,1.45-0.36c0.42-0.23,0.76-0.57,1-1.01
		c0.16-0.27,0.27-0.6,0.33-0.98c0.07-0.38,0.11-0.99,0.11-1.83l0.01-4.94l2.02,0L101.73,43.4L101.73,43.4z M106.16,37.96
		c0,1.06,0.38,1.97,1.13,2.73c0.75,0.75,1.64,1.12,2.69,1.12c1.08,0,1.99-0.35,2.76-1.07c0.77-0.73,1.15-1.59,1.15-2.62
		c0-1.09-0.38-2.01-1.12-2.74c-0.76-0.74-1.69-1.11-2.79-1.11c-1.02,0-1.9,0.37-2.67,1.1C106.54,36.11,106.16,36.97,106.16,37.96
		L106.16,37.96z M106.22,42.11l-0.01,4.79l-2.06,0l0.03-14.25l2.07,0l0,1.33c0.53-0.51,1.11-0.89,1.75-1.15
		c0.65-0.26,1.35-0.4,2.08-0.39c1.71,0,3.13,0.54,4.26,1.62c1.13,1.08,1.69,2.43,1.68,4.05c0,0.76-0.14,1.47-0.43,2.15
		c-0.29,0.68-0.69,1.27-1.23,1.81c-0.57,0.57-1.2,0.98-1.88,1.25c-0.68,0.27-1.45,0.41-2.33,0.41c-0.76,0-1.48-0.14-2.14-0.4
		C107.37,43.04,106.76,42.64,106.22,42.11L106.22,42.11z M126.74,37.05c-0.26-0.89-0.69-1.58-1.32-2.06
		c-0.63-0.49-1.38-0.74-2.26-0.75c-0.9,0-1.68,0.25-2.33,0.75c-0.66,0.5-1.13,1.17-1.37,2.04L126.74,37.05L126.74,37.05z
		 M119.4,38.78c0.17,0.9,0.6,1.63,1.28,2.19c0.69,0.56,1.5,0.84,2.44,0.84c0.68,0,1.29-0.15,1.85-0.45c0.56-0.3,0.99-0.74,1.33-1.3
		l2.31,0.01c-0.52,1.19-1.26,2.1-2.2,2.73c-0.94,0.63-2.04,0.94-3.29,0.94c-0.84,0-1.61-0.15-2.3-0.43
		c-0.71-0.28-1.34-0.7-1.89-1.27c-0.53-0.53-0.95-1.14-1.24-1.84c-0.3-0.71-0.45-1.42-0.45-2.15c0-0.76,0.15-1.46,0.42-2.12
		c0.27-0.66,0.67-1.26,1.19-1.8c0.59-0.58,1.22-1.03,1.93-1.32c0.71-0.3,1.48-0.44,2.33-0.44c1,0,1.93,0.24,2.79,0.67
		c0.85,0.45,1.56,1.06,2.12,1.85c0.32,0.49,0.57,1.03,0.73,1.61c0.16,0.59,0.22,1.25,0.22,2.01l0,0.3L119.4,38.78L119.4,38.78z
		 M132.82,43.47l-2.04,0l0.03-10.77l1.92,0l0,1.25c0.34-0.48,0.73-0.83,1.17-1.06c0.44-0.22,0.94-0.35,1.54-0.35l0,2.03
		c-0.92,0.06-1.58,0.31-1.98,0.75c-0.4,0.46-0.61,1.17-0.61,2.16L132.82,43.47L132.82,43.47z M136.1,40l1.92,0
		c0,0.57,0.17,1.04,0.5,1.4c0.33,0.38,0.76,0.56,1.26,0.56c0.47,0,0.87-0.14,1.17-0.41c0.31-0.28,0.46-0.62,0.46-1.06
		c0-0.38-0.11-0.7-0.32-0.96c-0.23-0.27-0.57-0.48-1.05-0.67c-0.16-0.06-0.4-0.15-0.71-0.26c-0.81-0.29-1.32-0.52-1.54-0.69
		c-0.4-0.3-0.7-0.65-0.89-1.04c-0.19-0.39-0.29-0.84-0.29-1.35c0-0.87,0.33-1.62,0.98-2.23c0.65-0.61,1.43-0.92,2.36-0.91
		c0.98,0,1.75,0.28,2.31,0.81c0.58,0.54,0.89,1.29,0.94,2.27l-1.96,0c-0.04-0.4-0.18-0.71-0.41-0.93c-0.25-0.22-0.57-0.34-0.97-0.34
		c-0.37,0-0.68,0.12-0.92,0.36c-0.25,0.23-0.37,0.53-0.37,0.88c0,0.6,0.55,1.09,1.65,1.48c0.32,0.11,0.56,0.2,0.73,0.27
		c0.87,0.33,1.5,0.75,1.86,1.25c0.37,0.5,0.55,1.16,0.55,1.99c0,0.97-0.35,1.77-1.04,2.41c-0.7,0.63-1.56,0.95-2.61,0.95
		c-1.06,0-1.92-0.34-2.57-1.01C136.51,42.09,136.16,41.17,136.1,40L136.1,40z M146.69,38.06c0,1.09,0.37,2,1.13,2.74
		c0.76,0.73,1.7,1.1,2.8,1.11c1,0,1.88-0.36,2.67-1.09c0.76-0.74,1.14-1.61,1.14-2.6c0-1.06-0.38-1.96-1.13-2.72
		c-0.76-0.75-1.67-1.13-2.71-1.13c-1.09,0-2,0.36-2.77,1.07C147.06,36.14,146.69,37.02,146.69,38.06L146.69,38.06z M154.33,43.53
		l0-1.32c-0.52,0.51-1.11,0.9-1.76,1.16c-0.65,0.26-1.34,0.39-2.07,0.39c-1.72,0-3.13-0.55-4.26-1.63
		c-1.12-1.08-1.68-2.44-1.68-4.06c0-0.75,0.15-1.47,0.43-2.15c0.28-0.68,0.69-1.28,1.21-1.79c0.57-0.57,1.2-0.98,1.87-1.25
		c0.69-0.27,1.46-0.4,2.33-0.4c0.78,0,1.5,0.13,2.15,0.39c0.66,0.25,1.24,0.66,1.79,1.19l0-1.31l2.07,0l-0.03,10.77L154.33,43.53
		L154.33,43.53z M158.78,43.54l0.03-14.25l2.03,0l-0.03,14.25L158.78,43.54L158.78,43.54z M172.74,43.57l-1.97,0l0-1.2
		c-0.4,0.49-0.85,0.85-1.37,1.09c-0.51,0.23-1.08,0.34-1.71,0.34c-1.42,0-2.53-0.42-3.32-1.27c-0.8-0.84-1.18-2.03-1.17-3.56
		l0.01-6.2l2.05,0l-0.01,5.64c0,1.16,0.22,2.04,0.65,2.63c0.43,0.58,1.09,0.87,1.95,0.87c0.54,0,1.02-0.12,1.44-0.36
		c0.42-0.23,0.76-0.57,1.01-1.01c0.15-0.27,0.27-0.6,0.33-0.98c0.07-0.38,0.1-0.99,0.1-1.83l0.01-4.94l2.02,0L172.74,43.57
		L172.74,43.57z M176.78,38.13c0,1.09,0.37,2,1.13,2.74c0.76,0.73,1.69,1.1,2.8,1.11c1,0,1.89-0.36,2.66-1.09
		c0.77-0.74,1.16-1.61,1.16-2.6c0-1.06-0.38-1.96-1.14-2.72c-0.76-0.75-1.66-1.13-2.7-1.13c-1.08,0-2,0.36-2.76,1.07
		C177.16,36.22,176.78,37.09,176.78,38.13L176.78,38.13z M184.42,43.6l0-1.32c-0.52,0.51-1.11,0.9-1.75,1.16
		c-0.64,0.26-1.33,0.39-2.07,0.39c-1.71,0-3.13-0.55-4.26-1.63c-1.12-1.08-1.69-2.44-1.68-4.06c0-0.75,0.14-1.47,0.43-2.15
		c0.28-0.68,0.69-1.28,1.21-1.79c0.58-0.57,1.21-0.98,1.89-1.25c0.68-0.27,1.45-0.4,2.33-0.4c0.76,0,1.48,0.13,2.14,0.39
		c0.66,0.25,1.26,0.66,1.81,1.19l0.01-4.78l2.05,0l-0.03,14.25L184.42,43.6z"/>
</g>
</svg>
