<?xml version="1.0" encoding="utf-8"?>
<!-- Generator: Adobe Illustrator 23.0.0, SVG Export Plug-In . SVG Version: 6.00 Build 0)  -->
<svg version="1.1" id="Capa_1" xmlns="http://www.w3.org/2000/svg" xmlns:xlink="http://www.w3.org/1999/xlink" x="0px" y="0px"
	 viewBox="0 0 50.18 49.25" style="enable-background:new 0 0 50.18 49.25;" xml:space="preserve">
<style type="text/css">
	.st0{fill:url(#XMLID_3_);}
	.st1{fill:#FFFFFF;}
</style>
<g id="XMLID_2_">
	<radialGradient id="XMLID_3_" cx="1.9899" cy="46.7718" r="81.3507" gradientUnits="userSpaceOnUse">
		<stop  offset="0" style="stop-color:#EDE653"/>
		<stop  offset="0.2412" style="stop-color:#DF8044"/>
		<stop  offset="0.3162" style="stop-color:#D56A59"/>
		<stop  offset="0.4321" style="stop-color:#C74D71"/>
		<stop  offset="0.4888" style="stop-color:#C24278"/>
		<stop  offset="1" style="stop-color:#21288E"/>
	</radialGradient>
	<path id="XMLID_70_" class="st0" d="M25.09,46.63L25.09,46.63c-12.15,0-22-9.85-22-22l0,0c0-12.15,9.85-22,22-22h0
		c12.15,0,22,9.85,22,22l0,0C47.09,36.78,37.24,46.63,25.09,46.63z"/>
	<g id="XMLID_62_">
		<path id="XMLID_67_" class="st1" d="M25.09,14.74c3.22,0,3.6,0.01,4.87,0.07c1.18,0.05,1.81,0.25,2.24,0.42
			c0.56,0.22,0.96,0.48,1.39,0.9c0.42,0.42,0.68,0.82,0.9,1.39c0.17,0.43,0.36,1.06,0.42,2.24c0.06,1.27,0.07,1.65,0.07,4.87
			c0,3.22-0.01,3.6-0.07,4.87c-0.05,1.18-0.25,1.81-0.42,2.24c-0.22,0.56-0.48,0.96-0.9,1.39c-0.42,0.42-0.82,0.68-1.39,0.9
			c-0.43,0.17-1.06,0.36-2.24,0.42c-1.27,0.06-1.65,0.07-4.87,0.07c-3.22,0-3.6-0.01-4.87-0.07c-1.18-0.05-1.81-0.25-2.24-0.42
			c-0.56-0.22-0.96-0.48-1.39-0.9c-0.42-0.42-0.68-0.82-0.9-1.39c-0.17-0.42-0.36-1.06-0.42-2.24c-0.06-1.27-0.07-1.65-0.07-4.87
			c0-3.22,0.01-3.6,0.07-4.87c0.05-1.18,0.25-1.81,0.42-2.24c0.22-0.56,0.48-0.96,0.9-1.39c0.42-0.42,0.82-0.68,1.39-0.9
			c0.42-0.17,1.06-0.36,2.24-0.42C21.49,14.75,21.87,14.74,25.09,14.74 M25.09,12.56c-3.28,0-3.69,0.01-4.97,0.07
			c-1.28,0.06-2.16,0.26-2.93,0.56c-0.79,0.31-1.47,0.72-2.14,1.39c-0.67,0.67-1.08,1.34-1.39,2.14c-0.3,0.77-0.5,1.64-0.56,2.93
			c-0.06,1.29-0.07,1.7-0.07,4.97s0.01,3.69,0.07,4.97c0.06,1.28,0.26,2.16,0.56,2.93c0.31,0.79,0.72,1.47,1.39,2.14
			c0.67,0.67,1.34,1.08,2.14,1.39c0.77,0.3,1.64,0.5,2.93,0.56c1.29,0.06,1.7,0.07,4.97,0.07c3.28,0,3.69-0.01,4.97-0.07
			c1.28-0.06,2.16-0.26,2.93-0.56c0.79-0.31,1.47-0.72,2.14-1.39c0.67-0.67,1.08-1.34,1.39-2.14c0.3-0.77,0.5-1.64,0.56-2.93
			c0.06-1.29,0.07-1.7,0.07-4.97s-0.01-3.69-0.07-4.97c-0.06-1.28-0.26-2.16-0.56-2.93c-0.31-0.79-0.72-1.47-1.39-2.14
			c-0.67-0.67-1.34-1.08-2.14-1.39c-0.77-0.3-1.64-0.5-2.93-0.56C28.78,12.58,28.37,12.56,25.09,12.56"/>
		<path id="XMLID_64_" class="st1" d="M25.09,18.43c-3.42,0-6.19,2.77-6.19,6.19c0,3.42,2.77,6.19,6.19,6.19
			c3.42,0,6.19-2.77,6.19-6.19C31.28,21.21,28.51,18.43,25.09,18.43 M25.09,28.65c-2.22,0-4.02-1.8-4.02-4.02
			c0-2.22,1.8-4.02,4.02-4.02c2.22,0,4.02,1.8,4.02,4.02C29.11,26.85,27.31,28.65,25.09,28.65"/>
		<path id="XMLID_63_" class="st1" d="M32.98,18.19c0,0.8-0.65,1.45-1.45,1.45c-0.8,0-1.45-0.65-1.45-1.45
			c0-0.8,0.65-1.45,1.45-1.45C32.33,16.74,32.98,17.39,32.98,18.19"/>
	</g>
</g>
</svg>
