<?xml version="1.0" encoding="utf-8"?>
<!-- Generator: Adobe Illustrator 23.0.0, SVG Export Plug-In . SVG Version: 6.00 Build 0)  -->
<svg version="1.1" id="Capa_1" xmlns="http://www.w3.org/2000/svg" xmlns:xlink="http://www.w3.org/1999/xlink" x="0px" y="0px"
	 viewBox="0 0 50.18 49.25" style="enable-background:new 0 0 50.18 49.25;" xml:space="preserve">
<style type="text/css">
	.st0{fill:#3E5C94;}
	.st1{fill:#FFFFFF;}
</style>
<g id="XMLID_71_">
	<path id="XMLID_73_" class="st0" d="M25.09,46.63L25.09,46.63c-12.15,0-22-9.85-22-22l0,0c0-12.15,9.85-22,22-22l0,0
		c12.15,0,22,9.85,22,22l0,0C47.09,36.78,37.24,46.63,25.09,46.63z"/>
	<path id="XMLID_72_" class="st1" d="M21.74,37.92h5.36V24.51h3.74l0.4-4.49h-4.13c0,0,0-1.68,0-2.56c0-1.06,0.21-1.48,1.24-1.48
		c0.82,0,2.9,0,2.9,0v-4.66c0,0-3.06,0-3.71,0c-3.98,0-5.78,1.76-5.78,5.11c0,2.93,0,3.58,0,3.58h-2.79v4.55h2.79V37.92z"/>
</g>
</svg>
