<?xml version="1.0" encoding="utf-8"?>
<!-- Generator: Adobe Illustrator 23.0.0, SVG Export Plug-In . SVG Version: 6.00 Build 0)  -->
<svg version="1.1" id="Capa_1" xmlns="http://www.w3.org/2000/svg" xmlns:xlink="http://www.w3.org/1999/xlink" x="0px" y="0px"
	 viewBox="0 0 50.18 49.25" style="enable-background:new 0 0 50.18 49.25;" xml:space="preserve">
<style type="text/css">
	.st0{fill:#BD241A;}
	.st1{fill:#FFFFFF;}
</style>
<g id="XMLID_75_">
	<path id="XMLID_80_" class="st0" d="M25.09,46.63L25.09,46.63c-12.15,0-22-9.85-22-22v0c0-12.15,9.85-22,22-22l0,0
		c12.15,0,22,9.85,22,22v0C47.09,36.78,37.24,46.63,25.09,46.63z"/>
	<g id="XMLID_76_">
		<path id="XMLID_78_" class="st1" d="M37.8,18.2c-0.31-1.15-1.2-2.05-2.35-2.36c-2.07-0.56-10.36-0.56-10.36-0.56
			s-8.3,0-10.36,0.56c-1.14,0.31-2.04,1.21-2.35,2.36c-0.55,2.08-0.55,6.43-0.55,6.43s0,4.34,0.55,6.43
			c0.31,1.15,1.2,2.05,2.35,2.36c2.07,0.56,10.36,0.56,10.36,0.56s8.3,0,10.36-0.56c1.14-0.31,2.04-1.21,2.35-2.36
			c0.55-2.08,0.55-6.43,0.55-6.43S38.36,20.28,37.8,18.2z"/>
		<polygon id="XMLID_77_" class="st0" points="22.38,28.57 22.38,20.68 29.31,24.63 		"/>
	</g>
</g>
</svg>
