<?xml version="1.0" encoding="utf-8"?>
<!-- Generator: Adobe Illustrator 23.0.0, SVG Export Plug-In . SVG Version: 6.00 Build 0)  -->
<svg version="1.1" id="Capa_1" xmlns="http://www.w3.org/2000/svg" xmlns:xlink="http://www.w3.org/1999/xlink" x="0px" y="0px"
	 viewBox="0 0 730 105" style="enable-background:new 0 0 730 105;" xml:space="preserve">
<style type="text/css">
	.st0{opacity:0.2;}
	.st1{clip-path:url(#SVGID_2_);fill:#2C4E81;}
	.st2{clip-path:url(#SVGID_4_);fill-rule:evenodd;clip-rule:evenodd;fill:#2C4E81;}
	.st3{fill:#2C4E81;}
	.st4{fill-rule:evenodd;clip-rule:evenodd;fill:#E6DB37;}
	.st5{clip-path:url(#SVGID_6_);fill:#2C4E81;}
	.st6{fill:#EBE044;}
	.st7{opacity:0.89;fill:url(#SVGID_7_);}
	.st8{fill:#FFFFFF;}
	.st9{fill:none;stroke:#7F7F7F;stroke-miterlimit:10;}
</style>
<g>
	<g>
		<g>
			<g class="st0">
				<g>
					<defs>
						<rect id="SVGID_1_" x="16.98" y="26.83" width="345.25" height="49.78"/>
					</defs>
					<clipPath id="SVGID_2_">
						<use xlink:href="#SVGID_1_"  style="overflow:visible;"/>
					</clipPath>
					<path class="st1" d="M71.63,72.64c-3.27,2.41-6.81,3.58-10.72,3.58c-7.61,0-10.8-5.23-7.94-12.32
						C55.83,56.81,62.9,51.92,71,51.92c3.29,0,5.81,0.85,7.56,2.57l1.19-2.97c1.2-2.96-0.56-4.46-5.44-4.46
						c-3.91,0-7.69,0.69-11.11,2.06l5.45-8.46c4.08-0.77,7.59-1.18,10.53-1.18c9.42,0,12.23,3.59,8.97,11.63L78.11,76h-7.68
						L71.63,72.64z M66.28,68.77c4.04,0,7.12-1.91,8.39-5c1.31-3.25-0.3-5.17-4.2-5.17c-4.19,0-7.3,2-8.51,5.03
						C60.63,66.86,62.22,68.77,66.28,68.77"/>
					<polygon class="st1" points="104.21,27.45 113.37,26.9 93.5,76 84.57,76 					"/>
					<path class="st1" d="M129.24,76h-8.23l2.09-5.14c-4.2,3.64-8.28,5.42-12.4,5.42c-6.9,0-9.08-4.47-5.65-12.93l9.26-22.89
						l9.16-0.56l-8.43,20.85c-2.11,5.23-2.17,7.77,1.74,7.77c4.25,0,7.73-2.88,10.01-8.53l7.9-19.52l9.16-0.56L129.24,76z"/>
					<path class="st1" d="M151.3,76.15c-4.89,0-8.18-1.52-10.33-4.81c-2.31-3.45-2.36-8.13-0.22-13.42
						c2.11-5.22,5.95-9.9,11.08-13.41c4.93-3.37,9.38-4.75,14.55-4.75c4.47,0,7.37,1.46,9.01,4.47l6.78-16.78l9.17-0.55L171.46,76
						h-8.16l2.06-5.08C160.81,74.57,156.4,76.15,151.3,76.15 M155.62,68.24c5.73,0,11.76-4.21,14.2-10.25
						c2.42-5.98-0.23-10.33-5.89-10.33c-5.52,0-11.91,4.62-14.22,10.33C147.27,64.03,149.68,68.24,155.62,68.24"/>
					<polygon class="st1" points="206.97,36.93 193.85,36.93 199.62,27.99 231.95,27.99 228.33,36.93 216.53,36.93 200.68,76 
						191.11,76 					"/>
					<path class="st1" d="M225.58,44.85c4.92-3.37,10.41-5.23,15.65-5.23c5.23,0,9.27,1.92,11.55,5.31
						c2.22,3.43,2.37,7.9,0.32,12.98c-2.06,5.09-5.85,9.63-10.87,13.07c-4.92,3.38-10.63,5.23-15.79,5.23
						c-5.31,0-9.19-1.79-11.43-5.23c-2.22-3.51-2.39-8.04-0.37-13.07C216.7,52.82,220.47,48.36,225.58,44.85 M229.66,68.24
						c5.52,0,12.05-4.61,14.36-10.33c2.42-5.99-0.25-10.25-6.04-10.25c-5.58,0-11.82,4.21-14.26,10.25
						C221.32,63.83,223.94,68.24,229.66,68.24"/>
					<path class="st1" d="M265.04,76.36c-9.56,0-11.62-4.75-7.49-14.93l5.39-13.34h-5.65l5.24-7.64h3.48l2.33-5.72l10.58-4.26
						l-4.05,9.98h8.24l-3.09,7.64h-8.23l-5.42,13.41c-2.07,5.08-1.56,6.94,3.67,6.94c0.77,0,1.95,0,3.52-0.07l-5.4,7.85
						C266.88,76.28,265.81,76.36,265.04,76.36"/>
					<path class="st1" d="M295.62,72.64c-3.28,2.41-6.82,3.58-10.73,3.58c-7.6,0-10.78-5.23-7.92-12.32
						c2.86-7.09,9.93-11.98,18.03-11.98c3.28,0,5.8,0.85,7.55,2.57l1.2-2.97c1.2-2.96-0.55-4.46-5.44-4.46
						c-3.92,0-7.69,0.69-11.11,2.06l5.46-8.46c4.07-0.77,7.59-1.18,10.53-1.18c9.41,0,12.22,3.59,8.97,11.63L302.1,76.02L294.42,76
						L295.62,72.64z M290.27,68.77c4.05,0,7.13-1.91,8.38-5c1.31-3.25-0.28-5.17-4.2-5.17c-4.18,0-7.31,2-8.52,5.03
						C284.63,66.86,286.22,68.77,290.27,68.77"/>
					<polygon class="st1" points="327.48,27.45 336.64,26.9 316.78,76.02 307.84,76.02 					"/>
					<polygon class="st1" points="326.92,65.02 332.88,65.02 332.51,67.01 328.33,67.01 327.45,69.18 330.72,69.18 329.9,71.2 
						326.62,71.2 325.54,73.9 330.24,73.9 328.63,75.99 322.49,75.99 					"/>
					<path class="st1" d="M334.55,65.02h3.1c2.28,0,3.14,1.47,2.24,3.69c-0.89,2.22-2.93,3.67-5.22,3.67h-0.86l-1.46,3.61
						l-2.31,0.14L334.55,65.02z M334.61,70.45h0.54c1.18,0,2.09-0.63,2.52-1.73c0.44-1.08,0.06-1.75-1.11-1.75h-0.55L334.61,70.45z"
						/>
					<path class="st1" d="M353.91,72.95c0.35,0.82,0.79,1.21,1.54,1.21c0.89,0,1.63-0.52,1.96-1.31c0.36-0.92-0.32-1.11-1.34-1.55
						c-1.62-0.72-2.21-1.54-1.54-3.17c0.77-1.93,2.88-3.39,4.98-3.39c1.41,0,2.3,0.5,2.72,1.55l-2.06,1.48
						c-0.33-0.66-0.79-0.98-1.46-0.98c-0.81,0-1.54,0.49-1.83,1.21c-0.4,0.97,0.52,1.04,1.76,1.6c1.36,0.63,1.72,1.72,1.09,3.26
						c-0.79,1.94-2.86,3.4-5.08,3.4c-1.53,0-2.48-0.58-2.9-1.77L353.91,72.95z"/>
					<path class="st1" d="M340.23,72.95c0.35,0.82,0.79,1.21,1.54,1.21c0.89,0,1.63-0.52,1.95-1.31c0.36-0.92-0.32-1.11-1.34-1.55
						c-1.62-0.72-2.21-1.54-1.54-3.17c0.77-1.93,2.88-3.39,4.98-3.39c1.41,0,2.3,0.5,2.72,1.55l-2.06,1.48
						c-0.33-0.66-0.79-0.98-1.46-0.98c-0.81,0-1.54,0.49-1.82,1.21c-0.4,0.97,0.52,1.04,1.76,1.6c1.36,0.63,1.72,1.72,1.09,3.26
						c-0.79,1.94-2.85,3.4-5.08,3.4c-1.53,0-2.48-0.58-2.9-1.77L340.23,72.95z"/>
					<path class="st1" d="M61.75,33.57c-1.83-4.45-5.58-6.65-11.43-6.74c-9.02,0.09-18.03,6.4-21.38,14.65
						c-2.83,7.02-0.3,10.59,6.68,13.69c4.39,1.93,7.4,2.74,5.82,6.67c-1.39,3.44-4.61,5.7-8.44,5.7h-0.3h-0.26
						c-3.19,0-5.06-1.62-6.55-4.92l-8.91,6.38c1.79,5.06,5.78,7.54,12.2,7.62c9.56-0.08,18.42-6.31,21.8-14.7
						c2.7-6.67,1.17-11.35-4.72-14.03c-5.35-2.49-9.36-2.76-7.65-6.93c1.24-3.11,4.41-5.24,7.9-5.24c0.08,0,0.13,0.01,0.2,0.01
						c0.11,0,0.22-0.01,0.35-0.01c2.83,0,4.79,1.36,6.22,3.98L61.75,33.57z"/>
				</g>
			</g>
			<g class="st0">
				<g>
					<defs>
						<rect id="SVGID_3_" x="10.66" y="84.17" width="365.89" height="13.66"/>
					</defs>
					<clipPath id="SVGID_4_">
						<use xlink:href="#SVGID_3_"  style="overflow:visible;"/>
					</clipPath>
					<polygon class="st2" points="10.66,84.17 339.29,84.17 362.82,89.64 35.67,89.64 					"/>
					<polygon class="st2" points="24.4,92.37 353.01,92.37 376.55,97.84 49.4,97.84 					"/>
				</g>
			</g>
			<path class="st3" d="M352.54,71.6c0.35,0.81,0.79,1.2,1.53,1.2c0.89,0,1.65-0.53,1.97-1.32c0.36-0.91-0.33-1.09-1.35-1.54
				c-1.62-0.72-2.21-1.54-1.53-3.17c0.77-1.93,2.87-3.39,4.98-3.39c1.4,0,2.29,0.5,2.71,1.56l-2.05,1.48
				c-0.34-0.65-0.8-0.99-1.48-0.99c-0.8,0-1.52,0.5-1.83,1.22c-0.39,0.96,0.54,1.04,1.78,1.59c1.36,0.62,1.71,1.7,1.09,3.25
				c-0.78,1.95-2.87,3.4-5.08,3.4c-1.54,0-2.48-0.58-2.91-1.77L352.54,71.6z"/>
			<path class="st3" d="M70.26,71.27c-3.27,2.4-6.81,3.57-10.72,3.57c-7.61,0-10.8-5.21-7.93-12.31
				c2.86-7.08,9.93-11.96,18.03-11.96c3.29,0,5.8,0.82,7.55,2.55l1.2-2.96c1.21-2.95-0.57-4.47-5.45-4.47
				c-3.91,0-7.68,0.69-11.1,2.07l5.45-8.47c4.07-0.75,7.6-1.17,10.52-1.17c9.43,0,12.23,3.58,8.98,11.63l-10.06,24.9h-7.67
				L70.26,71.27z M64.92,67.42c4.05,0,7.12-1.93,8.38-5.02c1.3-3.23-0.29-5.16-4.19-5.16c-4.19,0-7.3,1.99-8.52,5.02
				C59.27,65.49,60.87,67.42,64.92,67.42"/>
			<polygon class="st3" points="102.85,26.09 112.01,25.53 92.14,74.64 83.2,74.64 			"/>
			<path class="st3" d="M127.87,74.64h-8.23l2.09-5.16c-4.2,3.65-8.28,5.43-12.39,5.43c-6.91,0-9.09-4.46-5.66-12.93l9.28-22.9
				l9.15-0.55l-8.43,20.85c-2.12,5.22-2.16,7.75,1.75,7.75c4.26,0,7.72-2.87,10-8.52l7.91-19.54l9.16-0.55L127.87,74.64z"/>
			<path class="st3" d="M149.94,74.78c-4.89,0-8.18-1.51-10.34-4.81c-2.3-3.44-2.38-8.11-0.23-13.42c2.11-5.22,5.96-9.9,11.08-13.41
				c4.93-3.37,9.39-4.75,14.55-4.75c4.46,0,7.37,1.45,9.01,4.49l6.79-16.78l9.16-0.56l-19.88,49.11h-8.16l2.06-5.09
				C159.44,73.2,155.04,74.78,149.94,74.78 M154.26,66.87c5.72,0,11.75-4.19,14.2-10.25c2.43-5.99-0.21-10.32-5.87-10.32
				c-5.52,0-11.92,4.6-14.23,10.32C145.91,62.68,148.32,66.87,154.26,66.87"/>
			<polygon class="st3" points="205.6,35.57 192.48,35.57 198.25,26.63 230.59,26.63 226.97,35.57 215.17,35.57 199.3,74.64 
				189.73,74.64 			"/>
			<path class="st3" d="M224.23,43.48c4.91-3.37,10.41-5.24,15.64-5.24c5.24,0,9.27,1.94,11.53,5.31c2.24,3.44,2.38,7.91,0.34,12.99
				c-2.07,5.1-5.85,9.64-10.88,13.08c-4.92,3.37-10.63,5.21-15.79,5.21c-5.3,0-9.18-1.78-11.42-5.21
				c-2.21-3.52-2.39-8.06-0.37-13.08C215.34,51.46,219.09,46.99,224.23,43.48 M228.3,66.87c5.52,0,12.05-4.62,14.37-10.33
				c2.41-5.98-0.26-10.24-6.05-10.24c-5.58,0-11.81,4.2-14.26,10.24C219.96,62.48,222.57,66.87,228.3,66.87"/>
			<path class="st3" d="M263.68,74.99c-9.56,0-11.63-4.75-7.51-14.93l5.39-13.35h-5.64l5.25-7.63h3.49l2.31-5.71l10.58-4.26
				l-4.03,9.97h8.24l-3.09,7.63h-8.24l-5.42,13.42c-2.06,5.11-1.55,6.95,3.68,6.95c0.76,0,1.95,0,3.51-0.07l-5.41,7.83
				C265.52,74.91,264.44,74.99,263.68,74.99"/>
			<path class="st3" d="M294.25,71.27c-3.26,2.4-6.82,3.57-10.72,3.57c-7.61,0-10.81-5.21-7.93-12.31
				c2.87-7.08,9.94-11.96,18.04-11.96c3.27,0,5.81,0.82,7.55,2.55l1.19-2.96c1.2-2.95-0.55-4.47-5.45-4.47
				c-3.91,0-7.67,0.69-11.09,2.07l5.45-8.47c4.09-0.75,7.6-1.17,10.53-1.17c9.43,0,12.22,3.58,8.97,11.63l-10.04,24.91l-7.68-0.01
				L294.25,71.27z M288.9,67.42c4.05,0,7.12-1.93,8.39-5.02c1.31-3.23-0.28-5.16-4.19-5.16c-4.19,0-7.3,1.99-8.53,5.02
				C283.26,65.49,284.86,67.42,288.9,67.42"/>
			<polygon class="st3" points="326.13,26.09 335.27,25.53 315.42,74.65 306.48,74.65 			"/>
			<polygon class="st3" points="325.55,63.66 331.51,63.66 331.15,65.64 326.96,65.64 326.08,67.82 329.36,67.82 328.53,69.84 
				325.26,69.84 324.18,72.53 328.87,72.53 327.26,74.62 321.11,74.62 			"/>
			<path class="st3" d="M333.19,63.66h3.1c2.27,0,3.14,1.47,2.26,3.69c-0.92,2.22-2.95,3.67-5.23,3.67h-0.87l-1.45,3.6l-2.31,0.15
				L333.19,63.66z M333.23,69.08h0.55c1.18,0,2.08-0.64,2.53-1.73c0.45-1.1,0.05-1.73-1.12-1.73h-0.55L333.23,69.08z"/>
			<path class="st3" d="M338.87,71.6c0.35,0.81,0.79,1.2,1.53,1.2c0.89,0,1.64-0.53,1.97-1.32c0.36-0.91-0.33-1.09-1.35-1.54
				c-1.62-0.72-2.2-1.54-1.54-3.17c0.77-1.93,2.88-3.39,4.98-3.39c1.4,0,2.29,0.5,2.71,1.56l-2.05,1.48
				c-0.34-0.65-0.8-0.99-1.48-0.99c-0.8,0-1.52,0.5-1.83,1.22c-0.38,0.96,0.54,1.04,1.78,1.59c1.36,0.62,1.71,1.7,1.09,3.25
				c-0.79,1.95-2.87,3.4-5.08,3.4c-1.54,0-2.48-0.58-2.9-1.77L338.87,71.6z"/>
			<path class="st3" d="M60.39,32.2c-1.82-4.44-5.58-6.65-11.43-6.73c-9,0.08-18.03,6.38-21.37,14.65
				c-2.84,7.02-0.31,10.6,6.69,13.68c4.38,1.93,7.39,2.75,5.81,6.68c-1.4,3.43-4.62,5.7-8.46,5.7c-0.11,0-0.2,0-0.29-0.02
				c-0.09,0.02-0.17,0.02-0.27,0.02c-3.18,0-5.06-1.63-6.55-4.93l-8.91,6.36c1.8,5.07,5.78,7.54,12.2,7.64
				c9.56-0.1,18.41-6.31,21.81-14.72c2.7-6.67,1.17-11.35-4.72-14.03c-5.35-2.48-9.37-2.75-7.67-6.94c1.26-3.1,4.43-5.22,7.92-5.22
				h0.21h0.35c2.83,0,4.79,1.34,6.22,3.97L60.39,32.2z"/>
			<polygon class="st4" points="9.28,82.8 337.9,82.8 361.44,88.26 34.29,88.26 			"/>
			<polygon class="st4" points="23.01,91.02 351.62,91.03 375.16,96.47 48.02,96.47 			"/>
			<g class="st0">
				<g>
					<defs>
						<rect id="SVGID_5_" x="348.31" y="69.48" width="3.24" height="1.17"/>
					</defs>
					<clipPath id="SVGID_6_">
						<use xlink:href="#SVGID_5_"  style="overflow:visible;"/>
					</clipPath>
					<rect x="348.31" y="69.48" class="st5" width="3.23" height="1.17"/>
				</g>
			</g>
			<rect x="347.59" y="68.76" class="st3" width="3.24" height="1.17"/>
		</g>
	</g>
	<g>
		<path class="st6" d="M442.97,41.9L687.77,7.23c4.38-0.62,8.06,3.1,7.13,7.21l-13.78,61.26c-0.59,2.6-2.9,4.53-5.7,4.74
			L462.45,96.56c-2.77,0.21-5.35-1.31-6.39-3.76l-18.04-42.7C436.5,46.49,438.92,42.47,442.97,41.9z"/>
		
			<linearGradient id="SVGID_7_" gradientUnits="userSpaceOnUse" x1="456.0961" y1="33.8388" x2="732.9712" y2="33.8388" gradientTransform="matrix(0.9998 -0.0215 0.0215 0.9998 -12.1864 39.6026)">
			<stop  offset="0.0596" style="stop-color:#354580"/>
			<stop  offset="0.6232" style="stop-color:#4F74A5"/>
			<stop  offset="0.9951" style="stop-color:#5D8EB9"/>
		</linearGradient>
		<path class="st7" d="M699.48,92.3l-232.51-1.93c-2.99-0.02-5.57-1.61-6.31-3.86l-16.55-50.65c-1.06-3.25,2.04-6.45,6.34-6.54
			l263.5-5.67c4.23-0.09,7.45,2.89,6.64,6.14l-14.44,58.25C705.53,90.53,702.72,92.33,699.48,92.3z"/>
		<g>
			<path class="st8" d="M499.66,62.24c-1.8,11.32-7.76,15.56-13.08,15.56c-5.32,0-9.92-4.24-8.12-15.56
				c1.8-11.32,7.72-15.56,13.04-15.56C496.82,46.68,501.46,50.92,499.66,62.24z M487.46,72.27c3.96,0,5.44-7.64,5.84-10.04
				c0.4-2.68,1.28-10.04-2.68-10.04c-3.96,0-5.4,7.36-5.8,10.04C484.42,64.64,483.5,72.27,487.46,72.27z"/>
			<path class="st8" d="M504.34,57.12l0.88-5.68c0.64-3.8,1.84-6.8,6.88-6.8c0.84,0,1.64,0.2,2.4,0.48l-0.88,5.44
				c-0.32-0.2-0.56-0.32-0.96-0.32c-1.8,0-1.92,2.04-2.12,3.28l-0.56,3.6h2.6l-0.72,4.64h-2.6l-2.48,15.56h-5.64l2.48-15.56h-2.08
				l0.72-4.64H504.34z M520.78,57.12l-3.2,20.2h-5.64l3.2-20.2H520.78z M515.34,51.08c0.32-2.04,2.2-3.56,4.24-3.56
				c1.96,0,3.2,1.72,2.92,3.64c-0.32,1.92-2.24,3.56-4.2,3.56C516.34,54.72,515.02,53.08,515.34,51.08z"/>
			<path class="st8" d="M531.42,76.99c-1.12,0.48-2.2,0.72-3.36,0.72c-5.48,0-6.48-5.76-5.76-10.36c0.84-5.08,3.72-10.64,9.56-10.64
				c1,0,1.84,0.2,2.68,0.6l-0.76,4.96c-0.48-0.48-0.88-0.64-1.56-0.64c-2.76,0-3.88,3.32-4.2,5.4c-0.36,2.16-0.44,5.4,2.4,5.4
				c0.64,0,1.24-0.24,1.84-0.6L531.42,76.99z"/>
			<path class="st8" d="M542.5,57.12l-3.2,20.2h-5.64l3.2-20.2H542.5z M537.06,51.08c0.32-2.04,2.2-3.56,4.24-3.56
				c1.96,0,3.2,1.72,2.92,3.64c-0.32,1.92-2.24,3.56-4.2,3.56C538.06,54.72,536.74,53.08,537.06,51.08z"/>
			<path class="st8" d="M550.42,60.24h0.08c1.04-1.92,3.04-3.52,5.24-3.52c4.16,0,3.04,4.64,2.6,7.56l-2.08,13.04h-5.64l1.76-11.08
				c0.16-1.04,1-3.84-0.8-3.84c-1.28,0-1.72,1.32-1.88,2.32l-2,12.6h-5.64l3.2-20.2h5.64L550.42,60.24z"/>
			<path class="st8" d="M568.3,75.03h-0.08c-0.48,0.76-1.08,1.44-1.76,1.92c-0.72,0.48-1.48,0.76-2.4,0.76
				c-4.56,0-4.32-7.28-3.8-10.52c0.56-3.48,2.36-10.48,7.08-10.48c1.88,0,2.96,1.24,3.32,2.88h0.08l0.4-2.48h5.64l-3.2,20.2h-5.64
				L568.3,75.03z M569.94,67.11c0.2-1.12,0.76-5.4-1.16-5.4c-1.88,0-2.68,4.24-2.88,5.4c-0.2,1.28-0.76,5.44,1.24,5.44
				C568.94,72.55,569.78,68.19,569.94,67.11z"/>
			<path class="st8" d="M596.22,47.16l1.32,14.48c0.24,1.72,0.16,3.44,0.28,5.16h0.08c0.6-1.76,0.96-3.48,1.72-5.24l5.92-14.4h6.24
				l-13.12,30.15h-4.88l-3.96-30.15H596.22z"/>
			<path class="st8" d="M617.54,57.12l-3.2,20.2h-5.64l3.2-20.2H617.54z M612.1,51.08c0.32-2.04,2.2-3.56,4.24-3.56
				c1.96,0,3.2,1.72,2.92,3.64c-0.32,1.92-2.24,3.56-4.2,3.56C613.1,54.72,611.78,53.08,612.1,51.08z"/>
			<path class="st8" d="M625.94,57.12l-0.4,2.44h0.08c1.32-1.76,2.88-3,5.12-3.2l-0.88,5.48c-0.28-0.04-0.52-0.08-0.84-0.08
				c-3.76,0-4.2,2.48-4.68,5.48l-1.6,10.08h-5.64l3.2-20.2H625.94z"/>
			<path class="st8" d="M641.18,51.52l-0.88,5.6h2.32l-0.72,4.64h-2.32l-2.48,15.56h-5.64l2.48-15.56h-1.96l0.72-4.64h1.96l0.88-5.6
				H641.18z"/>
			<path class="st8" d="M650.86,57.12l-1.76,11.08c-0.16,1.12-1.12,4.24,0.76,4.24c1.52,0,1.72-2,1.88-3l2-12.32h5.6l-2.04,12.88
				c-0.76,4.68-3.44,7.72-8.44,7.72c-6.4,0-6.16-4.8-5.56-8.48l1.92-12.12H650.86z"/>
			<path class="st8" d="M668.21,75.03h-0.08c-0.48,0.76-1.08,1.44-1.76,1.92c-0.72,0.48-1.48,0.76-2.4,0.76
				c-4.56,0-4.32-7.28-3.8-10.52c0.56-3.48,2.36-10.48,7.08-10.48c1.88,0,2.96,1.24,3.32,2.88h0.08l0.4-2.48h5.64l-3.2,20.2h-5.64
				L668.21,75.03z M669.86,67.11c0.2-1.12,0.76-5.4-1.16-5.4c-1.88,0-2.68,4.24-2.88,5.4c-0.2,1.28-0.76,5.44,1.24,5.44
				C668.86,72.55,669.7,68.19,669.86,67.11z"/>
			<path class="st8" d="M687.01,45.04l-5.12,32.27h-5.64l5.12-32.27H687.01z"/>
		</g>
	</g>
	<line class="st9" x1="405.44" y1="24.04" x2="405.44" y2="84"/>
</g>
</svg>
