<?xml version="1.0" encoding="utf-8"?>
<!-- Generator: Adobe Illustrator 23.0.0, SVG Export Plug-In . SVG Version: 6.00 Build 0)  -->
<svg version="1.1" id="Capa_1" xmlns="http://www.w3.org/2000/svg" xmlns:xlink="http://www.w3.org/1999/xlink" x="0px" y="0px"
	 viewBox="0 0 377.18 82.25" style="enable-background:new 0 0 377.18 82.25;" xml:space="preserve">
<style type="text/css">
	.st0{opacity:0.2;}
	.st1{clip-path:url(#SVGID_2_);fill:#2C4E81;}
	.st2{clip-path:url(#SVGID_4_);fill-rule:evenodd;clip-rule:evenodd;fill:#2C4E81;}
	.st3{fill:#2C4E81;}
	.st4{fill-rule:evenodd;clip-rule:evenodd;fill:#E5DB34;}
	.st5{clip-path:url(#SVGID_6_);fill:#2C4E81;}
</style>
<g>
	<g>
		<g class="st0">
			<g>
				<defs>
					<rect id="SVGID_1_" x="12.66" y="6.3" width="345.25" height="49.78"/>
				</defs>
				<clipPath id="SVGID_2_">
					<use xlink:href="#SVGID_1_"  style="overflow:visible;"/>
				</clipPath>
				<path class="st1" d="M67.3,52.11c-3.27,2.41-6.81,3.58-10.72,3.58c-7.61,0-10.8-5.23-7.94-12.32
					c2.87-7.09,9.93-11.97,18.03-11.97c3.29,0,5.81,0.85,7.56,2.57l1.19-2.97c1.2-2.96-0.56-4.46-5.44-4.46
					c-3.91,0-7.69,0.69-11.11,2.06l5.45-8.46c4.08-0.77,7.59-1.18,10.53-1.18c9.42,0,12.23,3.59,8.97,11.63L73.78,55.47H66.1
					L67.3,52.11z M61.95,48.24c4.04,0,7.12-1.91,8.39-5c1.31-3.25-0.3-5.17-4.2-5.17c-4.19,0-7.3,2-8.51,5.03
					C56.31,46.33,57.9,48.24,61.95,48.24"/>
				<polygon class="st1" points="99.89,6.92 109.05,6.38 89.18,55.47 80.25,55.47 				"/>
				<path class="st1" d="M124.92,55.47h-8.23l2.09-5.14c-4.2,3.64-8.28,5.42-12.4,5.42c-6.9,0-9.08-4.47-5.65-12.93l9.26-22.89
					l9.16-0.56l-8.43,20.85c-2.11,5.23-2.17,7.77,1.74,7.77c4.25,0,7.73-2.88,10.01-8.53l7.9-19.52l9.16-0.56L124.92,55.47z"/>
				<path class="st1" d="M146.98,55.62c-4.89,0-8.18-1.52-10.33-4.81c-2.31-3.45-2.36-8.13-0.22-13.42
					c2.11-5.22,5.95-9.9,11.08-13.41c4.93-3.37,9.38-4.75,14.55-4.75c4.47,0,7.37,1.46,9.01,4.47l6.78-16.78l9.17-0.55l-19.87,49.09
					h-8.16l2.06-5.08C156.48,54.05,152.08,55.62,146.98,55.62 M151.3,47.71c5.73,0,11.76-4.21,14.2-10.25
					c2.42-5.98-0.23-10.33-5.89-10.33c-5.52,0-11.91,4.62-14.22,10.33C142.95,43.5,145.36,47.71,151.3,47.71"/>
				<polygon class="st1" points="202.64,16.4 189.53,16.4 195.3,7.46 227.62,7.46 224.01,16.4 212.21,16.4 196.36,55.47 
					186.79,55.47 				"/>
				<path class="st1" d="M221.26,24.32c4.92-3.37,10.41-5.23,15.65-5.23c5.23,0,9.27,1.92,11.55,5.31c2.22,3.43,2.37,7.9,0.32,12.98
					c-2.06,5.09-5.85,9.63-10.87,13.07c-4.92,3.38-10.63,5.23-15.79,5.23c-5.31,0-9.19-1.79-11.43-5.23
					c-2.22-3.51-2.39-8.04-0.37-13.07C212.37,32.3,216.15,27.83,221.26,24.32 M225.33,47.71c5.52,0,12.05-4.61,14.36-10.33
					c2.42-5.99-0.25-10.25-6.04-10.25c-5.58,0-11.82,4.21-14.26,10.25C217,43.3,219.62,47.71,225.33,47.71"/>
				<path class="st1" d="M260.71,55.83c-9.56,0-11.62-4.75-7.49-14.93l5.39-13.34h-5.65l5.24-7.64h3.48l2.33-5.72l10.58-4.26
					l-4.05,9.98h8.24l-3.09,7.64h-8.23l-5.42,13.41c-2.07,5.08-1.56,6.94,3.67,6.94c0.77,0,1.95,0,3.52-0.07l-5.4,7.85
					C262.56,55.75,261.49,55.83,260.71,55.83"/>
				<path class="st1" d="M291.3,52.11c-3.28,2.41-6.82,3.58-10.73,3.58c-7.6,0-10.78-5.23-7.92-12.32
					c2.86-7.09,9.93-11.98,18.03-11.98c3.28,0,5.8,0.85,7.55,2.57l1.2-2.97c1.2-2.96-0.55-4.46-5.44-4.46
					c-3.92,0-7.69,0.69-11.11,2.06l5.46-8.46c4.07-0.77,7.59-1.18,10.53-1.18c9.41,0,12.22,3.59,8.97,11.63l-10.05,24.91l-7.67-0.02
					L291.3,52.11z M285.95,48.24c4.05,0,7.13-1.91,8.38-5c1.31-3.25-0.28-5.17-4.2-5.17c-4.18,0-7.31,2-8.52,5.03
					C280.3,46.33,281.89,48.24,285.95,48.24"/>
				<polygon class="st1" points="323.16,6.92 332.31,6.38 312.46,55.49 303.52,55.49 				"/>
				<polygon class="st1" points="322.6,44.5 328.55,44.5 328.19,46.49 324.01,46.49 323.12,48.65 326.4,48.65 325.58,50.68 
					322.3,50.68 321.22,53.37 325.92,53.37 324.31,55.46 318.17,55.46 				"/>
				<path class="st1" d="M330.23,44.49h3.1c2.28,0,3.14,1.47,2.24,3.69c-0.89,2.22-2.93,3.67-5.22,3.67h-0.86l-1.46,3.61l-2.31,0.14
					L330.23,44.49z M330.28,49.92h0.54c1.18,0,2.09-0.63,2.52-1.73c0.44-1.08,0.06-1.75-1.11-1.75h-0.55L330.28,49.92z"/>
				<path class="st1" d="M349.58,52.42c0.35,0.82,0.79,1.21,1.54,1.21c0.89,0,1.63-0.52,1.96-1.31c0.36-0.92-0.32-1.11-1.34-1.55
					c-1.62-0.72-2.21-1.54-1.54-3.17c0.77-1.93,2.88-3.39,4.98-3.39c1.41,0,2.3,0.5,2.72,1.55l-2.06,1.48
					c-0.33-0.66-0.79-0.98-1.46-0.98c-0.81,0-1.54,0.49-1.83,1.21c-0.4,0.97,0.52,1.04,1.76,1.6c1.36,0.63,1.72,1.72,1.09,3.26
					c-0.79,1.94-2.86,3.4-5.08,3.4c-1.53,0-2.48-0.58-2.9-1.77L349.58,52.42z"/>
				<path class="st1" d="M335.91,52.42c0.35,0.82,0.79,1.21,1.54,1.21c0.89,0,1.63-0.52,1.95-1.31c0.36-0.92-0.32-1.11-1.34-1.55
					c-1.62-0.72-2.21-1.54-1.54-3.17c0.77-1.93,2.88-3.39,4.98-3.39c1.41,0,2.3,0.5,2.72,1.55l-2.06,1.48
					c-0.33-0.66-0.79-0.98-1.46-0.98c-0.81,0-1.54,0.49-1.82,1.21c-0.4,0.97,0.52,1.04,1.76,1.6c1.36,0.63,1.72,1.72,1.09,3.26
					c-0.79,1.94-2.85,3.4-5.08,3.4c-1.53,0-2.48-0.58-2.9-1.77L335.91,52.42z"/>
				<path class="st1" d="M57.43,13.05C55.6,8.6,51.85,6.39,46,6.3c-9.02,0.09-18.03,6.4-21.38,14.65
					c-2.83,7.02-0.3,10.59,6.68,13.69c4.39,1.93,7.4,2.74,5.82,6.67c-1.39,3.44-4.61,5.7-8.44,5.7h-0.3h-0.26
					c-3.19,0-5.06-1.62-6.55-4.92l-8.91,6.38c1.79,5.06,5.78,7.54,12.2,7.62c9.56-0.08,18.42-6.31,21.8-14.7
					c2.7-6.67,1.17-11.35-4.72-14.03c-5.35-2.49-9.36-2.76-7.65-6.93c1.24-3.11,4.41-5.24,7.9-5.24c0.08,0,0.13,0.01,0.2,0.01
					c0.11,0,0.22-0.01,0.35-0.01c2.83,0,4.79,1.36,6.22,3.98L57.43,13.05z"/>
			</g>
		</g>
		<g class="st0">
			<g>
				<defs>
					<rect id="SVGID_3_" x="6.34" y="63.65" width="365.89" height="13.66"/>
				</defs>
				<clipPath id="SVGID_4_">
					<use xlink:href="#SVGID_3_"  style="overflow:visible;"/>
				</clipPath>
				<polygon class="st2" points="6.34,63.65 334.97,63.65 358.5,69.11 31.35,69.11 				"/>
				<polygon class="st2" points="20.07,71.85 348.69,71.85 372.22,77.31 45.07,77.31 				"/>
			</g>
		</g>
		<path class="st3" d="M348.22,51.07c0.35,0.81,0.79,1.2,1.53,1.2c0.89,0,1.65-0.53,1.97-1.32c0.36-0.91-0.33-1.09-1.35-1.54
			c-1.62-0.72-2.21-1.54-1.53-3.17c0.77-1.93,2.87-3.39,4.98-3.39c1.4,0,2.29,0.5,2.71,1.56l-2.05,1.48
			c-0.34-0.65-0.8-0.99-1.48-0.99c-0.8,0-1.52,0.5-1.83,1.22c-0.39,0.96,0.54,1.04,1.78,1.59c1.36,0.62,1.71,1.7,1.09,3.25
			c-0.78,1.95-2.87,3.4-5.08,3.4c-1.54,0-2.48-0.58-2.91-1.77L348.22,51.07z"/>
		<path class="st3" d="M65.94,50.75c-3.27,2.4-6.81,3.57-10.72,3.57c-7.61,0-10.8-5.21-7.93-12.31c2.86-7.08,9.93-11.96,18.03-11.96
			c3.29,0,5.8,0.82,7.55,2.55l1.2-2.96c1.21-2.95-0.57-4.47-5.45-4.47c-3.91,0-7.68,0.69-11.1,2.07l5.45-8.47
			c4.07-0.75,7.6-1.17,10.52-1.17c9.43,0,12.23,3.58,8.98,11.63l-10.06,24.9h-7.67L65.94,50.75z M60.59,46.89
			c4.05,0,7.12-1.93,8.38-5.02c1.3-3.23-0.29-5.16-4.19-5.16c-4.19,0-7.3,1.99-8.52,5.02C54.95,44.96,56.55,46.89,60.59,46.89"/>
		<polygon class="st3" points="98.53,5.56 107.68,5 87.82,54.11 78.88,54.11 		"/>
		<path class="st3" d="M123.55,54.11h-8.23l2.09-5.16c-4.2,3.65-8.28,5.43-12.39,5.43c-6.91,0-9.09-4.46-5.66-12.93l9.28-22.9
			l9.15-0.55l-8.43,20.85c-2.12,5.22-2.16,7.75,1.75,7.75c4.26,0,7.72-2.87,10-8.52L129,18.55l9.16-0.55L123.55,54.11z"/>
		<path class="st3" d="M145.62,54.25c-4.89,0-8.18-1.51-10.34-4.81c-2.3-3.44-2.38-8.11-0.23-13.42c2.11-5.22,5.96-9.9,11.08-13.41
			c4.93-3.37,9.39-4.75,14.55-4.75c4.46,0,7.37,1.45,9.01,4.49l6.79-16.78L185.64,5l-19.88,49.11h-8.16l2.06-5.09
			C155.12,52.67,150.72,54.25,145.62,54.25 M149.94,46.35c5.72,0,11.75-4.19,14.2-10.25c2.43-5.99-0.21-10.32-5.87-10.32
			c-5.52,0-11.92,4.6-14.23,10.32C141.58,42.15,143.99,46.35,149.94,46.35"/>
		<polygon class="st3" points="201.28,15.04 188.16,15.04 193.93,6.1 226.26,6.1 222.64,15.04 210.84,15.04 194.98,54.11 
			185.41,54.11 		"/>
		<path class="st3" d="M219.9,22.95c4.91-3.37,10.41-5.24,15.64-5.24c5.24,0,9.27,1.94,11.53,5.31c2.24,3.44,2.38,7.91,0.34,12.99
			c-2.07,5.1-5.85,9.64-10.88,13.08c-4.92,3.37-10.63,5.21-15.79,5.21c-5.3,0-9.18-1.78-11.42-5.21c-2.21-3.52-2.39-8.06-0.37-13.08
			C211.01,30.94,214.77,26.46,219.9,22.95 M223.97,46.35c5.52,0,12.05-4.62,14.37-10.33c2.41-5.98-0.26-10.24-6.05-10.24
			c-5.58,0-11.81,4.2-14.26,10.24C215.63,41.95,218.25,46.35,223.97,46.35"/>
		<path class="st3" d="M259.36,54.46c-9.56,0-11.63-4.75-7.51-14.93l5.39-13.35h-5.64l5.25-7.63h3.49l2.31-5.71l10.58-4.26
			l-4.03,9.97h8.24l-3.09,7.63h-8.24l-5.42,13.42c-2.06,5.11-1.55,6.95,3.68,6.95c0.76,0,1.95,0,3.51-0.07l-5.41,7.83
			C261.2,54.38,260.11,54.46,259.36,54.46"/>
		<path class="st3" d="M289.93,50.75c-3.26,2.4-6.82,3.57-10.72,3.57c-7.61,0-10.81-5.21-7.93-12.31
			c2.87-7.08,9.94-11.96,18.04-11.96c3.27,0,5.81,0.82,7.55,2.55l1.19-2.96c1.2-2.95-0.55-4.47-5.45-4.47
			c-3.91,0-7.67,0.69-11.09,2.07l5.45-8.47c4.09-0.75,7.6-1.17,10.53-1.17c9.43,0,12.22,3.58,8.97,11.63l-10.04,24.91l-7.68-0.01
			L289.93,50.75z M284.58,46.89c4.05,0,7.12-1.93,8.39-5.02c1.31-3.23-0.28-5.16-4.19-5.16c-4.19,0-7.3,1.99-8.53,5.02
			C278.94,44.96,280.54,46.89,284.58,46.89"/>
		<polygon class="st3" points="321.81,5.56 330.95,5 311.1,54.13 302.16,54.13 		"/>
		<polygon class="st3" points="321.23,43.13 327.18,43.13 326.82,45.11 322.64,45.11 321.76,47.29 325.04,47.29 324.21,49.32 
			320.94,49.32 319.85,52 324.54,52 322.94,54.09 316.79,54.09 		"/>
		<path class="st3" d="M328.86,43.13h3.1c2.27,0,3.14,1.47,2.26,3.69c-0.92,2.22-2.95,3.67-5.23,3.67h-0.87l-1.45,3.6l-2.31,0.15
			L328.86,43.13z M328.91,48.55h0.55c1.18,0,2.08-0.64,2.53-1.73c0.45-1.1,0.05-1.73-1.12-1.73h-0.55L328.91,48.55z"/>
		<path class="st3" d="M334.55,51.07c0.35,0.81,0.79,1.2,1.53,1.2c0.89,0,1.64-0.53,1.97-1.32c0.36-0.91-0.33-1.09-1.35-1.54
			c-1.62-0.72-2.2-1.54-1.54-3.17c0.77-1.93,2.88-3.39,4.98-3.39c1.4,0,2.29,0.5,2.71,1.56l-2.05,1.48
			c-0.34-0.65-0.8-0.99-1.48-0.99c-0.8,0-1.52,0.5-1.83,1.22c-0.38,0.96,0.54,1.04,1.78,1.59c1.36,0.62,1.71,1.7,1.09,3.25
			c-0.79,1.95-2.87,3.4-5.08,3.4c-1.54,0-2.48-0.58-2.9-1.77L334.55,51.07z"/>
		<path class="st3" d="M56.06,11.67c-1.82-4.44-5.58-6.65-11.43-6.73c-9,0.08-18.03,6.38-21.37,14.65
			c-2.84,7.02-0.31,10.6,6.69,13.68c4.38,1.93,7.39,2.75,5.81,6.68c-1.4,3.43-4.62,5.7-8.46,5.7c-0.11,0-0.2,0-0.29-0.02
			c-0.09,0.02-0.17,0.02-0.27,0.02c-3.18,0-5.06-1.63-6.55-4.93l-8.91,6.36c1.8,5.07,5.78,7.54,12.2,7.64
			c9.56-0.1,18.41-6.31,21.81-14.72c2.7-6.67,1.17-11.35-4.72-14.03c-5.35-2.48-9.37-2.75-7.67-6.94c1.26-3.1,4.43-5.22,7.92-5.22
			h0.21h0.35c2.83,0,4.79,1.34,6.22,3.97L56.06,11.67z"/>
		<polygon class="st4" points="4.96,62.27 333.58,62.27 357.11,67.74 29.97,67.74 		"/>
		<polygon class="st4" points="18.68,70.49 347.29,70.5 370.84,75.95 43.69,75.95 		"/>
		<g class="st0">
			<g>
				<defs>
					<rect id="SVGID_5_" x="343.99" y="48.95" width="3.24" height="1.17"/>
				</defs>
				<clipPath id="SVGID_6_">
					<use xlink:href="#SVGID_5_"  style="overflow:visible;"/>
				</clipPath>
				<rect x="343.99" y="48.95" class="st5" width="3.23" height="1.17"/>
			</g>
		</g>
		<rect x="343.27" y="48.24" class="st3" width="3.24" height="1.17"/>
	</g>
</g>
</svg>
