<?xml version="1.0" encoding="utf-8"?>
<!-- Generator: Adobe Illustrator 23.0.0, SVG Export Plug-In . SVG Version: 6.00 Build 0)  -->
<svg version="1.1" id="Capa_1" xmlns="http://www.w3.org/2000/svg" xmlns:xlink="http://www.w3.org/1999/xlink" x="0px" y="0px"
	 viewBox="0 0 33 29" style="enable-background:new 0 0 33 29;" xml:space="preserve">
<style type="text/css">
	.st0{fill:#62A1D9;}
</style>
<g>
	<g>
		<path class="st0" d="M28.95,8.8h-6.44V4.42c0-0.78-0.6-1.42-1.38-1.42h-8.77c-0.78,0-1.46,0.64-1.46,1.42V8.8H4.43
			c-0.79,0-1.46,0.64-1.46,1.42v14.81c0,0.78,0.68,1.42,1.46,1.42h24.52c0.79,0,1.38-0.64,1.38-1.42V10.23
			C30.34,9.44,29.74,8.8,28.95,8.8L28.95,8.8z M12.8,4.9h7.82V8.8H12.8V4.9z M21.57,19.58h-2.96v2.96H14.7v-2.96h-2.96v-3.91h2.96
			v-2.96h3.91v2.96h2.96V19.58z M21.57,19.58"/>
	</g>
</g>
</svg>
