<?xml version="1.0" encoding="utf-8"?>
<!-- Generator: Adobe Illustrator 23.0.0, SVG Export Plug-In . SVG Version: 6.00 Build 0)  -->
<svg version="1.1" id="Capa_1" xmlns="http://www.w3.org/2000/svg" xmlns:xlink="http://www.w3.org/1999/xlink" x="0px" y="0px"
	 viewBox="0 0 30 27" style="enable-background:new 0 0 30 27;" xml:space="preserve">
<style type="text/css">
	.st0{fill:#62A1D9;}
</style>
<g>
	<g>
		<path class="st0" d="M26.95,6.8h-6.44V2.42c0-0.78-0.6-1.42-1.38-1.42h-8.77C9.59,1,8.91,1.64,8.91,2.42V6.8H2.43
			c-0.79,0-1.46,0.64-1.46,1.42v14.81c0,0.78,0.68,1.42,1.46,1.42h24.52c0.79,0,1.38-0.64,1.38-1.42V8.23
			C28.34,7.44,27.74,6.8,26.95,6.8L26.95,6.8z M10.8,2.9h7.82V6.8H10.8V2.9z M19.57,17.58h-2.96v2.96H12.7v-2.96H9.74v-3.91h2.96
			v-2.96h3.91v2.96h2.96V17.58z M19.57,17.58"/>
	</g>
</g>
</svg>
