<?xml version="1.0" encoding="utf-8"?>
<!-- Generator: Adobe Illustrator 23.0.0, SVG Export Plug-In . SVG Version: 6.00 Build 0)  -->
<svg version="1.1" id="Capa_1" xmlns="http://www.w3.org/2000/svg" xmlns:xlink="http://www.w3.org/1999/xlink" x="0px" y="0px"
	 viewBox="0 0 101 105" style="enable-background:new 0 0 101 105;" xml:space="preserve">
<style type="text/css">
	.st0{fill:#FFFFFF;}
</style>
<g>
	<path class="st0" d="M92.33,89.28c0.23-0.41,0.22-0.91-0.02-1.31l-7.41-12.34c-3.49-5.83-5.34-12.5-5.34-19.29v-10.8
		c0-12.85-8.61-24.4-20.94-28.08l-0.61-0.18V8.9c0-4.28-3.49-7.77-7.77-7.77c-4.28,0-7.77,3.48-7.77,7.77v8.37l-0.61,0.18
		c-12.33,3.69-20.94,15.24-20.94,28.08v10.8c0,6.79-1.85,13.46-5.34,19.29l-7.4,12.33c-0.25,0.4-0.25,0.9-0.02,1.31
		c0.23,0.41,0.67,0.66,1.14,0.66h31.45l-0.21,1.02c-0.15,0.74-0.22,1.37-0.22,1.98c0,5.47,4.45,9.92,9.92,9.92
		c5.47,0,9.92-4.45,9.93-9.92c0-0.61-0.07-1.26-0.22-1.98l-0.21-1.02H91.2C91.67,89.94,92.1,89.69,92.33,89.28z M45.09,8.9
		c0-2.85,2.32-5.16,5.16-5.16s5.16,2.32,5.16,5.16v7.8l-0.97-0.14c-3.17-0.46-5.2-0.46-8.38,0l-0.97,0.14V8.9z M50.25,100.26
		c-4.03,0-7.32-3.28-7.32-7.32c0-0.75,0.15-1.55,0.47-2.44l0.2-0.56H56.9l0.2,0.56c0.32,0.89,0.47,1.69,0.47,2.44
		C57.57,96.98,54.29,100.26,50.25,100.26z M11.61,87.33l6.21-10.36c3.74-6.22,5.71-13.36,5.71-20.63v-10.8
		c0-14.73,11.98-26.71,26.71-26.71s26.71,11.98,26.71,26.71v10.8c0,7.27,1.97,14.4,5.71,20.63l6.22,10.36H11.61z"/>
</g>
</svg>
