<?xml version="1.0" encoding="utf-8"?>
<!-- Generator: Adobe Illustrator 23.0.0, SVG Export Plug-In . SVG Version: 6.00 Build 0)  -->
<svg version="1.1" id="Capa_1" xmlns="http://www.w3.org/2000/svg" xmlns:xlink="http://www.w3.org/1999/xlink" x="0px" y="0px"
	 viewBox="0 0 23.62 31.06" style="enable-background:new 0 0 23.62 31.06;" xml:space="preserve">
<style type="text/css">
	.st0{fill:#62A1D9;}
</style>
<g>
	<path class="st0" d="M21.26,0.83H2.51C2,0.83,1.59,1.25,1.59,1.75v26.99c0,0.51,0.41,0.92,0.92,0.92h18.75
		c0.51,0,0.92-0.41,0.92-0.92V1.75C22.18,1.25,21.77,0.83,21.26,0.83z M6.41,24.57c-0.67,0-1.22-0.55-1.22-1.22
		c0-0.68,0.55-1.22,1.22-1.22c0.67,0,1.22,0.55,1.22,1.22C7.64,24.02,7.09,24.57,6.41,24.57z M6.41,19.52
		c-0.68,0-1.22-0.55-1.22-1.22c0-0.68,0.55-1.22,1.22-1.22c0.68,0,1.22,0.55,1.22,1.22C7.64,18.97,7.09,19.52,6.41,19.52z
		 M6.41,14.63c-0.68,0-1.22-0.55-1.22-1.22c0-0.68,0.55-1.22,1.22-1.22c0.68,0,1.22,0.55,1.22,1.22
		C7.64,14.08,7.09,14.63,6.41,14.63z M13.02,28.1H10.4c-0.25,0-0.46-0.21-0.46-0.46c0-0.25,0.21-0.46,0.46-0.46h2.61
		c0.25,0,0.46,0.21,0.46,0.46C13.48,27.9,13.27,28.1,13.02,28.1z M10.85,17.43c0.23-0.23,0.54-0.36,0.86-0.36
		c0.68,0,1.22,0.55,1.22,1.22c0,0.68-0.55,1.22-1.22,1.22c-0.68,0-1.22-0.55-1.22-1.22C10.49,17.97,10.62,17.66,10.85,17.43z
		 M10.49,13.41c0-0.32,0.13-0.64,0.36-0.86c0.23-0.23,0.54-0.36,0.86-0.36c0.68,0,1.22,0.55,1.22,1.22c0,0.68-0.55,1.22-1.22,1.22
		C11.03,14.63,10.49,14.08,10.49,13.41z M10.85,22.49c0.23-0.23,0.54-0.36,0.86-0.36c0.67,0,1.22,0.55,1.22,1.22
		c0,0.67-0.55,1.22-1.22,1.22c-0.67,0-1.22-0.55-1.22-1.22C10.49,23.03,10.62,22.71,10.85,22.49z M17.01,24.57
		c-0.67,0-1.22-0.55-1.22-1.22c0-0.68,0.55-1.22,1.22-1.22c0.68,0,1.22,0.55,1.22,1.22C18.23,24.02,17.68,24.57,17.01,24.57z
		 M17.01,19.52c-0.68,0-1.22-0.55-1.22-1.22c0-0.68,0.55-1.22,1.22-1.22c0.68,0,1.22,0.55,1.22,1.22
		C18.23,18.97,17.68,19.52,17.01,19.52z M17.01,14.63c-0.68,0-1.22-0.55-1.22-1.22c0-0.68,0.55-1.22,1.22-1.22
		c0.68,0,1.22,0.55,1.22,1.22C18.23,14.08,17.68,14.63,17.01,14.63z M18.66,8.65H4.76V5.06h13.91V8.65z"/>
</g>
</svg>
