<?xml version="1.0" encoding="utf-8"?>
<!-- Generator: Adobe Illustrator 23.0.0, SVG Export Plug-In . SVG Version: 6.00 Build 0)  -->
<svg version="1.1" id="Capa_1" xmlns="http://www.w3.org/2000/svg" xmlns:xlink="http://www.w3.org/1999/xlink" x="0px" y="0px"
	 viewBox="0 0 42 36" style="enable-background:new 0 0 42 36;" xml:space="preserve">
<style type="text/css">
	.st0{clip-path:url(#SVGID_2_);fill:url(#SVGID_3_);}
	.st1{clip-path:url(#SVGID_5_);fill:url(#SVGID_6_);}
	.st2{clip-path:url(#SVGID_8_);fill:url(#SVGID_9_);}
	.st3{clip-path:url(#SVGID_11_);fill:url(#SVGID_12_);}
	.st4{clip-path:url(#SVGID_14_);fill:url(#SVGID_15_);}
	.st5{clip-path:url(#SVGID_17_);fill:url(#SVGID_18_);}
	.st6{clip-path:url(#SVGID_20_);fill:url(#SVGID_21_);}
	.st7{clip-path:url(#SVGID_23_);fill:url(#SVGID_24_);}
	.st8{clip-path:url(#SVGID_26_);fill:url(#SVGID_27_);}
	.st9{clip-path:url(#SVGID_29_);fill:url(#SVGID_30_);}
	.st10{clip-path:url(#SVGID_32_);fill:url(#SVGID_33_);}
</style>
<g>
	<defs>
		<path id="SVGID_1_" d="M21.46,30.59c0.22,0,0.42-0.09,0.58-0.24l0,0l6.7-6.7c0.32-0.32,0.32-0.85,0-1.17
			c-0.16-0.16-0.37-0.24-0.59-0.24c-0.22,0-0.43,0.09-0.59,0.24l-5.29,5.29V5.82c0-0.47-0.36-0.83-0.83-0.83
			c-0.46,0-0.83,0.36-0.83,0.83v21.93l-5.29-5.29c-0.16-0.16-0.37-0.24-0.59-0.24c-0.22,0-0.43,0.09-0.59,0.24
			c-0.16,0.16-0.25,0.37-0.25,0.58c0,0.22,0.09,0.43,0.24,0.58l6.71,6.7C21.02,30.5,21.23,30.59,21.46,30.59
			C21.46,30.59,21.46,30.59,21.46,30.59"/>
	</defs>
	<clipPath id="SVGID_2_">
		<use xlink:href="#SVGID_1_"  style="overflow:visible;"/>
	</clipPath>
	
		<linearGradient id="SVGID_3_" gradientUnits="userSpaceOnUse" x1="3755.6943" y1="59.2693" x2="3756.6943" y2="59.2693" gradientTransform="matrix(-15.0728 0 0 15.0728 56637.9375 -875.5654)">
		<stop  offset="0" style="stop-color:#2D4F8C"/>
		<stop  offset="1" style="stop-color:#1E3477"/>
	</linearGradient>
	<rect x="13.91" y="4.99" class="st0" width="15.15" height="25.59"/>
</g>
<g>
	<defs>
		<path id="SVGID_4_" d="M-96.38,13.83v21.93l-5.29-5.29c-0.16-0.16-0.37-0.24-0.59-0.24c-0.22,0-0.43,0.09-0.59,0.24
			c-0.16,0.16-0.25,0.37-0.25,0.58c0,0.22,0.09,0.43,0.24,0.58l6.7,6.7c0.16,0.16,0.38,0.25,0.6,0.25c0.22,0,0.42-0.09,0.58-0.24
			l0,0l6.7-6.7c0.32-0.33,0.32-0.85,0-1.17c-0.16-0.16-0.37-0.24-0.59-0.24s-0.43,0.09-0.59,0.24l-5.29,5.29V13.83
			c0-0.47-0.37-0.83-0.83-0.83C-96.02,12.99-96.38,13.36-96.38,13.83"/>
	</defs>
	<clipPath id="SVGID_5_">
		<use xlink:href="#SVGID_4_"  style="overflow:visible;"/>
	</clipPath>
	
		<linearGradient id="SVGID_6_" gradientUnits="userSpaceOnUse" x1="4324.0679" y1="140.2097" x2="4325.0679" y2="140.2097" gradientTransform="matrix(-15.0728 0 0 15.0728 65087.9375 -2087.5649)">
		<stop  offset="0" style="stop-color:#2D4F8C"/>
		<stop  offset="1" style="stop-color:#1E3477"/>
	</linearGradient>
	<rect x="-103.09" y="12.99" class="st1" width="15.15" height="25.59"/>
</g>
<g>
	<defs>
		<path id="SVGID_7_" d="M-104.26,55c-0.41,0-0.74,0.33-0.74,0.74v25.52c0,0.41,0.33,0.74,0.74,0.74h0.52
			c0.41,0,0.74-0.33,0.74-0.74V55.74c0-0.41-0.33-0.74-0.74-0.74H-104.26z"/>
	</defs>
	<clipPath id="SVGID_8_">
		<use xlink:href="#SVGID_7_"  style="overflow:visible;"/>
	</clipPath>
	
		<linearGradient id="SVGID_9_" gradientUnits="userSpaceOnUse" x1="6207" y1="396.5" x2="6208" y2="396.5" gradientTransform="matrix(-2 0 0 2 12311 -724.5)">
		<stop  offset="0" style="stop-color:#2D4F8C"/>
		<stop  offset="1" style="stop-color:#1E3477"/>
	</linearGradient>
	<rect x="-105" y="55" class="st2" width="2" height="27"/>
</g>
<g>
	<defs>
		<path id="SVGID_10_" d="M-98.26,55c-0.41,0-0.74,0.33-0.74,0.74v25.52c0,0.41,0.33,0.74,0.74,0.74h0.52
			c0.41,0,0.74-0.33,0.74-0.74V55.74c0-0.41-0.33-0.74-0.74-0.74H-98.26z"/>
	</defs>
	<clipPath id="SVGID_11_">
		<use xlink:href="#SVGID_10_"  style="overflow:visible;"/>
	</clipPath>
	
		<linearGradient id="SVGID_12_" gradientUnits="userSpaceOnUse" x1="6207" y1="396.5" x2="6208" y2="396.5" gradientTransform="matrix(-2 0 0 2 12317 -724.5)">
		<stop  offset="0" style="stop-color:#2D4F8C"/>
		<stop  offset="1" style="stop-color:#1E3477"/>
	</linearGradient>
	<rect x="-99" y="55" class="st3" width="2" height="27"/>
</g>
<g>
	<defs>
		<path id="SVGID_13_" d="M-92.26,55c-0.41,0-0.74,0.33-0.74,0.74v25.52c0,0.41,0.33,0.74,0.74,0.74h0.52
			c0.41,0,0.74-0.33,0.74-0.74V55.74c0-0.41-0.33-0.74-0.74-0.74H-92.26z"/>
	</defs>
	<clipPath id="SVGID_14_">
		<use xlink:href="#SVGID_13_"  style="overflow:visible;"/>
	</clipPath>
	
		<linearGradient id="SVGID_15_" gradientUnits="userSpaceOnUse" x1="6207" y1="396.5" x2="6208" y2="396.5" gradientTransform="matrix(-2 0 0 2 12323 -724.5)">
		<stop  offset="0" style="stop-color:#2D4F8C"/>
		<stop  offset="1" style="stop-color:#1E3477"/>
	</linearGradient>
	<rect x="-93" y="55" class="st4" width="2" height="27"/>
</g>
<g>
	<defs>
		<path id="SVGID_16_" d="M-86.26,55c-0.41,0-0.74,0.33-0.74,0.74v25.52c0,0.41,0.33,0.74,0.74,0.74h0.52
			c0.41,0,0.74-0.33,0.74-0.74V55.74c0-0.41-0.33-0.74-0.74-0.74H-86.26z"/>
	</defs>
	<clipPath id="SVGID_17_">
		<use xlink:href="#SVGID_16_"  style="overflow:visible;"/>
	</clipPath>
	
		<linearGradient id="SVGID_18_" gradientUnits="userSpaceOnUse" x1="6207" y1="396.5" x2="6208" y2="396.5" gradientTransform="matrix(-2 0 0 2 12329 -724.5)">
		<stop  offset="0" style="stop-color:#2D4F8C"/>
		<stop  offset="1" style="stop-color:#1E3477"/>
	</linearGradient>
	<rect x="-87" y="55" class="st5" width="2" height="27"/>
</g>
<g>
	<defs>
		<path id="SVGID_19_" d="M-107.76,109.5c-0.41,0-0.74,0.33-0.74,0.74v0.52c0,0.41,0.33,0.74,0.74,0.74h25.52
			c0.41,0,0.74-0.33,0.74-0.74v-0.52c0-0.41-0.33-0.74-0.74-0.74H-107.76z"/>
	</defs>
	<clipPath id="SVGID_20_">
		<use xlink:href="#SVGID_19_"  style="overflow:visible;"/>
	</clipPath>
	
		<linearGradient id="SVGID_21_" gradientUnits="userSpaceOnUse" x1="3740.5" y1="2272" x2="3741.5" y2="2272" gradientTransform="matrix(0 -2 -2 0 4449 7592.5)">
		<stop  offset="0" style="stop-color:#2D4F8C"/>
		<stop  offset="1" style="stop-color:#1E3477"/>
	</linearGradient>
	<rect x="-108.5" y="109.5" class="st6" width="27" height="2"/>
</g>
<g>
	<defs>
		<path id="SVGID_22_" d="M-108,103c0,1.66,1.34,3,3,3c1.66,0,3-1.34,3-3s-1.34-3-3-3C-106.66,100-108,101.34-108,103"/>
	</defs>
	<clipPath id="SVGID_23_">
		<use xlink:href="#SVGID_22_"  style="overflow:visible;"/>
	</clipPath>
	
		<linearGradient id="SVGID_24_" gradientUnits="userSpaceOnUse" x1="3937.5" y1="824.6667" x2="3938.5" y2="824.6667" gradientTransform="matrix(0 -6 -6 0 4843 23731)">
		<stop  offset="0" style="stop-color:#2D4F8C"/>
		<stop  offset="1" style="stop-color:#1E3477"/>
	</linearGradient>
	<rect x="-108" y="100" class="st7" width="6" height="6"/>
</g>
<g>
	<defs>
		<path id="SVGID_25_" d="M-98,103c0,1.66,1.34,3,3,3s3-1.34,3-3s-1.34-3-3-3S-98,101.34-98,103"/>
	</defs>
	<clipPath id="SVGID_26_">
		<use xlink:href="#SVGID_25_"  style="overflow:visible;"/>
	</clipPath>
	
		<linearGradient id="SVGID_27_" gradientUnits="userSpaceOnUse" x1="3937.5" y1="824.6667" x2="3938.5" y2="824.6667" gradientTransform="matrix(0 -6 -6 0 4853 23731)">
		<stop  offset="0" style="stop-color:#2D4F8C"/>
		<stop  offset="1" style="stop-color:#1E3477"/>
	</linearGradient>
	<rect x="-98" y="100" class="st8" width="6" height="6"/>
</g>
<g>
	<defs>
		<path id="SVGID_28_" d="M-98,117c0,1.66,1.34,3,3,3s3-1.34,3-3s-1.34-3-3-3S-98,115.34-98,117"/>
	</defs>
	<clipPath id="SVGID_29_">
		<use xlink:href="#SVGID_28_"  style="overflow:visible;"/>
	</clipPath>
	
		<linearGradient id="SVGID_30_" gradientUnits="userSpaceOnUse" x1="3937.5" y1="824.6667" x2="3938.5" y2="824.6667" gradientTransform="matrix(0 -6 -6 0 4853 23745)">
		<stop  offset="0" style="stop-color:#2D4F8C"/>
		<stop  offset="1" style="stop-color:#1E3477"/>
	</linearGradient>
	<rect x="-98" y="114" class="st9" width="6" height="6"/>
</g>
<g>
	<defs>
		<path id="SVGID_31_" d="M-88,103c0,1.66,1.34,3,3,3c1.66,0,3-1.34,3-3s-1.34-3-3-3C-86.66,100-88,101.34-88,103"/>
	</defs>
	<clipPath id="SVGID_32_">
		<use xlink:href="#SVGID_31_"  style="overflow:visible;"/>
	</clipPath>
	
		<linearGradient id="SVGID_33_" gradientUnits="userSpaceOnUse" x1="3937.5" y1="824.6667" x2="3938.5" y2="824.6667" gradientTransform="matrix(0 -6 -6 0 4863 23731)">
		<stop  offset="0" style="stop-color:#2D4F8C"/>
		<stop  offset="1" style="stop-color:#1E3477"/>
	</linearGradient>
	<rect x="-88" y="100" class="st10" width="6" height="6"/>
</g>
</svg>
