<?xml version="1.0" encoding="utf-8"?>
<!-- Generator: Adobe Illustrator 23.0.0, SVG Export Plug-In . SVG Version: 6.00 Build 0)  -->
<svg version="1.1" id="Capa_1" xmlns="http://www.w3.org/2000/svg" xmlns:xlink="http://www.w3.org/1999/xlink" x="0px" y="0px"
	 viewBox="0 0 70.95 90.64" style="enable-background:new 0 0 70.95 90.64;" xml:space="preserve">
<style type="text/css">
	.st0{fill:#E7E7DE;}
	.st1{fill:#D6D5C8;}
	.st2{fill:#B14C4D;}
	.st3{fill:#FFFFFF;}
</style>
<g>
	<path class="st0" d="M49.2,2.67H4.64c-1.25,0-2.25,1-2.25,2.95v81.51c0,0.53,1,1.54,2.25,1.54h61.54c1.24,0,2.24-1.01,2.24-1.54
		V22.6c0-1.07-0.14-1.42-0.39-1.66L50.16,3.07C49.91,2.81,49.56,2.67,49.2,2.67L49.2,2.67z M49.2,2.67"/>
	<path class="st1" d="M50,2.9v18.2h18.19L50,2.9z M50,2.9"/>
	<path class="st2" d="M22.37,53.85c-0.53,0-1.04-0.17-1.48-0.5c-1.6-1.2-1.82-2.53-1.71-3.44c0.28-2.5,3.37-5.12,9.19-7.78
		c2.31-5.06,4.51-11.3,5.81-16.51c-1.53-3.34-3.02-7.66-1.93-10.2c0.38-0.89,0.85-1.58,1.74-1.87c0.35-0.12,1.24-0.26,1.56-0.26
		c0.78,0,1.46,1,1.94,1.61c0.45,0.58,1.48,1.8-0.58,10.45c2.07,4.27,5.01,8.63,7.81,11.61c2.02-0.36,3.75-0.55,5.16-0.55
		c2.41,0,3.86,0.56,4.45,1.72c0.5,0.95,0.29,2.07-0.59,3.31c-0.86,1.2-2.04,1.83-3.41,1.83c-1.87,0-4.04-1.18-6.47-3.51
		c-4.36,0.92-9.44,2.54-13.56,4.33c-1.28,2.72-2.51,4.92-3.66,6.53C25.08,52.82,23.71,53.85,22.37,53.85L22.37,53.85z M26.46,45.97
		c-3.28,1.84-4.62,3.36-4.71,4.21c-0.02,0.14-0.06,0.51,0.66,1.07C22.64,51.18,23.97,50.57,26.46,45.97L26.46,45.97z M47.4,39.15
		c1.25,0.97,1.56,1.46,2.38,1.46c0.36,0,1.39-0.02,1.86-0.68c0.22-0.32,0.31-0.52,0.35-0.64c-0.19-0.1-0.44-0.3-1.81-0.3
		C49.41,38.99,48.44,39.02,47.4,39.15L47.4,39.15z M35.93,29.04c-1.1,3.8-2.54,7.9-4.1,11.62c3.21-1.24,6.7-2.33,9.97-3.1
		C39.73,35.15,37.65,32.15,35.93,29.04L35.93,29.04z M35,16.05c-0.15,0.05-2.04,2.7,0.15,4.94C36.6,17.74,35.07,16.02,35,16.05
		L35,16.05z M35,16.05"/>
	<path class="st2" d="M66.18,88.67H4.64c-1.25,0-2.25-1.01-2.25-2.25V62.56h66.03v23.86C68.42,87.66,67.42,88.67,66.18,88.67
		L66.18,88.67z M66.18,88.67"/>
	<path class="st3" d="M19.1,84.06h-2.52V68.59h4.45c0.65,0,1.31,0.11,1.95,0.31c0.64,0.21,1.22,0.52,1.73,0.94
		c0.51,0.42,0.92,0.92,1.24,1.52c0.31,0.59,0.47,1.26,0.47,2c0,0.79-0.13,1.49-0.4,2.13c-0.26,0.64-0.64,1.18-1.11,1.61
		c-0.48,0.43-1.05,0.77-1.72,1.01c-0.67,0.24-1.42,0.36-2.23,0.36H19.1V84.06z M19.1,70.5v6.13h2.31c0.31,0,0.61-0.05,0.92-0.16
		c0.3-0.1,0.58-0.28,0.83-0.52c0.25-0.23,0.45-0.57,0.61-0.99C23.92,74.54,24,74,24,73.37c0-0.25-0.04-0.54-0.11-0.87
		c-0.07-0.33-0.22-0.64-0.43-0.94c-0.22-0.3-0.52-0.55-0.92-0.76c-0.39-0.2-0.91-0.3-1.55-0.3H19.1z M19.1,70.5"/>
	<path class="st3" d="M41.88,75.89c0,1.27-0.13,2.36-0.41,3.27c-0.28,0.9-0.62,1.66-1.04,2.26c-0.42,0.61-0.89,1.09-1.42,1.44
		c-0.52,0.35-1.03,0.62-1.52,0.79c-0.49,0.17-0.94,0.28-1.34,0.34c-0.4,0.05-0.7,0.07-0.91,0.07h-5.86V68.59h4.66
		c1.3,0,2.45,0.2,3.43,0.61c0.99,0.41,1.81,0.97,2.46,1.65c0.65,0.68,1.14,1.47,1.46,2.34C41.73,74.07,41.88,74.97,41.88,75.89
		L41.88,75.89z M34.41,82.21c1.71,0,2.94-0.55,3.7-1.64c0.76-1.09,1.13-2.68,1.13-4.75c0-0.64-0.07-1.28-0.22-1.91
		c-0.16-0.63-0.46-1.2-0.89-1.71c-0.44-0.51-1.04-0.92-1.8-1.24c-0.76-0.31-1.73-0.47-2.94-0.47h-1.47v11.71H34.41z M34.41,82.21"/>
	<path class="st3" d="M48.1,70.5v4.87h6.47v1.73H48.1v6.96h-2.56V68.59h9.68v1.91H48.1z M48.1,70.5"/>
</g>
</svg>
