<?xml version="1.0" encoding="utf-8"?>
<!-- Generator: Adobe Illustrator 23.0.0, SVG Export Plug-In . SVG Version: 6.00 Build 0)  -->
<svg version="1.1" id="Capa_1" xmlns="http://www.w3.org/2000/svg" xmlns:xlink="http://www.w3.org/1999/xlink" x="0px" y="0px"
	 viewBox="0 0 111.32 124.68" style="enable-background:new 0 0 111.32 124.68;" xml:space="preserve">
<style type="text/css">
	.st0{fill:#FFFFFF;}
</style>
<g>
	<path class="st0" d="M15,32.11v62.64c0,7.1,5.78,12.87,12.89,12.87H82.1c7.11,0,12.9-5.78,12.9-12.87V32.11
		c0-7.1-5.79-12.87-12.9-12.87h-1.63v-5.81c0-0.57-0.46-1.04-1.03-1.04c-0.57,0-1.04,0.47-1.04,1.04v5.81h-6.07v-5.81
		c0-0.57-0.47-1.04-1.04-1.04c-0.57,0-1.04,0.47-1.04,1.04v5.81h-6.07v-5.81c0-0.57-0.47-1.04-1.04-1.04
		c-0.57,0-1.04,0.47-1.04,1.04v5.81h-6.07v-5.81c0-0.57-0.47-1.04-1.04-1.04c-0.57,0-1.03,0.47-1.03,1.04v5.81h-6.07v-5.81
		c0-0.57-0.47-1.04-1.04-1.04c-0.57,0-1.04,0.47-1.04,1.04v5.81h-6.07v-5.81c0-0.57-0.46-1.04-1.03-1.04
		c-0.57,0-1.04,0.47-1.04,1.04v5.81H31.6v-5.81c0-0.57-0.47-1.04-1.04-1.04c-0.57,0-1.04,0.47-1.04,1.04v5.81h-1.63
		C20.78,19.23,15,25.01,15,32.11z M30.56,27.08c0.57,0,1.04-0.46,1.04-1.04V21.3h6.07v4.74c0,0.57,0.47,1.04,1.04,1.04
		c0.57,0,1.03-0.46,1.03-1.04V21.3h6.07v4.74c0,0.57,0.47,1.04,1.04,1.04c0.57,0,1.04-0.46,1.04-1.04V21.3h6.07v4.74
		c0,0.57,0.46,1.04,1.03,1.04c0.57,0,1.04-0.46,1.04-1.04V21.3h6.07v4.74c0,0.57,0.47,1.04,1.04,1.04c0.57,0,1.04-0.46,1.04-1.04
		V21.3h6.07v4.74c0,0.57,0.47,1.04,1.04,1.04c0.57,0,1.04-0.46,1.04-1.04V21.3h6.07v4.74c0,0.57,0.47,1.04,1.04,1.04
		c0.57,0,1.03-0.46,1.03-1.04V21.3h1.63c5.96,0,10.82,4.85,10.82,10.8v62.64c0,5.95-4.85,10.79-10.82,10.79H27.89
		c-5.96,0-10.81-4.84-10.81-10.79V32.11c0-5.96,4.85-10.8,10.81-10.8h1.63v4.74C29.52,26.62,29.98,27.08,30.56,27.08z"/>
</g>
<g>
	<polygon class="st0" points="71.52,53.41 47.61,77.29 38.67,68.35 37.51,69.52 47.61,79.61 72.68,54.57 	"/>
</g>
</svg>
