<?xml version="1.0" encoding="utf-8"?>
<!-- Generator: Adobe Illustrator 23.0.0, SVG Export Plug-In . SVG Version: 6.00 Build 0)  -->
<svg version="1.1" id="Capa_1" xmlns="http://www.w3.org/2000/svg" xmlns:xlink="http://www.w3.org/1999/xlink" x="0px" y="0px"
	 viewBox="0 0 111.32 124.68" style="enable-background:new 0 0 111.32 124.68;" xml:space="preserve">
<style type="text/css">
	.st0{fill:#60A2E2;}
</style>
<path class="st0" d="M20.5,106.09c0.01,4.54,3.71,8.24,8.25,8.25H89.5v-31c-0.01-8.3-6.51-14.99-14.81-15.23l-0.49-0.02H63.75
	c-1.24,0-2.25-1.01-2.25-2.25v-3.15l0.36-0.11C72.09,59.51,78.98,50.27,79,39.59v-5.25c0-6.41-2.49-12.43-7.01-16.96
	s-10.55-7.03-16.95-7.04c0,0-0.01,0-0.02,0c-8.54,0-16.49,4.59-20.76,11.98l-0.2,0.32c-2,3.56-3.06,7.6-3.06,11.69v5.25
	c0.02,10.69,6.91,19.92,17.14,22.99l0.36,0.11v3.15c0,1.24-1.01,2.25-2.25,2.25h-10.5c-8.4,0.01-15.24,6.85-15.25,15.25V106.09z
	 M69,111.84H54.32l-1.84-11.5H69c3.17,0,5.75,2.58,5.75,5.75S72.17,111.84,69,111.84z M74.25,70.59C81.27,70.6,86.99,76.32,87,83.34
	v28.5H74.94l0.62-0.8c1.08-1.41,1.69-3.17,1.69-4.95c-0.01-4.54-3.71-8.24-8.25-8.25h-1.92l6.41-27.25H74.25z M70.92,70.59
	l-6.41,27.25h-4.43l6.41-27.25H70.92z M71.58,20.66c1.95,2.36,3.34,5.06,4.14,8.02l0.35,1.29l-10.8-7.2l6.08-2.38L71.58,20.66z
	 M38.69,20.36c4.08-4.78,10.02-7.52,16.31-7.53h0c2.51,0,4.97,0.45,7.33,1.31l1.49,0.55l-26.16,6.88L38.69,20.36z M33.69,31.64
	c0.3-2.37,0.99-4.65,2.05-6.79l0.1-0.2l31.09-8.17l0.19,0.13c0.59,0.4,1.16,0.84,1.7,1.3l0.64,0.54L33.58,32.47L33.69,31.64z
	 M33.5,39.59v-4.4l28.92-11.32l14.02,9.35l0.01,0.26c0,0.11,0.01,0.22,0.02,0.32c0.01,0.18,0.02,0.36,0.02,0.54v5.25
	c0,11.85-9.65,21.5-21.5,21.5S33.5,51.44,33.5,39.59z M48.05,70.23C49.84,69.5,51,67.77,51,65.84v-2.25h8v2.25
	c0.01,2.48,1.88,4.5,4.34,4.71l0.58,0.05l-6.41,27.25h-5.43l-4.4-27.46L48.05,70.23z M45.19,70.59l6.6,41.25H33.72l6.6-41.25H45.19z
	 M23,83.34c0.01-7.02,5.73-12.74,12.75-12.75h2.03l-4.36,27.25H31v2.5h2.02l-1.84,11.5h-2.43c-3.17,0-5.75-2.58-5.75-5.75V83.34z"/>
</svg>
