<?xml version="1.0" encoding="utf-8"?>
<!-- Generator: Adobe Illustrator 23.0.0, SVG Export Plug-In . SVG Version: 6.00 Build 0)  -->
<svg version="1.1" id="Capa_1" xmlns="http://www.w3.org/2000/svg" xmlns:xlink="http://www.w3.org/1999/xlink" x="0px" y="0px"
	 viewBox="0 0 150 106" style="enable-background:new 0 0 150 106;" xml:space="preserve">
<style type="text/css">
	.st0{fill:#60A3E3;}
</style>
<path class="st0" d="M118.72,20.28v55.33h3.34V16.38H26.8v59.23h3.35V20.28v-0.56h0.56h24.78h1.35l-0.95,0.95l-11.9,11.9
	c-0.32,0.32-0.49,0.74-0.49,1.18c0,0.45,0.17,0.87,0.49,1.18s0.74,0.49,1.18,0.49c0.45,0,0.87-0.17,1.18-0.49L61.4,19.89l0.16-0.16
	h0.23h14.46h1.35l-0.95,0.95L43.7,53.62c-0.32,0.32-0.49,0.74-0.49,1.18c0,0.45,0.17,0.87,0.49,1.18c0.32,0.32,0.74,0.49,1.18,0.49
	c0.45,0,0.87-0.17,1.18-0.49l36.09-36.09l0.16-0.16h0.23h35.61h0.56V20.28z"/>
<path class="st0" d="M123.34,6.34c4.83,0,8.76,3.93,8.76,8.76v60.5h3.35v-60.5c0-6.68-5.43-12.11-12.11-12.11H25.53
	c-6.68,0-12.11,5.43-12.11,12.11v60.5h3.35v-60.5c0-4.83,3.93-8.76,8.76-8.76H123.34z"/>
<path class="st0" d="M141.96,84.27H92.09c-0.75,0-1.48,0.21-2.11,0.62l-3.36,2.16l-0.14,0.09h-0.16H62.55h-0.16l-0.14-0.09
	l-3.36-2.16c-0.63-0.41-1.36-0.62-2.11-0.62H6.91c-2.2,0-4.57,1.74-4.57,5.55c0,2.95,1.24,6.19,3.32,8.66
	c1.97,2.35,5.65,5.15,11.92,5.15h113.7c6.29,0,9.96-2.8,11.93-5.15c2.07-2.47,3.31-5.7,3.31-8.66
	C146.52,86.01,144.16,84.27,141.96,84.27 M140.65,96.33c-1.51,1.8-4.37,3.95-9.37,3.95H17.59c-4.99,0-7.85-2.15-9.36-3.96
	c-1.87-2.22-2.54-4.82-2.54-6.51c0-2.05,0.93-2.21,1.22-2.21h49.87h0.16l0.14,0.09l4.32,2.78h26.06l4.32-2.78l0.14-0.09h0.16h49.87
	c0.28,0,1.22,0.16,1.22,2.21C143.18,91.51,142.51,94.11,140.65,96.33"/>
</svg>
