<?xml version="1.0" encoding="utf-8"?>
<!-- Generator: Adobe Illustrator 23.0.0, SVG Export Plug-In . SVG Version: 6.00 Build 0)  -->
<svg version="1.1" id="Capa_1" xmlns="http://www.w3.org/2000/svg" xmlns:xlink="http://www.w3.org/1999/xlink" x="0px" y="0px"
	 viewBox="0 0 118 117" style="enable-background:new 0 0 118 117;" xml:space="preserve">
<style type="text/css">
	.st0{fill:#FFFFFF;}
</style>
<g>
	<path class="st0" d="M54.71,76.8c-0.31-0.31-0.73-0.47-1.14-0.47s-0.83,0.16-1.14,0.47c-0.63,0.63-0.63,1.65,0,2.28
		c0.63,0.63,1.65,0.63,2.28,0C55.34,78.45,55.34,77.43,54.71,76.8z"/>
	<path class="st0" d="M68.84,4C55.87,4,45.33,14.55,45.33,27.51s10.55,23.51,23.51,23.51s23.51-10.55,23.51-23.51S81.8,4,68.84,4z
		 M68.84,47.8c-11.19,0-20.29-9.1-20.29-20.29c0-11.19,9.1-20.29,20.29-20.29c11.19,0,20.29,9.1,20.29,20.29
		C89.13,38.7,80.03,47.8,68.84,47.8z"/>
	<path class="st0" d="M80.03,93.07c5.01,0,9.75-1.93,13.34-5.42c0.08-0.08,0.67-0.78,3.48-4.15l16.34-19.53
		c2.91-3.45,2.48-8.62-0.97-11.53c-3.41-2.88-8.56-2.47-11.48,0.91l-13.4,13.77l-0.41-0.5c-1.57-1.94-3.89-3.05-6.36-3.05
		l-24.64-0.04c-3.4-1.42-7.02-2.14-10.74-2.14c-10.66,0-19.48,4.99-24.19,13.7l-0.2,0.37l-0.41-0.08c-0.37-0.07-0.74-0.1-1.11-0.1
		c-1.57,0-3.1,0.62-4.23,1.76L4.63,87.47C4,88.1,4,89.12,4.62,89.75l24.59,24.78c0.62,0.63,1.64,0.63,2.27,0.01l10.62-10.46
		c1.6-1.6,2.16-4.03,1.42-6.2l-0.12-0.35l2.55-2.46c1.34-1.29,3.1-2,4.96-2H80.03z M39.84,101.79l-9.47,9.32L8.04,88.61l9.28-9.31
		c0.91-0.91,2.32-1.07,3.42-0.39c0.26,0.15,0.26,0.15,4.02,3.92c2.65,2.66,7.2,7.21,15.05,15.05c0.53,0.53,0.82,1.23,0.81,1.98
		C40.63,100.59,40.34,101.29,39.84,101.79z M43.71,92.76l-2.27,2.19L23.58,77.09l0.2-0.38c4.1-7.69,11.9-12.11,21.4-12.11
		c3.43,0,6.76,0.69,9.87,2.06c0.21,0.09,0.42,0.14,0.65,0.14h24.87c2.73,0,4.96,2.22,4.96,4.96c0,2.73-2.22,4.96-4.96,4.96H62.71
		c-0.89,0-1.61,0.72-1.61,1.61c0,0.89,0.72,1.61,1.61,1.61h17.87c4.51,0,8.18-3.67,8.18-8.18c0-0.36-0.03-0.72-0.07-1.07l-0.04-0.28
		l8.87-9.12c4.37-4.5,5.55-5.7,5.64-5.8c1.76-2.08,4.9-2.34,6.99-0.59c2.09,1.77,2.35,4.9,0.58,7L91.09,85.37
		c-3.02,2.9-6.93,4.48-11.06,4.48H50.91C48.21,89.85,45.66,90.88,43.71,92.76z"/>
	<path class="st0" d="M70.01,37.68l0.39-0.14c2.39-0.85,4-3.12,4-5.65c0-3.3-2.69-5.99-5.99-5.99c-1.53,0-2.77-1.24-2.77-2.77
		c0-1.53,1.24-2.77,2.77-2.77c0.93,0,1.89,0.45,2.77,1.31c0.64,0.62,1.66,0.6,2.28-0.04c0.62-0.64,0.6-1.66-0.04-2.28
		c-0.92-0.89-1.93-1.53-3-1.88l-0.4-0.13v-2.97c0-0.89-0.72-1.61-1.61-1.61c-0.89,0-1.61,0.72-1.61,1.61v2.97l-0.39,0.14
		c-2.39,0.85-4,3.12-4,5.65c0,3.3,2.69,5.99,5.99,5.99c1.53,0,2.77,1.24,2.77,2.77c0,1.53-1.24,2.77-2.77,2.77
		c-1.11,0-2.28-0.66-3.29-1.86c-0.32-0.38-0.78-0.57-1.23-0.57c-0.37,0-0.74,0.12-1.04,0.38c-0.68,0.57-0.77,1.59-0.2,2.27
		c1.09,1.29,2.38,2.22,3.75,2.68l0.39,0.13v2.97c0,0.89,0.72,1.61,1.61,1.61c0.89,0,1.61-0.72,1.61-1.61V37.68z"/>
</g>
</svg>
