<?xml version="1.0" encoding="utf-8"?>
<!-- Generator: Adobe Illustrator 23.0.0, SVG Export Plug-In . SVG Version: 6.00 Build 0)  -->
<svg version="1.1" id="Capa_1" xmlns="http://www.w3.org/2000/svg" xmlns:xlink="http://www.w3.org/1999/xlink" x="0px" y="0px"
	 viewBox="0 0 130 87" style="enable-background:new 0 0 130 87;" xml:space="preserve">
<style type="text/css">
	.st0{fill:#FFFFFF;}
	.st1{fill:#60A3E3;}
</style>
<g>
	<path class="st0" d="M114.92,2.18H92.24H76.71H32.96H11.46h-0.02c-4.77,0-8.65,3.27-8.74,7.31c0,0.05-0.01,0.1-0.01,0.15v49.39
		v18.62c0,4.11,3.93,7.46,8.77,7.46h22.68h21.41h37.87h21.5h0.02c4.77,0,8.65-3.27,8.74-7.31c0-0.05,0.01-0.1,0.01-0.15V28.26V9.64
		C123.69,5.53,119.76,2.18,114.92,2.18 M93.42,82.63H55.55H35.6h-5.02H11.46c-3.24,0-5.88-2.23-5.88-4.98V61.94V9.64
		c0-2.75,2.64-4.98,5.88-4.98h21.51h43.75h14.07h5.02h19.12c3.24,0,5.88,2.24,5.88,4.98v15.72v52.3c0,2.75-2.64,4.98-5.88,4.98
		H93.42z"/>
</g>
<g>
	<path class="st0" d="M114.34,29.52H67.87v2.86h43.79C112.49,31.37,113.38,30.42,114.34,29.52"/>
</g>
<g>
	<path class="st0" d="M107.08,40.01H67.87v2.86h38.23C106.37,41.9,106.7,40.94,107.08,40.01"/>
</g>
<g>
	<path class="st0" d="M67.87,53.36h37.31c-0.1-0.94-0.15-1.9-0.15-2.86H67.87V53.36z"/>
</g>
<g>
	<path class="st0" d="M67.87,60.99v2.86h40.57c-0.5-0.93-0.96-1.88-1.36-2.86H67.87z"/>
</g>
<path class="st1" d="M287.11,15.55c-15.13,0-27.43,12.3-27.43,27.43c0,15.12,12.31,27.43,27.43,27.43s27.43-12.3,27.43-27.43
	C314.54,27.85,302.24,15.55,287.11,15.55 M311.95,42.98c0,13.69-11.14,24.84-24.84,24.84c-13.69,0-24.84-11.14-24.84-24.84
	c0-13.69,11.14-24.84,24.84-24.84C300.81,18.14,311.95,29.28,311.95,42.98"/>
<path class="st1" d="M291.17,82.65c0,2.76-2.23,5-4.98,5h-68.02c-2.75,0-4.98-2.24-4.98-5V15.18h23.6c0.69,0,1.25-0.55,1.25-1.23
	v-24.29h48.15c2.75,0,4.98,2.23,4.98,4.98v18.29h2.48V-5.36c0-4.11-3.35-7.46-7.46-7.46H236.8c-0.33,0-0.64,0.13-0.88,0.37
	l-24.87,25.55c-0.02,0.04-0.04,0.07-0.1,0.15c-0.06,0.08-0.11,0.15-0.14,0.24c-0.01,0.03-0.01,0.07-0.04,0.17
	c-0.03,0.1-0.05,0.18-0.05,0.26v68.73c0,4.1,3.35,7.44,7.46,7.44h68.02c4.11,0,7.46-3.35,7.46-7.46v-8.68h-2.48V82.65z M235.57-8.53
	V12.7h-20.67l10.34-10.62L235.57-8.53z"/>
<path class="st1" d="M263.91,21.52h-41.75v2.86h39.34C262.25,23.37,263.06,22.42,263.91,21.52"/>
<path class="st1" d="M257.39,32.01h-35.23v2.86h34.34C256.75,33.9,257.05,32.94,257.39,32.01"/>
<path class="st1" d="M222.17,45.36h33.52c-0.09-0.94-0.14-1.9-0.14-2.86h-33.38V45.36z"/>
<path class="st1" d="M222.17,52.99v2.86h36.45c-0.45-0.93-0.86-1.88-1.22-2.86H222.17z"/>
<path class="st1" d="M222.17,63.48v2.86h44.86c-1.1-0.88-2.14-1.84-3.11-2.86H222.17z"/>
<rect x="222.17" y="73.97" class="st1" width="61.03" height="2.86"/>
<path class="st1" d="M321.69,91.19c-0.89,0-1.77-0.39-2.36-1.14l-18.03-22.86c-1.03-1.3-0.8-3.19,0.5-4.21
	c1.3-1.03,3.19-0.8,4.21,0.5l18.03,22.86c1.03,1.3,0.8,3.19-0.5,4.21C323,90.98,322.34,91.19,321.69,91.19"/>
<g>
	<path class="st0" d="M55.97,74.19H19.74c-2.56,0-4.64-2.08-4.64-4.64V20.82c0-2.56,2.08-4.64,4.64-4.64h36.22
		c2.56,0,4.64,2.08,4.64,4.64v48.72C60.6,72.11,58.52,74.19,55.97,74.19z M19.74,18.19c-1.45,0-2.64,1.18-2.64,2.64v48.72
		c0,1.45,1.18,2.64,2.64,2.64h36.22c1.45,0,2.64-1.18,2.64-2.64V20.82c0-1.45-1.18-2.64-2.64-2.64H19.74z"/>
</g>
</svg>
