<?xml version="1.0" encoding="utf-8"?>
<!-- Generator: Adobe Illustrator 23.0.0, SVG Export Plug-In . SVG Version: 6.00 Build 0)  -->
<svg version="1.1" id="Capa_1" xmlns="http://www.w3.org/2000/svg" xmlns:xlink="http://www.w3.org/1999/xlink" x="0px" y="0px"
	 viewBox="0 0 130 115" style="enable-background:new 0 0 130 115;" xml:space="preserve">
<style type="text/css">
	.st0{fill:#60A3E3;}
</style>
<path class="st0" d="M322.42-89.64c-15.13,0-27.43,12.3-27.43,27.43c0,15.12,12.31,27.43,27.43,27.43s27.43-12.31,27.43-27.43
	C349.85-77.33,337.54-89.64,322.42-89.64 M347.25-62.21c0,13.69-11.14,24.84-24.84,24.84c-13.69,0-24.84-11.14-24.84-24.84
	c0-13.69,11.14-24.84,24.84-24.84C336.11-87.05,347.25-75.9,347.25-62.21"/>
<path class="st0" d="M357-14c-0.89,0-1.77-0.39-2.36-1.14l-18.03-22.86c-1.03-1.3-0.8-3.19,0.5-4.21c1.3-1.03,3.19-0.8,4.21,0.5
	l18.03,22.86c1.03,1.3,0.8,3.19-0.5,4.21C358.3-14.21,357.65-14,357-14"/>
<path class="st0" d="M252-89h-15c-1.1,0-2-0.9-2-2c0-1.1,0.9-2,2-2h15c1.1,0,2,0.9,2,2C254-89.9,253.1-89,252-89"/>
<path class="st0" d="M252-78h-15c-1.1,0-2-0.9-2-2c0-1.1,0.9-2,2-2h15c1.1,0,2,0.9,2,2C254-78.9,253.1-78,252-78"/>
<path class="st0" d="M252-67h-15c-1.1,0-2-0.9-2-2c0-1.1,0.9-2,2-2h15c1.1,0,2,0.9,2,2C254-67.9,253.1-67,252-67"/>
<path class="st0" d="M252-48h-15c-1.1,0-2-0.9-2-2c0-1.1,0.9-2,2-2h15c1.1,0,2,0.9,2,2C254-48.9,253.1-48,252-48"/>
<path class="st0" d="M252-37h-15c-1.1,0-2-0.9-2-2c0-1.1,0.9-2,2-2h15c1.1,0,2,0.9,2,2C254-37.9,253.1-37,252-37"/>
<path class="st0" d="M252-26h-15c-1.1,0-2-0.9-2-2c0-1.1,0.9-2,2-2h15c1.1,0,2,0.9,2,2C254-26.9,253.1-26,252-26"/>
<path class="st0" d="M330.17-32v17.28c0,0.77-0.63,1.38-1.39,1.38h-80.56c-0.77,0-1.38-0.62-1.38-1.38v-90.56
	c0-0.77,0.62-1.38,1.38-1.38h80.56c0.77,0,1.39,0.62,1.39,1.38V-91h3.33v-14.28c0-2.6-2.11-4.72-4.72-4.72h-80.56
	c-2.6,0-4.72,2.12-4.72,4.72v90.56c0,2.6,2.12,4.72,4.72,4.72h80.56c2.6,0,4.72-2.12,4.72-4.72V-32H330.17z"/>
<path class="st0" d="M104.78,7H24.22c-2.61,0-4.72,2.12-4.72,4.72v90.56c0,2.6,2.12,4.72,4.72,4.72h80.56c2.6,0,4.72-2.12,4.72-4.72
	V11.72C109.5,9.12,107.38,7,104.78,7 M22.84,11.72c0-0.77,0.62-1.38,1.38-1.38h80.56c0.77,0,1.39,0.62,1.39,1.38v90.56
	c0,0.77-0.63,1.38-1.39,1.38H24.22c-0.77,0-1.38-0.62-1.38-1.38V11.72z"/>
<path class="st0" d="M28,28H13c-1.1,0-2-0.9-2-2c0-1.1,0.9-2,2-2h15c1.1,0,2,0.9,2,2C30,27.1,29.1,28,28,28"/>
<path class="st0" d="M28,39H13c-1.1,0-2-0.9-2-2c0-1.1,0.9-2,2-2h15c1.1,0,2,0.9,2,2C30,38.1,29.1,39,28,39"/>
<path class="st0" d="M28,50H13c-1.1,0-2-0.9-2-2c0-1.1,0.9-2,2-2h15c1.1,0,2,0.9,2,2C30,49.1,29.1,50,28,50"/>
<path class="st0" d="M28,69H13c-1.1,0-2-0.9-2-2c0-1.1,0.9-2,2-2h15c1.1,0,2,0.9,2,2C30,68.1,29.1,69,28,69"/>
<path class="st0" d="M28,80H13c-1.1,0-2-0.9-2-2c0-1.1,0.9-2,2-2h15c1.1,0,2,0.9,2,2C30,79.1,29.1,80,28,80"/>
<path class="st0" d="M28,91H13c-1.1,0-2-0.9-2-2c0-1.1,0.9-2,2-2h15c1.1,0,2,0.9,2,2C30,90.1,29.1,91,28,91"/>
<path class="st0" d="M90.62,39.01c-0.6,0.03-1.15,0.3-1.55,0.75l-27.5,30.93l-16.4-13.12c-0.46-0.37-1.03-0.54-1.63-0.48
	c-0.6,0.06-1.14,0.36-1.52,0.83c-0.76,0.96-0.6,2.37,0.35,3.15l18.07,14.45c0.4,0.32,0.9,0.49,1.4,0.49c0.64,0,1.26-0.28,1.68-0.75
	l28.9-32.51c0.4-0.45,0.6-1.02,0.57-1.62c-0.04-0.6-0.3-1.14-0.75-1.54C91.79,39.17,91.22,38.96,90.62,39.01"/>
</svg>
