<?xml version="1.0" encoding="utf-8"?>
<!-- Generator: Adobe Illustrator 23.0.0, SVG Export Plug-In . SVG Version: 6.00 Build 0)  -->
<svg version="1.1" id="Capa_1" xmlns="http://www.w3.org/2000/svg" xmlns:xlink="http://www.w3.org/1999/xlink" x="0px" y="0px"
	 viewBox="0 0 53 53" style="enable-background:new 0 0 53 53;" xml:space="preserve">
<style type="text/css">
	.st0{fill:#62A1D9;}
</style>
<g>
	<g>
		<path class="st0" d="M24.05,36.99c1.81,1.81,2.85,1.88,4.73,0l13.87-14.21c1.3-2.19,0.24-3.99-2.37-3.99h-6.24V5.05
			C34.05,3.37,32.69,2,31,2h-9.16c-1.69,0-3.05,1.37-3.05,3.05v13.74h-6.24c-2.6,0-3.67,1.79-2.37,3.99L24.05,36.99z M47.79,43.21
			H5.05C3.37,43.21,2,44.58,2,46.26v1.53c0,1.69,1.37,3.05,3.05,3.05h42.74c1.69,0,3.05-1.37,3.05-3.05v-1.53
			C50.84,44.58,49.48,43.21,47.79,43.21L47.79,43.21z M47.79,43.21"/>
	</g>
</g>
</svg>
