<?xml version="1.0" encoding="utf-8"?>
<!-- Generator: Adobe Illustrator 23.0.0, SVG Export Plug-In . SVG Version: 6.00 Build 0)  -->
<svg version="1.1" id="Capa_1" xmlns="http://www.w3.org/2000/svg" xmlns:xlink="http://www.w3.org/1999/xlink" x="0px" y="0px"
	 viewBox="0 0 111.32 124.68" style="enable-background:new 0 0 111.32 124.68;" xml:space="preserve">
<style type="text/css">
	.st0{fill:#FFFFFF;}
</style>
<g>
	<path class="st0" d="M15,32.11v62.64c0,7.1,5.78,12.87,12.89,12.87H82.1c7.11,0,12.9-5.78,12.9-12.87V32.11
		c0-7.1-5.79-12.87-12.9-12.87h-1.63v-5.81c0-0.57-0.46-1.04-1.03-1.04c-0.57,0-1.04,0.47-1.04,1.04v5.81h-6.07v-5.81
		c0-0.57-0.47-1.04-1.04-1.04c-0.57,0-1.04,0.47-1.04,1.04v5.81h-6.07v-5.81c0-0.57-0.47-1.04-1.04-1.04
		c-0.57,0-1.04,0.47-1.04,1.04v5.81h-6.07v-5.81c0-0.57-0.47-1.04-1.04-1.04c-0.57,0-1.03,0.47-1.03,1.04v5.81h-6.07v-5.81
		c0-0.57-0.47-1.04-1.04-1.04c-0.57,0-1.04,0.47-1.04,1.04v5.81h-6.07v-5.81c0-0.57-0.46-1.04-1.03-1.04
		c-0.57,0-1.04,0.47-1.04,1.04v5.81H31.6v-5.81c0-0.57-0.47-1.04-1.04-1.04c-0.57,0-1.04,0.47-1.04,1.04v5.81h-1.63
		C20.78,19.23,15,25.01,15,32.11z M30.56,27.08c0.57,0,1.04-0.46,1.04-1.04V21.3h6.07v4.74c0,0.57,0.47,1.04,1.04,1.04
		c0.57,0,1.03-0.46,1.03-1.04V21.3h6.07v4.74c0,0.57,0.47,1.04,1.04,1.04c0.57,0,1.04-0.46,1.04-1.04V21.3h6.07v4.74
		c0,0.57,0.46,1.04,1.03,1.04c0.57,0,1.04-0.46,1.04-1.04V21.3h6.07v4.74c0,0.57,0.47,1.04,1.04,1.04c0.57,0,1.04-0.46,1.04-1.04
		V21.3h6.07v4.74c0,0.57,0.47,1.04,1.04,1.04c0.57,0,1.04-0.46,1.04-1.04V21.3h6.07v4.74c0,0.57,0.47,1.04,1.04,1.04
		c0.57,0,1.03-0.46,1.03-1.04V21.3h1.63c5.96,0,10.82,4.85,10.82,10.8v62.64c0,5.95-4.85,10.79-10.82,10.79H27.89
		c-5.96,0-10.81-4.84-10.81-10.79V32.11c0-5.96,4.85-10.8,10.81-10.8h1.63v4.74C29.52,26.62,29.98,27.08,30.56,27.08z"/>
</g>
<g>
	<g>
		<g>
			<path class="st0" d="M34.5,71.43c-0.13,0-0.25-0.03-0.37-0.1c-0.36-0.2-0.49-0.66-0.29-1.02l3.16-5.61
				c0.12-0.21,0.33-0.35,0.57-0.38c0.24-0.03,0.48,0.06,0.64,0.24l4.27,4.73c0.28,0.31,0.25,0.78-0.05,1.06
				c-0.31,0.28-0.78,0.25-1.06-0.05l-3.57-3.96l-2.65,4.7C35.02,71.29,34.76,71.43,34.5,71.43z"/>
		</g>
	</g>
	<g>
		<g>
			<path class="st0" d="M56.3,85.19c-6.2,0-12.28-3-15.95-8.55c-2.41-3.64-3.63-7.76-3.43-11.6c0.02-0.41,0.38-0.73,0.79-0.71
				c0.41,0.02,0.73,0.38,0.71,0.79c-0.18,3.52,0.94,7.32,3.18,10.69c5.36,8.09,16.3,10.31,24.39,4.95c3.92-2.6,6.59-6.56,7.53-11.17
				c0.94-4.61,0.02-9.3-2.58-13.22c-2.6-3.92-6.56-6.59-11.17-7.53c-4.61-0.94-9.3-0.02-13.22,2.58c-2.83,1.87-5.04,4.5-6.39,7.59
				c-0.17,0.38-0.61,0.55-0.99,0.39c-0.38-0.17-0.55-0.61-0.39-0.99c1.47-3.36,3.87-6.2,6.94-8.24c8.78-5.82,20.66-3.41,26.47,5.37
				c2.82,4.25,3.81,9.35,2.8,14.35c-1.02,5-3.92,9.31-8.17,12.12C63.58,84.16,59.92,85.19,56.3,85.19z"/>
		</g>
	</g>
</g>
</svg>
