<?xml version="1.0" encoding="utf-8"?>
<!-- Generator: Adobe Illustrator 23.0.0, SVG Export Plug-In . SVG Version: 6.00 Build 0)  -->
<svg version="1.1" id="Capa_1" xmlns="http://www.w3.org/2000/svg" xmlns:xlink="http://www.w3.org/1999/xlink" x="0px" y="0px"
	 viewBox="0 0 111 106" style="enable-background:new 0 0 111 106;" xml:space="preserve">
<style type="text/css">
	.st0{fill:#60A3E3;}
</style>
<path class="st0" d="M101.78,3H21.22c-2.6,0-4.72,2.12-4.72,4.72v90.56c0,2.6,2.12,4.72,4.72,4.72h80.56c2.6,0,4.72-2.12,4.72-4.72
	V7.72C106.5,5.12,104.38,3,101.78,3 M19.84,7.72c0-0.77,0.62-1.38,1.38-1.38h80.56c0.77,0,1.39,0.62,1.39,1.38v90.56
	c0,0.77-0.63,1.38-1.39,1.38H21.22c-0.77,0-1.38-0.62-1.38-1.38V7.72z"/>
<path class="st0" d="M25,24H10c-1.1,0-2-0.9-2-2c0-1.1,0.9-2,2-2h15c1.1,0,2,0.9,2,2C27,23.1,26.1,24,25,24"/>
<path class="st0" d="M25,35H10c-1.1,0-2-0.9-2-2c0-1.1,0.9-2,2-2h15c1.1,0,2,0.9,2,2C27,34.1,26.1,35,25,35"/>
<path class="st0" d="M25,46H10c-1.1,0-2-0.9-2-2c0-1.1,0.9-2,2-2h15c1.1,0,2,0.9,2,2C27,45.1,26.1,46,25,46"/>
<path class="st0" d="M25,65H10c-1.1,0-2-0.9-2-2c0-1.1,0.9-2,2-2h15c1.1,0,2,0.9,2,2C27,64.1,26.1,65,25,65"/>
<path class="st0" d="M25,76H10c-1.1,0-2-0.9-2-2c0-1.1,0.9-2,2-2h15c1.1,0,2,0.9,2,2C27,75.1,26.1,76,25,76"/>
<path class="st0" d="M25,87H10c-1.1,0-2-0.9-2-2c0-1.1,0.9-2,2-2h15c1.1,0,2,0.9,2,2C27,86.1,26.1,87,25,87"/>
</svg>
