<?xml version="1.0" encoding="utf-8"?>
<!-- Generator: Adobe Illustrator 23.0.0, SVG Export Plug-In . SVG Version: 6.00 Build 0)  -->
<svg version="1.1" id="Capa_1" xmlns="http://www.w3.org/2000/svg" xmlns:xlink="http://www.w3.org/1999/xlink" x="0px" y="0px"
	 viewBox="0 0 130 115" style="enable-background:new 0 0 130 115;" xml:space="preserve">
<style type="text/css">
	.st0{fill:#FFFFFF;}
</style>
<path class="st0" d="M84.11,34.55c-15.13,0-27.43,12.3-27.43,27.43c0,15.12,12.31,27.43,27.43,27.43s27.43-12.3,27.43-27.43
	C111.54,46.85,99.24,34.55,84.11,34.55 M108.95,61.98c0,13.69-11.14,24.84-24.84,24.84c-13.69,0-24.84-11.14-24.84-24.84
	c0-13.69,11.14-24.84,24.84-24.84C97.81,37.14,108.95,48.28,108.95,61.98"/>
<path class="st0" d="M88.17,101.65c0,2.76-2.23,5-4.98,5H15.18c-2.75,0-4.98-2.24-4.98-5V34.18h23.6c0.69,0,1.25-0.55,1.25-1.23
	V8.66h48.15c2.75,0,4.98,2.23,4.98,4.98v18.29h2.48V13.64c0-4.11-3.35-7.46-7.46-7.46H33.8c-0.33,0-0.64,0.13-0.88,0.37L8.05,32.11
	c-0.02,0.04-0.04,0.07-0.1,0.15c-0.06,0.08-0.11,0.15-0.14,0.24c-0.01,0.03-0.01,0.07-0.04,0.17c-0.03,0.1-0.05,0.18-0.05,0.26
	v68.73c0,4.1,3.35,7.44,7.46,7.44h68.02c4.11,0,7.46-3.35,7.46-7.46v-8.68h-2.48V101.65z M32.57,10.47V31.7H11.89l10.34-10.62
	L32.57,10.47z"/>
<path class="st0" d="M60.91,40.52H19.17v2.86h39.34C59.25,42.37,60.06,41.42,60.91,40.52"/>
<path class="st0" d="M54.39,51.01H19.17v2.86H53.5C53.75,52.9,54.05,51.94,54.39,51.01"/>
<path class="st0" d="M19.17,64.36h33.52c-0.09-0.94-0.14-1.9-0.14-2.86H19.17V64.36z"/>
<path class="st0" d="M19.17,71.99v2.86h36.45c-0.45-0.93-0.86-1.88-1.22-2.86H19.17z"/>
<path class="st0" d="M19.17,82.48v2.86h44.86c-1.1-0.88-2.14-1.84-3.11-2.86H19.17z"/>
<rect x="19.17" y="92.97" class="st0" width="61.03" height="2.86"/>
<path class="st0" d="M118.69,110.19c-0.89,0-1.77-0.39-2.36-1.14L98.31,86.18c-1.03-1.3-0.8-3.19,0.5-4.21
	c1.3-1.03,3.19-0.8,4.21,0.5l18.03,22.86c1.03,1.3,0.8,3.19-0.5,4.21C120,109.98,119.34,110.19,118.69,110.19"/>
</svg>
