<?xml version="1.0" encoding="utf-8"?>
<!-- Generator: Adobe Illustrator 23.0.0, SVG Export Plug-In . SVG Version: 6.00 Build 0)  -->
<svg version="1.1" id="Capa_1" xmlns="http://www.w3.org/2000/svg" xmlns:xlink="http://www.w3.org/1999/xlink" x="0px" y="0px"
	 viewBox="0 0 101 105" style="enable-background:new 0 0 101 105;" xml:space="preserve">
<style type="text/css">
	.st0{fill:#60A3E3;}
</style>
<g>
	<g>
		<path class="st0" d="M10,24.11v62.64c0,7.1,5.78,12.87,12.89,12.87H77.1c7.11,0,12.9-5.78,12.9-12.87V24.11
			c0-7.1-5.79-12.87-12.9-12.87h-1.63V5.42c0-0.57-0.46-1.04-1.03-1.04c-0.57,0-1.04,0.47-1.04,1.04v5.81h-6.07V5.42
			c0-0.57-0.47-1.04-1.04-1.04c-0.57,0-1.04,0.47-1.04,1.04v5.81h-6.07V5.42c0-0.57-0.47-1.04-1.04-1.04
			c-0.57,0-1.04,0.47-1.04,1.04v5.81h-6.07V5.42c0-0.57-0.47-1.04-1.04-1.04c-0.57,0-1.03,0.47-1.03,1.04v5.81h-6.07V5.42
			c0-0.57-0.47-1.04-1.04-1.04c-0.57,0-1.04,0.47-1.04,1.04v5.81h-6.07V5.42c0-0.57-0.46-1.04-1.03-1.04
			c-0.57,0-1.04,0.47-1.04,1.04v5.81H26.6V5.42c0-0.57-0.47-1.04-1.04-1.04c-0.57,0-1.04,0.47-1.04,1.04v5.81h-1.63
			C15.78,11.23,10,17.01,10,24.11z M25.56,19.08c0.57,0,1.04-0.46,1.04-1.04V13.3h6.07v4.74c0,0.57,0.47,1.04,1.04,1.04
			c0.57,0,1.03-0.46,1.03-1.04V13.3h6.07v4.74c0,0.57,0.47,1.04,1.04,1.04c0.57,0,1.04-0.46,1.04-1.04V13.3h6.07v4.74
			c0,0.57,0.46,1.04,1.03,1.04c0.57,0,1.04-0.46,1.04-1.04V13.3h6.07v4.74c0,0.57,0.47,1.04,1.04,1.04c0.57,0,1.04-0.46,1.04-1.04
			V13.3h6.07v4.74c0,0.57,0.47,1.04,1.04,1.04c0.57,0,1.04-0.46,1.04-1.04V13.3h6.07v4.74c0,0.57,0.47,1.04,1.04,1.04
			c0.57,0,1.03-0.46,1.03-1.04V13.3h1.63c5.96,0,10.82,4.85,10.82,10.8v62.64c0,5.95-4.85,10.79-10.82,10.79H22.89
			c-5.96,0-10.81-4.84-10.81-10.79V24.11c0-5.96,4.85-10.8,10.81-10.8h1.63v4.74C24.52,18.62,24.98,19.08,25.56,19.08z"/>
	</g>
	<g>
		<polygon class="st0" points="66.52,45.41 42.61,69.29 33.67,60.35 32.51,61.52 42.61,71.61 67.68,46.57 		"/>
	</g>
</g>
</svg>
