<?xml version="1.0" encoding="utf-8"?>
<!-- Generator: Adobe Illustrator 23.0.0, SVG Export Plug-In . SVG Version: 6.00 Build 0)  -->
<svg version="1.1" id="Capa_1" xmlns="http://www.w3.org/2000/svg" xmlns:xlink="http://www.w3.org/1999/xlink" x="0px" y="0px"
	 viewBox="0 0 130 115" style="enable-background:new 0 0 130 115;" xml:space="preserve">
<style type="text/css">
	.st0{clip-path:url(#SVGID_2_);fill:url(#SVGID_3_);}
	.st1{clip-path:url(#SVGID_5_);fill:url(#SVGID_6_);}
	.st2{clip-path:url(#SVGID_8_);fill:url(#SVGID_9_);}
	.st3{clip-path:url(#SVGID_11_);fill:url(#SVGID_12_);}
	.st4{clip-path:url(#SVGID_14_);fill:url(#SVGID_15_);}
	.st5{clip-path:url(#SVGID_17_);fill:url(#SVGID_18_);}
	.st6{clip-path:url(#SVGID_20_);fill:url(#SVGID_21_);}
	.st7{clip-path:url(#SVGID_23_);fill:url(#SVGID_24_);}
	.st8{clip-path:url(#SVGID_26_);fill:url(#SVGID_27_);}
	.st9{clip-path:url(#SVGID_29_);fill:url(#SVGID_30_);}
	.st10{clip-path:url(#SVGID_32_);fill:url(#SVGID_33_);}
	.st11{fill:#5F9FDF;}
</style>
<g>
	<defs>
		<path id="SVGID_1_" d="M-95.57-33.01c-0.22,0-0.42,0.09-0.58,0.24l0,0l-6.7,6.7c-0.32,0.32-0.32,0.85,0,1.17
			c0.16,0.16,0.37,0.24,0.59,0.24c0.22,0,0.43-0.09,0.59-0.24l5.29-5.29v21.93c0,0.47,0.36,0.83,0.83,0.83
			c0.46,0,0.83-0.36,0.83-0.83v-21.93l5.29,5.29c0.16,0.16,0.37,0.24,0.59,0.24c0.22,0,0.43-0.09,0.59-0.24
			c0.16-0.16,0.25-0.37,0.25-0.58c0-0.22-0.09-0.43-0.24-0.58l-6.71-6.7C-95.13-32.92-95.34-33.01-95.57-33.01
			C-95.57-33.01-95.57-33.01-95.57-33.01"/>
	</defs>
	<clipPath id="SVGID_2_">
		<use xlink:href="#SVGID_1_"  style="overflow:visible;"/>
	</clipPath>
	
		<linearGradient id="SVGID_3_" gradientUnits="userSpaceOnUse" x1="3747.9321" y1="61.7904" x2="3748.9321" y2="61.7904" gradientTransform="matrix(15.0728 0 0 -15.0728 -56595.043 911.1474)">
		<stop  offset="0" style="stop-color:#2D4F8C"/>
		<stop  offset="1" style="stop-color:#1E3477"/>
	</linearGradient>
	<rect x="-103.17" y="-33.01" class="st0" width="15.15" height="25.59"/>
</g>
<g>
	<defs>
		<path id="SVGID_4_" d="M-96.38,13.83v21.93l-5.29-5.29c-0.16-0.16-0.37-0.24-0.59-0.24c-0.22,0-0.43,0.09-0.59,0.24
			c-0.16,0.16-0.25,0.37-0.25,0.58c0,0.22,0.09,0.43,0.24,0.58l6.7,6.7c0.16,0.16,0.38,0.25,0.6,0.25c0.22,0,0.42-0.09,0.58-0.24
			l0,0l6.7-6.7c0.32-0.33,0.32-0.85,0-1.17c-0.16-0.16-0.37-0.24-0.59-0.24s-0.43,0.09-0.59,0.24l-5.29,5.29V13.83
			c0-0.47-0.37-0.83-0.83-0.83C-96.02,12.99-96.38,13.36-96.38,13.83"/>
	</defs>
	<clipPath id="SVGID_5_">
		<use xlink:href="#SVGID_4_"  style="overflow:visible;"/>
	</clipPath>
	
		<linearGradient id="SVGID_6_" gradientUnits="userSpaceOnUse" x1="4324.0679" y1="140.2097" x2="4325.0679" y2="140.2097" gradientTransform="matrix(-15.0728 0 0 15.0728 65087.9375 -2087.5649)">
		<stop  offset="0" style="stop-color:#2D4F8C"/>
		<stop  offset="1" style="stop-color:#1E3477"/>
	</linearGradient>
	<rect x="-103.09" y="12.99" class="st1" width="15.15" height="25.59"/>
</g>
<g>
	<defs>
		<path id="SVGID_7_" d="M-104.26,55c-0.41,0-0.74,0.33-0.74,0.74v25.52c0,0.41,0.33,0.74,0.74,0.74h0.52
			c0.41,0,0.74-0.33,0.74-0.74V55.74c0-0.41-0.33-0.74-0.74-0.74H-104.26z"/>
	</defs>
	<clipPath id="SVGID_8_">
		<use xlink:href="#SVGID_7_"  style="overflow:visible;"/>
	</clipPath>
	
		<linearGradient id="SVGID_9_" gradientUnits="userSpaceOnUse" x1="6207" y1="396.5" x2="6208" y2="396.5" gradientTransform="matrix(-2 0 0 2 12311 -724.5)">
		<stop  offset="0" style="stop-color:#2D4F8C"/>
		<stop  offset="1" style="stop-color:#1E3477"/>
	</linearGradient>
	<rect x="-105" y="55" class="st2" width="2" height="27"/>
</g>
<g>
	<defs>
		<path id="SVGID_10_" d="M-98.26,55c-0.41,0-0.74,0.33-0.74,0.74v25.52c0,0.41,0.33,0.74,0.74,0.74h0.52
			c0.41,0,0.74-0.33,0.74-0.74V55.74c0-0.41-0.33-0.74-0.74-0.74H-98.26z"/>
	</defs>
	<clipPath id="SVGID_11_">
		<use xlink:href="#SVGID_10_"  style="overflow:visible;"/>
	</clipPath>
	
		<linearGradient id="SVGID_12_" gradientUnits="userSpaceOnUse" x1="6207" y1="396.5" x2="6208" y2="396.5" gradientTransform="matrix(-2 0 0 2 12317 -724.5)">
		<stop  offset="0" style="stop-color:#2D4F8C"/>
		<stop  offset="1" style="stop-color:#1E3477"/>
	</linearGradient>
	<rect x="-99" y="55" class="st3" width="2" height="27"/>
</g>
<g>
	<defs>
		<path id="SVGID_13_" d="M-92.26,55c-0.41,0-0.74,0.33-0.74,0.74v25.52c0,0.41,0.33,0.74,0.74,0.74h0.52
			c0.41,0,0.74-0.33,0.74-0.74V55.74c0-0.41-0.33-0.74-0.74-0.74H-92.26z"/>
	</defs>
	<clipPath id="SVGID_14_">
		<use xlink:href="#SVGID_13_"  style="overflow:visible;"/>
	</clipPath>
	
		<linearGradient id="SVGID_15_" gradientUnits="userSpaceOnUse" x1="6207" y1="396.5" x2="6208" y2="396.5" gradientTransform="matrix(-2 0 0 2 12323 -724.5)">
		<stop  offset="0" style="stop-color:#2D4F8C"/>
		<stop  offset="1" style="stop-color:#1E3477"/>
	</linearGradient>
	<rect x="-93" y="55" class="st4" width="2" height="27"/>
</g>
<g>
	<defs>
		<path id="SVGID_16_" d="M-86.26,55c-0.41,0-0.74,0.33-0.74,0.74v25.52c0,0.41,0.33,0.74,0.74,0.74h0.52
			c0.41,0,0.74-0.33,0.74-0.74V55.74c0-0.41-0.33-0.74-0.74-0.74H-86.26z"/>
	</defs>
	<clipPath id="SVGID_17_">
		<use xlink:href="#SVGID_16_"  style="overflow:visible;"/>
	</clipPath>
	
		<linearGradient id="SVGID_18_" gradientUnits="userSpaceOnUse" x1="6207" y1="396.5" x2="6208" y2="396.5" gradientTransform="matrix(-2 0 0 2 12329 -724.5)">
		<stop  offset="0" style="stop-color:#2D4F8C"/>
		<stop  offset="1" style="stop-color:#1E3477"/>
	</linearGradient>
	<rect x="-87" y="55" class="st5" width="2" height="27"/>
</g>
<g>
	<defs>
		<path id="SVGID_19_" d="M-107.76,109.5c-0.41,0-0.74,0.33-0.74,0.74v0.52c0,0.41,0.33,0.74,0.74,0.74h25.52
			c0.41,0,0.74-0.33,0.74-0.74v-0.52c0-0.41-0.33-0.74-0.74-0.74H-107.76z"/>
	</defs>
	<clipPath id="SVGID_20_">
		<use xlink:href="#SVGID_19_"  style="overflow:visible;"/>
	</clipPath>
	
		<linearGradient id="SVGID_21_" gradientUnits="userSpaceOnUse" x1="3740.5" y1="2272" x2="3741.5" y2="2272" gradientTransform="matrix(0 -2 -2 0 4449 7592.5)">
		<stop  offset="0" style="stop-color:#2D4F8C"/>
		<stop  offset="1" style="stop-color:#1E3477"/>
	</linearGradient>
	<rect x="-108.5" y="109.5" class="st6" width="27" height="2"/>
</g>
<g>
	<defs>
		<path id="SVGID_22_" d="M-108,103c0,1.66,1.34,3,3,3c1.66,0,3-1.34,3-3s-1.34-3-3-3C-106.66,100-108,101.34-108,103"/>
	</defs>
	<clipPath id="SVGID_23_">
		<use xlink:href="#SVGID_22_"  style="overflow:visible;"/>
	</clipPath>
	
		<linearGradient id="SVGID_24_" gradientUnits="userSpaceOnUse" x1="3937.5" y1="824.6667" x2="3938.5" y2="824.6667" gradientTransform="matrix(0 -6 -6 0 4843 23731)">
		<stop  offset="0" style="stop-color:#2D4F8C"/>
		<stop  offset="1" style="stop-color:#1E3477"/>
	</linearGradient>
	<rect x="-108" y="100" class="st7" width="6" height="6"/>
</g>
<g>
	<defs>
		<path id="SVGID_25_" d="M-98,103c0,1.66,1.34,3,3,3s3-1.34,3-3s-1.34-3-3-3S-98,101.34-98,103"/>
	</defs>
	<clipPath id="SVGID_26_">
		<use xlink:href="#SVGID_25_"  style="overflow:visible;"/>
	</clipPath>
	
		<linearGradient id="SVGID_27_" gradientUnits="userSpaceOnUse" x1="3937.5" y1="824.6667" x2="3938.5" y2="824.6667" gradientTransform="matrix(0 -6 -6 0 4853 23731)">
		<stop  offset="0" style="stop-color:#2D4F8C"/>
		<stop  offset="1" style="stop-color:#1E3477"/>
	</linearGradient>
	<rect x="-98" y="100" class="st8" width="6" height="6"/>
</g>
<g>
	<defs>
		<path id="SVGID_28_" d="M-98,117c0,1.66,1.34,3,3,3s3-1.34,3-3s-1.34-3-3-3S-98,115.34-98,117"/>
	</defs>
	<clipPath id="SVGID_29_">
		<use xlink:href="#SVGID_28_"  style="overflow:visible;"/>
	</clipPath>
	
		<linearGradient id="SVGID_30_" gradientUnits="userSpaceOnUse" x1="3937.5" y1="824.6667" x2="3938.5" y2="824.6667" gradientTransform="matrix(0 -6 -6 0 4853 23745)">
		<stop  offset="0" style="stop-color:#2D4F8C"/>
		<stop  offset="1" style="stop-color:#1E3477"/>
	</linearGradient>
	<rect x="-98" y="114" class="st9" width="6" height="6"/>
</g>
<g>
	<defs>
		<path id="SVGID_31_" d="M-88,103c0,1.66,1.34,3,3,3c1.66,0,3-1.34,3-3s-1.34-3-3-3C-86.66,100-88,101.34-88,103"/>
	</defs>
	<clipPath id="SVGID_32_">
		<use xlink:href="#SVGID_31_"  style="overflow:visible;"/>
	</clipPath>
	
		<linearGradient id="SVGID_33_" gradientUnits="userSpaceOnUse" x1="3937.5" y1="824.6667" x2="3938.5" y2="824.6667" gradientTransform="matrix(0 -6 -6 0 4863 23731)">
		<stop  offset="0" style="stop-color:#2D4F8C"/>
		<stop  offset="1" style="stop-color:#1E3477"/>
	</linearGradient>
	<rect x="-88" y="100" class="st10" width="6" height="6"/>
</g>
<path class="st11" d="M84.75,33.36c-15.13,0-27.43,12.3-27.43,27.43c0,15.12,12.31,27.43,27.43,27.43s27.43-12.31,27.43-27.43
	C112.18,45.67,99.88,33.36,84.75,33.36 M109.59,60.79c0,13.69-11.14,24.84-24.84,24.84c-13.69,0-24.84-11.14-24.84-24.84
	c0-13.69,11.14-24.84,24.84-24.84C98.45,35.95,109.59,47.1,109.59,60.79"/>
<path class="st11" d="M88.82,100.46c0,2.76-2.23,5-4.98,5H15.82c-2.75,0-4.98-2.24-4.98-5V32.99h23.6c0.69,0,1.25-0.55,1.25-1.23
	V7.47h48.15c2.75,0,4.98,2.23,4.98,4.98v18.29h2.48V12.46c0-4.11-3.35-7.46-7.46-7.46H34.44c-0.33,0-0.64,0.13-0.88,0.37L8.7,30.92
	C8.68,30.96,8.65,31,8.6,31.08c-0.06,0.08-0.11,0.15-0.14,0.24c-0.01,0.03-0.01,0.07-0.04,0.17c-0.03,0.1-0.05,0.18-0.05,0.26v68.72
	c0,4.1,3.35,7.44,7.46,7.44h68.02c4.11,0,7.46-3.35,7.46-7.46v-8.68h-2.48V100.46z M33.21,9.28v21.23H12.54L22.87,19.9L33.21,9.28z"
	/>
<path class="st11" d="M61.55,39.33H19.81v2.86h39.34C59.89,41.19,60.7,40.24,61.55,39.33"/>
<path class="st11" d="M55.04,49.82H19.81v2.86h34.34C54.4,51.71,54.7,50.76,55.04,49.82"/>
<path class="st11" d="M19.81,63.17h33.52c-0.09-0.94-0.14-1.9-0.14-2.86H19.81V63.17z"/>
<path class="st11" d="M19.81,70.8v2.86h36.45c-0.45-0.93-0.86-1.88-1.22-2.86H19.81z"/>
<path class="st11" d="M19.81,81.29v2.86h44.86c-1.1-0.88-2.14-1.84-3.11-2.86H19.81z"/>
<rect x="19.81" y="91.78" class="st11" width="61.03" height="2.86"/>
<path class="st11" d="M119.33,109c-0.89,0-1.77-0.39-2.36-1.14L98.95,84.99c-1.03-1.3-0.8-3.19,0.5-4.21c1.3-1.03,3.19-0.8,4.21,0.5
	l18.03,22.86c1.03,1.3,0.8,3.19-0.5,4.21C120.64,108.79,119.98,109,119.33,109"/>
<g>
	<path class="st11" d="M-173,50.97c0-6.47-5.26-11.73-11.73-11.73c-6.47,0-11.73,5.26-11.73,11.73c0,6.47,5.26,11.73,11.73,11.73
		C-178.26,62.7-173,57.44-173,50.97 M-184.73,61.59c-5.86,0-10.62-4.76-10.62-10.62c0-5.86,4.76-10.62,10.62-10.62
		c5.86,0,10.62,4.76,10.62,10.62C-174.11,56.83-178.87,61.59-184.73,61.59"/>
	<path class="st11" d="M-205.34,65.76c0-0.38,0.17-0.75,0.49-1.01l9.78-7.71c0.56-0.44,1.36-0.34,1.8,0.21
		c0.44,0.56,0.34,1.36-0.21,1.8l-9.78,7.71c-0.56,0.44-1.36,0.34-1.8-0.21C-205.25,66.32-205.34,66.04-205.34,65.76"/>
</g>
</svg>
