<?xml version="1.0" encoding="utf-8"?>
<!-- Generator: Adobe Illustrator 23.0.0, SVG Export Plug-In . SVG Version: 6.00 Build 0)  -->
<svg version="1.1" id="Capa_1" xmlns="http://www.w3.org/2000/svg" xmlns:xlink="http://www.w3.org/1999/xlink" x="0px" y="0px"
	 viewBox="0 0 101 105" style="enable-background:new 0 0 101 105;" xml:space="preserve">
<style type="text/css">
	.st0{fill:#60A3E3;}
</style>
<g>
	<g>
		<g>
			<path class="st0" d="M95.49,55.58v-7.54c0-4.71-3.83-8.54-8.54-8.54H62.31V15.05c0-4.71-3.83-8.54-8.54-8.54h-7.54
				c-4.71,0-8.54,3.83-8.54,8.54V39.5H13.05c-4.71,0-8.54,3.83-8.54,8.54v7.54c0,4.71,3.83,8.54,8.54,8.54h24.65v24.84
				c0,4.7,3.83,8.53,8.54,8.53h7.54c4.58,0,8.33-3.63,8.53-8.16l-0.01-0.87l0.02-0.05V64.12h24.65
				C91.67,64.12,95.49,60.29,95.49,55.58z M61.32,62.13c-0.55,0-1,0.45-1,1L60.31,89.4c-0.23,3.4-3.07,6.1-6.54,6.1h-7.54
				c-3.61,0-6.55-2.94-6.55-6.55V63.13c0-0.55-0.45-1-1-1H13.05c-3.61,0-6.55-2.94-6.55-6.55v-7.54c0-3.61,2.94-6.55,6.55-6.55
				h25.64c0.55,0,1-0.45,1-0.99V15.05c0-3.61,2.94-6.55,6.55-6.55h7.54c3.61,0,6.55,2.94,6.55,6.55V40.5c0,0.55,0.45,0.99,1,0.99
				h25.64c3.61,0,6.55,2.94,6.55,6.55v7.54c0,3.61-2.94,6.55-6.55,6.55H61.32z"/>
		</g>
	</g>
</g>
</svg>
