<?xml version="1.0" encoding="utf-8"?>
<!-- Generator: Adobe Illustrator 23.0.0, SVG Export Plug-In . SVG Version: 6.00 Build 0)  -->
<svg version="1.1" id="Capa_1" xmlns="http://www.w3.org/2000/svg" xmlns:xlink="http://www.w3.org/1999/xlink" x="0px" y="0px"
	 viewBox="0 0 22 29" style="enable-background:new 0 0 22 29;" xml:space="preserve">
<style type="text/css">
	.st0{fill:#789FD5;}
</style>
<path class="st0" d="M15.17,8h-9c-0.55,0-1,0.45-1,1v9c0,0.55,0.45,1,1,1h0c0.55,0,1,0.45,1,1v7c0,0.55,0.45,1,1,1h5
	c0.55,0,1-0.45,1-1v-7c0-0.55,0.45-1,1-1h0c0.55,0,1-0.45,1-1V9C16.17,8.45,15.72,8,15.17,8z"/>
<circle class="st0" cx="10.67" cy="4" r="3"/>
</svg>
