<?xml version="1.0" encoding="utf-8"?>
<!-- Generator: Adobe Illustrator 23.0.0, SVG Export Plug-In . SVG Version: 6.00 Build 0)  -->
<svg version="1.1" id="Capa_1" xmlns="http://www.w3.org/2000/svg" xmlns:xlink="http://www.w3.org/1999/xlink" x="0px" y="0px"
	 viewBox="0 0 93.45 77.11" style="enable-background:new 0 0 93.45 77.11;" xml:space="preserve">
<style type="text/css">
	.st0{fill:#1791B9;}
</style>
<g>
	<g>
		<path class="st0" d="M23.83,72.57c-6.87,0-12.46-5.59-12.46-12.46V5.64H4.04c-0.55,0-1-0.45-1-1s0.45-1,1-1h8.33
			c0.55,0,1,0.45,1,1v55.46c0,5.77,4.69,10.46,10.46,10.46S34.3,65.88,34.3,60.11V4.64c0-0.55,0.45-1,1-1h8.82c0.55,0,1,0.45,1,1
			s-0.45,1-1,1H36.3v54.46C36.3,66.98,30.71,72.57,23.83,72.57z"/>
	</g>
	<g>
		<path class="st0" d="M22.41,12.56H12.37c-0.55,0-1-0.45-1-1s0.45-1,1-1h10.04c0.55,0,1,0.45,1,1S22.97,12.56,22.41,12.56z"/>
	</g>
	<g>
		<path class="st0" d="M22.41,22.7H12.37c-0.55,0-1-0.45-1-1s0.45-1,1-1h10.04c0.55,0,1,0.45,1,1S22.97,22.7,22.41,22.7z"/>
	</g>
	<g>
		<path class="st0" d="M22.41,32.83H12.37c-0.55,0-1-0.45-1-1s0.45-1,1-1h10.04c0.55,0,1,0.45,1,1S22.97,32.83,22.41,32.83z"/>
	</g>
	<g>
		<path class="st0" d="M22.41,42.97H12.37c-0.55,0-1-0.45-1-1s0.45-1,1-1h10.04c0.55,0,1,0.45,1,1S22.97,42.97,22.41,42.97z"/>
	</g>
	<g>
		<path class="st0" d="M68.08,72.57c-6.87,0-12.46-5.59-12.46-12.46V5.64h-7.33c-0.55,0-1-0.45-1-1s0.45-1,1-1h8.33
			c0.55,0,1,0.45,1,1v55.46c0,5.77,4.69,10.46,10.46,10.46s10.46-4.69,10.46-10.46V4.64c0-0.55,0.45-1,1-1h8.82c0.55,0,1,0.45,1,1
			s-0.45,1-1,1h-7.82v54.46C80.54,66.98,74.95,72.57,68.08,72.57z"/>
	</g>
	<g>
		<path class="st0" d="M66.66,12.56H56.61c-0.55,0-1-0.45-1-1s0.45-1,1-1h10.04c0.55,0,1,0.45,1,1S67.21,12.56,66.66,12.56z"/>
	</g>
	<g>
		<path class="st0" d="M66.66,22.7H56.61c-0.55,0-1-0.45-1-1s0.45-1,1-1h10.04c0.55,0,1,0.45,1,1S67.21,22.7,66.66,22.7z"/>
	</g>
	<g>
		<path class="st0" d="M66.66,32.83H56.61c-0.55,0-1-0.45-1-1s0.45-1,1-1h10.04c0.55,0,1,0.45,1,1S67.21,32.83,66.66,32.83z"/>
	</g>
	<g>
		<path class="st0" d="M66.66,42.97H56.61c-0.55,0-1-0.45-1-1s0.45-1,1-1h10.04c0.55,0,1,0.45,1,1S67.21,42.97,66.66,42.97z"/>
	</g>
	<path class="st0" d="M75.82,44.96v14.17c0,4.49-3.43,8.13-7.65,8.13h0c-4.23,0-7.65-3.64-7.65-8.13V44.96H75.82z"/>
</g>
</svg>
