<?xml version="1.0" encoding="utf-8"?>
<!-- Generator: Adobe Illustrator 23.0.0, SVG Export Plug-In . SVG Version: 6.00 Build 0)  -->
<svg version="1.1" id="Capa_1" xmlns="http://www.w3.org/2000/svg" xmlns:xlink="http://www.w3.org/1999/xlink" x="0px" y="0px"
	 viewBox="0 0 113 115" style="enable-background:new 0 0 113 115;" xml:space="preserve">
<style type="text/css">
	.st0{fill:#60A3E3;}
</style>
<g>
	<g>
		<path class="st0" d="M56.8,4.1C28.02,4.1,4.6,27.52,4.6,56.3s23.42,52.2,52.2,52.2c28.78,0,52.2-23.42,52.2-52.2
			S85.58,4.1,56.8,4.1L56.8,4.1z M56.8,104.48c-26.56,0-48.18-21.61-48.18-48.18c0-26.57,21.61-48.18,48.18-48.18
			c26.57,0,48.18,21.61,48.18,48.18C104.98,82.87,83.37,104.48,56.8,104.48L56.8,104.48z M56.8,104.48"/>
	</g>
	<g>
		<path class="st0" d="M81.4,34.89L50.54,69.6L31.95,54.73c-0.86-0.7-2.13-0.55-2.82,0.31c-0.69,0.86-0.55,2.13,0.31,2.82
			l20.08,16.06c0.37,0.29,0.82,0.44,1.25,0.44c0.56,0,1.11-0.23,1.51-0.68l32.11-36.13c0.75-0.83,0.66-2.1-0.17-2.83
			C83.4,33.98,82.13,34.06,81.4,34.89L81.4,34.89z M81.4,34.89"/>
	</g>
</g>
</svg>
