<?xml version="1.0" encoding="utf-8"?>
<!-- Generator: Adobe Illustrator 23.0.0, SVG Export Plug-In . SVG Version: 6.00 Build 0)  -->
<svg version="1.1" id="Capa_1" xmlns="http://www.w3.org/2000/svg" xmlns:xlink="http://www.w3.org/1999/xlink" x="0px" y="0px"
	 viewBox="0 0 102 103" style="enable-background:new 0 0 102 103;" xml:space="preserve">
<style type="text/css">
	.st0{fill:#60A3E3;}
</style>
<path class="st0" d="M97.97,99.57c0.01-0.4-0.14-0.79-0.42-1.07l0,0L69.24,69.05l0.26-0.26c7.4-7.43,11.48-17.27,11.48-27.71
	C80.98,19.42,63.36,1.8,41.7,1.8C20.05,1.8,2.43,19.42,2.43,41.08S20.05,80.35,41.7,80.35c9.1,0,17.99-3.21,25.03-9.04L67,71.09
	l28.36,29.5c0.54,0.57,1.54,0.6,2.15,0.03C97.79,100.35,97.96,99.97,97.97,99.57z M41.7,77.32c-19.99,0-36.25-16.26-36.25-36.25
	S21.72,4.83,41.7,4.83c19.99,0,36.25,16.26,36.25,36.25S61.69,77.32,41.7,77.32z"/>
</svg>
