<?xml version="1.0" encoding="utf-8"?>
<!-- Generator: Adobe Illustrator 23.0.0, SVG Export Plug-In . SVG Version: 6.00 Build 0)  -->
<svg version="1.1" id="Capa_1" xmlns="http://www.w3.org/2000/svg" xmlns:xlink="http://www.w3.org/1999/xlink" x="0px" y="0px"
	 viewBox="0 0 27.22 16.98" style="enable-background:new 0 0 27.22 16.98;" xml:space="preserve">
<style type="text/css">
	.st0{fill:#60A3E3;}
</style>
<g>
	<path class="st0" d="M26.04,8.59c-2.46-4.58-7.21-7.42-12.4-7.42c-4.89,0-9.36,2.49-11.95,6.66L1.52,8.1l0.15,0.28
		c2.46,4.58,7.21,7.42,12.4,7.42c4.89,0,9.36-2.49,11.95-6.66l0.17-0.27L26.04,8.59z M14.08,14.71c-4.66,0-8.98-2.51-11.29-6.56
		C5.2,4.46,9.25,2.27,13.64,2.27c4.66,0,8.98,2.51,11.29,6.56C22.51,12.51,18.46,14.71,14.08,14.71z"/>
	<path class="st0" d="M13.64,2.49c-3.19,0-5.78,2.59-5.78,5.78s2.6,5.78,5.78,5.78s5.78-2.59,5.78-5.78S16.83,2.49,13.64,2.49z
		 M13.64,12.96c-2.59,0-4.69-2.11-4.69-4.69s2.11-4.69,4.69-4.69s4.69,2.11,4.69,4.69S16.23,12.96,13.64,12.96z"/>
	<circle class="st0" cx="13.64" cy="8.27" r="1.86"/>
</g>
</svg>
