<?xml version="1.0" encoding="utf-8"?>
<!-- Generator: Adobe Illustrator 23.0.0, SVG Export Plug-In . SVG Version: 6.00 Build 0)  -->
<svg version="1.1" id="Capa_1" xmlns="http://www.w3.org/2000/svg" xmlns:xlink="http://www.w3.org/1999/xlink" x="0px" y="0px"
	 viewBox="0 0 111.32 124.68" style="enable-background:new 0 0 111.32 124.68;" xml:space="preserve">
<style type="text/css">
	.st0{fill:#FFFFFF;}
</style>
<g>
	<path class="st0" d="M93.13,31.86H49.35l-0.1-0.14l-8.71-12.19H7.63c-2.47,0-4.48,2.01-4.48,4.48v76.62h0l0.01,0.34
		c-0.01,0.94,0.29,1.82,0.85,2.56c0.79,1.04,2,1.64,3.32,1.64h78.84c1.86,0,3.54-1.24,3.99-2.94l18-49.36V52.6
		c0-2.84-1.72-4.89-4.08-4.89h-6.49V36.33C97.59,33.86,95.59,31.86,93.13,31.86z M6.01,24c0-0.9,0.73-1.62,1.63-1.62h31.44l0.1,0.14
		l8.71,12.18h45.24c0.9,0,1.63,0.73,1.63,1.63v11.38h-69.5c-0.24,0-0.47,0.02-0.69,0.06c-1.58,0.27-2.91,1.43-3.29,2.89L6.01,92.25
		V24z M104.08,50.55c0.4,0,1.08,0.23,1.22,1.75l0.01,0.08l-0.03,0.07l-17.83,48.89c-0.17,0.57-0.7,0.97-1.29,0.97H7.33
		c-0.63,0-0.97-0.41-1.06-0.54c-0.11-0.15-0.38-0.56-0.28-0.99l17.96-49.28c0.16-0.56,0.69-0.96,1.28-0.96H104.08z"/>
</g>
</svg>
