<?xml version="1.0" encoding="utf-8"?>
<!-- Generator: Adobe Illustrator 23.0.0, SVG Export Plug-In . SVG Version: 6.00 Build 0)  -->
<svg version="1.1" id="Capa_1" xmlns="http://www.w3.org/2000/svg" xmlns:xlink="http://www.w3.org/1999/xlink" x="0px" y="0px"
	 viewBox="0 0 37 39" style="enable-background:new 0 0 37 39;" xml:space="preserve">
<style type="text/css">
	.st0{fill:#FFFFFF;}
</style>
<g>
	<g>
		<g>
			<path class="st0" d="M18.9,37.5h9.75c3.64,0,6.61-2.96,6.61-6.61V7.76c0-3.64-2.96-6.61-6.61-6.61h-9.6
				c-0.47,0-0.83,0.36-0.83,0.83c0,0.46,0.37,0.83,0.83,0.83h9.6c2.73,0,4.95,2.22,4.95,4.95v23.13c0,2.73-2.22,4.95-4.95,4.95H18.9
				c-0.47,0-0.83,0.36-0.83,0.83C18.07,37.14,18.44,37.5,18.9,37.5z"/>
			<path class="st0" d="M27.2,19.32c0-0.47-0.36-0.83-0.83-0.83H4.44l5.29-5.29c0.16-0.16,0.24-0.37,0.24-0.59
				c0-0.22-0.09-0.43-0.24-0.59c-0.16-0.16-0.37-0.25-0.58-0.25c-0.22,0-0.43,0.09-0.58,0.24l-6.7,6.7
				c-0.16,0.16-0.25,0.38-0.25,0.6c0,0.22,0.09,0.42,0.24,0.58l0,0l6.7,6.7c0.32,0.32,0.85,0.32,1.17,0
				c0.16-0.16,0.24-0.37,0.24-0.59c0-0.22-0.09-0.43-0.24-0.59l-5.29-5.29h21.93C26.84,20.15,27.2,19.78,27.2,19.32z"/>
		</g>
	</g>
</g>
</svg>
