<?xml version="1.0" encoding="utf-8"?>
<!-- Generator: Adobe Illustrator 23.0.0, SVG Export Plug-In . SVG Version: 6.00 Build 0)  -->
<svg version="1.1" id="Capa_1" xmlns="http://www.w3.org/2000/svg" xmlns:xlink="http://www.w3.org/1999/xlink" x="0px" y="0px"
	 viewBox="0 0 118 117" style="enable-background:new 0 0 118 117;" xml:space="preserve">
<style type="text/css">
	.st0{fill:#5EA4CC;}
</style>
<g>
	<g>
		<g>
			<g>
				<path class="st0" d="M98.7,36l-23.4-24c-0.2-0.2-0.5-0.4-0.8-0.4H28c-3.9,0-7,3.2-7,7v82.8c0,3.9,3.1,7,7,7h64c3.9,0,7-3.1,7-7
					V36.8c0-0.1,0-0.2-0.1-0.2c0-0.1,0-0.1,0-0.2c0-0.1-0.1-0.2-0.1-0.2C98.7,36,98.7,36,98.7,36z M75.6,15.6l19.4,20H75.6V15.6z
					 M96.7,101.4c0,2.6-2.1,4.7-4.7,4.7H28c-2.6,0-4.7-2.1-4.7-4.7V18.6c0-2.6,2.1-4.7,4.7-4.7h45.3v22.8c0,0.6,0.5,1.2,1.2,1.2
					h22.2V101.4z"/>
			</g>
		</g>
	</g>
	<g>
		<g>
			<g>
				<path class="st0" d="M71.4,56v-0.1l-0.2-6.2c0-0.2-0.1-0.4-0.2-0.5C70.8,49,70.6,49,70.4,49c-0.2,0-0.4,0.1-0.5,0.2
					c-0.1,0.1-0.2,0.3-0.2,0.5l0.2,4.3l-0.4-0.3c-2.5-2.1-5.6-3.2-8.9-3.4c-0.3,0-0.5,0-0.8,0c-3.8,0-7.4,1.4-10.3,4
					c-4.2,3.8-5.9,9.5-4.6,15c0.1,0.3,0.4,0.6,0.7,0.6c0.1,0,0.1,0,0.2,0c0.2-0.1,0.3-0.2,0.5-0.3c0.1-0.2,0.1-0.4,0.1-0.6
					c-1.2-5,0.4-10.2,4.2-13.6c5-4.5,12.8-4.8,18-0.5l0.4,0.4l-4.6,0.2c-0.2,0-0.4,0.1-0.5,0.2s-0.2,0.3-0.2,0.5
					c0,0.4,0.3,0.7,0.7,0.7l6.3-0.2C71.1,56.7,71.4,56.4,71.4,56z"/>
				<path class="st0" d="M48.5,75.9l0.6,6.2c0,0.4,0.3,0.7,0.7,0.7l0.1,0c0.4,0,0.7-0.4,0.7-0.8l-0.4-4.3l0.4,0.3
					c2.5,2,5.6,3.2,8.9,3.4c0.3,0,0.5,0,0.8,0c3.8,0,7.4-1.4,10.3-4c4.2-3.8,5.9-9.5,4.6-15c-0.1-0.2-0.2-0.3-0.3-0.5
					c-0.2-0.1-0.4-0.1-0.6-0.1c-0.2,0-0.3,0.2-0.4,0.3c-0.1,0.2-0.1,0.4-0.1,0.5c1.2,4.9-0.4,10.1-4.2,13.6
					c-2.6,2.3-5.8,3.6-9.3,3.6c-3.2,0-6.4-1.1-8.9-3.2l-0.4-0.3l4.6-0.4c0.4,0,0.7-0.4,0.7-0.8c0-0.2-0.1-0.4-0.3-0.5
					c-0.1-0.1-0.3-0.2-0.5-0.2c0,0,0,0-0.1,0l-6.2,0.6C48.7,75.2,48.4,75.5,48.5,75.9z"/>
			</g>
		</g>
	</g>
</g>
</svg>
