<?xml version="1.0" encoding="utf-8"?>
<!-- Generator: Adobe Illustrator 23.0.0, SVG Export Plug-In . SVG Version: 6.00 Build 0)  -->
<svg version="1.1" id="Capa_1" xmlns="http://www.w3.org/2000/svg" xmlns:xlink="http://www.w3.org/1999/xlink" x="0px" y="0px"
	 viewBox="0 0 111 106" style="enable-background:new 0 0 111 106;" xml:space="preserve">
<style type="text/css">
	.st0{fill:#5EA4CC;}
</style>
<path class="st0" d="M2.7,67.1c-0.3,0-0.7-0.1-1-0.3c-0.9-0.5-1.3-1.7-0.8-2.7l8.3-14.7c0.3-0.5,0.9-0.9,1.5-1
	c0.6-0.1,1.3,0.2,1.7,0.6l11.2,12.4c0.7,0.8,0.7,2.1-0.1,2.8c-0.8,0.7-2.1,0.7-2.8-0.1l-9.4-10.4L4.4,66.1
	C4.1,66.7,3.4,67.1,2.7,67.1"/>
<path class="st0" d="M59.9,103.2c-16.3,0-32.2-7.9-41.8-22.4c-6.3-9.6-9.5-20.3-9-30.4c0.1-1.1,1-1.9,2.1-1.9c1.1,0.1,1.9,1,1.9,2.1
	c-0.5,9.2,2.5,19.2,8.3,28c14.1,21.2,42.8,27,64,13c10.3-6.8,17.3-17.2,19.8-29.3c2.4-12.1,0.1-24.4-6.8-34.7
	C91.5,17.3,81.1,10.3,69,7.9c-12.1-2.5-24.4-0.1-34.7,6.7c-7.4,4.9-13.2,11.8-16.8,19.9c-0.4,1-1.6,1.5-2.6,1c-1-0.4-1.4-1.6-1-2.6
	c3.9-8.8,10.2-16.3,18.2-21.6c23-15.3,54.2-8.9,69.4,14.1c7.4,11.2,10,24.5,7.3,37.6c-2.7,13.1-10.3,24.4-21.4,31.8
	C79,100.5,69.4,103.2,59.9,103.2"/>
</svg>
