<?xml version="1.0" encoding="utf-8"?>
<!-- Generator: Adobe Illustrator 23.0.0, SVG Export Plug-In . SVG Version: 6.00 Build 0)  -->
<svg version="1.1" id="Capa_1" xmlns="http://www.w3.org/2000/svg" xmlns:xlink="http://www.w3.org/1999/xlink" x="0px" y="0px"
	 viewBox="0 0 111.3 124.7" style="enable-background:new 0 0 111.3 124.7;" xml:space="preserve">
<style type="text/css">
	.st0{fill:#5EA4CC;}
</style>
<g>
	<path class="st0" d="M55,41.7c-15.1,0-27.4,12.3-27.4,27.4c0,15.1,12.3,27.4,27.4,27.4s27.4-12.3,27.4-27.4S70.1,41.7,55,41.7z
		 M79.8,69.2C79.8,82.8,68.7,94,55,94S30.1,82.8,30.1,69.2c0-13.7,11.1-24.8,24.8-24.8S79.8,55.5,79.8,69.2z"/>
	<path class="st0" d="M93.1,104.8c0,2.8-2.2,5-5,5H20c-2.8,0-5-2.2-5-5V37.3h23.6c0.7,0,1.3-0.5,1.3-1.2V11.8h48.2c2.8,0,5,2.2,5,5
		v81.5h2.5V16.8c0-4.1-3.3-7.5-7.5-7.5H38.7c-0.3,0-0.6,0.1-0.9,0.4L12.9,35.3c0,0,0,0.1-0.1,0.2s-0.1,0.2-0.1,0.2c0,0,0,0.1,0,0.2
		s-0.1,0.2-0.1,0.3v68.7c0,4.1,3.3,7.4,7.4,7.4h68c4.1,0,7.5-3.3,7.5-7.5v-8.7H93L93.1,104.8L93.1,104.8z M37.4,13.6v21.2H16.8
		l10.3-10.6L37.4,13.6z"/>
</g>
<g>
	<path class="st0" d="M55.4,59v7.2h7.2c1,0,1.8,0.8,1.8,1.8l0,0c0,1-0.8,1.8-1.8,1.8h-7.2v7.2c0,1-0.8,1.8-1.8,1.8l0,0
		c-1,0-1.8-0.8-1.8-1.8v-7.2h-7.3c-1,0-1.8-0.8-1.8-1.8l0,0c0-1,0.8-1.8,1.8-1.8h7.2V59c0-1,0.8-1.8,1.8-1.8l0,0
		C54.6,57.1,55.4,58,55.4,59z"/>
</g>
</svg>
