<?xml version="1.0" encoding="utf-8"?>
<!-- Generator: Adobe Illustrator 23.0.0, SVG Export Plug-In . SVG Version: 6.00 Build 0)  -->
<svg version="1.1" id="Capa_1" xmlns="http://www.w3.org/2000/svg" xmlns:xlink="http://www.w3.org/1999/xlink" x="0px" y="0px"
	 viewBox="0 0 94.5 93.6" style="enable-background:new 0 0 94.5 93.6;" xml:space="preserve">
<style type="text/css">
	.st0{fill:#5EA4CC;}
</style>
<g>
	<g>
		<g>
			<path class="st0" d="M92.4,50.5v-7.5c0-4.7-3.8-8.5-8.5-8.5H59.2V9.9c0-4.7-3.8-8.5-8.5-8.5h-7.5c-4.7,0-8.5,3.8-8.5,8.5v24.5
				H9.9c-4.7,0-8.5,3.8-8.5,8.5v7.5c0,4.7,3.8,8.5,8.5,8.5h24.6v24.8c0,4.7,3.8,8.5,8.5,8.5h7.5c4.6,0,8.3-3.6,8.5-8.2l0-0.9l0-0.1
				V59h24.7C88.6,59,92.4,55.2,92.4,50.5z M58.2,57c-0.5,0-1,0.5-1,1l0,26.3c-0.2,3.4-3.1,6.1-6.5,6.1h-7.5c-3.6,0-6.5-2.9-6.5-6.6
				V58c0-0.5-0.5-1-1-1H9.9c-3.6,0-6.6-2.9-6.6-6.5v-7.5c0-3.6,2.9-6.5,6.6-6.5h25.6c0.5,0,1-0.5,1-1V9.9c0-3.6,2.9-6.6,6.5-6.6h7.5
				c3.6,0,6.5,2.9,6.5,6.6v25.5c0,0.5,0.5,1,1,1h25.6c3.6,0,6.6,2.9,6.6,6.5v7.5c0,3.6-2.9,6.5-6.6,6.5C83.9,57,58.2,57,58.2,57z"/>
		</g>
	</g>
</g>
</svg>
