<?xml version="1.0" encoding="utf-8"?>
<!-- Generator: Adobe Illustrator 23.0.0, SVG Export Plug-In . SVG Version: 6.00 Build 0)  -->
<svg version="1.1" id="Capa_1" xmlns="http://www.w3.org/2000/svg" xmlns:xlink="http://www.w3.org/1999/xlink" x="0px" y="0px"
	 viewBox="0 0 86 99.7" style="enable-background:new 0 0 86 99.7;" xml:space="preserve">
<style type="text/css">
	.st0{fill:#5EA4CC;}
</style>
<g>
	<g>
		<path class="st0" d="M3.2,22.2v62.6C3.2,92,9,97.7,16.1,97.7h54.2c7.1,0,12.9-5.8,12.9-12.9V22.2c0-7.1-5.8-12.9-12.9-12.9h-1.6
			V3.5c0-0.6-0.5-1-1-1s-1,0.5-1,1v5.8h-6.1V3.5c0-0.6-0.5-1-1-1s-1,0.5-1,1v5.8h-6.1V3.5c0-0.6-0.5-1-1-1s-1,0.5-1,1v5.8h-6.1V3.5
			c0-0.6-0.5-1-1-1s-1,0.5-1,1v5.8h-6.1V3.5c0-0.6-0.5-1-1-1s-1,0.5-1,1v5.8h-6.1V3.5c0-0.6-0.5-1-1-1c-0.6,0-1,0.5-1,1v5.8h-6.1
			V3.5c0-0.6-0.5-1-1-1c-0.6,0-1,0.5-1,1v5.8h-1.6C9,9.4,3.2,15.1,3.2,22.2z M18.8,17.2c0.6,0,1-0.5,1-1v-4.7h6.1v4.7
			c0,0.6,0.5,1,1,1c0.6,0,1-0.5,1-1v-4.7H34v4.7c0,0.6,0.5,1,1,1s1-0.5,1-1v-4.7h6.1v4.7c0,0.6,0.5,1,1,1s1-0.5,1-1v-4.7h6.1v4.7
			c0,0.6,0.5,1,1,1s1-0.5,1-1v-4.7h6.1v4.7c0,0.6,0.5,1,1,1s1-0.5,1-1v-4.7h6.1v4.7c0,0.6,0.5,1,1,1s1-0.5,1-1v-4.7h1.6
			c6,0,10.8,4.9,10.8,10.8v62.6c0,5.9-4.8,10.8-10.8,10.8H16.1c-6,0-10.8-4.8-10.8-10.8V22.2c0-6,4.8-10.8,10.8-10.8h1.6v4.7
			C17.7,16.8,18.2,17.2,18.8,17.2z"/>
	</g>
	<g>
		<polygon class="st0" points="59.7,43.5 35.8,67.4 26.9,58.5 25.7,59.6 35.8,69.7 60.9,44.7 		"/>
	</g>
</g>
</svg>
