<?xml version="1.0" encoding="utf-8"?>
<!-- Generator: Adobe Illustrator 23.0.0, SVG Export Plug-In . SVG Version: 6.00 Build 0)  -->
<svg version="1.1" id="Capa_1" xmlns="http://www.w3.org/2000/svg" xmlns:xlink="http://www.w3.org/1999/xlink" x="0px" y="0px"
	 viewBox="0 0 111.3 124.7" style="enable-background:new 0 0 111.3 124.7;" xml:space="preserve">
<style type="text/css">
	.st0{fill:#5EA4CC;}
</style>
<path class="st0" d="M55.4,9.9c11.1,0,20.1,9,20.1,20.1s-9,20.1-20.2,20.1c-11.1,0-20.1-9-20.1-20.1S44.3,9.9,55.4,9.9 M55.4,60.8
	c21.3,0,38.6,16.1,38.6,35.9c0,5-1.1,9.8-3.2,14.3c-11.6,1-23.5,1.5-35.4,1.5c-11.9,0-23.8-0.5-35.4-1.5c-2.1-4.5-3.2-9.3-3.2-14.3
	C16.8,76.9,34.1,60.8,55.4,60.8 M52.2,75.7c-0.2,0.3-0.3,0.6-0.5,1L43.8,97c-1,2.5-0.3,5.8,1.6,7.7l6,6c1.1,1.1,2.5,1.7,4.1,1.7
	c1.5,0,3-0.6,4-1.7l6-6c1.9-1.9,2.6-5.2,1.6-7.7l-7.9-20.3c-0.2-0.4-0.3-0.7-0.5-1c0.3-0.2,0.5-0.4,0.8-0.7l6-6
	c1.4-1.4,1.8-3.1,1.2-4.6c-0.3-0.7-1.3-2.4-4.1-2.4H48.3c-2.8,0-3.8,1.7-4.1,2.4c-0.6,1.5-0.2,3.2,1.2,4.7l6,6
	C51.6,75.3,51.9,75.5,52.2,75.7 M55.4,6.9C42.7,6.9,32.3,17.3,32.3,30c0,12.8,10.4,23.1,23.1,23.1c12.8,0,23.2-10.4,23.2-23.1
	C78.6,17.3,68.2,6.9,55.4,6.9L55.4,6.9z M55.4,57.8c-23,0-41.6,17.4-41.6,38.9c0,6.2,1.5,12,4.3,17.1c12,1.1,24.5,1.7,37.3,1.7
	c12.8,0,25.3-0.6,37.4-1.7c2.7-5.2,4.3-11,4.3-17.1C97.1,75.2,78.4,57.8,55.4,57.8L55.4,57.8z M55.4,73.7c-0.7,0-1.4-0.3-1.9-0.8
	l-6-6c-1-1.1-0.7-1.9,0.8-1.9h14.2c1.5,0,1.9,0.9,0.8,1.9l-6,6C56.8,73.4,56.2,73.7,55.4,73.7L55.4,73.7z M55.4,109.3
	c-0.7,0-1.4-0.3-1.9-0.8l-6-6c-1-1.1-1.5-3.1-0.9-4.5l7.9-20.3c0.3-0.7,0.6-1.1,1-1.1s0.7,0.3,1,1.1L64.3,98c0.6,1.4,0.1,3.4-1,4.5
	l-6,6C56.8,109.1,56.2,109.3,55.4,109.3L55.4,109.3z"/>
</svg>
