<?xml version="1.0" encoding="utf-8"?>
<!-- Generator: Adobe Illustrator 23.0.0, SVG Export Plug-In . SVG Version: 6.00 Build 0)  -->
<svg version="1.1" id="Capa_1" xmlns="http://www.w3.org/2000/svg" xmlns:xlink="http://www.w3.org/1999/xlink" x="0px" y="0px"
	 viewBox="0 0 122 122.7" style="enable-background:new 0 0 122 122.7;" xml:space="preserve">
<style type="text/css">
	.st0{fill:#5EA4CC;}
</style>
<g>
	<g>
		<path class="st0" d="M13.4,54.4c0.6,0.2,1.3,0.2,1.8,0l18.1-8.2c1.2-0.5,1.6-1.9,1.1-3.1c-0.5-1.1-1.8-1.6-3-1.1l-12.7,5.8
			c6-18,22.9-30.1,42.2-30.1c20.3,0,38,13.5,43.2,32.9c0.3,1.2,1.6,2,2.8,1.6c1.2-0.3,2-1.6,1.6-2.8C103,28,83.4,13,61,13
			c-21.4,0-39.9,13.3-46.7,33.2L9,32.9c-0.4-1.2-1.7-1.9-2.9-1.5c-1.2,0.4-1.9,1.7-1.5,2.9c0,0.1,0.1,0.2,0.1,0.3l7.4,18.5
			C12.4,53.7,12.8,54.2,13.4,54.4z"/>
	</g>
	<g>
		<path class="st0" d="M115.5,88.4l-7.4-18.5c-0.2-0.6-0.7-1.1-1.3-1.3c-0.6-0.2-1.3-0.2-1.8,0.1l-18.1,8.2c-1.2,0.5-1.7,1.8-1.3,3
			s1.8,1.7,3,1.3c0.1,0,0.1-0.1,0.1-0.1l12.7-5.8c-6.1,18-22.9,30.1-42.3,30.1c-20.3,0-38-13.5-43.2-32.9c-0.3-1.2-1.6-2-2.8-1.6
			s-2,1.6-1.6,2.8C17.2,95.1,36.8,110,59.2,110c21.4,0,39.9-13.3,46.7-33.2l5.3,13.3c0.4,1.2,1.8,1.8,3,1.4c1.2-0.4,1.8-1.8,1.4-3
			C115.5,88.4,115.5,88.4,115.5,88.4L115.5,88.4z"/>
	</g>
</g>
</svg>
