<?xml version="1.0" encoding="utf-8"?>
<!-- Generator: Adobe Illustrator 23.0.0, SVG Export Plug-In . SVG Version: 6.00 Build 0)  -->
<svg version="1.1" id="Capa_1" xmlns="http://www.w3.org/2000/svg" xmlns:xlink="http://www.w3.org/1999/xlink" x="0px" y="0px"
	 viewBox="0 0 79.8 97.9" style="enable-background:new 0 0 79.8 97.9;" xml:space="preserve">
<style type="text/css">
	.st0{fill:#5EA4CC;}
</style>
<g>
	<g>
		<g>
			<path class="st0" d="M39.2,38.1l-12,12c-0.4,0.4-0.4,1.1,0,1.6c0.4,0.4,1.1,0.4,1.6,0l10.1-10.1v28.6c0,0.6,0.5,1.1,1.1,1.1
				c0.6,0,1.1-0.5,1.1-1.1V41.5l10.1,10.1c0.2,0.2,0.5,0.3,0.8,0.3s0.6-0.1,0.8-0.3s0.3-0.5,0.3-0.8c0-0.3-0.1-0.6-0.3-0.8l-12-12
				c0,0-0.1,0-0.1-0.1l-0.2-0.1c0,0-0.1,0-0.1,0c-0.3-0.1-0.6-0.1-0.8,0C39.4,37.9,39.3,38,39.2,38.1z"/>
		</g>
		<g>
			<path class="st0" d="M76.7,26.2L54.5,3.4c-0.2-0.2-0.5-0.3-0.8-0.3H9.6C6,3.1,3,6.1,3,9.7v78.5c0,3.7,3,6.7,6.6,6.7h60.7
				c3.7,0,6.7-3,6.7-6.6V27c0-0.1,0-0.1-0.1-0.2c0-0.1,0-0.1,0-0.1c0-0.1-0.1-0.1-0.1-0.2C76.7,26.3,76.7,26.3,76.7,26.2z M54.8,6.9
				l18.4,19H54.8V6.9z M74.8,88.3c0,2.5-2,4.5-4.4,4.5H9.6c-2.4,0-4.4-2-4.4-4.5V9.7c0-2.4,2-4.4,4.4-4.4h43V27
				c0,0.6,0.5,1.1,1.1,1.1h21.1L74.8,88.3L74.8,88.3z"/>
		</g>
	</g>
</g>
</svg>
