<?xml version="1.0" encoding="utf-8"?>
<!-- Generator: Adobe Illustrator 23.0.0, SVG Export Plug-In . SVG Version: 6.00 Build 0)  -->
<svg version="1.1" id="Capa_1" xmlns="http://www.w3.org/2000/svg" xmlns:xlink="http://www.w3.org/1999/xlink" x="0px" y="0px"
	 viewBox="0 0 110.1 111.2" style="enable-background:new 0 0 110.1 111.2;" xml:space="preserve">
<style type="text/css">
	.st0{fill:#5EA4CC;}
</style>
<path class="st0" d="M85.2,63.2h-2.9l19.6-19.6c4.5-4.4,7-10.4,7-16.7s-2.4-12.3-6.9-16.7c-4.4-4.4-10.5-6.9-16.7-6.9
	c-6.3,0-12.3,2.6-16.7,7L25.2,53.8c-2.7,2.7-4.7,6.1-5.9,9.8C7.4,65.9,0.8,77.4,1.9,89.4s9.8,19.1,21.9,19.1h61.2
	c13,0,21.7-8.9,21.7-21.9S98.2,63.2,85.2,63.2L85.2,63.2z M71,12.1c7.8-7.5,20.2-7.4,27.8,0.3c7.7,7.7,7.8,20,0.3,27.8L78.7,60.8
	L50.6,32.6L71,12.1z M27.5,55.6L48,35.2l27.9,27.9l-52.5,0.4c-0.2,0-0.4-0.1-0.6-0.1C23.8,60.8,25.6,57.6,27.5,55.6L27.5,55.6z
	 M3.7,85.9c0-11,8.9-19.9,19.9-19.9H53v39.8H23.6C12.6,105.8,3.7,96.9,3.7,85.9L3.7,85.9z M85.1,105.8H55.4V66.1h29.7
	c11,0,19.9,8.9,19.9,19.9S96,105.8,85.1,105.8L85.1,105.8z"/>
<path class="st0" d="M96.5,87.2h2.4c0-9-7.3-16.3-16.3-16.3v1.9C89.6,72.8,96.5,80.2,96.5,87.2L96.5,87.2z"/>
</svg>
