<?xml version="1.0" encoding="utf-8"?>
<!-- Generator: Adobe Illustrator 23.0.0, SVG Export Plug-In . SVG Version: 6.00 Build 0)  -->
<svg version="1.1" id="Capa_1" xmlns="http://www.w3.org/2000/svg" xmlns:xlink="http://www.w3.org/1999/xlink" x="0px" y="0px"
	 viewBox="0 0 118 117" style="enable-background:new 0 0 118 117;" xml:space="preserve">
<style type="text/css">
	.st0{fill:#5EA4CC;}
</style>
<g>
	<path class="st0" d="M108.9,23H12.3C11,23,10,24,10,25.3v69c0,1.3,1,2.3,2.3,2.3h96.6c1.3,0,2.3-1,2.3-2.3v-69
		C111.2,24,110.2,23,108.9,23L108.9,23z M106.6,86.4L78.1,58l-3.3,3.3L105.7,92H15.6l30.8-30.8L43.1,58L14.6,86.4V27.6h92V86.4z"/>
	<path class="st0" d="M101.9,27.6L60.6,68.9L19.3,27.6h-4.6v1.9L59,73.8c0.9,0.9,2.3,0.9,3.3,0l44.4-44.4v-1.9
		C106.6,27.6,101.9,27.6,101.9,27.6z"/>
</g>
</svg>
