<?xml version="1.0" encoding="utf-8"?>
<!-- Generator: Adobe Illustrator 23.0.0, SVG Export Plug-In . SVG Version: 6.00 Build 0)  -->
<svg version="1.1" id="Capa_1" xmlns="http://www.w3.org/2000/svg" xmlns:xlink="http://www.w3.org/1999/xlink" x="0px" y="0px"
	 viewBox="0 0 156 106" style="enable-background:new 0 0 156 106;" xml:space="preserve">
<style type="text/css">
	.st0{fill:#5EA4CC;}
</style>
<path class="st0" d="M77.1,32.8c-0.4,0-0.8-0.2-1.1-0.5l-4.2-4.5l-22.4,0.5c0,0,0,0,0,0c-0.8,0-1.4-0.6-1.4-1.4
	c0-0.8,0.6-1.5,1.4-1.5l23-0.5c0.4,0,0.8,0.2,1.1,0.5l4.6,5c0.5,0.6,0.5,1.5-0.1,2C77.8,32.6,77.5,32.8,77.1,32.8"/>
<path class="st0" d="M38.6,76.9c-2.5,0-5-1.2-6.4-3.4c-1.7-2.6-1.3-5.9,0.8-8.2c0.5-0.6,1.5-0.6,2-0.1c0.6,0.6,0.6,1.5,0,2
	c-1.3,1.3-1.5,3.2-0.5,4.7c1.3,2,4.1,2.7,6.3,1.5l3.8-2c0.7-0.4,1.6-0.1,2,0.6c0.4,0.7,0.1,1.6-0.6,1.9l-3.8,2
	C41.2,76.6,39.9,76.9,38.6,76.9"/>
<path class="st0" d="M68.9,96.3c-2.1,0-4.2-1-5.4-2.8c-0.8-1.3-1.1-2.9-0.7-4.4c0.4-1.6,1.4-2.9,2.9-3.7l1.5-1
	c0.7-0.4,1.6-0.3,2,0.4c0.4,0.7,0.3,1.6-0.4,2l-1.6,1.1c0,0-0.1,0.1-0.1,0.1c-0.8,0.4-1.3,1.1-1.5,1.9c-0.2,0.7-0.1,1.5,0.4,2.2
	c0.9,1.5,3.1,2,4.7,1.1l6.4-3.7c0.7-0.4,1.6-0.2,2,0.5s0.2,1.6-0.5,2l-6.4,3.7l0,0C71.1,96.1,70,96.3,68.9,96.3"/>
<path class="st0" d="M42.3,87.8c-2.5,0-5-1.2-6.4-3.4c-1-1.6-1.3-3.4-0.8-5.2c0.5-1.9,1.7-3.4,3.5-4.4l6.1-3.4
	c0.7-0.4,1.6-0.1,2,0.6s0.1,1.6-0.6,1.9L40,77.3c-1.1,0.6-1.8,1.5-2.1,2.6c-0.3,1-0.1,2.1,0.5,3c1.3,2,4.1,2.7,6.3,1.5l11.5-6.5
	c0.7-0.4,1.6-0.2,2,0.5s0.2,1.6-0.5,2l-11.5,6.6c0,0,0,0,0,0C44.9,87.4,43.6,87.8,42.3,87.8"/>
<path class="st0" d="M50.8,95.8c-2.5,0-5-1.2-6.4-3.4c-1-1.6-1.3-3.4-0.8-5.2c0.5-1.9,1.7-3.4,3.5-4.4l9-5c0.7-0.4,1.6-0.1,2,0.6
	c0.4,0.7,0.1,1.6-0.5,1.9l-9,5c-1.1,0.6-1.8,1.5-2.1,2.6c-0.3,1-0.1,2.1,0.5,3c1.3,2,4.1,2.7,6.3,1.5l14.7-8.1
	c0.7-0.4,1.6-0.1,1.9,0.6s0.1,1.6-0.6,1.9l-14.7,8.1C53.4,95.5,52.1,95.8,50.8,95.8"/>
<path class="st0" d="M111.1,73.9c-0.5,0-1-0.3-1.3-0.8c-0.4-0.7-0.1-1.6,0.6-1.9l7.8-4.3c3.7-2,6.6-4.9,8.3-8.5
	c0.4-0.7,1.2-1,1.9-0.6c0.7,0.4,1,1.2,0.6,1.9c-2.1,4.1-5.4,7.4-9.5,9.7l-7.8,4.3C111.6,73.9,111.4,73.9,111.1,73.9"/>
<path class="st0" d="M109.3,72.2c-1.3,0-2.5-0.3-3.7-0.9L71.1,52.4c-0.7-0.4-0.9-1.3-0.6-2c0.4-0.7,1.3-1,1.9-0.6L107,68.8
	c2.2,1.2,5,0.5,6.3-1.5c0.6-0.9,0.8-2,0.5-3c-0.3-1.1-1-2-2.1-2.6L79.6,44.2c-0.7-0.4-0.9-1.3-0.6-2s1.3-1,1.9-0.6L113,59.2
	c1.8,1,3,2.5,3.5,4.4c0.5,1.8,0.2,3.7-0.8,5.2C114.3,71,111.8,72.2,109.3,72.2"/>
<path class="st0" d="M70.4,39c-0.2,0-0.5-0.1-0.7-0.2l-5.4-3c-0.7-0.4-0.9-1.3-0.5-2c0.4-0.7,1.3-0.9,2-0.5l5.4,3
	c0.7,0.4,0.9,1.3,0.6,2C71.4,38.8,70.9,39,70.4,39"/>
<path class="st0" d="M83,93.8c-1.1,0-2.1-0.3-3.1-0.8L36.5,69.2c-0.7-0.4-1-1.3-0.6-1.9c0.4-0.7,1.3-0.9,2-0.6l43.4,23.8
	c1.6,0.9,3.7,0.4,4.7-1.1c0.4-0.7,0.6-1.4,0.4-2.2c-0.2-0.8-0.8-1.5-1.5-1.9L61.3,72.6c-0.7-0.4-1-1.3-0.6-1.9c0.4-0.7,1.3-1,2-0.6
	l23.5,12.7c1.5,0.8,2.5,2.1,2.9,3.7c0.4,1.5,0.1,3.1-0.7,4.4C87.2,92.8,85.2,93.8,83,93.8"/>
<path class="st0" d="M109.6,85.2c-1.3,0-2.5-0.3-3.7-0.9L66.4,62.5c-0.7-0.4-0.9-1.3-0.6-2c0.4-0.7,1.3-1,1.9-0.6l39.5,21.8
	c2.2,1.2,5,0.5,6.3-1.5c0.6-0.9,0.8-1.9,0.5-3c-0.3-1.1-1-2-2.1-2.6L71.1,52.4c-0.7-0.4-0.9-1.3-0.6-2s1.3-1,1.9-0.6l40.9,22.3
	c1.8,1,3,2.5,3.5,4.4c0.5,1.8,0.2,3.7-0.8,5.2C114.7,84,112.2,85.2,109.6,85.2"/>
<path class="st0" d="M101.1,93.3c-1.3,0-2.5-0.3-3.7-0.9L61.3,72.6c-0.7-0.4-1-1.3-0.6-1.9s1.3-0.9,2-0.6l36.1,19.7
	c2.2,1.2,5,0.5,6.3-1.5c0.6-0.9,0.8-1.9,0.5-3c-0.3-1.1-1-2-2.1-2.6L66.4,62.5c-0.7-0.4-0.9-1.3-0.6-2s1.3-1,1.9-0.6l37.1,20.3
	c1.8,1,3,2.5,3.5,4.4c0.5,1.8,0.2,3.6-0.8,5.2C106.1,92,103.7,93.3,101.1,93.3"/>
<path class="st0" d="M48.1,75.3c-0.2,0-0.5-0.1-0.7-0.2l-15.1-8.2c-2.5-1.4-4.8-3.2-6.6-5.3c-0.5-0.6-0.5-1.5,0.1-2s1.5-0.5,2,0.2
	c1.6,1.9,3.5,3.4,5.8,4.6l15.1,8.2c0.7,0.4,1,1.3,0.6,1.9C49.1,75.1,48.6,75.3,48.1,75.3"/>
<path class="st0" d="M68.4,49.3c-1.1,0-2-0.1-2.8-0.3c-2.8-0.6-4.5-1.8-4.6-1.9c-0.3-0.3-0.6-0.6-0.6-1.1s0.1-0.8,0.5-1.1l19.5-18.4
	c0.3-0.3,0.7-0.4,1.1-0.4l22.7,1.3c0.1,0,1.8,0.1,4,0.4c0.8,0.1,1.3,0.8,1.2,1.6s-0.8,1.3-1.6,1.2c-2.1-0.3-3.7-0.4-3.8-0.4
	l-22.1-1.2L64.2,45.7c2.1,0.8,6.1,1.7,10.7-1.2c7.5-4.6,11.8-8,11.8-8c0.4-0.3,0.8-0.4,1.3-0.3l15.5,4.6c0,0,0,0,0.1,0
	c0,0,0.8,0.3,2.1,0.3c0.8,0,1.4,0.7,1.4,1.5c0,0.8-0.7,1.4-1.5,1.4c-1.5-0.1-2.6-0.4-2.8-0.5L88,39.2c-1.4,1.1-5.4,4-11.5,7.8
	C73.5,48.8,70.7,49.3,68.4,49.3"/>
<path class="st0" d="M24.3,65.8c-0.3,0-0.6-0.1-0.8-0.2L4.4,52.9c-0.7-0.4-0.8-1.3-0.4-2l26.8-40.2c0.4-0.7,1.3-0.8,2-0.4L51.9,23
	c0.3,0.2,0.5,0.5,0.6,0.9c0.1,0.4,0,0.8-0.2,1.1L25.5,65.2c-0.2,0.3-0.5,0.5-0.9,0.6C24.5,65.8,24.4,65.8,24.3,65.8 M7.2,51.3
	l16.7,11.1l25.2-37.8L32.4,13.4L7.2,51.3z"/>
<path class="st0" d="M131.4,65.8c-0.1,0-0.2,0-0.3,0c-0.4-0.1-0.7-0.3-0.9-0.6L103.5,25c-0.2-0.3-0.3-0.7-0.2-1.1
	c0.1-0.4,0.3-0.7,0.6-0.9L123,10.2c0.7-0.4,1.6-0.3,2,0.4l26.8,40.2c0.4,0.7,0.3,1.5-0.4,2l-19.1,12.7
	C132,65.8,131.7,65.8,131.4,65.8 M106.7,24.6l25.2,37.8l16.7-11.1l-25.2-37.8L106.7,24.6z"/>
</svg>
