<?xml version="1.0" encoding="utf-8"?>
<!-- Generator: Adobe Illustrator 23.0.0, SVG Export Plug-In . SVG Version: 6.00 Build 0)  -->
<svg version="1.1" id="Capa_1" xmlns="http://www.w3.org/2000/svg" xmlns:xlink="http://www.w3.org/1999/xlink" x="0px" y="0px"
	 viewBox="0 0 76.8 68.9" style="enable-background:new 0 0 76.8 68.9;" xml:space="preserve">
<style type="text/css">
	.st0{fill:#5EA4CC;}
</style>
<g>
	<g>
		<path class="st0" d="M37.4,66.8l-0.6-0.3c-1-0.5-23.3-12.3-33-37.3c-2.5-6.4-1.8-12.9,1.8-18.2c3.7-5.4,10-8.7,16.5-8.7
			c5.9,0,11.4,2.7,15.7,7.6c5.9-6.2,11.9-7.5,16.1-7.5c6.9,0,13.7,3.8,17.5,10.1c3.9,6.2,4.3,13.4,1.1,19.9
			c-12.6,25.9-33.5,34-34.4,34.3L37.4,66.8z M21.4,4.3c-5.6,0-11.1,2.9-14.3,7.6c-3.2,4.6-3.7,10.2-1.5,15.8
			c8.7,22.4,28.1,34.4,32,36.6c3.8-1.7,22-10.6,33.2-33.7c2.8-5.7,2.4-12-1-17.4c-3.4-5.4-9.3-8.9-15.3-8.9c-5.6,0-11,2.8-15.5,8.1
			l-1.4,1.6l-1.3-1.7C32.3,7.2,27.1,4.3,21.4,4.3z"/>
	</g>
	<g>
		<polygon class="st0" points="40.2,50.8 28.8,22.7 22,36.7 8.5,36.7 8.5,34 20.4,34 29.1,16.3 40.2,43.9 48.6,23.8 54.3,34 70,34 
			70,36.7 52.8,36.7 49,29.8 		"/>
	</g>
</g>
</svg>
