<?xml version="1.0" encoding="utf-8"?>
<!-- Generator: Adobe Illustrator 23.0.0, SVG Export Plug-In . SVG Version: 6.00 Build 0)  -->
<svg version="1.1" id="Capa_1" xmlns="http://www.w3.org/2000/svg" xmlns:xlink="http://www.w3.org/1999/xlink" x="0px" y="0px"
	 viewBox="0 0 86.4 115.1" style="enable-background:new 0 0 86.4 115.1;" xml:space="preserve">
<style type="text/css">
	.st0{fill:#5EA4CC;}
</style>
<g id="_215-User_1_">
	<g>
		<path class="st0" d="M44.5,55.4c-14.7,0-26.6-11.9-26.6-26.6S29.8,2.2,44.5,2.2s26.6,11.9,26.6,26.6S59.1,55.4,44.5,55.4z
			 M44.5,5.2c-13,0-23.6,10.6-23.6,23.6c0,13,10.6,23.6,23.6,23.6c13,0,23.6-10.6,23.6-23.6C68.1,15.8,57.5,5.2,44.5,5.2z"/>
	</g>
	<g>
		<path class="st0" d="M37.3,112.8H3.5V93.4c0-10.5,4-20.5,11.2-28.1c7.5-8,17.7-12.5,28.6-12.8c11-0.3,21.4,3.7,29.3,11.2l-2.1,2.2
			c-7.4-7-17-10.6-27.2-10.3C33.2,55.7,23.8,60,16.8,67.3C10.2,74.4,6.5,83.7,6.5,93.4v16.4h30.8L37.3,112.8L37.3,112.8z"/>
	</g>
	<g>
		<path class="st0" d="M62.4,109.2H50.1V97l21.8-21.8l12.2,12.2L62.4,109.2z M53.1,106.2h8l18.8-18.8l-8-8L53.1,98.2V106.2z"/>
	</g>
</g>
</svg>
