<?xml version="1.0" encoding="utf-8"?>
<!-- Generator: Adobe Illustrator 23.0.0, SVG Export Plug-In . SVG Version: 6.00 Build 0)  -->
<svg version="1.1" id="Capa_1" xmlns="http://www.w3.org/2000/svg" xmlns:xlink="http://www.w3.org/1999/xlink" x="0px" y="0px"
	 viewBox="0 0 25 23" style="enable-background:new 0 0 25 23;" xml:space="preserve">
<style type="text/css">
	.st0{fill:#C81716;}
</style>
<g>
	<path class="st0" d="M20.71,6.79L7.6,19.9c-0.61,0.61-1.6,0.61-2.21,0l-0.08-0.08c-0.61-0.61-0.61-1.6,0-2.21L18.42,4.5
		c0.61-0.61,1.6-0.61,2.21,0l0.08,0.08C21.32,5.19,21.32,6.19,20.71,6.79z"/>
	<path class="st0" d="M18.27,19.86L5.25,6.83c-0.63-0.63-0.63-1.66,0-2.29l0,0c0.63-0.63,1.66-0.63,2.29,0l13.03,13.03
		c0.63,0.63,0.63,1.66,0,2.29l0,0C19.94,20.49,18.91,20.49,18.27,19.86z"/>
</g>
</svg>
