<?xml version="1.0" encoding="utf-8"?>
<!-- Generator: Adobe Illustrator 23.0.0, SVG Export Plug-In . SVG Version: 6.00 Build 0)  -->
<svg version="1.1" id="Capa_1" xmlns="http://www.w3.org/2000/svg" xmlns:xlink="http://www.w3.org/1999/xlink" x="0px" y="0px"
	 viewBox="0 0 59.7 77.1" style="enable-background:new 0 0 59.7 77.1;" xml:space="preserve">
<style type="text/css">
	.st0{fill:#5EA4CC;}
</style>
<g>
	<path class="st0" d="M2.5,30.8c0-2.6,0.4-5.5,1.4-8.8C7.6,8.9,19,3.3,29.7,3.3C41.4,3.4,53,10,53.1,21.7c0,1.9-0.3,3.8-1,5.9
		c-0.3,0.8-1.1,1.2-1.9,1c-0.8-0.3-1.3-1.1-1-1.9c0.6-1.8,0.8-3.4,0.8-5c0-9.2-9.6-15.2-20.4-15.3C20,6.5,10.1,11.3,6.8,22.8
		c-0.9,3.1-1.3,5.8-1.3,8C5,45.9,24.2,44.5,27.3,59.5c0.1,0.8-0.5,1.6-1.3,1.7c-0.1,0-0.2,0-0.3,0c-0.7,0-1.4-0.5-1.5-1.3
		C23.2,48.2,3,48.9,2.5,30.8z"/>
</g>
<path class="st0" d="M22,42.5c0,1.8,1.5,3.3,3.4,3.2c1.8,0,3.3-1.5,3.2-3.4s-1.6-3.3-3.4-3.2C23.5,39.2,22,40.7,22,42.5z"/>
<path class="st0" d="M27,58.6c-4.2,0-7.5,3.5-7.5,7.7c0,4.2,3.5,7.5,7.7,7.5c4.2-0.1,7.5-3.5,7.5-7.7S31.2,58.6,27,58.6z M27.2,69.1
	c-1.6,0.1-3-1.2-3-2.8c0-1.6,1.2-3,2.8-3.1c1.6,0,3,1.2,3,2.8S28.8,69.1,27.2,69.1z"/>
<path class="st0" d="M45.5,54.5c0,1.8,1.6,3.3,3.4,3.2c1.8,0,3.3-1.5,3.2-3.4c0-1.8-1.6-3.3-3.4-3.2C46.9,51.1,45.4,52.6,45.5,54.5z
	"/>
<g>
	<path class="st0" d="M48.2,53.3c3.7-3.6,5.9-9.4,5.9-14.7c0-4.9-1.8-9.2-6-11.3c-1.6-0.8-3.2-1.2-4.8-1.2c-7.3-0.1-15.3,8-16.6,16
		c-0.1,0.8-0.9,1.4-1.8,1.2c-0.8-0.1-1.4-0.9-1.2-1.8c1.7-9.4,10.2-18.4,19.6-18.5c2.1,0,4.2,0.5,6.2,1.5c5.3,2.8,7.6,8.4,7.6,14
		c0,6.1-2.5,12.6-6.8,16.9c-0.3,0.3-0.7,0.4-1.1,0.4c-0.4,0-0.8-0.2-1.1-0.5C47.6,54.8,47.6,53.9,48.2,53.3z"/>
</g>
</svg>
