<?xml version="1.0" encoding="utf-8"?>
<!-- Generator: Adobe Illustrator 23.0.0, SVG Export Plug-In . SVG Version: 6.00 Build 0)  -->
<svg version="1.1" id="Capa_1" xmlns="http://www.w3.org/2000/svg" xmlns:xlink="http://www.w3.org/1999/xlink" x="0px" y="0px"
	 viewBox="0 0 87.2 83.5" style="enable-background:new 0 0 87.2 83.5;" xml:space="preserve">
<style type="text/css">
	.st0{fill:#EAEBED;}
	.st1{fill:#6C8A4A;}
	.st2{fill:#5F7B41;}
	.st3{fill:#F8F8F8;}
</style>
<path class="st0" d="M80.8,70.3H45.1c-1.4,0-2.6-1.1-2.6-2.6s0-49.7,0-51.1s1.1-2.5,2.6-2.5h35.8c1.4,0,2.5,1.1,2.5,2.5v51.1
	C83.4,69.2,82.2,70.3,80.8,70.3z"/>
<g>
	<path class="st1" d="M55.3,29.4H45.1c-1.4,0-2.6-1.1-2.6-2.5s1.1-2.5,2.6-2.5h10.2c1.4,0,2.6,1.1,2.6,2.5S56.7,29.4,55.3,29.4z"/>
	<path class="st1" d="M55.3,39.7H45.1c-1.4,0-2.6-1.1-2.6-2.5s1.1-2.5,2.6-2.5h10.2c1.4,0,2.6,1.1,2.6,2.5S56.7,39.7,55.3,39.7z"/>
	<path class="st1" d="M55.3,49.9H45.1c-1.4,0-2.6-1.1-2.6-2.5s1.1-2.5,2.6-2.5h10.2c1.4,0,2.6,1.1,2.6,2.5
		C57.8,48.7,56.7,49.9,55.3,49.9z"/>
	<path class="st1" d="M55.3,60.1H45.1c-1.4,0-2.6-1.1-2.6-2.6c0-1.4,1.1-2.5,2.6-2.5h10.2c1.4,0,2.6,1.1,2.6,2.5
		C57.8,58.9,56.7,60.1,55.3,60.1z"/>
	<path class="st1" d="M70.6,29.4h-5.1c-1.4,0-2.5-1.1-2.5-2.5s1.1-2.5,2.5-2.5h5.1c1.4,0,2.5,1.1,2.5,2.5S72,29.4,70.6,29.4z"/>
	<path class="st1" d="M70.6,39.7h-5.1c-1.4,0-2.5-1.1-2.5-2.5s1.1-2.5,2.5-2.5h5.1c1.4,0,2.5,1.1,2.5,2.5
		C73.2,38.5,72,39.7,70.6,39.7z"/>
	<path class="st1" d="M70.6,49.9h-5.1c-1.4,0-2.5-1.1-2.5-2.5s1.1-2.5,2.5-2.5h5.1c1.4,0,2.5,1.1,2.5,2.5
		C73.2,48.7,72,49.9,70.6,49.9z"/>
	<path class="st1" d="M70.6,60.1h-5.1c-1.4,0-2.5-1.1-2.5-2.6c0-1.4,1.1-2.5,2.5-2.5h5.1c1.4,0,2.5,1.1,2.5,2.5
		C73.2,58.9,72,60.1,70.6,60.1z"/>
</g>
<path class="st2" d="M46.7,4.5C46.1,4,45.3,3.8,44.6,4L3.7,11.6c-1.2,0.2-2.1,1.3-2.1,2.5v56.2c0,1.2,0.9,2.3,2.1,2.5l40.9,7.7
	c0.1,0,0.3,0.1,0.5,0.1c0.6,0,1.2-0.2,1.6-0.6c0.6-0.5,0.9-1.2,0.9-2V6.5C47.6,5.7,47.3,5,46.7,4.5z"/>
<path class="st3" d="M36.8,50.7l-8.1-9.2L36.9,31c0.9-1.1,0.7-2.7-0.4-3.6c-1.1-0.9-2.7-0.7-3.6,0.4l-7.6,9.7l-6.4-7.3
	c-0.9-1.1-2.6-1.2-3.6-0.2c-1.1,0.9-1.2,2.5-0.2,3.6l7,8L15,50.8c-0.9,1.1-0.7,2.7,0.4,3.6c0.5,0.4,1,0.5,1.6,0.5c0.8,0,1.5-0.3,2-1
	l6.5-8.4l7.4,8.5c0.5,0.6,1.2,0.9,1.9,0.9c0.6,0,1.2-0.2,1.7-0.6C37.6,53.4,37.7,51.8,36.8,50.7z"/>
</svg>
