<?xml version="1.0" encoding="utf-8"?>
<!-- Generator: Adobe Illustrator 23.0.0, SVG Export Plug-In . SVG Version: 6.00 Build 0)  -->
<svg version="1.1" id="Capa_1" xmlns="http://www.w3.org/2000/svg" xmlns:xlink="http://www.w3.org/1999/xlink" x="0px" y="0px"
	 viewBox="0 0 111.3 124.7" style="enable-background:new 0 0 111.3 124.7;" xml:space="preserve">
<style type="text/css">
	.st0{fill:#5EA4CC;}
</style>
<path class="st0" d="M105.7,38.3L94.7,49.4L67,21.7L78,10.7l-2.5-2.5L52.6,31l4.7,4.7l-6.8,6.8l-32.3,7.1L2.8,113.6l64.1-15.4
	l7.1-32.3l6.8-6.8l4.7,4.7l22.9-22.9L105.7,38.3z M70.7,64.1l-6.8,31.1L11,108l27.2-27.2l1,0.5c1.5,0.8,3.1,1.2,4.8,1.2
	c2.7,0,5.2-1.1,7.1-2.9c3.9-3.9,3.9-10.3,0-14.3c-1.9-1.9-4.4-3-7.1-3s-5.2,1-7.1,3c-3.2,3.2-3.8,7.9-1.7,11.9l0.5,1L8.4,105.4
	l12.7-52.9l31.1-6.8l7.5-7.5l18.4,18.3L70.7,64.1z M37.5,72.4c0-1.7,0.7-3.4,1.9-4.6l0,0c1.2-1.2,2.9-1.9,4.6-1.9
	c1.7,0,3.4,0.7,4.6,1.9c1.2,1.2,1.9,2.9,1.9,4.6c0,1.7-0.7,3.4-1.9,4.6c-1.3,1.3-2.9,1.9-4.6,1.9c-1.7,0-3.3-0.6-4.6-1.9
	C38.2,75.8,37.5,74.2,37.5,72.4z M85.3,58.7l-27-27.1l0-0.6c0-0.7,0-0.7,5.1-5.8l1.1-1.1L92.1,52L85.3,58.7z"/>
</svg>
