<?xml version="1.0" encoding="utf-8"?>
<!-- Generator: Adobe Illustrator 23.0.0, SVG Export Plug-In . SVG Version: 6.00 Build 0)  -->
<svg version="1.1" id="Capa_1" xmlns="http://www.w3.org/2000/svg" xmlns:xlink="http://www.w3.org/1999/xlink" x="0px" y="0px"
	 viewBox="0 0 111.3 124.7" style="enable-background:new 0 0 111.3 124.7;" xml:space="preserve">
<style type="text/css">
	.st0{fill:#5EA4CC;}
</style>
<g>
	<g>
		<g>
			<path class="st0" d="M55.8,82l12-12c0.4-0.4,0.4-1.1,0-1.6c-0.4-0.4-1.1-0.4-1.6,0L56.1,78.5V49.9c0-0.6-0.5-1.1-1.1-1.1
				c-0.6,0-1.1,0.5-1.1,1.1v28.7L43.8,68.5c-0.2-0.2-0.5-0.3-0.8-0.3s-0.6,0.1-0.8,0.3s-0.3,0.5-0.3,0.8c0,0.3,0.1,0.6,0.3,0.8
				l12,12c0,0,0.1,0,0.1,0.1l0.2,0.1c0,0,0.1,0,0.1,0.1c0.3,0.1,0.6,0.1,0.8,0C55.6,82.2,55.7,82.1,55.8,82z"/>
		</g>
		<g>
			<path class="st0" d="M91.7,37.2L69.5,14.4c-0.2-0.2-0.5-0.3-0.8-0.3H24.6c-3.7,0-6.6,3-6.6,6.6v78.5c0,3.7,3,6.7,6.6,6.7h60.7
				c3.7,0,6.7-3,6.7-6.6V38c0-0.1,0-0.1-0.1-0.2c0-0.1,0-0.1,0-0.2c0-0.1-0.1-0.2-0.1-0.2C91.7,37.3,91.7,37.3,91.7,37.2z
				 M69.8,17.9l18.4,19H69.8V17.9z M89.8,99.3c0,2.5-2,4.5-4.4,4.5H24.6c-2.5,0-4.4-2-4.4-4.5V20.7c0-2.5,2-4.4,4.4-4.4h43V38
				c0,0.6,0.5,1.1,1.1,1.1h21.1L89.8,99.3L89.8,99.3z"/>
		</g>
	</g>
</g>
</svg>
