<?xml version="1.0" encoding="utf-8"?>
<!-- Generator: Adobe Illustrator 23.0.0, SVG Export Plug-In . SVG Version: 6.00 Build 0)  -->
<svg version="1.1" id="Capa_1" xmlns="http://www.w3.org/2000/svg" xmlns:xlink="http://www.w3.org/1999/xlink" x="0px" y="0px"
	 viewBox="0 0 79.8 97.9" style="enable-background:new 0 0 79.8 97.9;" xml:space="preserve">
<style type="text/css">
	.st0{fill:#5EA0CA;}
</style>
<g>
	<g>
		<g>
			<g>
				<path class="st0" d="M76.6,26.1L54.4,3.3C54.2,3.1,53.9,3,53.7,3H9.6C5.9,3,2.9,6,2.9,9.7v78.5c0,3.7,3,6.7,6.7,6.7h60.7
					c3.7,0,6.7-3,6.7-6.6V26.9c0-0.1,0-0.1-0.1-0.2c0-0.1,0-0.1,0-0.1c0-0.1-0.1-0.1-0.1-0.2C76.7,26.2,76.6,26.2,76.6,26.1z
					 M54.7,6.8l18.5,19H54.7V6.8z M74.7,88.2c0,2.5-2,4.5-4.4,4.5H9.6c-2.4,0-4.4-2-4.4-4.5V9.7c0-2.4,2-4.4,4.4-4.4h43v21.7
					c0,0.6,0.5,1.1,1.1,1.1h21.1V88.2z"/>
			</g>
		</g>
	</g>
	<g>
		<polygon class="st0" points="56.4,41.3 32.5,65.2 23.6,56.3 22.4,57.5 32.5,67.5 57.6,42.5 		"/>
	</g>
</g>
</svg>
