<?xml version="1.0" encoding="utf-8"?>
<!-- Generator: Adobe Illustrator 23.0.0, SVG Export Plug-In . SVG Version: 6.00 Build 0)  -->
<svg version="1.1" id="Capa_1" xmlns="http://www.w3.org/2000/svg" xmlns:xlink="http://www.w3.org/1999/xlink" x="0px" y="0px"
	 viewBox="0 0 125 124" style="enable-background:new 0 0 125 124;" xml:space="preserve">
<style type="text/css">
	.st0{fill:#5EA4CC;}
</style>
<path class="st0" d="M26,102.8H102c2.4,0,4.3-1.9,4.3-4.3V77.1l0.2-0.1c1.7-0.6,2.9-2.2,2.9-4.1V39.2c0-2.4-1.9-4.3-4.3-4.3H85v-6.3
	c0-4-3.3-7.3-7.3-7.3H50.3c-4,0-7.3,3.3-7.3,7.3v6.3H23c-2.4,0-4.3,1.9-4.3,4.3V73c0,1.8,1.2,3.4,2.9,4.1l0.2,0.1v21.3
	C21.7,100.8,23.7,102.8,26,102.8z M103.7,98.4c0,1-0.8,1.8-1.8,1.8H26c-1,0-1.8-0.8-1.8-1.8V77.5l33.9,4.7v4.1
	c0,2.4,1.9,4.3,4.3,4.3h3c2.4,0,4.3-1.9,4.3-4.3v-4.1l0.2,0l33.7-4.7L103.7,98.4L103.7,98.4z M60.7,86.3v-9.1c0-1,0.8-1.8,1.8-1.8h3
	c1,0,1.8,0.8,1.8,1.8v9.1c0,1-0.8,1.8-1.8,1.8h-3C61.5,88.1,60.7,87.3,60.7,86.3z M45.5,28.6c0-2.6,2.2-4.8,4.8-4.8h27.3
	c2.7,0,4.8,2.2,4.8,4.8v6.3h-3.5v-6.3c0-0.7-0.6-1.3-1.3-1.3H50.3c-0.7,0-1.3,0.6-1.3,1.3v6.3h-3.5L45.5,28.6L45.5,28.6z M76.4,29.9
	v5.1H51.6v-5.1C51.6,29.9,76.4,29.9,76.4,29.9z M21.2,73V39.2c0-1,0.8-1.8,1.8-1.8h82c1,0,1.8,0.8,1.8,1.8V73c0,0.9-0.7,1.6-1.5,1.8
	l-35.4,4.9v-2.5c0-2.4-1.9-4.3-4.3-4.3h-3c-2.4,0-4.3,1.9-4.3,4.3v2.5l-35.4-4.9C21.9,74.7,21.2,73.9,21.2,73z"/>
</svg>
