<?xml version="1.0" encoding="utf-8"?>
<!-- Generator: Adobe Illustrator 23.0.0, SVG Export Plug-In . SVG Version: 6.00 Build 0)  -->
<svg version="1.1" id="Capa_1" xmlns="http://www.w3.org/2000/svg" xmlns:xlink="http://www.w3.org/1999/xlink" x="0px" y="0px"
	 viewBox="0 0 117.1 98.6" style="enable-background:new 0 0 117.1 98.6;" xml:space="preserve">
<style type="text/css">
	.st0{fill:#5EA4CC;}
</style>
<g>
	<path class="st0" d="M106.7,18.5H92.8c-1.1,0-2,0.9-2,2s0.9,2,2,2h13.9c1.8,0,3.3,1.5,3.3,3.3v62.8c0,0.9-0.4,1.7-1,2.3
		c-0.6,0.6-1.4,0.9-2.3,0.9h0h0c0,0-0.1,0-0.1,0c-1.7-0.1-3.2-1.6-3.2-3.4V33.5c0-4-3.2-7.2-7.2-7.2h-3.3V10c0-4-3.2-7.2-7.2-7.2
		H33.4c-4,0-7.2,3.2-7.2,7.2v8.5h-3.3c-4,0-7.2,3.2-7.2,7.2v8.7c0,1.1,0.9,2,2,2s2-0.9,2-2v-8.7c0-1.8,1.5-3.3,3.3-3.3h3.3v11.8
		H12.5c-4,0-7.2,3.2-7.2,7.2v47.1c0,4,3.2,7.2,7.2,7.2h94.2c0,0,0,0,0.1,0c1.9,0,3.6-0.7,5-2c1.4-1.4,2.2-3.2,2.2-5.2V25.7
		C113.9,21.7,110.7,18.5,106.7,18.5z M30.1,10c0-1.8,1.5-3.3,3.3-3.3h52.3c1.8,0,3.3,1.5,3.3,3.3v16.4H77.5c-3.9,0-7.8,1.7-10.5,4.5
		c-2,2.1-4.7,3.3-7.6,3.3H30.1V10z M12.5,91.8c-1.8,0-3.3-1.5-3.3-3.3V41.4c0-1.8,1.5-3.3,3.3-3.3h47c4,0,7.8-1.7,10.5-4.5
		c2-2.1,4.7-3.3,7.6-3.3h18.7c1.8,0,3.3,1.5,3.3,3.3v54.8c0,1.2,0.3,2.4,0.8,3.4L12.5,91.8L12.5,91.8z"/>
	<g>
		<path class="st0" d="M56.8,53.9v9.9h9.9v4h-9.9v9.9h-4v-9.9h-9.9v-4h9.9v-9.9C52.8,53.9,56.8,53.9,56.8,53.9z"/>
	</g>
</g>
</svg>
