<?xml version="1.0" encoding="utf-8"?>
<!-- Generator: Adobe Illustrator 23.0.0, SVG Export Plug-In . SVG Version: 6.00 Build 0)  -->
<svg version="1.1" id="Capa_1" xmlns="http://www.w3.org/2000/svg" xmlns:xlink="http://www.w3.org/1999/xlink" x="0px" y="0px"
	 viewBox="0 0 105.9 95.7" style="enable-background:new 0 0 105.9 95.7;" xml:space="preserve">
<style type="text/css">
	.st0{fill:#5EA4CC;}
</style>
<g>
	<g>
		<path class="st0" d="M69.5,27.6c-13.1,0-23.8,10.7-23.8,23.8s10.7,23.8,23.8,23.8s23.8-10.7,23.8-23.8S82.7,27.6,69.5,27.6z
			 M91.1,51.4c0,11.9-9.7,21.6-21.6,21.6S48,63.3,48,51.4s9.7-21.6,21.6-21.6S91.1,39.5,91.1,51.4z"/>
	</g>
	<g>
		<path class="st0" d="M73.1,85.9c0,2.4-1.9,4.3-4.3,4.3H9.7c-2.4,0-4.3-1.9-4.3-4.3V27.3h20.5c0.6,0,1.1-0.5,1.1-1.1V5.1h41.8
			c2.4,0,4.3,1.9,4.3,4.3v15.9h2.2V9.5c0-3.6-2.9-6.5-6.5-6.5H25.8c-0.3,0-0.6,0.1-0.8,0.3L3.5,25.5c0,0,0,0.1-0.1,0.1
			c0,0.1-0.1,0.1-0.1,0.2c0,0,0,0.1,0,0.1c0,0.1,0,0.2,0,0.2v59.7c0,3.6,2.9,6.5,6.5,6.5h59.1c3.6,0,6.5-2.9,6.5-6.5v-7.5h-2.2
			L73.1,85.9L73.1,85.9z M24.8,6.7v18.4h-18l9-9.2L24.8,6.7z"/>
	</g>
	<g>
		<path class="st0" d="M49.4,32.8H13.1v2.5h34.2C47.9,34.4,48.6,33.6,49.4,32.8z"/>
	</g>
	<g>
		<path class="st0" d="M43.7,41.9H13.1v2.5h29.8C43.2,43.6,43.4,42.7,43.7,41.9z"/>
	</g>
	<g>
		<path class="st0" d="M13.1,53.5h29.1c-0.1-0.8-0.1-1.7-0.1-2.5h-29V53.5z"/>
	</g>
	<g>
		<path class="st0" d="M13.1,60.1v2.5h31.7c-0.4-0.8-0.8-1.6-1.1-2.5H13.1z"/>
	</g>
	<g>
		<path class="st0" d="M13.1,69.3v2.5h39c-1-0.8-1.9-1.6-2.7-2.5H13.1z"/>
	</g>
	<g>
		<rect x="13.1" y="78.4" class="st0" width="53" height="2.5"/>
	</g>
	<g>
		<path class="st0" d="M99.6,93.3c-0.8,0-1.5-0.3-2.1-1L81.9,72.5c-0.9-1.1-0.7-2.8,0.4-3.7c1.1-0.9,2.8-0.7,3.7,0.4l15.7,19.9
			c0.9,1.1,0.7,2.8-0.4,3.7C100.7,93.1,100.1,93.3,99.6,93.3z"/>
	</g>
</g>
</svg>
