<?xml version="1.0" encoding="utf-8"?>
<!-- Generator: Adobe Illustrator 23.0.0, SVG Export Plug-In . SVG Version: 6.00 Build 0)  -->
<svg version="1.1" id="Capa_1" xmlns="http://www.w3.org/2000/svg" xmlns:xlink="http://www.w3.org/1999/xlink" x="0px" y="0px"
	 viewBox="0 0 34.47 43.23" style="enable-background:new 0 0 34.47 43.23;" xml:space="preserve">
<style type="text/css">
	.st0{fill:#2D4F8A;}
</style>
<g>
	<g>
		<g>
			<path class="st0" d="M17.46,21.32c4.62,0,8.37-4.55,8.37-10.16c0-5.61-1.23-10.16-8.37-10.16c-7.14,0-8.37,4.55-8.37,10.16
				C9.09,16.77,12.84,21.32,17.46,21.32L17.46,21.32z M17.46,21.32"/>
		</g>
		<g>
			<path class="st0" d="M1.65,36.84C1.65,36.49,1.65,36.74,1.65,36.84L1.65,36.84z M1.65,36.84"/>
		</g>
	</g>
	<g>
		<path class="st0" d="M33.25,36.43c-0.15-9.78-1.43-12.57-11.21-14.33c0,0-1.38,1.75-4.58,1.75c-3.21,0-4.58-1.75-4.58-1.75
			c-9.67,1.74-11.02,4.49-11.2,14.01c-0.01,0.78-0.02,0.82-0.02,0.73c0,0.17,0,0.48,0,1.03c0,0,2.33,4.69,15.8,4.69
			c13.48,0,15.8-4.69,15.8-4.69c0-0.35,0-0.59,0-0.76C33.26,37.16,33.25,37.05,33.25,36.43L33.25,36.43z M33.25,36.43"/>
	</g>
</g>
</svg>
