<?xml version="1.0" encoding="utf-8"?>
<!-- Generator: Adobe Illustrator 23.0.0, SVG Export Plug-In . SVG Version: 6.00 Build 0)  -->
<svg version="1.1" id="Capa_1" xmlns="http://www.w3.org/2000/svg" xmlns:xlink="http://www.w3.org/1999/xlink" x="0px" y="0px"
	 viewBox="0 0 131.7 102.5" style="enable-background:new 0 0 131.7 102.5;" xml:space="preserve">
<style type="text/css">
	.st0{fill:#5EA4CC;}
</style>
<g>
	<g>
		<g>
			<path class="st0" d="M79.6,23.1H51.7c-3.3,0-6.1-2.7-6.1-6.1v-3.4c0-3.4,2.7-6.1,6.1-6.1h0.6V6.4c0-2.7,2.2-4.9,4.9-4.9h17
				c2.7,0,4.9,2.2,4.9,4.9v1.2h0.6c3.3,0,6.1,2.7,6.1,6.1V17C85.7,20.4,83,23.1,79.6,23.1z M51.7,9.5c-2.3,0-4.1,1.8-4.1,4.1V17
				c0,2.3,1.8,4.1,4.1,4.1h27.9c2.3,0,4.1-1.8,4.1-4.1v-3.4c0-2.3-1.8-4.1-4.1-4.1H78c-0.6,0-1-0.4-1-1V6.4c0-1.6-1.3-2.9-2.9-2.9
				H57.2c-1.6,0-2.9,1.3-2.9,2.9v2.2c0,0.6-0.5,1-1,1H51.7z"/>
		</g>
		<g>
			<path class="st0" d="M113.2,99.6h-95C9.8,99.6,3,92.7,3,84.4V29.9c0-8.4,6.8-15.2,15.2-15.2H42c0.5,0,1,0.4,1,1V17
				c0,4.8,3.9,8.8,8.8,8.8h27.8c4.8,0,8.8-3.9,8.8-8.8v-1.3c0-0.6,0.4-1,1-1h23.8c8.4,0,15.2,6.8,15.2,15.2v54.4
				C128.3,92.7,121.5,99.6,113.2,99.6z M18.2,16.8C10.9,16.8,5,22.7,5,29.9v54.4c0,7.3,5.9,13.2,13.2,13.2h95
				c7.3,0,13.2-5.9,13.2-13.2V29.9c0-7.3-5.9-13.2-13.2-13.2H90.4V17c0,5.9-4.8,10.8-10.8,10.8H51.7C45.8,27.8,41,23,41,17v-0.3
				C41,16.8,18.2,16.8,18.2,16.8z M39.5,82.7C25.4,82.7,14,71.3,14,57.2s11.4-25.5,25.5-25.5S65,43.1,65,57.2S53.6,82.7,39.5,82.7z
				 M39.5,33.6c-13,0-23.5,10.5-23.5,23.5s10.5,23.5,23.5,23.5S63,70.1,63,57.2S52.5,33.6,39.5,33.6z"/>
		</g>
		<g>
			<path class="st0" d="M37.4,74C37.4,74,37.4,74,37.4,74c-0.5,0-0.8-0.3-1-0.7L33.5,64c-1.3,0.8-3.6,2-6.2,2.6
				c-1.2,0.3-1.9,1.3-2.1,3.1c0,0.4-0.3,0.7-0.7,0.8c-0.4,0.1-0.8,0-1.1-0.3c-3-3.7-4.6-8.3-4.6-13c0-11.5,9.3-20.8,20.8-20.8
				c5.6,0,10.8,2.2,14.7,6.1c3.9,3.9,6.1,9.2,6,14.7c0,4.7-1.6,9.4-4.6,13c-0.3,0.3-0.7,0.4-1.1,0.3c-0.4-0.1-0.7-0.4-0.7-0.8
				C53.8,68,53,67,51.8,66.7c-2.6-0.7-4.9-1.9-6.2-2.6l-2.5,8c0,0,0,0.1,0,0.1l-0.4,1.1c-0.1,0.4-0.5,0.7-0.9,0.7
				c-0.4,0-0.8-0.3-1-0.7l-1.2-3.4l-1.2,3.5C38.2,73.7,37.8,74,37.4,74z M37,68.3l0.5,1.5l0.2-0.4C37.3,69,37.1,68.7,37,68.3z
				 M41.5,69.4l0.1,0.4l0.4-1.3C41.9,68.8,41.8,69.1,41.5,69.4z M39.5,65.8c-0.4,0-1,0.1-1.1,0.3c-0.1,0.2,0,1,1,2.5
				c0,0,0,0.1,0,0.1c0,0,0-0.1,0-0.1c1.1-1.5,1.2-2.3,1-2.5C40.5,65.9,39.9,65.8,39.5,65.8C39.6,65.8,39.6,65.8,39.5,65.8z
				 M45.1,61.5c0.2,0,0.3,0.1,0.5,0.2c0,0,3.1,2.1,6.7,3.1c1.4,0.3,2.4,1.3,3,2.6c1.9-3,3-6.5,3-10.1c0-5-1.9-9.8-5.5-13.3
				s-8.3-5.5-13.3-5.5c-10.4,0-18.8,8.4-18.8,18.8c0,3.6,1,7.1,3,10.1c0.6-1.3,1.7-2.2,3.1-2.6c3.6-0.9,6.7-3,6.7-3.1
				c0.1-0.1,0.2-0.1,0.4-0.2c-0.9-1.1-1.5-2.4-1.8-3.6c-0.7-0.5-1.1-1.7-1.4-2.8c-0.5-1.7-0.4-2.8,0.2-3.5c0.1-0.1,0.2-0.2,0.3-0.3
				c0-0.1,0-0.1,0-0.2c-0.3-1.4-0.3-2.6,0-3.8c0.3-1.4,1.1-2.7,2.2-3.8c0.6-0.6,1.3-1.2,2-1.6c0.7-0.5,1.3-0.8,1.9-1
				c0.6-0.2,1.2-0.3,1.8-0.3c1.6-0.2,3.2,0.2,4.5,1c1.1,0.6,1.7,1.3,2,1.8c0.4,0.2,1,0.5,1.6,1.1c1.1,1.4,1.4,3.6,0.9,6.6
				c0,0.1,0,0.1,0,0.2c0.2,0.1,0.3,0.2,0.3,0.3c0.6,0.7,0.6,1.8,0.1,3.4c-0.3,1.1-0.7,2.2-1.4,2.8C46.6,59.1,46,60.4,45.1,61.5z
				 M35.2,62.9l1.2,3.8c-0.1-0.6,0-1,0.3-1.5c0.3-0.5,0.7-0.8,1.1-1c-0.1,0-0.3-0.1-0.4-0.1C36.6,63.8,35.9,63.4,35.2,62.9z
				 M41.3,64.2c0.4,0.2,0.9,0.5,1.2,1.1c0.2,0.4,0.3,0.8,0.3,1.3l1.2-3.8c-0.7,0.6-1.4,1-2.3,1.3C41.5,64.1,41.4,64.2,41.3,64.2z
				 M33.3,56.3c0.4,0.1,0.7,0.4,0.7,0.8c0.3,1.9,1.8,4.3,4.1,5.1c0.9,0.3,1.9,0.3,2.8,0c2.3-0.8,3.8-3.3,4.1-5.1
				c0.1-0.4,0.3-0.7,0.7-0.8c0.1-0.1,0.4-0.5,0.7-1.7l0,0c0.3-0.9,0.3-1.3,0.2-1.5c-0.3,0-0.6-0.2-0.8-0.4c-0.2-0.3-0.3-0.6-0.2-0.9
				c0.1-0.3,0.2-0.6,0.2-0.8c0.5-3.1-0.1-4.5-0.4-5c-0.4-0.5-0.8-0.6-0.8-0.6c-0.3,0-0.6-0.3-0.8-0.5l0,0c0,0-0.4-0.8-1.5-1.4
				c-1-0.6-2.1-0.8-3.4-0.7c-0.5,0-0.9,0.1-1.3,0.3c-0.5,0.2-0.9,0.4-1.5,0.8c-0.6,0.4-1.1,0.8-1.6,1.3c-0.9,0.9-1.4,1.9-1.7,2.9
				c-0.2,0.8-0.2,1.8,0,2.9c0.1,0.3,0.1,0.6,0.2,0.9c0.1,0.3,0.1,0.7-0.2,1c-0.2,0.2-0.5,0.4-0.7,0.4c0,0.2,0,0.7,0.2,1.5
				C32.9,55.7,33.2,56.1,33.3,56.3z M33,56.2C33,56.2,33,56.2,33,56.2C33,56.2,33,56.2,33,56.2z"/>
		</g>
	</g>
	<rect x="77.5" y="46.6" class="st0" width="37.9" height="4.5"/>
	<rect x="77.5" y="55.2" class="st0" width="37.9" height="4.5"/>
	<rect x="77.5" y="63.8" class="st0" width="37.9" height="4.5"/>
</g>
</svg>
