<?xml version="1.0" encoding="utf-8"?>
<!-- Generator: Adobe Illustrator 23.0.0, SVG Export Plug-In . SVG Version: 6.00 Build 0)  -->
<svg version="1.1" id="Capa_1" xmlns="http://www.w3.org/2000/svg" xmlns:xlink="http://www.w3.org/1999/xlink" x="0px" y="0px"
	 viewBox="0 0 81.7 106.6" style="enable-background:new 0 0 81.7 106.6;" xml:space="preserve">
<style type="text/css">
	.st0{fill:#5EA4CC;}
</style>
<g>
	<g>
		<g>
			<path class="st0" d="M41.6,2.6C32.4,2.6,25,10.1,25,19.3c0,9.1,7.4,16.6,16.6,16.6s16.6-7.5,16.6-16.6
				C58.2,10.1,50.7,2.6,41.6,2.6z M41.6,33.8c-8,0-14.5-6.5-14.5-14.5c0-8,6.5-14.6,14.5-14.6s14.5,6.5,14.5,14.6
				C56.1,27.3,49.6,33.8,41.6,33.8z"/>
		</g>
		<g>
			<path class="st0" d="M65.2,102.1v-2l0.2,0.2c1.4,1.6,3.5,2.6,5.7,2.6c4.2,0,7.6-3.4,7.6-7.7l0-38.4c-0.4-5.2-2.6-9.4-6.3-12.4
				c-6.6-5.4-15.9-5.3-16-5.3H25.2c-7.8,0-13.3,3-13.3,3C4,46.9,3.3,52.9,3.3,54.6c0,0,0,0.1,0,0.1l0,25.8c-0.1,0.4,0,3.2,1.8,5.3
				c1.2,1.4,2.9,2.1,5.1,2.1h9.8l0,14.2L65.2,102.1z M56.4,41.2c0.8,0,18.9,0,20.2,15.8v38.4c0,3.1-2.5,5.6-5.5,5.6
				c-3.1,0-5.5-2.5-5.5-5.6l0-1.1V53.5h-2.4l0,46.6h-0.1l-41.2,0l0-12.3H42c3.9,0,7-3.1,7-7c0-3.8-3.1-7-7-7h-5l0-0.1l-8.6-32.5
				H56.4z M37.8,76l-0.1-0.2H42c2.7,0,5,2.2,5,4.9c0,2.7-2.2,4.9-5,4.9l-2.3,0l0-0.2C40.3,82.9,38.7,78.4,37.8,76z M11.1,85.8
				l-1.1,0c-1.4,0-2.6-0.4-3.3-1.2c-1.4-1.4-1.4-3.7-1.4-3.9l0.1-25.9c0-0.1,0.6-6,6.4-10l0.2-0.1L11.1,85.8z M13.2,85.7v-0.1
				l0.8-42l0.1,0c1.6-0.5,5.8-1.8,12.1-2.3l0.1,0l0,0.1l9,33.9c1.7,4,3.1,9.1,2.3,10.3c-0.1,0.1-0.2,0.2-0.4,0.2H13.2z"/>
		</g>
	</g>
</g>
</svg>
