<?xml version="1.0" encoding="utf-8"?>
<!-- Generator: Adobe Illustrator 23.0.0, SVG Export Plug-In . SVG Version: 6.00 Build 0)  -->
<svg version="1.1" id="Capa_1" xmlns="http://www.w3.org/2000/svg" xmlns:xlink="http://www.w3.org/1999/xlink" x="0px" y="0px"
	 viewBox="0 0 111.3 124.7" style="enable-background:new 0 0 111.3 124.7;" xml:space="preserve">
<style type="text/css">
	.st0{fill:#5EA4CC;}
</style>
<path class="st0" d="M47.4,54.2c12.8,0,23.1-10.4,23.1-23.1c0-12.8-10.4-23.1-23.2-23.1c-12.8,0-23.1,10.4-23.1,23.1
	C24.3,43.8,34.7,54.2,47.4,54.2z M47.4,10.9c11.1,0,20.1,9,20.1,20.1s-9,20.1-20.2,20.1c-11.1,0-20.1-9-20.1-20.1
	S36.3,10.9,47.4,10.9z"/>
<path class="st0" d="M82.9,112c-11.6,1-23.5,1.5-35.4,1.5c-11.9,0-23.8-0.5-35.4-1.5c-2.1-4.5-3.2-9.3-3.2-14.3
	c0-19.8,17.3-35.8,38.6-35.8c7.7,0,14.9,2.1,21,5.8l2.2-2.2C64,61.2,56,58.8,47.4,58.8c-23,0-41.6,17.4-41.6,38.8
	c0,6.2,1.5,12,4.3,17.1c12,1.1,24.5,1.7,37.3,1.7c12.8,0,25.3-0.6,37.4-1.7c0.8-1.5,1.5-3.1,2.1-4.8l-3.2,0
	C83.4,110.7,83.2,111.3,82.9,112z"/>
<g>
	<path class="st0" d="M84.6,85v3.7h3.7c0.5,0,0.9,0.4,0.9,0.9l0,0c0,0.5-0.4,0.9-0.9,0.9h-3.7v3.7c0,0.5-0.4,0.9-0.9,0.9l0,0
		c-0.5,0-0.9-0.4-0.9-0.9v-3.7h-3.7c-0.5,0-0.9-0.4-0.9-0.9l0,0c0-0.5,0.4-0.9,0.9-0.9h3.7V85c0-0.5,0.4-0.9,0.9-0.9l0,0
		C84.2,84.1,84.6,84.5,84.6,85z"/>
</g>
<path class="st0" d="M83.4,75.3c-7.6,0-13.8,6.2-13.8,13.8S75.8,103,83.4,103s13.8-6.2,13.8-13.8C97.3,81.5,91.1,75.3,83.4,75.3z
	 M95.9,89.2c0,6.9-5.6,12.5-12.5,12.5s-12.5-5.6-12.5-12.5c0-6.9,5.6-12.5,12.5-12.5S95.9,82.3,95.9,89.2z"/>
<g>
	<path class="st0" d="M100.1,59H75.2c-0.2,0-0.3,0.1-0.4,0.2L62.2,72.1c0,0,0,0,0,0.1s-0.1,0.1-0.1,0.1c0,0,0,0,0,0.1
		c0,0.1,0,0.1,0,0.1v34.7c0,2.1,1.7,3.8,3.7,3.8h34.3c2.1,0,3.8-1.7,3.8-3.8v-3.3v-1.1v-40C103.9,60.7,102.2,59,100.1,59z
		 M69.3,66.5l5.2-5.4v10.7H64.1L69.3,66.5z M102.6,103.9v3.3c0,1.4-1.1,2.5-2.5,2.5H65.8c-1.4,0-2.5-1.1-2.5-2.5v-34h11.9
		c0.3,0,0.6-0.3,0.6-0.6V60.3h24.3c1.4,0,2.5,1.1,2.5,2.5v40V103.9z"/>
	<path class="st0" d="M100.1,59H75.2c-0.2,0-0.3,0.1-0.4,0.2L62.2,72.1c0,0,0,0,0,0.1s-0.1,0.1-0.1,0.1c0,0,0,0,0,0.1
		c0,0.1,0,0.1,0,0.1v34.7c0,2.1,1.7,3.8,3.7,3.8h34.3c2.1,0,3.8-1.7,3.8-3.8v-3.3v-1.1v-40C103.9,60.7,102.2,59,100.1,59L100.1,59z
		 M65.8,109.7c-1.4,0-2.5-1.1-2.5-2.5v-34h11.9c0.3,0,0.6-0.3,0.6-0.6V60.3h24.3c1.4,0,2.5,1.1,2.5,2.5v40v1.1v3.3
		c0,1.4-1.1,2.5-2.5,2.5H65.8L65.8,109.7z M64.1,71.9l5.2-5.4l5.2-5.4v10.7L64.1,71.9L64.1,71.9z"/>
</g>
</svg>
