<?xml version="1.0" encoding="utf-8"?>
<!-- Generator: Adobe Illustrator 23.0.0, SVG Export Plug-In . SVG Version: 6.00 Build 0)  -->
<svg version="1.1" id="Capa_1" xmlns="http://www.w3.org/2000/svg" xmlns:xlink="http://www.w3.org/1999/xlink" x="0px" y="0px"
	 viewBox="0 0 122 122.7" style="enable-background:new 0 0 122 122.7;" xml:space="preserve">
<style type="text/css">
	.st0{fill:#5EA4CC;}
</style>
<g>
	<path class="st0" d="M14.3,17.8c0.4,0.4,0.9,0.6,1.4,0.6c0.5,0,1-0.2,1.4-0.6c0.8-0.8,0.8-2,0-2.8l-5.6-5.6c-0.8-0.8-2-0.8-2.8,0
		c-0.8,0.8-0.8,2,0,2.8L14.3,17.8z"/>
</g>
<g>
	<path class="st0" d="M35.3,18.4c0.5,0,1-0.2,1.4-0.6l5.6-5.6c0.8-0.8,0.8-2,0-2.8c-0.8-0.8-2-0.8-2.8,0L33.9,15
		c-0.8,0.8-0.8,2,0,2.8C34.3,18.2,34.8,18.4,35.3,18.4L35.3,18.4z"/>
</g>
<g>
	<path class="st0" d="M25.5,14.4c1.1,0,2-0.9,2-2V4.4c0-1.1-0.9-2-2-2s-2,0.9-2,2v7.9C23.5,13.5,24.4,14.4,25.5,14.4L25.5,14.4z"/>
</g>
<g>
	<path class="st0" d="M13.6,26.2c0-1.1-0.9-2-2-2H3.7c-1.1,0-2,0.9-2,2s0.9,2,2,2h7.9C12.8,28.2,13.6,27.3,13.6,26.2L13.6,26.2z"/>
</g>
<g>
	<path class="st0" d="M120.5,94.9c-2.2-5.4-2.7-9.3-3.1-13.1c-0.6-5.1-1.3-10.4-6-18.6L98.5,40.9c-2.1-3.6-7.2-5-10.8-2.9
		c-1.2,0.7-2.2,1.7-2.9,3c-1.3-1.9-3.3-3.3-5.6-3.9c-2.6-0.7-5.2-0.3-7.5,1c-2.2,1.3-3.7,3.2-4.4,5.4c-3.1-2.6-7.6-3.1-11.3-1
		c-2.1,1.2-3.7,3.2-4.5,5.5l-17-24c-5-6.8-10-5.5-12.5-4c-2.3,1.3-3.8,3.4-4.3,6c-0.4,2.3,0.1,4.9,1.4,7.2l27.4,44.6
		c0.6,0.9,1.8,1.2,2.7,0.7c0.9-0.6,1.2-1.8,0.7-2.7L22.6,31.2c-0.9-1.5-1.2-3.1-0.9-4.5c0.3-1.4,1.1-2.5,2.4-3.2
		c0.9-0.5,3.6-2.1,7.3,2.9l21.2,29.8c0.6,0.9,1.8,1.1,2.7,0.5c0.9-0.6,1.2-1.7,0.6-2.7c-0.8-1.4-1-3-0.6-4.5
		c0.4-1.5,1.4-2.8,2.8-3.6c2.8-1.6,6.5-0.7,8.1,2.2l2,3.4l0,0c0.6,1,1.8,1.3,2.7,0.7s1.3-1.8,0.7-2.7c-1.6-2.8-0.7-6.5,2.2-8.1
		c1.4-0.8,3-1,4.5-0.6c1.5,0.4,2.8,1.4,3.6,2.8l3,5.1c0,0,0,0,0,0c0.6,1,1.8,1.3,2.7,0.7c0.9-0.5,1.3-1.8,0.7-2.7
		c-0.5-0.9-0.6-2-0.3-3c0.3-1,0.9-1.9,1.8-2.4c1.7-1,4.4-0.3,5.4,1.5L108,65.2c4.3,7.4,4.9,12.1,5.5,17.1c0.5,3.7,0.9,7.4,2.8,12.5
		l-38.3,22.1c-6.7-7.2-16.9-14.7-30.4-22.4c-1.5-0.8-2.9-1.6-4.3-2.4c-3.6-2-6.2-5.9-6.3-9.6c0-1.7,0.5-4,3.1-5.5
		c1-0.6,1.3-1.8,0.7-2.7c-0.5-0.9-1.8-1.3-2.7-0.7c-3.3,1.9-5.1,5.1-5.1,8.9c0.1,5.1,3.4,10.3,8.3,13c1.4,0.8,2.8,1.6,4.3,2.4
		c13.9,7.9,24.1,15.6,30.5,22.8c0.4,0.4,0.9,0.7,1.5,0.7c0.3,0,0.7-0.1,1-0.3l41.2-23.8C120.5,96.8,120.9,95.8,120.5,94.9
		L120.5,94.9z"/>
</g>
</svg>
