<?xml version="1.0" encoding="utf-8"?>
<!-- Generator: Adobe Illustrator 23.0.0, SVG Export Plug-In . SVG Version: 6.00 Build 0)  -->
<svg version="1.1" id="Capa_1" xmlns="http://www.w3.org/2000/svg" xmlns:xlink="http://www.w3.org/1999/xlink" x="0px" y="0px"
	 viewBox="0 0 112.6 101.9" style="enable-background:new 0 0 112.6 101.9;" xml:space="preserve">
<style type="text/css">
	.st0{fill:#5EA4CC;}
</style>
<g>
	<path class="st0" d="M47.5,11.6l-0.3,0.1c-2,0.5-3.8,1.2-5.6,2C33.9,17.3,26,25.9,25.9,37.1v16.2c0,11.6-4.1,21.5-12.2,29.6
		c-0.4,0.4-0.5,0.9-0.3,1.4c0.2,0.5,0.6,0.9,1.1,0.9l17.1,2.9c3.1,0.5,6,1,8.9,1.4l0.2,0l0.1,0.2c3.1,6.1,9.1,9.9,15.7,9.9
		s12.6-3.8,15.7-9.9l0.1-0.2l0.2,0c2.9-0.4,5.8-0.8,8.8-1.4l17.1-2.9c0.5-0.1,0.9-0.4,1.1-0.9c0.2-0.5,0-1-0.3-1.4
		c-8.4-8.4-12.7-18.4-12.7-29.6V37.1c0.1-12.1-8.1-20.2-15.1-23.4c-2-0.9-4.1-1.6-6.2-2.2l-0.3-0.1v-1.4c0-4.7-3.8-8.6-8.6-8.6
		s-8.6,3.8-8.6,8.6L47.5,11.6L47.5,11.6z M68.3,90.7c-2.8,3.8-7.3,6.1-11.9,6.1c-4.6,0-9-2.3-11.9-6.1l-0.6-0.8l1,0.1
		c8,0.8,15,0.8,23,0l0.9-0.1L68.3,90.7z M50.3,10.1c0-3.2,2.6-5.8,5.8-5.8s5.8,2.6,5.8,5.8v0.8l-0.5-0.1c-3.6-0.5-7.2-0.5-10.7,0.1
		L50.3,11V10.1z M62.9,13.9L62.9,13.9c2.6,0.5,4.9,1.3,7.1,2.3c6.8,3.1,13.5,10.7,13.5,20.9v16.2c0,10.7,3.9,20.8,11.2,29.1l0.5,0.6
		l-14.5,2.5c-3.6,0.6-6.7,1.1-9.6,1.5c-1.3,0.2-2.6,0.3-3.9,0.4c-1.2,0.1-2.3,0.2-3.4,0.3l-0.6,0c-1,0.1-1.9,0.1-2.8,0.2l-0.2,0
		c-0.1,0-0.3,0-0.4,0c-1.1,0-2.2,0.1-3.3,0.1s-2.2,0-3.3-0.1c-0.1,0-0.3,0-0.4,0l-0.2,0c-0.9,0-1.9-0.1-2.8-0.1c-0.2,0-0.4,0-0.7,0
		c-1.1-0.1-2.2-0.2-3.3-0.3l-0.1,0c-1.3-0.1-2.5-0.3-3.8-0.4c-2.8-0.3-5.9-0.8-9.7-1.5l-14.5-2.5l0.5-0.6
		c7.1-8.1,10.7-17.9,10.7-29.1V37.1c0.1-10,7.1-17.6,14.1-20.9c2-0.9,4.2-1.6,6.4-2.1C53.6,13.1,58.4,13,62.9,13.9z"/>
	<path class="st0" d="M45.4,21.9c-3.8,1.8-10.4,7-10.5,15.2c0,0.8,0.6,1.4,1.4,1.4c0.8,0,1.4-0.6,1.4-1.4c0-6.8,5.6-11.2,8.8-12.7
		c6.1-2.8,13.6-2.8,19.8,0c0.3,0.1,0.7,0.2,1.1,0c0.3-0.1,0.6-0.4,0.8-0.7c0.2-0.3,0.2-0.7,0-1s-0.4-0.6-0.7-0.8l0,0
		c-3.4-1.6-7.2-2.3-11-2.3C52.6,19.5,48.8,20.3,45.4,21.9z"/>
	<path class="st0" d="M9.5,37.5L9.5,37.5c-0.4,0-0.7,0.1-1,0.4c-3.8,3.8-6,9-6,14.4s2.1,10.6,6,14.4c0.5,0.5,1.4,0.5,1.9,0
		c0.3-0.3,0.4-0.6,0.4-1s-0.1-0.7-0.4-1C7.2,61.5,5.3,57,5.3,52.3s1.8-9.1,5.2-12.5c0.3-0.3,0.4-0.6,0.4-1s-0.1-0.7-0.4-1
		C10.2,37.6,9.9,37.5,9.5,37.5z"/>
	<path class="st0" d="M16.1,62.7c0.5,0.5,1.4,0.5,2,0c0.5-0.5,0.5-1.4,0-2c-4.8-4.8-4.8-12.5,0-17.3c0.5-0.5,0.5-1.4,0-1.9
		c-0.3-0.3-0.6-0.4-1-0.4c-0.4,0-0.7,0.1-1,0.4C10.3,47.3,10.3,56.8,16.1,62.7z"/>
	<path class="st0" d="M103.6,66.7c3.8-3.8,6-9,6-14.4s-2.1-10.6-6-14.4l0,0c-0.3-0.3-0.6-0.4-1-0.4l0,0c-0.4,0-0.7,0.1-1,0.4
		c-0.3,0.3-0.4,0.6-0.4,1c0,0.4,0.1,0.7,0.4,1c3.3,3.3,5.2,7.8,5.2,12.5s-1.8,9.2-5.2,12.5c-0.3,0.3-0.4,0.6-0.4,1s0.1,0.7,0.4,1
		C102.2,67.3,103.1,67.3,103.6,66.7z"/>
	<path class="st0" d="M96,62.6c5.8-5.8,5.8-15.3,0-21.2c-0.5-0.5-1.4-0.5-1.9,0c-0.5,0.5-0.5,1.4,0,1.9c4.8,4.8,4.8,12.5,0,17.3
		c-0.5,0.5-0.5,1.4,0,2C94.6,63.2,95.5,63.2,96,62.6z"/>
</g>
</svg>
