<?xml version="1.0" encoding="utf-8"?>
<!-- Generator: Adobe Illustrator 23.0.0, SVG Export Plug-In . SVG Version: 6.00 Build 0)  -->
<svg version="1.1" id="Capa_1" xmlns="http://www.w3.org/2000/svg" xmlns:xlink="http://www.w3.org/1999/xlink" x="0px" y="0px"
	 viewBox="0 0 41.9 40.2" style="enable-background:new 0 0 41.9 40.2;" xml:space="preserve">
<style type="text/css">
	.st0{fill-rule:evenodd;clip-rule:evenodd;fill:#6081C3;}
	.st1{fill-rule:evenodd;clip-rule:evenodd;fill:#FFFFFF;}
</style>
<g id="layer1" transform="translate(0,-992.36218)">
	<g id="g3343" transform="matrix(0.96778326,0,0,0.96778326,4.2163353,39.614979)">
		<g id="g3128" transform="matrix(0.15227353,0,0,0.15227353,-50.593719,968.83104)">
			<path id="path3130" class="st0" d="M448.3,118c-67.5,0-122.2,54.7-122.2,122.1c0,8.6,0.9,17,2.6,25.1c10.7-2.9,22-4.5,33.7-4.5
				c18.7,0,36.4,4,52.5,11.2c21-14.9,46.6-23.7,74.4-23.7c17.4,0,33.9,3.4,49,9.7c0.1,0,0.2,0.1,0.2,0.1c0.6,0.3,1.1,1,1.1,1.7
				c0,1-0.8,1.9-1.9,1.9c0,0-1.9-0.1-2.7-0.2c-3-0.2-6.1-0.3-9.1-0.3c-42.8,0-81.3,15.7-104.7,47.6c-0.4,0.5-1.1,1.5-1.1,1.5
				c-0.3,0.4-0.9,0.7-1.5,0.7c-0.5,0-0.9-0.2-1.2-0.5c-0.1,0-0.1-0.1-0.2-0.1c-22.1-20.8-51.3-29.1-84.1-29.6
				c16.7,47.5,62,81.6,115.3,81.6c67.5,0,122.2-54.7,122.2-122.1C570.5,172.6,515.8,118,448.3,118L448.3,118z M544,191.1
				c-0.4,0-1.2-0.2-1.6-0.2c-1.4-0.2-2.7-0.4-4.1-0.5c-24.9-2.3-48.1,4.6-63.2,22.1c-0.6,0.6-1.2,0.7-1.8,0
				c-12-13.6-29.2-19.7-48.8-21.6c-7-0.7-13.9-0.3-20.5,0.9c0,0-0.1,0-0.1,0c-0.1,0-0.1,0-0.2,0c-0.7,0-1.3-0.6-1.3-1.3
				c0-0.4,0.2-0.8,0.5-1c0.1-0.1,0.2-0.1,0.4-0.2c12.3-6.4,26.4-9.5,41.2-8.1c10.7,1,20.7,4.3,29.5,9.3c12.9-7.4,28.1-11.1,44-9.6
				c9,0.9,17.5,3.3,25.2,7c0.5,0.2,1,0.5,1.4,0.7c0.5,0.2,0.7,0.6,0.7,1.1C545.3,190.5,544.8,191.2,544,191.1z"/>
			<path id="path3132" class="st1" d="M544.6,188.7c-0.5-0.3-1-0.5-1.4-0.7c-7.7-3.7-16.2-6.1-25.2-7c-15.9-1.5-31.1,2.1-44,9.6
				c-8.8-5-18.8-8.2-29.5-9.3c-14.8-1.4-29,1.7-41.2,8.1c-0.1,0.1-0.2,0.1-0.4,0.2c-0.3,0.2-0.5,0.6-0.5,1c0,0.7,0.6,1.3,1.3,1.3
				c0.1,0,0.1,0,0.2,0c0,0,0.1,0,0.1,0c6.6-1.2,13.5-1.6,20.5-0.9c19.7,1.9,36.8,7.9,48.8,21.6c0.6,0.6,1.2,0.6,1.8,0
				c15.1-17.5,38.3-24.4,63.2-22.1c1.4,0.1,2.8,0.3,4.1,0.5c0.5,0.1,1.2,0.2,1.6,0.2c0.8,0.1,1.3-0.6,1.3-1.3
				C545.3,189.3,545.1,188.9,544.6,188.7z"/>
			<path id="path3134" class="st1" d="M417.3,310.4c0.3,0.3,0.8,0.5,1.2,0.5c0.6,0,1.1-0.3,1.5-0.7c0,0,0.7-1,1.1-1.5
				C444.5,276.7,483,261,525.8,261c3,0,6.1,0.1,9.1,0.3c0.9,0.1,2.7,0.2,2.7,0.2c1,0,1.9-0.9,1.9-1.9c0-0.8-0.4-1.4-1.1-1.7
				c-0.1,0-0.2-0.1-0.2-0.1c-15.1-6.2-31.6-9.7-49-9.7c-27.7,0-53.4,8.8-74.4,23.7c-16-7.2-33.8-11.2-52.5-11.2
				c-11.7,0-23,1.6-33.7,4.5c1.1,5.3,2.6,10.4,4.3,15.4c32.8,0.6,61.9,8.8,84.1,29.6C417.2,310.3,417.2,310.4,417.3,310.4z"/>
		</g>
	</g>
</g>
</svg>
