<?xml version="1.0" encoding="utf-8"?>
<!-- Generator: Adobe Illustrator 23.0.0, SVG Export Plug-In . SVG Version: 6.00 Build 0)  -->
<svg version="1.1" id="Capa_1" xmlns="http://www.w3.org/2000/svg" xmlns:xlink="http://www.w3.org/1999/xlink" x="0px" y="0px"
	 viewBox="0 0 119.3 121.5" style="enable-background:new 0 0 119.3 121.5;" xml:space="preserve">
<style type="text/css">
	.st0{fill:#5EA4CC;}
</style>
<g>
	<g>
		<path class="st0" d="M68.5,3.2c-13.5,0-24.4,11-24.4,24.4s11,24.4,24.4,24.4s24.4-11,24.4-24.4S81.9,3.2,68.5,3.2z M68.5,49.4
			c-12,0-21.8-9.8-21.8-21.8S56.5,5.9,68.5,5.9s21.8,9.8,21.8,21.8S80.5,49.4,68.5,49.4z"/>
		<path class="st0" d="M80.3,96.6c5.2,0,10.2-2,13.9-5.7c0.1-0.1,0.8-1,3.8-4.6L115.1,66c3-3.5,2.5-8.9-1-11.8
			c-3.5-3-8.8-2.5-11.8,0.9L88,69.8L87.4,69c-1.6-2-4-3.1-6.5-3.1l-26.1-0.1c-3.6-1.5-7.3-2.3-11.3-2.3c-11.2,0-20.4,5.2-25.3,14.3
			l-0.3,0.5l-0.6-0.1c-0.4-0.1-0.8-0.1-1.1-0.1c-1.6,0-3.1,0.6-4.3,1.8l-11,11c-0.6,0.6-0.6,1.5,0,2.1l25.9,26.1
			c0.6,0.6,1.5,0.6,2.1,0l11.2-11c1.6-1.6,2.2-4.1,1.4-6.3l-0.2-0.5l2.8-2.7c1.5-1.4,3.4-2.2,5.4-2.2L80.3,96.6L80.3,96.6z
			 M38,106.2L38,106.2l-10.1,10L4,92.1l9.9-10c1-1,2.6-1.2,3.9-0.4c0.3,0.2,0.3,0.2,4.3,4.2l0.6,0.7c2.9,2.9,7.5,7.6,15.2,15.2
			c0.6,0.6,0.9,1.4,0.9,2.2C38.9,104.8,38.6,105.6,38,106.2z M42.1,96.7l-2.5,2.5l-0.3-0.3L20.5,80l0.3-0.5
			c4.4-8.2,12.7-12.9,22.8-12.9c3.7,0,7.2,0.7,10.5,2.2c0.2,0.1,0.4,0.1,0.6,0.1h26.2c3,0,5.5,2.4,5.5,5.5s-2.4,5.5-5.5,5.5H62
			c-0.8,0-1.5,0.7-1.5,1.5c0,0.8,0.7,1.5,1.5,1.5h18.9c4.6,0,8.4-3.8,8.4-8.4c0-0.4,0-0.7-0.1-1.1l-0.1-0.4l10.7-11
			c3.5-3.6,4.6-4.7,4.7-4.8c1.9-2.3,5.4-2.6,7.7-0.6c2.3,1.9,2.6,5.4,0.6,7.7L92.1,88.9c-3.2,3.1-7.4,4.8-11.8,4.8H49.6
			C46.8,93.6,44.1,94.7,42.1,96.7z"/>
	</g>
	<g>
		<path class="st0" d="M68,43.5c1.1,0,1.9-0.9,1.9-1.9v-3l0.3-0.1c2.6-0.9,4.4-3.4,4.4-6.2c0-3.6-2.9-6.6-6.6-6.6
			c-1.5,0-2.7-1.2-2.7-2.7s1.2-2.7,2.7-2.7c0.9,0,1.9,0.5,2.8,1.3c0.4,0.4,0.8,0.6,1.4,0.5c0.5,0,1-0.2,1.4-0.6s0.6-0.9,0.5-1.4
			c0-0.5-0.2-1-0.6-1.4c-1-1-2.1-1.6-3.3-2l-0.3-0.1v-3c0-1.1-0.9-1.9-1.9-1.9s-1.9,0.9-1.9,1.9v3l-0.3,0.1
			c-2.6,0.9-4.4,3.4-4.4,6.2c0,3.6,2.9,6.6,6.6,6.6c1.5,0,2.7,1.2,2.7,2.7S69.5,35,68,35c-1.1,0-2.3-0.7-3.3-1.9
			c-0.4-0.5-0.9-0.7-1.5-0.7c-0.4,0-0.9,0.2-1.3,0.5c-0.8,0.7-0.9,1.9-0.2,2.7c1.2,1.4,2.6,2.4,4.1,2.9l0.3,0.1v3
			C66.1,42.6,66.9,43.5,68,43.5z"/>
		<g>
			<path class="st0" d="M68,44.3c-1.5,0-2.8-1.2-2.8-2.8v-2.4c-1.5-0.6-2.9-1.6-4.1-3c-1-1.2-0.8-2.9,0.3-3.9c1.2-1,2.9-0.8,3.9,0.3
				c0.9,1,1.8,1.6,2.7,1.6c1,0,1.8-0.8,1.8-1.8c0-1-0.8-1.9-1.8-1.9c-4.1,0-7.4-3.3-7.4-7.4c0-3,1.8-5.7,4.6-6.9v-2.4
				c0-1.5,1.2-2.8,2.8-2.8s2.8,1.2,2.8,2.8v2.4c1.2,0.4,2.3,1.1,3.3,2.1c0.5,0.5,0.8,1.2,0.8,1.9c0,0.7-0.3,1.4-0.8,2
				c-0.5,0.5-1.2,0.8-1.9,0.8c0,0,0,0-0.1,0c-0.7,0-1.4-0.3-1.9-0.8c-0.7-0.7-1.5-1.1-2.2-1.1c-1,0-1.8,0.8-1.8,1.9s0.8,1.9,1.8,1.9
				c4.1,0,7.4,3.3,7.4,7.4c0,3-1.8,5.7-4.6,6.8v2.4C70.8,43,69.5,44.3,68,44.3z M63.3,32.5c-0.4,0-0.8,0.1-1.2,0.4
				c-0.8,0.7-0.9,1.8-0.2,2.6c1.2,1.4,2.5,2.4,4,2.9l0.3,0.1v3c0,1,0.8,1.8,1.8,1.8s1.8-0.8,1.8-1.8v-3l0.3-0.1
				c2.6-0.9,4.3-3.4,4.3-6.1c0-3.6-2.9-6.5-6.5-6.5c-1.5,0-2.8-1.2-2.8-2.8s1.2-2.8,2.8-2.8c0.9,0,1.9,0.5,2.8,1.3
				c0.7,0.7,1.9,0.7,2.6,0c0.3-0.4,0.5-0.8,0.5-1.3s-0.2-1-0.6-1.3c-1-1-2.1-1.6-3.2-2l-0.3-0.1v-3c0-1-0.8-1.9-1.8-1.9
				s-1.8,0.8-1.8,1.9v3L65.9,17c-2.6,0.9-4.3,3.4-4.3,6.1c0,3.6,2.9,6.5,6.5,6.5c1.5,0,2.8,1.2,2.8,2.8s-1.2,2.8-2.8,2.8
				c-1.1,0-2.3-0.7-3.3-1.9C64.3,32.7,63.8,32.5,63.3,32.5z"/>
			<path class="st0" d="M68,44.7c-1.7,0-3.2-1.4-3.2-3.2v-2.1c-1.5-0.6-2.9-1.7-4-3c-1.1-1.3-0.9-3.3,0.4-4.4
				c1.3-1.1,3.3-0.9,4.4,0.4c0.8,0.9,1.6,1.5,2.4,1.5c0.8,0,1.5-0.7,1.5-1.5c0-0.8-0.7-1.5-1.5-1.5c-4.3,0-7.8-3.5-7.8-7.8
				c0-3.1,1.8-5.9,4.6-7.1v-2.1c0-1.7,1.4-3.2,3.2-3.2s3.1,1.4,3.1,3.1v2.1c1.1,0.5,2.2,1.2,3.2,2.1c0.6,0.6,0.9,1.4,1,2.2
				c0,0.8-0.3,1.6-0.9,2.2c-0.6,0.6-1.4,0.9-2.2,1l0,0c-0.9,0-1.7-0.3-2.2-0.9c-0.7-0.6-1.3-1-1.9-1c-0.8,0-1.5,0.7-1.5,1.5
				c0,0.8,0.7,1.5,1.5,1.5c4.3,0,7.8,3.5,7.8,7.8c0,3.1-1.8,5.8-4.6,7.1v2.1C71.2,43.3,69.8,44.7,68,44.7z M63.3,31.9
				c-0.5,0-1.1,0.2-1.5,0.6c-1,0.8-1.1,2.4-0.3,3.4c1.2,1.4,2.5,2.4,4,2.9l0.2,0.1v2.6c0,1.3,1.1,2.4,2.4,2.4c1.3,0,2.4-1.1,2.4-2.4
				v-2.6l0.2-0.1c2.7-1.1,4.4-3.6,4.4-6.5c0-3.9-3.2-7-7-7c-1.2,0-2.2-1-2.2-2.2s1-2.2,2.2-2.2c0.8,0,1.6,0.4,2.4,1.2
				c0.4,0.4,1,0.7,1.7,0.7c0.7,0,1.3-0.3,1.7-0.7c0.4-0.5,0.7-1.1,0.7-1.7s-0.3-1.2-0.7-1.7c-1-0.9-2-1.6-3.1-2l-0.2-0.1v-2.6
				c0-1.3-1.1-2.4-2.4-2.4s-2.4,1.1-2.4,2.4v2.6l-0.2,0.1C62.7,17.6,61,20.2,61,23c0,3.9,3.2,7,7,7c1.2,0,2.2,1,2.2,2.2
				c0,1.2-1,2.2-2.2,2.2c-1,0-2-0.6-2.9-1.7C64.6,32.2,63.9,31.9,63.3,31.9z M68,43.7c-1.2,0-2.2-1-2.2-2.2v-2.8l-0.1,0
				c-1.5-0.5-3-1.5-4.2-3c-0.8-0.9-0.7-2.3,0.3-3.1c0.9-0.8,2.4-0.6,3.1,0.3c1,1.2,2.1,1.8,3.1,1.8c1.3,0,2.4-1.1,2.4-2.4
				s-1.1-2.4-2.4-2.4c-3.8,0-6.8-3.1-6.8-6.9c0-2.9,1.8-5.5,4.6-6.5l0.1,0v-2.8c0-1.2,1-2.2,2.2-2.2s2.2,1,2.2,2.2v2.8l0.1,0
				c1.2,0.4,2.3,1.1,3.4,2.1c0.4,0.4,0.7,1,0.7,1.6c0,0.6-0.2,1.2-0.6,1.6c-0.4,0.4-1,0.7-1.6,0.7c-0.6,0-1.2-0.2-1.6-0.6
				c-0.8-0.8-1.7-1.2-2.6-1.2c-1.3,0-2.4,1.1-2.4,2.4s1.1,2.4,2.4,2.4c3.8,0,6.8,3.1,6.8,6.8c0,2.9-1.8,5.5-4.6,6.5l-0.1,0v2.8
				C70.2,42.7,69.2,43.7,68,43.7z M63.3,32.8c-0.3,0-0.7,0.1-1,0.3c-0.6,0.5-0.7,1.5-0.2,2.1c1.1,1.3,2.5,2.3,3.9,2.8l0.6,0.2v3.3
				c0,0.8,0.7,1.5,1.5,1.5s1.5-0.7,1.5-1.5v-3.3l0.6-0.2c2.4-0.9,4.1-3.2,4.1-5.8c0-3.4-2.7-6.1-6.1-6.1c-1.7,0-3.2-1.4-3.2-3.1
				c0-1.7,1.4-3.1,3.2-3.1c1,0,2.1,0.5,3.1,1.4c0.3,0.3,0.7,0.4,1.1,0.4c0.4,0,0.8-0.2,1-0.5c0.3-0.3,0.4-0.7,0.4-1
				c0-0.4-0.2-0.8-0.4-1c-0.9-0.9-2-1.6-3.1-1.9l-0.6-0.2v-3.3c0-0.8-0.7-1.5-1.5-1.5s-1.5,0.7-1.5,1.5v3.3L66,17.3
				c-2.4,0.9-4.1,3.2-4.1,5.8c0,3.4,2.7,6.1,6.1,6.1c1.7,0,3.1,1.4,3.1,3.1c0,1.7-1.4,3.1-3.1,3.1c-1.2,0-2.5-0.7-3.6-2
				C64.1,33,63.7,32.8,63.3,32.8z"/>
		</g>
	</g>
</g>
</svg>
