<?xml version="1.0" encoding="utf-8"?>
<!-- Generator: Adobe Illustrator 23.0.0, SVG Export Plug-In . SVG Version: 6.00 Build 0)  -->
<svg version="1.1" id="Capa_1" xmlns="http://www.w3.org/2000/svg" xmlns:xlink="http://www.w3.org/1999/xlink" x="0px" y="0px"
	 viewBox="0 0 73 91.4" style="enable-background:new 0 0 73 91.4;" xml:space="preserve">
<style type="text/css">
	.st0{fill:#E7E7DE;}
	.st1{fill:#D6D5C8;}
	.st2{fill:#B14C4D;}
	.st3{fill:#FFFFFF;}
</style>
<path class="st0" d="M50.6,2.4H6.1c-1.3,0-2.3,1-2.3,2.9v81.5c0,0.5,1,1.5,2.3,1.5h61.5c1.2,0,2.2-1,2.2-1.5V22.3
	c0-1.1-0.1-1.4-0.4-1.7L51.6,2.8C51.3,2.5,51,2.4,50.6,2.4L50.6,2.4z"/>
<path class="st1" d="M51.4,2.6v18.2h18.2L51.4,2.6z"/>
<path class="st2" d="M23.8,53.5c-0.5,0-1-0.2-1.5-0.5c-1.6-1.2-1.8-2.5-1.7-3.4c0.3-2.5,3.4-5.1,9.2-7.8c2.3-5.1,4.5-11.3,5.8-16.5
	c-1.5-3.3-3-7.7-1.9-10.2c0.4-0.9,0.8-1.6,1.7-1.9c0.3-0.1,1.2-0.3,1.6-0.3c0.8,0,1.5,1,1.9,1.6c0.5,0.6,1.5,1.8-0.6,10.4
	c2.1,4.3,5,8.6,7.8,11.6c2-0.4,3.8-0.5,5.2-0.5c2.4,0,3.9,0.6,4.5,1.7c0.5,1,0.3,2.1-0.6,3.3c-0.9,1.2-2,1.8-3.4,1.8
	c-1.9,0-4-1.2-6.5-3.5c-4.4,0.9-9.4,2.5-13.6,4.3c-1.3,2.7-2.5,4.9-3.7,6.5C26.5,52.5,25.1,53.5,23.8,53.5L23.8,53.5z M27.9,45.7
	c-3.3,1.8-4.6,3.4-4.7,4.2c0,0.1-0.1,0.5,0.7,1.1C24,50.9,25.4,50.3,27.9,45.7L27.9,45.7z M48.8,38.8c1.3,1,1.6,1.5,2.4,1.5
	c0.4,0,1.4,0,1.9-0.7c0.2-0.3,0.3-0.5,0.3-0.6c-0.2-0.1-0.4-0.3-1.8-0.3C50.8,38.7,49.8,38.7,48.8,38.8L48.8,38.8z M37.3,28.7
	c-1.1,3.8-2.5,7.9-4.1,11.6c3.2-1.2,6.7-2.3,10-3.1C41.2,34.9,39.1,31.9,37.3,28.7L37.3,28.7z M36.4,15.8c-0.2,0.1-2,2.7,0.2,4.9
	C38,17.5,36.5,15.7,36.4,15.8L36.4,15.8z"/>
<path class="st2" d="M67.6,88.4H6.1c-1.3,0-2.3-1-2.3-2.3V62.3h66v23.9C69.8,87.4,68.8,88.4,67.6,88.4L67.6,88.4z"/>
<path class="st3" d="M20.5,83.8H18V68.3h4.5c0.6,0,1.3,0.1,2,0.3c0.6,0.2,1.2,0.5,1.7,0.9c0.5,0.4,0.9,0.9,1.2,1.5
	c0.3,0.6,0.5,1.3,0.5,2c0,0.8-0.1,1.5-0.4,2.1c-0.3,0.6-0.6,1.2-1.1,1.6c-0.5,0.4-1,0.8-1.7,1c-0.7,0.2-1.4,0.4-2.2,0.4h-1.9
	L20.5,83.8L20.5,83.8z M20.5,70.2v6.1h2.3c0.3,0,0.6-0.1,0.9-0.2c0.3-0.1,0.6-0.3,0.8-0.5c0.3-0.2,0.5-0.6,0.6-1
	c0.1-0.4,0.2-1,0.2-1.6c0-0.3,0-0.5-0.1-0.9s-0.2-0.6-0.4-0.9c-0.2-0.3-0.5-0.6-0.9-0.8c-0.4-0.2-0.9-0.3-1.5-0.3
	C22.4,70.2,20.5,70.2,20.5,70.2z"/>
<path class="st3" d="M43.3,75.6c0,1.3-0.1,2.4-0.4,3.3c-0.3,0.9-0.6,1.7-1,2.3c-0.4,0.6-0.9,1.1-1.4,1.4c-0.5,0.3-1,0.6-1.5,0.8
	s-0.9,0.3-1.3,0.3c-0.4,0.1-0.7,0.1-0.9,0.1h-5.9V68.3h4.7c1.3,0,2.5,0.2,3.4,0.6c1,0.4,1.8,1,2.5,1.7c0.7,0.7,1.1,1.5,1.5,2.3
	C43.1,73.8,43.3,74.7,43.3,75.6L43.3,75.6z M35.8,81.9c1.7,0,2.9-0.6,3.7-1.6c0.8-1.1,1.1-2.7,1.1-4.8c0-0.6-0.1-1.3-0.2-1.9
	c-0.2-0.6-0.5-1.2-0.9-1.7c-0.4-0.5-1-0.9-1.8-1.2c-0.8-0.3-1.8-0.5-3-0.5h-1.5v11.7L35.8,81.9L35.8,81.9z"/>
<path class="st3" d="M49.5,70.2v4.9H56v1.7h-6.5v7H47V68.3h9.7v1.9C56.6,70.2,49.5,70.2,49.5,70.2z"/>
</svg>
