<?xml version="1.0" encoding="utf-8"?>
<!-- Generator: Adobe Illustrator 23.0.0, SVG Export Plug-In . SVG Version: 6.00 Build 0)  -->
<svg version="1.1" id="Capa_1" xmlns="http://www.w3.org/2000/svg" xmlns:xlink="http://www.w3.org/1999/xlink" x="0px" y="0px"
	 viewBox="0 0 119 106" style="enable-background:new 0 0 119 106;" xml:space="preserve">
<style type="text/css">
	.st0{fill:#5EA4CC;}
</style>
<path class="st0" d="M77.8,50.5c-9.2,0-16.6,7.4-16.6,16.6s7.4,16.6,16.6,16.6s16.6-7.4,16.6-16.6C94.3,57.9,86.9,50.5,77.8,50.5
	 M77.8,80.9c-7.7,0-13.9-6.2-13.9-13.9s6.2-13.9,13.9-13.9s13.9,6.2,13.9,13.9S85.4,80.9,77.8,80.9"/>
<path class="st0" d="M113.3,62.9c-0.2-1-0.7-1.7-1.6-2.1c-0.9-0.4-2.2-0.9-3.2-1.2c-0.8-0.3-1.4-0.5-1.7-0.7c-0.1,0-0.2-0.1-0.3-0.2
	c-0.2-0.2-0.4-0.4-0.5-0.7c-0.5-1.6-1.2-3.2-2-4.7c-0.2-0.3-0.2-0.6-0.1-0.9c0,0,0.1-0.2,0.1-0.2c0.1-0.3,0.4-1,0.8-1.7
	c0.5-1.1,1-2.2,1.3-3.1c0.4-0.9,0.3-1.8-0.3-2.6c-0.6-0.8-1.4-1.9-2.7-3.2c-1.3-1.3-2-1.8-3.2-2.7c-0.8-0.6-1.7-0.7-2.6-0.3
	c-0.9,0.4-2.1,0.9-3.1,1.4c-0.7,0.3-1.3,0.6-1.7,0.7c-0.1,0-0.3,0.1-0.4,0.1c-0.3,0-0.6,0-0.8-0.1c-1.5-0.8-3-1.4-4.6-1.9
	c-0.2-0.1-0.4-0.2-0.6-0.4c-0.1-0.1-0.2-0.3-0.3-0.5c-0.1-0.3-0.4-1-0.7-1.7c-0.4-1-0.8-2.2-1.2-3.2c-0.4-0.9-1.1-1.4-2.1-1.6
	c-1.5-0.3-2.3-0.4-4.2-0.4c-1.9,0-3.2,0.2-4.2,0.4c-1,0.2-1.7,0.7-2.1,1.6c-0.4,0.9-0.8,2.1-1.2,3.1l-0.1,0.1
	C70,37,69.7,37.7,69.6,38c-0.1,0.3-0.3,0.5-0.5,0.7c-0.1,0.1-0.3,0.2-0.4,0.3c-1.5,0.5-2.9,1.1-4.3,1.8c-0.3,0.1-0.5,0.1-0.6,0.1
	c-0.3,0-0.5,0-0.8-0.2c-0.3-0.1-0.8-0.4-1.5-0.7L61.3,40c-1-0.5-2.2-1-3.2-1.4c-0.9-0.4-1.8-0.2-2.6,0.3c-0.8,0.6-1.9,1.4-3.2,2.7
	c-1.3,1.3-1.8,2-2.7,3.2c-0.6,0.8-0.7,1.7-0.3,2.6c0.4,0.9,0.9,2.2,1.4,3.1l0.1,0.2c0.3,0.6,0.5,1.2,0.6,1.5c0.2,0.5,0.2,0.9,0,1.5
	l0,0.1c-0.6,1.3-1.2,2.6-1.7,4.1c-0.2,0.5-0.6,0.8-1.1,1c-0.3,0.1-0.8,0.3-1.4,0.6L47,59.6c-0.9,0.4-2.2,0.9-3.2,1.3
	c-0.9,0.4-1.5,1.1-1.6,2.1c-0.2,1-0.3,2.3-0.3,4.2c0,1.8,0.1,2.7,0.3,4.2c0.2,1,0.7,1.7,1.6,2.1c0.9,0.4,2.1,0.8,3.2,1.3
	c0.7,0.3,1.4,0.5,1.7,0.7c0.5,0.2,0.8,0.6,1.1,1.2c0.4,1.3,1,2.7,1.6,3.9c0,0.1,0.1,0.1,0.1,0.2c0.1,0.4,0.1,0.9-0.1,1.3
	c-0.1,0.3-0.4,0.9-0.7,1.6l0,0.1c-0.4,1-1,2.2-1.4,3.1c-0.4,0.9-0.3,1.8,0.3,2.6c0.8,1.2,1.4,1.9,2.7,3.2c1.3,1.3,2.4,2.1,3.2,2.7
	c0.8,0.6,1.8,0.7,2.6,0.3c1-0.4,2.2-1,3.1-1.4c0.7-0.3,1.3-0.6,1.7-0.7c0.3-0.1,0.5-0.2,0.9-0.2c0,0,0,0,0,0c0.2,0,0.3,0.1,0.5,0.1
	c1.4,0.7,2.8,1.3,4.3,1.8c0.2,0.1,0.3,0.2,0.5,0.3c0.2,0.2,0.3,0.4,0.5,0.7c0.1,0.3,0.3,0.9,0.6,1.5l0.1,0.3
	c0.3,0.9,0.8,2.2,1.2,3.1c0.4,0.9,1.1,1.4,2.1,1.6c1,0.2,2.3,0.3,4.2,0.3c1.8,0,2.7-0.1,4.2-0.3c1-0.2,1.7-0.8,2.1-1.6
	c0.4-0.9,0.8-2.1,1.3-3.2l0.1-0.1c0.3-0.6,0.5-1.2,0.6-1.5c0.1-0.1,0.1-0.3,0.2-0.4c0.2-0.2,0.4-0.4,0.6-0.4
	c1.6-0.5,3.2-1.1,4.6-1.9c0.2-0.1,0.5-0.2,0.8-0.1c0.1,0,0.2,0.1,0.4,0.1c0.3,0.1,1,0.4,1.7,0.7c1,0.5,2.2,1,3.1,1.4
	c0.9,0.4,1.8,0.3,2.6-0.3c1.2-0.8,1.9-1.4,3.2-2.7c1.3-1.3,2.1-2.4,2.7-3.2c0.6-0.8,0.7-1.7,0.3-2.6c-0.4-0.9-0.9-2.1-1.3-3.1
	l-0.2-0.4c-0.3-0.6-0.5-1.1-0.6-1.4l-0.1-0.2c-0.1-0.3-0.1-0.7,0.1-0.9c0.8-1.5,1.4-3.1,2-4.7c0.1-0.3,0.3-0.5,0.5-0.7
	c0.1-0.1,0.2-0.1,0.3-0.2c0.3-0.1,1-0.4,1.7-0.7c1-0.4,2.2-0.8,3.1-1.2c0.9-0.4,1.4-1.1,1.6-2.1c0.3-1.5,0.4-2.3,0.4-4.2
	C113.7,65.2,113.5,63.9,113.3,62.9 M104,74.4c-0.1,0.1-0.2,0.3-0.2,0.4c-0.6,1.8-1.3,3.7-2.2,5.3c-0.1,0.1-0.1,0.3-0.2,0.5
	c-0.1,0.8,0,1.5,0.3,2.2c0.1,0.3,0.3,0.8,0.6,1.4l0.2,0.5c0.3,0.7,0.7,1.6,1,2.3c0.2,0.4,0.1,0.8-0.1,1.2c-0.6,0.9-1.3,1.6-2.1,2.5
	c-1,1-1.6,1.5-2.4,2.1c-0.3,0.2-0.8,0.3-1.2,0.1c-0.8-0.3-1.6-0.7-2.3-1l-0.2-0.1c-0.8-0.3-1.4-0.6-1.7-0.8
	c-0.8-0.3-1.6-0.4-2.4-0.3c-0.1,0-0.3,0.1-0.4,0.1c-1.6,0.9-3.4,1.6-5.2,2.1c-0.1,0-0.3,0.1-0.4,0.2c-0.7,0.5-1.2,1.2-1.6,1.9
	c-0.2,0.3-0.4,0.9-0.7,1.8c-0.3,0.8-0.7,1.8-1,2.6c-0.2,0.4-0.5,0.7-0.9,0.7c-1.1,0.2-1.8,0.2-3.2,0.2c-1.2,0-2.2-0.1-3.3-0.2
	c-0.4-0.1-0.8-0.3-0.9-0.7c-0.3-0.8-0.7-1.7-1-2.6c-0.3-0.8-0.5-1.4-0.7-1.8c-0.4-0.9-1-1.6-1.8-2.1c-0.1-0.1-0.2-0.1-0.3-0.1
	c-1.6-0.5-3.1-1.1-4.6-1.9c-0.1-0.1-0.2-0.1-0.3-0.1c-0.4-0.1-0.8-0.2-1.2-0.2c-0.6,0-1.2,0.1-1.7,0.3c-0.3,0.1-0.8,0.4-1.6,0.7
	l-0.1,0.1c-0.8,0.3-1.7,0.8-2.5,1.1c-0.4,0.2-0.8,0.1-1.2-0.1c-0.9-0.6-1.6-1.3-2.5-2.1c-1-1-1.5-1.6-2.1-2.4
	c-0.2-0.3-0.3-0.8-0.1-1.2c0.3-0.8,0.8-1.8,1.1-2.6l0.1-0.2c0.3-0.7,0.5-1.2,0.7-1.5c0.4-1.1,0.5-2.2,0.1-3.3l-0.1-0.1
	c-0.6-1.2-1.2-2.5-1.6-3.9l0-0.1c-0.5-1.1-1.3-2-2.4-2.4c-0.3-0.1-0.8-0.3-1.5-0.6l-0.4-0.2c-0.8-0.3-1.7-0.7-2.5-1
	c-0.4-0.2-0.7-0.5-0.7-0.9c-0.2-1.1-0.2-1.8-0.2-3.2c0-1.5,0.1-2.5,0.2-3.3c0.1-0.4,0.3-0.8,0.8-0.9c0.7-0.3,1.6-0.6,2.4-0.9
	l0.2-0.1c0.8-0.3,1.4-0.5,1.8-0.7c1.1-0.5,2-1.3,2.5-2.5l0-0.1c0.4-1.3,1-2.6,1.6-3.8l0.1-0.1c0.4-1.1,0.4-2.3,0-3.3
	c-0.2-0.3-0.4-1-0.8-1.7l-0.1-0.2c-0.3-0.8-0.7-1.7-1.1-2.4c-0.2-0.4-0.1-0.8,0.1-1.2c0.6-0.9,1.1-1.5,2.1-2.5
	c0.8-0.8,1.6-1.5,2.5-2.1c0.3-0.3,0.8-0.3,1.2-0.1c0.8,0.3,1.8,0.8,2.6,1.2l0.2,0.1c0.7,0.3,1.2,0.5,1.5,0.7c0.9,0.4,2,0.5,2.9,0.2
	c0.1,0,0.2-0.1,0.3-0.1c1.5-0.8,3-1.4,4.6-1.9c0.1,0,0.2-0.1,0.3-0.1c0.8-0.5,1.5-1.2,1.8-2.1c0.1-0.3,0.4-0.9,0.7-1.7l0.1-0.2
	c0.3-0.8,0.7-1.8,1-2.5c0.2-0.4,0.5-0.7,0.9-0.7c1.1-0.2,2.1-0.2,3.3-0.2c1.4,0,2.2,0,3.2,0.2c0.4,0.1,0.8,0.3,0.9,0.7
	c0.3,0.8,0.7,1.8,1,2.6l0.1,0.2c0.3,0.7,0.5,1.3,0.6,1.6c0.3,0.8,0.9,1.5,1.6,2c0.1,0.1,0.2,0.1,0.4,0.2c1.8,0.5,3.5,1.2,5.1,2.1
	c0.1,0.1,0.3,0.1,0.4,0.1c0.8,0.1,1.6,0,2.4-0.3c0.4-0.2,1-0.4,1.7-0.8c0.8-0.4,1.8-0.8,2.6-1.1c0.4-0.2,0.8-0.1,1.2,0.1
	c0.9,0.6,1.5,1.1,2.4,2.1c0.8,0.8,1.5,1.6,2.1,2.5c0.3,0.3,0.3,0.8,0.1,1.2c-0.3,0.8-0.7,1.7-1.1,2.4l-0.1,0.2
	c-0.3,0.7-0.6,1.3-0.7,1.6c-0.3,0.7-0.4,1.5-0.3,2.2c0,0.2,0.1,0.3,0.2,0.5c0.9,1.7,1.7,3.5,2.2,5.3c0,0.1,0.1,0.3,0.2,0.4
	c0.5,0.7,1.1,1.2,1.9,1.5c0.3,0.1,0.9,0.4,1.7,0.7c0.8,0.3,1.8,0.7,2.6,1c0.4,0.2,0.7,0.5,0.7,0.9c0.2,1.1,0.2,2.1,0.2,3.2
	c0,1.4-0.1,2.2-0.2,3.2c-0.1,0.4-0.3,0.8-0.7,0.9c-0.8,0.3-1.7,0.7-2.6,1l-0.1,0c-0.7,0.3-1.3,0.5-1.6,0.6
	C105.2,73.3,104.5,73.8,104,74.4"/>
<path class="st0" d="M44.9,38.7c0.8,0,1.4-0.4,1.9-1c0.5-0.8,0.8-1.4,1.3-2.5c0.5-1.2,0.7-2.1,0.9-2.8c0.2-0.8,0-1.5-0.6-2.1
	c-0.5-0.5-1.2-1.1-1.7-1.6L46,28c-0.3-0.3-0.4-0.6-0.4-1c0.1-0.9,0.1-1.9,0-2.8c0-0.4,0.1-0.7,0.4-1l0.9-0.8c0.5-0.5,1-1,1.4-1.4
	c0.5-0.5,0.8-1.3,0.6-2.1c-0.2-0.7-0.4-1.6-0.9-2.8s-0.8-1.7-1.3-2.6c-0.4-0.7-1.1-1.1-1.9-1.1c-0.7,0-1.6,0-2.3,0.1
	c0,0-0.2,0-0.5,0l-0.5,0c-0.3,0-0.7-0.1-0.9-0.4c-0.6-0.7-1.3-1.3-1.9-1.9c-0.3-0.2-0.4-0.6-0.4-0.9l0-0.9c0-0.7,0-1.6,0-2.3
	c0-0.8-0.4-1.4-1-1.9c-0.8-0.5-1.4-0.8-2.5-1.3c-1.2-0.5-2-0.7-2.8-0.9c-0.8-0.2-1.5,0-2.1,0.6c-0.5,0.5-1.1,1.1-1.6,1.7l-0.7,0.7
	c-0.2,0.2-0.5,0.4-0.9,0.4v0.4l-0.1-0.4c-0.8-0.1-1.6-0.1-2.7,0c-0.3,0-0.6-0.1-0.9-0.4C23,5,22.4,4.3,22.4,4.3
	c-0.5-0.5-1.1-1.1-1.5-1.6c-0.5-0.5-1.3-0.8-2.1-0.6c-0.7,0.2-1.6,0.4-2.8,0.9c-1.2,0.5-1.7,0.8-2.6,1.3c-0.7,0.4-1.1,1.1-1.1,1.9
	c0,0.6,0,1.4,0,2v0.1c0,0.1,0,1,0,1.2c0,0.4-0.1,0.7-0.4,0.9c-0.6,0.6-1.2,1.2-1.8,1.8c-0.2,0.3-0.6,0.4-0.9,0.4l-1.1,0
	c-0.7,0-1.6,0-2.3,0c-0.8,0-1.4,0.4-1.9,1.1c-0.4,0.6-0.8,1.4-1.3,2.6c-0.5,1.2-0.7,1.8-0.9,2.7c-0.2,0.8,0,1.5,0.6,2.1
	c0.5,0.5,1.1,1.1,1.6,1.6c0,0,0.7,0.6,0.8,0.8c0.3,0.2,0.4,0.6,0.4,0.9c-0.1,0.9-0.1,1.7,0,2.5c0,0.4-0.1,0.7-0.4,0.9
	c-0.2,0.2-0.4,0.4-0.8,0.8c-0.5,0.5-1.2,1.1-1.6,1.6C2,30.8,1.8,31.5,2,32.3c0.2,1,0.4,1.5,0.9,2.7c0.5,1.2,1,2,1.3,2.6
	c0.4,0.7,1.1,1,1.9,1c0.7,0,1.6,0,2.3,0c0,0,0.3,0,0.6,0l0.4,0c0.4,0,0.7,0.2,0.9,0.4c0.6,0.7,1.2,1.3,1.9,1.9
	c0.3,0.2,0.4,0.6,0.4,0.9l0,1c0,0.7,0,1.6,0,2.3c0,0.8,0.4,1.5,1.1,1.9c0.6,0.4,1.4,0.8,2.6,1.3c1.2,0.5,1.8,0.7,2.7,0.9
	c0.2,0,0.4,0.1,0.5,0.1c0.6,0,1.1-0.2,1.5-0.6c0.5-0.5,1-1.1,1.6-1.7l0.6-0.7c0.2-0.2,0.5-0.4,1-0.4c0.9,0.1,1.8,0.1,2.8,0
	c0.3,0,0.6,0.1,0.9,0.4l0.8,0.8c0.5,0.5,1,1.1,1.5,1.5c0.5,0.5,1.3,0.8,2.1,0.6c1-0.2,1.5-0.4,2.7-0.9c1.2-0.5,2-1,2.6-1.3
	c0.7-0.4,1-1.1,1-1.9c0-0.7,0-1.6,0-2.3l0-0.9c0-0.4,0.1-0.7,0.4-0.9c0.7-0.6,1.4-1.3,2-2c0.2-0.3,0.6-0.4,0.9-0.4l0.9,0
	C43.3,38.6,44.2,38.7,44.9,38.7 M12.9,8.4L12.9,8.4L12.9,8.4L12.9,8.4z M5.7,21.3L5.9,21l-1-1c-0.3-0.3-0.4-0.8-0.3-1.2
	c0.1-0.4,0.3-0.9,0.5-1.5c0.2-0.5,0.4-1,0.7-1.5c0.2-0.4,0.6-0.6,1.1-0.6l1.5,0c0.5,0,0.9,0,1.2,0c0.9,0,1.8-0.4,2.4-1l0.1-0.1
	c0.6-0.7,1.2-1.3,1.9-1.9c0,0,0.1-0.1,0.1-0.1c0.6-0.7,0.9-1.5,0.9-2.3c0-0.2,0-0.7,0-1.3c0-0.4,0-0.9,0-1.4c0-0.4,0.2-0.9,0.6-1.1
	c0.4-0.2,0.8-0.4,1.4-0.7c0.5-0.2,1-0.4,1.5-0.5c0.4-0.1,0.9,0,1.2,0.3l1,1c0.4,0.4,0.7,0.8,0.9,0.9c0.5,0.6,1.2,0.9,2,1
	c0,0,0.1,0,0.1,0l0.1,0c1.1-0.1,2.2-0.1,3.2,0l0.1,0c0.1,0,0.1,0,0.2,0c0.7-0.1,1.4-0.4,1.9-1c0.2-0.2,0.5-0.5,0.9-0.9l0.9-1
	c0.3-0.3,0.8-0.4,1.2-0.3c0.5,0.1,1,0.3,1.5,0.5c0.6,0.3,1,0.4,1.5,0.7c0.4,0.2,0.6,0.6,0.6,1.1l0,1.4c0,0.6,0,1,0,1.3
	c0,0.6,0.2,1.3,0.5,1.8c0.1,0.1,0.2,0.2,0.3,0.3c0.9,0.8,1.8,1.6,2.6,2.6c0.1,0.1,0.2,0.2,0.3,0.3c0.5,0.3,1.1,0.5,1.8,0.5
	c0.2,0,0.7,0,1.3,0c0,0,0.4,0,0.8,0l0.6,0c0.4,0,0.8,0.2,1,0.6c0.2,0.4,0.4,0.8,0.7,1.5c0.2,0.5,0.4,1,0.5,1.5
	c0.1,0.4,0,0.9-0.3,1.2l-1.1,1.1c-0.4,0.3-0.6,0.6-0.8,0.8c-0.4,0.4-0.7,0.9-0.9,1.5c0,0.2-0.1,0.3,0,0.5c0.1,1.3,0.2,2.5,0,3.8
	c0,0.1,0,0.3,0,0.4c0.2,0.6,0.5,1.1,0.9,1.6c0.2,0.2,0.5,0.5,0.9,0.9c0.3,0.3,0.7,0.6,1,1c0.3,0.3,0.5,0.8,0.3,1.2
	c-0.1,0.5-0.3,1-0.5,1.5c-0.3,0.7-0.5,1-0.7,1.5c-0.2,0.4-0.6,0.6-1,0.6l-1.6,0c-0.5,0-0.8,0-1.1,0c-0.6,0-1.2,0.2-1.8,0.5l0,0
	c-0.1,0.1-0.2,0.2-0.3,0.3c-0.8,1-1.7,1.9-2.7,2.7c-0.1,0.1-0.2,0.2-0.3,0.4c-0.3,0.5-0.4,1-0.4,1.6c0,0.2,0,0.6,0,1.1l0.4,0
	l-0.4,0.1l0,1.4c0,0.5-0.2,0.9-0.6,1.1c-0.4,0.2-0.9,0.5-1.5,0.7c-0.7,0.3-1.1,0.4-1.5,0.5c-0.4,0.1-0.9,0-1.2-0.3
	c-0.3-0.3-0.7-0.7-1-1c-0.4-0.4-0.7-0.7-0.9-0.9c-0.4-0.4-1-0.8-1.6-0.9c-0.1,0-0.2,0-0.3,0l-0.1,0c-1.2,0.1-2.4,0.1-3.6,0l-0.1,0
	c-0.1,0-0.2,0-0.3,0c-0.6,0.2-1.2,0.5-1.7,0.9c-0.2,0.2-0.5,0.5-0.8,0.8l-1,1.1c-0.3,0.3-0.8,0.5-1.2,0.3c-0.4-0.1-0.9-0.3-1.5-0.5
	c-0.5-0.2-1-0.5-1.5-0.7c-0.4-0.2-0.6-0.6-0.6-1.1l0-1.4c0-0.5,0-1,0-1.3c0-0.7-0.2-1.4-0.7-2c-0.1-0.1-0.1-0.2-0.2-0.2
	c-0.8-0.7-1.6-1.5-2.3-2.3c-0.1-0.1-0.1-0.1-0.2-0.2c-0.6-0.5-1.3-0.7-2.1-0.7c-0.2,0-0.7,0-1.3,0c0,0-0.4,0-0.8,0l-0.6,0
	c-0.4,0-0.8-0.2-1-0.6c-0.3-0.5-0.5-0.9-0.7-1.5c-0.3-0.6-0.4-1.1-0.5-1.5c-0.1-0.4,0-0.9,0.3-1.2c0.3-0.3,0.7-0.7,1-1
	c0.4-0.4,0.7-0.7,0.9-0.9c0.6-0.6,1-1.4,1-2.3v-0.1c-0.1-0.9-0.1-1.8,0-2.8v-0.1c0-0.9-0.4-1.8-1-2.4c-0.2-0.2-0.4-0.4-0.8-0.8
	L5.7,21.3L5.7,21.3z"/>
<path class="st0" d="M36.1,30.1c1.2-2.9,1.2-6,0-8.9c-1.2-2.9-3.4-5.1-6.3-6.3c-1.4-0.6-2.9-0.9-4.4-0.9c-4.7,0-8.9,2.8-10.7,7.2
	c-1.2,2.9-1.2,6,0,8.9c1.2,2.9,3.4,5.1,6.3,6.3c1.4,0.6,2.9,0.9,4.4,0.9C30.1,37.2,34.3,34.4,36.1,30.1 M25.4,34.5
	c-1.2,0-2.3-0.2-3.4-0.7c-2.2-0.9-3.9-2.6-4.8-4.8c-0.9-2.2-0.9-4.6,0-6.8c1.4-3.3,4.6-5.5,8.2-5.5c1.2,0,2.3,0.2,3.4,0.7
	c2.2,0.9,3.9,2.6,4.8,4.8c0.9,2.2,0.9,4.6,0,6.8C32.2,32.4,29,34.5,25.4,34.5"/>
</svg>
