<?xml version="1.0" encoding="utf-8"?>
<!-- Generator: Adobe Illustrator 23.0.0, SVG Export Plug-In . SVG Version: 6.00 Build 0)  -->
<svg version="1.1" id="Capa_1" xmlns="http://www.w3.org/2000/svg" xmlns:xlink="http://www.w3.org/1999/xlink" x="0px" y="0px"
	 viewBox="0 0 111.3 124.7" style="enable-background:new 0 0 111.3 124.7;" xml:space="preserve">
<style type="text/css">
	.st0{fill:#5EA4CC;}
</style>
<g>
	<g>
		<path class="st0" d="M17,32.1v62.6c0,7.1,5.8,12.9,12.9,12.9h54.2c7.1,0,12.9-5.8,12.9-12.9V32.1c0-7.1-5.8-12.9-12.9-12.9h-1.6
			v-5.8c0-0.6-0.5-1-1-1s-1,0.5-1,1v5.8h-6.1v-5.8c0-0.6-0.5-1-1-1s-1,0.5-1,1v5.8h-6.1v-5.8c0-0.6-0.5-1-1-1s-1,0.5-1,1v5.8H58
			v-5.8c0-0.6-0.5-1-1-1s-1,0.5-1,1v5.8h-6.1v-5.8c0-0.6-0.5-1-1-1s-1,0.5-1,1v5.8h-6.1v-5.8c0-0.6-0.5-1-1-1s-1,0.5-1,1v5.8h-6.1
			v-5.8c0-0.6-0.5-1-1-1s-1,0.5-1,1v5.8h-1.6C22.8,19.2,17,25,17,32.1z M32.6,27.1c0.6,0,1-0.5,1-1v-4.7h6.1V26c0,0.6,0.5,1,1,1
			s1-0.5,1-1v-4.7h6.1V26c0,0.6,0.5,1,1,1s1-0.5,1-1v-4.7H56V26c0,0.6,0.5,1,1,1s1-0.5,1-1v-4.7h6.1V26c0,0.6,0.5,1,1,1s1-0.5,1-1
			v-4.7h6.1V26c0,0.6,0.5,1,1,1s1-0.5,1-1v-4.7h6.1V26c0,0.6,0.5,1,1,1s1-0.5,1-1v-4.7h1.6c6,0,10.8,4.9,10.8,10.8v62.6
			c0,5.9-4.8,10.8-10.8,10.8H29.9c-6,0-10.8-4.8-10.8-10.8V32.1c0-6,4.9-10.8,10.8-10.8h1.6v4.7C31.5,26.6,32,27.1,32.6,27.1z"/>
	</g>
</g>
<g>
	<path class="st0" d="M56.7,63.7c-3.6-1.8-7.8-3.6-7.8-8.3c0-4.7,3.1-8.1,7.8-8.4v-4.6h2V47c2.8,0.3,5.4,2.1,6.7,4.6l-1.6,1.3
		c-1.1-1.9-2.9-3.6-5.1-3.9v13.2c4.1,2.1,8.4,3.7,8.4,9.1c0,4.8-3.9,8.7-8.4,9.6v5h-2V81c-4.6-0.1-8.1-2.8-9.7-7.2l1.8-0.8
		c1.3,3.4,4.1,6.1,7.8,5.9V63.7z M56.7,49c-3.2,0-5.6,3.1-5.6,6.2c0,3.4,3.1,4.8,5.6,6.1V49z M58.6,78.8c3.5-0.9,6.3-4,6.3-7.7
		c0-3.6-3.5-5.2-6.3-6.5C58.6,64.6,58.6,78.8,58.6,78.8z"/>
</g>
<rect x="-381" y="-217.2" class="st0" width="285" height="477"/>
</svg>
