<?xml version="1.0" encoding="utf-8"?>
<!-- Generator: Adobe Illustrator 23.0.0, SVG Export Plug-In . SVG Version: 6.00 Build 0)  -->
<svg version="1.1" id="Capa_1" xmlns="http://www.w3.org/2000/svg" xmlns:xlink="http://www.w3.org/1999/xlink" x="0px" y="0px"
	 viewBox="0 0 247.2 192.3" style="enable-background:new 0 0 247.2 192.3;" xml:space="preserve">
<style type="text/css">
	.st0{fill:#808080;}
	.st1{font-family:'FuturaStd-Medium';}
	.st2{font-size:24px;}
	.st3{letter-spacing:3;}
	.st4{fill:#5EA4CC;}
</style>
<g>
	<text transform="matrix(1 0 0 1 3.8452 156.2246)" class="st0 st1 st2 st3">RADICACIÓN DE</text>
	<text transform="matrix(1 0 0 1 47.3252 185.0245)" class="st0 st1 st2 st3">SOLICITUD</text>
</g>
<g>
	<path class="st4" d="M171.7,23.3v55.3h3.3V19.4H79.8v59.2h3.3V23.3v-0.6h0.6h24.8h1.3l-0.9,1L97,35.6c-0.3,0.3-0.5,0.7-0.5,1.2
		s0.2,0.9,0.5,1.2c0.3,0.3,0.7,0.5,1.2,0.5s0.9-0.2,1.2-0.5l15.1-15l0.2-0.2h0.2h14.5h1.4l-0.9,1L96.7,56.6
		c-0.3,0.3-0.5,0.7-0.5,1.2c0,0.5,0.2,0.9,0.5,1.2c0.3,0.3,0.7,0.5,1.2,0.5s0.9-0.2,1.2-0.5l36.1-36.1l0.2-0.2h0.2h35.6h0.6
		L171.7,23.3L171.7,23.3z"/>
	<path class="st4" d="M176.3,9.3c4.8,0,8.8,3.9,8.8,8.8v60.5h3.3V18.1c0-6.7-5.4-12.1-12.1-12.1H78.5c-6.7,0-12.1,5.4-12.1,12.1
		v60.5h3.3V18.1c0-4.8,3.9-8.8,8.8-8.8C78.5,9.3,176.3,9.3,176.3,9.3z"/>
	<path class="st4" d="M195,87.3h-49.9c-0.8,0-1.5,0.2-2.1,0.6l-3.4,2.2l-0.1,0.1h-0.2h-23.8h-0.2l-0.1-0.1l-3.4-2.2
		c-0.6-0.4-1.4-0.6-2.1-0.6H59.9c-2.2,0-4.6,1.7-4.6,5.6c0,2.9,1.2,6.2,3.3,8.7c2,2.3,5.6,5.2,11.9,5.2h113.7c6.3,0,10-2.8,11.9-5.1
		c2.1-2.5,3.3-5.7,3.3-8.7C199.5,89,197.2,87.3,195,87.3z M193.6,99.3c-1.5,1.8-4.4,3.9-9.4,3.9H70.6c-5,0-7.8-2.2-9.4-3.9
		c-1.9-2.2-2.5-4.8-2.5-6.5c0-2.1,0.9-2.2,1.2-2.2h49.9h0.2l0.1,0.1l4.3,2.8h26.1l4.3-2.8l0.1-0.1h0.2H195c0.3,0,1.2,0.2,1.2,2.2
		C196.2,94.5,195.5,97.1,193.6,99.3z"/>
</g>
</svg>
