<?xml version="1.0" encoding="utf-8"?>
<!-- Generator: Adobe Illustrator 23.0.0, SVG Export Plug-In . SVG Version: 6.00 Build 0)  -->
<svg version="1.1" id="Capa_1" xmlns="http://www.w3.org/2000/svg" xmlns:xlink="http://www.w3.org/1999/xlink" x="0px" y="0px"
	 viewBox="0 0 130 87" style="enable-background:new 0 0 130 87;" xml:space="preserve">
<style type="text/css">
	.st0{fill:#5EA4CC;}
</style>
<g>
	<path class="st0" d="M114.9,2.2H92.2H76.7H33H11.5h0c-4.8,0-8.6,3.3-8.7,7.3c0,0.1,0,0.1,0,0.1V59v18.6c0,4.1,3.9,7.5,8.8,7.5h22.7
		h21.4h37.9h21.5h0c4.8,0,8.7-3.3,8.7-7.3c0-0.1,0-0.1,0-0.2V28.3V9.6C123.7,5.5,119.8,2.2,114.9,2.2 M93.4,82.6H55.5h-20h-5H11.5
		c-3.2,0-5.9-2.2-5.9-5V61.9V9.6c0-2.8,2.6-5,5.9-5H33h43.8h14.1h5h19.1c3.2,0,5.9,2.2,5.9,5v15.7v52.3c0,2.8-2.6,5-5.9,5L93.4,82.6
		L93.4,82.6z"/>
</g>
<g>
	<path class="st0" d="M114.3,29.5H67.9v2.9h43.8C112.5,31.4,113.4,30.4,114.3,29.5"/>
</g>
<g>
	<path class="st0" d="M107.1,40H67.9v2.9h38.2C106.4,41.9,106.7,40.9,107.1,40"/>
</g>
<g>
	<path class="st0" d="M67.9,53.4h37.3c-0.1-0.9-0.2-1.9-0.2-2.9H67.9V53.4z"/>
</g>
<g>
	<path class="st0" d="M67.9,61v2.9h40.6c-0.5-0.9-1-1.9-1.4-2.9H67.9z"/>
</g>
<g>
	<path class="st0" d="M56,74.2H19.7c-2.6,0-4.6-2.1-4.6-4.6V20.8c0-2.6,2.1-4.6,4.6-4.6H56c2.6,0,4.6,2.1,4.6,4.6v48.7
		C60.6,72.1,58.5,74.2,56,74.2z M19.7,18.2c-1.5,0-2.6,1.2-2.6,2.6v48.7c0,1.4,1.2,2.6,2.6,2.6H56c1.5,0,2.6-1.2,2.6-2.6V20.8
		c0-1.5-1.2-2.6-2.6-2.6L19.7,18.2L19.7,18.2z"/>
</g>
</svg>
