<?xml version="1.0" encoding="utf-8"?>
<!-- Generator: Adobe Illustrator 23.0.0, SVG Export Plug-In . SVG Version: 6.00 Build 0)  -->
<svg version="1.1" id="Capa_1" xmlns="http://www.w3.org/2000/svg" xmlns:xlink="http://www.w3.org/1999/xlink" x="0px" y="0px"
	 viewBox="0 0 247.2 192.3" style="enable-background:new 0 0 247.2 192.3;" xml:space="preserve">
<style type="text/css">
	.st0{fill:#808080;}
	.st1{font-family:'FuturaStd-Medium';}
	.st2{font-size:24px;}
	.st3{letter-spacing:3;}
	.st4{fill:#5EA4CC;}
</style>
<g>
	<text transform="matrix(1 0 0 1 44.0044 157.2246)" class="st0 st1 st2 st3">REGISTRAR</text>
	<text transform="matrix(1 0 0 1 8.7944 186.0245)" class="st0 st1 st2 st3">AUTORIZACIÓN</text>
</g>
<g>
	<g>
		<path class="st4" d="M148.4,32.4c-15.1,0-27.4,12.3-27.4,27.4c0,15.1,12.3,27.4,27.4,27.4s27.4-12.3,27.4-27.4
			C175.9,44.7,163.6,32.4,148.4,32.4z M173.3,59.8c0,13.7-11.1,24.8-24.8,24.8s-24.8-11.1-24.8-24.8S134.7,35,148.4,35
			S173.3,46.1,173.3,59.8z"/>
	</g>
	<g>
		<path class="st4" d="M161.9,48c-0.4,0-0.7,0.2-0.9,0.4l-15.9,17.9l-9.5-7.6c-0.3-0.2-0.6-0.3-0.9-0.3c-0.4,0-0.7,0.2-0.9,0.5
			c-0.4,0.6-0.4,1.4,0.2,1.8l10.4,8.4c0.2,0.2,0.5,0.3,0.8,0.3c0.4,0,0.7-0.2,1-0.4L163,50.2c0.2-0.3,0.4-0.6,0.3-0.9
			s-0.2-0.7-0.4-0.9C162.6,48.1,162.3,48,161.9,48z"/>
	</g>
	<g>
		<path class="st4" d="M152.5,99.5c0,2.8-2.2,5-5,5h-68c-2.8,0-5-2.2-5-5V32h23.6c0.7,0,1.3-0.5,1.3-1.2V6.5h48.2c2.8,0,5,2.2,5,5
			v18.3h2.5V11.5c0-4.1-3.4-7.5-7.5-7.5H98.1c-0.3,0-0.6,0.1-0.9,0.4L72.4,29.9c0,0,0,0.1-0.1,0.1s-0.1,0.1-0.1,0.2c0,0,0,0.1,0,0.2
			S72,30.7,72,30.7v68.7c0,4.1,3.3,7.4,7.5,7.4h68c4.1,0,7.5-3.3,7.5-7.5v-8.7h-2.5L152.5,99.5L152.5,99.5z M96.9,8.3v21.2H76.2
			l10.3-10.6L96.9,8.3z"/>
	</g>
	<g>
		<path class="st4" d="M125.2,38.3H83.5v2.9h39.3C123.6,40.2,124.4,39.2,125.2,38.3z"/>
	</g>
	<g>
		<path class="st4" d="M118.7,48.8H83.5v2.9h34.3C118.1,50.7,118.4,49.8,118.7,48.8z"/>
	</g>
	<g>
		<path class="st4" d="M83.5,62.2H117c-0.1-0.9-0.1-1.9-0.1-2.9H83.5V62.2z"/>
	</g>
	<g>
		<path class="st4" d="M83.5,69.8v2.9h36.5c-0.4-0.9-0.9-1.9-1.2-2.9H83.5z"/>
	</g>
	<g>
		<path class="st4" d="M83.5,80.3v2.9h44.9c-1.1-0.9-2.1-1.8-3.1-2.9H83.5z"/>
	</g>
	<g>
		<rect x="83.5" y="90.8" class="st4" width="61" height="2.9"/>
	</g>
</g>
</svg>
