<?xml version="1.0" encoding="utf-8"?>
<!-- Generator: Adobe Illustrator 23.0.0, SVG Export Plug-In . SVG Version: 6.00 Build 0)  -->
<svg version="1.1" id="Capa_1" xmlns="http://www.w3.org/2000/svg" xmlns:xlink="http://www.w3.org/1999/xlink" x="0px" y="0px"
	 viewBox="0 0 111.3 124.7" style="enable-background:new 0 0 111.3 124.7;" xml:space="preserve">
<style type="text/css">
	.st0{fill:#5EA4CC;}
</style>
<g>
	<path class="st0" d="M15,32.1v62.6c0,7.1,5.8,12.9,12.9,12.9h54.2c7.1,0,12.9-5.8,12.9-12.9V32.1c0-7.1-5.8-12.9-12.9-12.9h-1.6
		v-5.8c0-0.6-0.5-1-1-1s-1,0.5-1,1v5.8h-6.1v-5.8c0-0.6-0.5-1-1-1s-1,0.5-1,1v5.8h-6.1v-5.8c0-0.6-0.5-1-1-1s-1,0.5-1,1v5.8H56v-5.8
		c0-0.6-0.5-1-1-1s-1,0.5-1,1v5.8h-6.1v-5.8c0-0.6-0.5-1-1-1s-1,0.5-1,1v5.8h-6.1v-5.8c0-0.6-0.5-1-1-1s-1,0.5-1,1v5.8h-6.1v-5.8
		c0-0.6-0.5-1-1-1s-1,0.5-1,1v5.8h-1.6C20.8,19.2,15,25,15,32.1z M30.6,27.1c0.6,0,1-0.5,1-1v-4.7h6.1V26c0,0.6,0.5,1,1,1s1-0.5,1-1
		v-4.7h6.1V26c0,0.6,0.5,1,1,1s1-0.5,1-1v-4.7H54V26c0,0.6,0.5,1,1,1s1-0.5,1-1v-4.7h6.1V26c0,0.6,0.5,1,1,1s1-0.5,1-1v-4.7h6.1V26
		c0,0.6,0.5,1,1,1s1-0.5,1-1v-4.7h6.1V26c0,0.6,0.5,1,1,1s1-0.5,1-1v-4.7h1.6c6,0,10.8,4.9,10.8,10.8v62.6c0,5.9-4.8,10.8-10.8,10.8
		H27.9c-6,0-10.8-4.8-10.8-10.8V32.1c0-6,4.9-10.8,10.8-10.8h1.6v4.7C29.5,26.6,30,27.1,30.6,27.1z"/>
</g>
<g>
	<g>
		<g>
			<path class="st0" d="M34.5,71.4c-0.1,0-0.3,0-0.4-0.1c-0.4-0.2-0.5-0.7-0.3-1l3.2-5.6c0.1-0.2,0.3-0.3,0.6-0.4
				c0.2,0,0.5,0.1,0.6,0.2l4.3,4.7c0.3,0.3,0.3,0.8,0,1.1c-0.3,0.3-0.8,0.3-1.1-0.1l-3.6-4L35.1,71C35,71.3,34.8,71.4,34.5,71.4z"/>
		</g>
	</g>
	<g>
		<g>
			<path class="st0" d="M56.3,85.2c-6.2,0-12.3-3-16-8.6c-2.4-3.6-3.6-7.8-3.4-11.6c0-0.4,0.4-0.7,0.8-0.7c0.4,0,0.7,0.4,0.7,0.8
				c-0.2,3.5,0.9,7.3,3.2,10.7C47,83.9,57.9,86.1,66,80.8c3.9-2.6,6.6-6.6,7.5-11.2c0.9-4.6,0-9.3-2.6-13.2s-6.6-6.6-11.2-7.5
				s-9.3,0-13.2,2.6c-2.8,1.9-5,4.5-6.4,7.6c-0.2,0.4-0.6,0.5-1,0.4c-0.4-0.2-0.5-0.6-0.4-1c1.5-3.4,3.9-6.2,6.9-8.2
				c8.8-5.8,20.7-3.4,26.5,5.4C75,59.8,76,64.9,75,69.9c-1,5-3.9,9.3-8.2,12.1C63.6,84.2,59.9,85.2,56.3,85.2z"/>
		</g>
	</g>
</g>
</svg>
