<?xml version="1.0" encoding="utf-8"?>
<!-- Generator: Adobe Illustrator 23.0.0, SVG Export Plug-In . SVG Version: 6.00 Build 0)  -->
<svg version="1.1" id="Capa_1" xmlns="http://www.w3.org/2000/svg" xmlns:xlink="http://www.w3.org/1999/xlink" x="0px" y="0px"
	 viewBox="0 0 111 106" style="enable-background:new 0 0 111 106;" xml:space="preserve">
<style type="text/css">
	.st0{fill:#5EA4CC;}
</style>
<path class="st0" d="M101.8,3H21.2c-2.6,0-4.7,2.1-4.7,4.7v90.6c0,2.6,2.1,4.7,4.7,4.7h80.6c2.6,0,4.7-2.1,4.7-4.7V7.7
	C106.5,5.1,104.4,3,101.8,3 M19.8,7.7c0-0.8,0.6-1.4,1.4-1.4h80.6c0.8,0,1.4,0.6,1.4,1.4v90.6c0,0.8-0.6,1.4-1.4,1.4H21.2
	c-0.8,0-1.4-0.6-1.4-1.4V7.7z"/>
<path class="st0" d="M25,24H10c-1.1,0-2-0.9-2-2s0.9-2,2-2h15c1.1,0,2,0.9,2,2S26.1,24,25,24"/>
<path class="st0" d="M25,35H10c-1.1,0-2-0.9-2-2c0-1.1,0.9-2,2-2h15c1.1,0,2,0.9,2,2C27,34.1,26.1,35,25,35"/>
<path class="st0" d="M25,46H10c-1.1,0-2-0.9-2-2s0.9-2,2-2h15c1.1,0,2,0.9,2,2S26.1,46,25,46"/>
<path class="st0" d="M25,65H10c-1.1,0-2-0.9-2-2s0.9-2,2-2h15c1.1,0,2,0.9,2,2S26.1,65,25,65"/>
<path class="st0" d="M25,76H10c-1.1,0-2-0.9-2-2s0.9-2,2-2h15c1.1,0,2,0.9,2,2S26.1,76,25,76"/>
<path class="st0" d="M25,87H10c-1.1,0-2-0.9-2-2s0.9-2,2-2h15c1.1,0,2,0.9,2,2S26.1,87,25,87"/>
</svg>
