<?xml version="1.0" encoding="utf-8"?>
<!-- Generator: Adobe Illustrator 23.0.0, SVG Export Plug-In . SVG Version: 6.00 Build 0)  -->
<svg version="1.1" id="Capa_1" xmlns="http://www.w3.org/2000/svg" xmlns:xlink="http://www.w3.org/1999/xlink" x="0px" y="0px"
	 viewBox="0 0 111.3 124.7" style="enable-background:new 0 0 111.3 124.7;" xml:space="preserve">
<style type="text/css">
	.st0{fill:#5EA4CC;}
</style>
<g>
	<g>
		<path class="st0" d="M17,32.1v62.6c0,7.1,5.8,12.9,12.9,12.9h54.2c7.1,0,12.9-5.8,12.9-12.9V32.1c0-7.1-5.8-12.9-12.9-12.9h-1.6
			v-5.8c0-0.6-0.5-1-1-1s-1,0.5-1,1v5.8h-6.1v-5.8c0-0.6-0.5-1-1-1s-1,0.5-1,1v5.8h-6.1v-5.8c0-0.6-0.5-1-1-1s-1,0.5-1,1v5.8H58
			v-5.8c0-0.6-0.5-1-1-1s-1,0.5-1,1v5.8h-6.1v-5.8c0-0.6-0.5-1-1-1s-1,0.5-1,1v5.8h-6.1v-5.8c0-0.6-0.5-1-1-1s-1,0.5-1,1v5.8h-6.1
			v-5.8c0-0.6-0.5-1-1-1s-1,0.5-1,1v5.8h-1.6C22.8,19.2,17,25,17,32.1z M32.6,27.1c0.6,0,1-0.5,1-1v-4.7h6.1V26c0,0.6,0.5,1,1,1
			s1-0.5,1-1v-4.7h6.1V26c0,0.6,0.5,1,1,1s1-0.5,1-1v-4.7H56V26c0,0.6,0.5,1,1,1s1-0.5,1-1v-4.7h6.1V26c0,0.6,0.5,1,1,1s1-0.5,1-1
			v-4.7h6.1V26c0,0.6,0.5,1,1,1s1-0.5,1-1v-4.7h6.1V26c0,0.6,0.5,1,1,1s1-0.5,1-1v-4.7h1.6c6,0,10.8,4.9,10.8,10.8v62.6
			c0,5.9-4.8,10.8-10.8,10.8H29.9c-6,0-10.8-4.8-10.8-10.8V32.1c0-6,4.9-10.8,10.8-10.8h1.6v4.7C31.5,26.6,32,27.1,32.6,27.1z"/>
	</g>
</g>
<path class="st0" d="M60.8,91.7h-7.1c-1.3,0-2.4-1.1-2.4-2.4V64.8c0-1.3,1.1-2.4,2.4-2.4h7.1c1.3,0,2.4,1.1,2.4,2.4v24.5
	C63.2,90.6,62.1,91.7,60.8,91.7z M53.7,63.7c-0.6,0-1.1,0.5-1.1,1.1v24.5c0,0.6,0.5,1.1,1.1,1.1h7.1c0.6,0,1.1-0.5,1.1-1.1V64.8
	c0-0.6-0.5-1.1-1.1-1.1C60.8,63.7,53.7,63.7,53.7,63.7z"/>
<path class="st0" d="M76.8,91.7h-7.1c-1.3,0-2.4-1.1-2.4-2.4V54.7c0-1.3,1.1-2.4,2.4-2.4h7.1c1.3,0,2.4,1.1,2.4,2.4v34.6
	C79.2,90.6,78.1,91.7,76.8,91.7z M69.7,53.7c-0.6,0-1.1,0.5-1.1,1.1v34.6c0,0.6,0.5,1.1,1.1,1.1h7.1c0.6,0,1.1-0.5,1.1-1.1V54.7
	c0-0.6-0.5-1.1-1.1-1.1H69.7z"/>
<path class="st0" d="M44.8,91.7h-7.1c-1.3,0-2.4-1.1-2.4-2.4V73.3c0-1.3,1.1-2.4,2.4-2.4h7.1c1.3,0,2.4,1.1,2.4,2.4v15.9
	C47.2,90.6,46.1,91.7,44.8,91.7z M37.7,72.3c-0.6,0-1.1,0.5-1.1,1.1v15.9c0,0.6,0.5,1.1,1.1,1.1h7.1c0.6,0,1.1-0.5,1.1-1.1V73.3
	c0-0.6-0.5-1.1-1.1-1.1H37.7z"/>
<path class="st0" d="M75,51"/>
<path class="st0" d="M77.5,40.7c-0.1-0.2-0.2-0.3-0.4-0.3l-5.5-1.7c-0.2-0.1-0.4,0-0.5,0c-0.2,0.1-0.3,0.2-0.3,0.4
	c-0.1,0.4,0.1,0.8,0.5,0.9l3.9,1.2L36,62c-0.2,0.1-0.3,0.2-0.3,0.4c-0.1,0.2,0,0.4,0,0.5c0.1,0.2,0.4,0.4,0.6,0.4
	c0.1,0,0.2,0,0.3-0.1l39.1-20.8l-1.2,3.9c-0.1,0.4,0.1,0.8,0.5,0.9c0.2,0.1,0.4,0,0.6,0c0.2-0.1,0.3-0.2,0.3-0.4l1.7-5.5
	C77.6,41.1,77.6,40.9,77.5,40.7z"/>
</svg>
