<?xml version="1.0" encoding="utf-8"?>
<!-- Generator: Adobe Illustrator 23.0.0, SVG Export Plug-In . SVG Version: 6.00 Build 0)  -->
<svg version="1.1" id="Capa_1" xmlns="http://www.w3.org/2000/svg" xmlns:xlink="http://www.w3.org/1999/xlink" x="0px" y="0px"
	 viewBox="0 0 117.4 109.5" style="enable-background:new 0 0 117.4 109.5;" xml:space="preserve">
<style type="text/css">
	.st0{fill:#5EA4CC;}
</style>
<path class="st0" d="M67.9,53"/>
<g>
	<g>
		<path class="st0" d="M100.5,99.5c0,2.8-2.2,5-5,5h-68c-2.8,0-5-2.2-5-5V32h23.6c0.7,0,1.3-0.5,1.3-1.2V6.5h48.1c2.8,0,5,2.2,5,5
			V94h2.5V11.5c0-4.1-3.3-7.5-7.5-7.5H46.1c-0.3,0-0.6,0.1-0.9,0.4L20.4,29.9c0,0,0,0.1-0.1,0.1s-0.1,0.1-0.1,0.2c0,0,0,0.1,0,0.2
			s0,0.2,0,0.3v68.7c0,4.1,3.4,7.4,7.5,7.4h68c4.1,0,7.5-3.3,7.5-7.5V84.8h-2.5C100.5,84.8,100.5,99.5,100.5,99.5z M44.9,8.3v21.2
			H24.2l10.3-10.6L44.9,8.3z"/>
	</g>
	<g>
		<path class="st0" d="M92.5,38.3h-61v2.9h61C93.3,40.2,91.7,39.2,92.5,38.3z"/>
	</g>
	<g>
		<path class="st0" d="M92.5,48.8h-61v2.9h61C92.8,50.7,92.2,49.8,92.5,48.8z"/>
	</g>
</g>
<g>
	<path class="st0" d="M61.6,91v-3.8c-2.2,0-4.5-0.7-5.8-1.7l0.9-2.6c1.4,0.9,3.3,1.6,5.5,1.6c2.7,0,4.5-1.6,4.5-3.7
		c0-2.1-1.5-3.4-4.3-4.5c-3.9-1.5-6.3-3.3-6.3-6.6c0-3.2,2.2-5.6,5.7-6.1v-3.8h2.4v3.7c2.3,0.1,3.8,0.7,4.9,1.3l-0.9,2.5
		c-0.8-0.5-2.4-1.3-4.8-1.3c-2.9,0-4,1.8-4,3.3c0,2,1.4,3,4.7,4.3c3.9,1.6,5.9,3.6,5.9,7c0,3-2.1,5.8-6,6.5v4H61.6z"/>
</g>
</svg>
