<?xml version="1.0" encoding="utf-8"?>
<!-- Generator: Adobe Illustrator 23.0.0, SVG Export Plug-In . SVG Version: 6.00 Build 0)  -->
<svg version="1.1" id="Capa_1" xmlns="http://www.w3.org/2000/svg" xmlns:xlink="http://www.w3.org/1999/xlink" x="0px" y="0px"
	 viewBox="0 0 93.4 77.1" style="enable-background:new 0 0 93.4 77.1;" xml:space="preserve">
<style type="text/css">
	.st0{fill:#5EA4CC;}
</style>
<g>
	<g>
		<path class="st0" d="M23.8,72.6c-6.9,0-12.5-5.6-12.5-12.5V5.6H4c-0.5,0-1-0.4-1-1s0.5-1,1-1h8.3c0.6,0,1,0.4,1,1v55.5
			c0,5.8,4.7,10.5,10.5,10.5s10.5-4.7,10.5-10.4V4.6c0-0.6,0.5-1,1-1h8.8c0.5,0,1,0.4,1,1s-0.5,1-1,1h-7.8v54.5
			C36.3,67,30.7,72.6,23.8,72.6z"/>
	</g>
	<g>
		<path class="st0" d="M22.4,12.6h-10c-0.6,0-1-0.4-1-1s0.4-1,1-1h10c0.5,0,1,0.4,1,1S23,12.6,22.4,12.6z"/>
	</g>
	<g>
		<path class="st0" d="M22.4,22.7h-10c-0.6,0-1-0.5-1-1s0.4-1,1-1h10c0.5,0,1,0.5,1,1S23,22.7,22.4,22.7z"/>
	</g>
	<g>
		<path class="st0" d="M22.4,32.8h-10c-0.6,0-1-0.5-1-1s0.4-1,1-1h10c0.5,0,1,0.5,1,1S23,32.8,22.4,32.8z"/>
	</g>
	<g>
		<path class="st0" d="M22.4,43h-10c-0.6,0-1-0.5-1-1s0.4-1,1-1h10c0.5,0,1,0.5,1,1S23,43,22.4,43z"/>
	</g>
	<g>
		<path class="st0" d="M68.1,72.6c-6.9,0-12.5-5.6-12.5-12.5V5.6h-7.3c-0.5,0-1-0.4-1-1s0.5-1,1-1h8.3c0.5,0,1,0.4,1,1v55.5
			c0,5.8,4.7,10.5,10.5,10.5s10.5-4.7,10.5-10.5V4.6c0-0.6,0.4-1,1-1h8.8c0.6,0,1,0.4,1,1s-0.4,1-1,1h-7.8v54.5
			C80.5,67,74.9,72.6,68.1,72.6z"/>
	</g>
	<g>
		<path class="st0" d="M66.7,12.6H56.6c-0.5,0-1-0.4-1-1s0.5-1,1-1h10c0.6,0,1,0.4,1,1S67.2,12.6,66.7,12.6z"/>
	</g>
	<g>
		<path class="st0" d="M66.7,22.7H56.6c-0.5,0-1-0.5-1-1s0.5-1,1-1h10c0.6,0,1,0.5,1,1S67.2,22.7,66.7,22.7z"/>
	</g>
	<g>
		<path class="st0" d="M66.7,32.8H56.6c-0.5,0-1-0.5-1-1s0.5-1,1-1h10c0.6,0,1,0.5,1,1S67.2,32.8,66.7,32.8z"/>
	</g>
	<g>
		<path class="st0" d="M66.7,43H56.6c-0.5,0-1-0.5-1-1s0.5-1,1-1h10c0.6,0,1,0.5,1,1S67.2,43,66.7,43z"/>
	</g>
	<path class="st0" d="M75.8,45v14.2c0,4.5-3.4,8.1-7.7,8.1l0,0c-4.2,0-7.7-3.6-7.7-8.1V45H75.8z"/>
</g>
</svg>
