<?xml version="1.0" encoding="utf-8"?>
<!-- Generator: Adobe Illustrator 23.0.0, SVG Export Plug-In . SVG Version: 6.00 Build 0)  -->
<svg version="1.1" id="Capa_1" xmlns="http://www.w3.org/2000/svg" xmlns:xlink="http://www.w3.org/1999/xlink" x="0px" y="0px"
	 viewBox="0 0 41.9 40.2" style="enable-background:new 0 0 41.9 40.2;" xml:space="preserve">
<style type="text/css">
	.st0{fill:#E5E5DC;}
	.st1{fill:#D4D3C6;}
	.st2{fill:#98A0A0;}
	.st3{fill:#FFFFFF;}
	.st4{fill:#BEB9B4;}
</style>
<g>
	<path class="st0" d="M26.6,2.5H8.3c-0.5,0-0.9,0.4-0.9,1.2v33.4c0,0.2,0.4,0.6,0.9,0.6h25.2c0.5,0,0.9-0.4,0.9-0.6V10.7
		c0-0.4-0.1-0.6-0.2-0.7L27,2.7C26.9,2.6,26.7,2.5,26.6,2.5L26.6,2.5z"/>
	<path class="st1" d="M26.9,2.6v7.4h7.4L26.9,2.6z"/>
	<path class="st2" d="M33.5,37.7H8.3c-0.5,0-0.9-0.4-0.9-0.9V27h27v9.8C34.4,37.3,34,37.7,33.5,37.7L33.5,37.7z"/>
	<path class="st3" d="M17.1,29.5v0.7h-1.9v5.6h-1v-5.6h-1.9v-0.7H17.1z"/>
	<path class="st3" d="M21.2,32.7l1.6,3.1h-1.2l-1-2.4h-0.1l-1.1,2.4h-1.2l1.6-3.1l-1.7-3.3h1.2l1.1,2.6h0.1l1.2-2.6h1.2L21.2,32.7z"
		/>
	<path class="st3" d="M28.8,29.5v0.7h-1.9v5.6h-1v-5.6H24v-0.7H28.8z"/>
	<path class="st4" d="M15,10.7h-3.8c-0.4,0-0.6-0.3-0.6-0.6c0-0.4,0.3-0.6,0.6-0.6H15c0.4,0,0.6,0.3,0.6,0.6
		C15.6,10.4,15.3,10.7,15,10.7L15,10.7z"/>
	<path class="st4" d="M16.8,13.8h-5.7c-0.4,0-0.6-0.3-0.6-0.6c0-0.4,0.3-0.6,0.6-0.6h5.7c0.4,0,0.6,0.3,0.6,0.6S17.2,13.8,16.8,13.8
		L16.8,13.8z"/>
	<path class="st4" d="M19.4,13.8c-0.2,0-0.3-0.1-0.4-0.2c-0.1-0.1-0.2-0.3-0.2-0.4c0-0.2,0.1-0.3,0.2-0.5c0.2-0.2,0.6-0.2,0.9,0
		c0.1,0.1,0.2,0.3,0.2,0.5c0,0.2-0.1,0.3-0.2,0.4C19.7,13.8,19.5,13.8,19.4,13.8L19.4,13.8z"/>
	<path class="st4" d="M26.9,13.8h-5c-0.4,0-0.6-0.3-0.6-0.6c0-0.4,0.3-0.6,0.6-0.6h5c0.4,0,0.6,0.3,0.6,0.6S27.3,13.8,26.9,13.8
		L26.9,13.8z"/>
	<path class="st4" d="M11.2,23.2c-0.2,0-0.3-0.1-0.4-0.2c-0.1-0.1-0.2-0.3-0.2-0.4c0-0.2,0.1-0.3,0.2-0.5c0.2-0.2,0.7-0.2,0.9,0
		c0.1,0.1,0.2,0.3,0.2,0.4s-0.1,0.3-0.2,0.4C11.5,23.2,11.4,23.2,11.2,23.2L11.2,23.2z"/>
	<path class="st4" d="M18.7,23.2h-5c-0.4,0-0.6-0.3-0.6-0.6c0-0.4,0.3-0.6,0.6-0.6h5c0.4,0,0.6,0.3,0.6,0.6S19.1,23.2,18.7,23.2
		L18.7,23.2z"/>
	<path class="st4" d="M30.7,13.8h-1.3c-0.4,0-0.6-0.3-0.6-0.6c0-0.4,0.3-0.6,0.6-0.6h1.3c0.4,0,0.6,0.3,0.6,0.6S31,13.8,30.7,13.8
		L30.7,13.8z"/>
	<path class="st4" d="M25,17H11.2c-0.4,0-0.6-0.3-0.6-0.6c0-0.4,0.3-0.6,0.6-0.6H25c0.4,0,0.6,0.3,0.6,0.6C25.6,16.7,25.4,17,25,17
		L25,17z"/>
	<path class="st4" d="M30.7,17h-3.8c-0.4,0-0.6-0.3-0.6-0.6c0-0.4,0.3-0.6,0.6-0.6h3.8c0.4,0,0.6,0.3,0.6,0.6
		C31.3,16.7,31,17,30.7,17L30.7,17z"/>
	<path class="st4" d="M13.7,20.1h-2.5c-0.4,0-0.6-0.3-0.6-0.6c0-0.4,0.3-0.6,0.6-0.6h2.5c0.4,0,0.6,0.3,0.6,0.6
		C14.3,19.8,14.1,20.1,13.7,20.1L13.7,20.1z"/>
	<path class="st4" d="M22.5,20.1h-6.3c-0.4,0-0.6-0.3-0.6-0.6c0-0.4,0.3-0.6,0.6-0.6h6.3c0.4,0,0.6,0.3,0.6,0.6
		C23.1,19.8,22.9,20.1,22.5,20.1L22.5,20.1z"/>
	<path class="st4" d="M30.7,20.1H25c-0.4,0-0.6-0.3-0.6-0.6c0-0.4,0.3-0.6,0.6-0.6h5.7c0.4,0,0.6,0.3,0.6,0.6
		C31.3,19.8,31,20.1,30.7,20.1L30.7,20.1z"/>
</g>
</svg>
