<?xml version="1.0" encoding="utf-8"?>
<!-- Generator: Adobe Illustrator 23.0.0, SVG Export Plug-In . SVG Version: 6.00 Build 0)  -->
<svg version="1.1" id="Capa_1" xmlns="http://www.w3.org/2000/svg" xmlns:xlink="http://www.w3.org/1999/xlink" x="0px" y="0px"
	 viewBox="0 0 113 115" style="enable-background:new 0 0 113 115;" xml:space="preserve">
<style type="text/css">
	.st0{fill:#5EA4CC;}
</style>
<g>
	<g>
		<path class="st0" d="M56.8,4.1C28,4.1,4.6,27.5,4.6,56.3s23.4,52.2,52.2,52.2S109,85.1,109,56.3S85.6,4.1,56.8,4.1L56.8,4.1z
			 M56.8,104.5c-26.6,0-48.2-21.6-48.2-48.2S30.2,8.1,56.8,8.1S105,29.7,105,56.3C105,82.9,83.4,104.5,56.8,104.5L56.8,104.5z"/>
	</g>
	<g>
		<path class="st0" d="M81.4,34.9L50.5,69.6L32,54.7c-0.9-0.7-2.1-0.5-2.8,0.3c-0.7,0.9-0.5,2.1,0.3,2.8l20.1,16.1
			c0.4,0.3,0.8,0.4,1.3,0.4c0.6,0,1.1-0.2,1.5-0.7l32.1-36.1c0.8-0.8,0.7-2.1-0.2-2.8C83.4,34,82.1,34.1,81.4,34.9L81.4,34.9z"/>
	</g>
</g>
</svg>
