<?xml version="1.0" encoding="utf-8"?>
<!-- Generator: Adobe Illustrator 23.0.0, SVG Export Plug-In . SVG Version: 6.00 Build 0)  -->
<svg version="1.1" id="Capa_1" xmlns="http://www.w3.org/2000/svg" xmlns:xlink="http://www.w3.org/1999/xlink" x="0px" y="0px"
	 viewBox="0 0 111.3 124.7" style="enable-background:new 0 0 111.3 124.7;" xml:space="preserve">
<style type="text/css">
	.st0{fill:#5EA4CC;}
</style>
<g>
	<path class="st0" d="M93.1,31.9H49.3l-0.1-0.1l-8.7-12.2H7.6c-2.5,0-4.5,2-4.5,4.5v76.6l0,0l0,0.3c0,0.9,0.3,1.8,0.9,2.6
		c0.8,1,2,1.6,3.3,1.6h78.8c1.9,0,3.5-1.2,4-2.9l18-49.4v-0.3c0-2.8-1.7-4.9-4.1-4.9h-6.5V36.3C97.6,33.9,95.6,31.9,93.1,31.9z
		 M6,24c0-0.9,0.7-1.6,1.6-1.6h31.4l0.1,0.1l8.7,12.2h45.2c0.9,0,1.6,0.7,1.6,1.6v11.4H25.3c-0.2,0-0.5,0-0.7,0.1
		c-1.6,0.3-2.9,1.4-3.3,2.9L6,92.3V24z M104.1,50.5c0.4,0,1.1,0.2,1.2,1.8l0,0.1l0,0.1l-17.8,48.9c-0.2,0.6-0.7,1-1.3,1H7.3
		c-0.6,0-1-0.4-1.1-0.5c-0.1-0.2-0.4-0.6-0.3-1l18-49.3c0.2-0.6,0.7-1,1.3-1L104.1,50.5L104.1,50.5z"/>
</g>
</svg>
